<svg width="26" height="15" viewBox="0 0 26 15" fill="none" xmlns="http://www.w3.org/2000/svg">
<path d="M13.907 0H1.63611C1.20207 0 0.785895 0.172376 0.479147 0.479147C0.172399 0.785918 0 1.20207 0 1.63611V9.08837C0 9.52241 0.172376 9.93858 0.479147 10.2453C0.785918 10.5521 1.20207 10.7245 1.63611 10.7245H3.54485L2.50582 13.146C2.40813 13.3737 2.47606 13.6388 2.67144 13.7913C2.86683 13.9438 3.14054 13.9452 3.33757 13.795L7.37601 10.7245H13.9069C14.3408 10.7245 14.7569 10.5521 15.0637 10.2453C15.3706 9.93857 15.543 9.52241 15.543 9.08837V1.63612C15.543 1.20207 15.3706 0.7859 15.0637 0.479153C14.7569 0.172382 14.3408 5.88463e-06 13.9069 5.88463e-06L13.907 0Z" fill="url(#paint0_linear_2638_3931)"/>
<path d="M25.0868 3.81765V11.2704C25.0868 11.7042 24.9144 12.1204 24.6076 12.4273C24.3008 12.7341 23.8847 12.9065 23.4507 12.9065H21.4301L21.7983 14.3163C21.8551 14.5327 21.7738 14.7621 21.5932 14.8945C21.4126 15.0268 21.1696 15.0354 20.9802 14.9162L17.7352 12.9065H11.18C10.842 12.9061 10.5124 12.8011 10.2365 12.6057C9.96058 12.4103 9.75206 12.1344 9.6394 11.8158H13.907C14.6301 11.8158 15.3238 11.5284 15.8351 11.0171C16.3465 10.5057 16.6338 9.81214 16.6338 9.08884V2.18164H23.4508C23.8848 2.18164 24.301 2.35402 24.6077 2.66097C24.9145 2.96775 25.0869 3.3839 25.0869 3.81775L25.0868 3.81765Z" fill="url(#paint1_linear_2638_3931)"/>
<defs>
<linearGradient id="paint0_linear_2638_3931" x1="12.142" y1="-3.68177" x2="5.40375" y2="17.8012" gradientUnits="userSpaceOnUse">
<stop stop-color="#1AE3D7"/>
<stop offset="1" stop-color="#0945DF"/>
</linearGradient>
<linearGradient id="paint1_linear_2638_3931" x1="22.3284" y1="-1.93855" x2="9.76978" y2="28.3303" gradientUnits="userSpaceOnUse">
<stop stop-color="#FFC700"/>
<stop offset="1" stop-color="#DF0909"/>
</linearGradient>
</defs>
</svg>
