<svg width="19" height="15" viewBox="0 0 19 15" fill="none" xmlns="http://www.w3.org/2000/svg">
<path d="M17.8793 0H5.54878C5.20969 0 4.93225 0.277437 4.93225 0.616527V3.08264C4.93225 3.42792 5.20969 3.69916 5.54878 3.69916H17.8793C18.2184 3.69916 18.4959 3.42792 18.4959 3.08264V0.616527C18.4959 0.277437 18.2184 0 17.8793 0Z" fill="#C4C4C4"/>
<path d="M17.8793 5.56104H5.54878C5.20969 5.56104 4.93225 5.83847 4.93225 6.17756V8.64367C4.93225 8.98276 5.20969 9.2602 5.54878 9.2602H17.8793C18.2184 9.2602 18.4959 8.98276 18.4959 8.64367V6.17756C18.4959 5.83847 18.2184 5.56104 17.8793 5.56104Z" fill="#C4C4C4"/>
<path d="M17.8793 11.1226H5.54872C5.20963 11.1226 4.93219 11.3938 4.93219 11.7391V14.2052C4.93219 14.5443 5.20963 14.8217 5.54872 14.8217H17.8793C18.2184 14.8217 18.4958 14.5443 18.4958 14.2052V11.7391C18.4958 11.3938 18.2184 11.1226 17.8793 11.1226Z" fill="#C4C4C4"/>
<path d="M3.08264 0H0.616527C0.277437 0 0 0.277437 0 0.616527V3.08264C0 3.42792 0.277437 3.69916 0.616527 3.69916H3.08264C3.42173 3.69916 3.69916 3.42792 3.69916 3.08264V0.616527C3.69916 0.277437 3.42173 0 3.08264 0Z" fill="#C4C4C4"/>
<path d="M3.08264 5.56104H0.616527C0.277437 5.56104 0 5.83847 0 6.17756V8.64367C0 8.98276 0.277437 9.2602 0.616527 9.2602H3.08264C3.42173 9.2602 3.69916 8.98276 3.69916 8.64367V6.17756C3.69916 5.83847 3.42173 5.56104 3.08264 5.56104Z" fill="#C4C4C4"/>
<path d="M3.08264 11.1226H0.616527C0.277437 11.1226 0 11.3938 0 11.7391V14.2052C0 14.5443 0.277437 14.8217 0.616527 14.8217H3.08264C3.42173 14.8217 3.69916 14.5443 3.69916 14.2052V11.7391C3.69916 11.3938 3.42173 11.1226 3.08264 11.1226Z" fill="#C4C4C4"/>
</svg>
