<svg width="16" height="17" viewBox="0 0 16 17" fill="none" xmlns="http://www.w3.org/2000/svg">
<path d="M12.185 7.24951L8.36993 9.45202V13.8573L12.185 16.0598L16 13.8573V9.45202L12.185 7.24951ZM9.70848 12.9934C9.70848 13.1777 9.55848 13.3277 9.37375 13.3277C9.18902 13.3277 9.03948 13.1777 9.03948 12.9934V10.3165C9.03948 10.1312 9.18892 9.98225 9.37375 9.98225C9.55848 9.98225 9.70848 10.1312 9.70848 10.3165V12.9934Z" fill="#C4C4C4"/>
<path d="M11.815 2.20251L7.99992 0L4.18488 2.20251V6.60775L7.99992 8.81025L11.815 6.60775V2.20251ZM7.92048 1.59186L5.60284 2.92987C5.44253 3.02206 5.23819 2.96717 5.14556 2.80732C5.05337 2.64757 5.10781 2.44267 5.26812 2.35059L7.58634 1.01158C7.74608 0.919385 7.95098 0.974275 8.04307 1.13413C8.13571 1.29489 8.08082 1.49877 7.92051 1.59186H7.92048Z" fill="#C4C4C4"/>
<path d="M0 9.45202V13.8573L3.81505 16.0598L7.63009 13.8573V9.45202L3.81505 7.24951L0 9.45202ZM4.22858 8.2611L6.54681 9.60011C6.70655 9.69231 6.76144 9.89707 6.66936 10.0568C6.57671 10.2166 6.3724 10.2715 6.21209 10.1794L3.89444 8.84139C3.73413 8.74829 3.67924 8.54442 3.77189 8.38366C3.86397 8.22391 4.06885 8.16902 4.22861 8.2611H4.22858Z" fill="#C4C4C4"/>
</svg>
