<svg width="18" height="17" viewBox="0 0 18 17" fill="none" xmlns="http://www.w3.org/2000/svg">
<path d="M17.9874 6.61024C17.9837 6.58445 17.9775 6.55967 17.9722 6.5344C17.9685 6.51765 17.9665 6.50058 17.9621 6.484L17.9605 6.48484C17.8816 6.18079 17.6797 5.92345 17.4031 5.77463C17.3884 5.76676 17.3723 5.7609 17.3571 5.7537C17.3244 5.73813 17.2924 5.72122 17.2578 5.70867L12.3824 3.9425V3.94267C12.1347 3.8531 11.8635 3.8531 11.6159 3.94267L6.74045 5.70883V5.70867C6.5233 5.78786 6.33578 5.93184 6.20319 6.12103C6.07042 6.31023 5.9991 6.53541 5.9986 6.76648V13.079C5.99826 13.3004 6.06339 13.517 6.18595 13.7015C6.30834 13.886 6.48263 14.0301 6.68673 14.1159L11.5622 16.1655C11.8414 16.2805 12.1548 16.2805 12.4341 16.1655L17.3095 14.1159L17.3104 14.1155H17.3105C17.3161 14.1132 17.3209 14.1098 17.3264 14.1075V14.1073C17.5267 14.0201 17.697 13.8763 17.8167 13.6936C17.9362 13.511 17.9999 13.2973 17.9997 13.079V6.76645L17.9994 6.7626V6.76277C17.999 6.71171 17.995 6.66081 17.9875 6.61025L17.9874 6.61024ZM6.97861 13.4238C6.83914 13.3657 6.7484 13.2293 6.74873 13.0781V6.97342L7.78074 7.36671L11.1947 8.66826L11.1957 8.66776L11.6241 8.831V15.3759L10.1548 14.7586L6.97861 13.4238ZM12.3744 8.96544V8.57283C12.3734 8.43018 12.291 8.30059 12.1622 8.23898L16.6013 6.26854L17.0025 6.41386C17.1508 6.46777 17.2496 6.60858 17.2499 6.76629V6.80028L12.3744 8.96544Z" fill="url(#paint0_linear_2631_2570)"/>
<path d="M7.75009 4.54498L5.96348 0.716481C5.90187 0.584384 5.76927 0.5 5.62361 0.5C5.47795 0.5 5.34535 0.584384 5.28373 0.716481L0.0332794 11.9675C-0.0189594 12.0836 -0.00924647 12.2184 0.0592306 12.3259C0.127709 12.4334 0.245744 12.4992 0.373152 12.501H5.24857L5.24891 12.5005V6.76618C5.24975 6.3811 5.36862 6.00557 5.58979 5.69029C5.81079 5.37503 6.12336 5.13528 6.48519 5.00319L7.75009 4.54498Z" fill="url(#paint1_linear_2631_2570)"/>
<defs>
<linearGradient id="paint0_linear_2631_2570" x1="15.3737" y1="0.598891" x2="8.65941" y2="19.1712" gradientUnits="userSpaceOnUse">
<stop stop-color="#1AE3D7"/>
<stop offset="1" stop-color="#0945DF"/>
</linearGradient>
<linearGradient id="paint1_linear_2631_2570" x1="6.36615" y1="-3.35748" x2="-9.71325" y2="17.4102" gradientUnits="userSpaceOnUse">
<stop stop-color="#FFC700"/>
<stop offset="1" stop-color="#DF0909"/>
</linearGradient>
</defs>
</svg>
