<svg width="16" height="16" viewBox="0 0 16 16" fill="none" xmlns="http://www.w3.org/2000/svg">
<path d="M2.00002 0L4.00002 3H3.00002L2.99996 9.9999L0.99997 10L1.00002 3H1.94152e-05L2.00002 0Z" fill="url(#paint0_linear_1874_935)"/>
<path d="M13 13V12L16 14L13 16V15H6.00002V13H13Z" fill="url(#paint1_linear_1874_935)"/>
<path d="M7 11H13V3.00002H5.00002L5.00001 8.99999H7V11ZM7 4.99999H11V8.99999H7V4.99999Z" fill="url(#paint2_linear_1874_935)"/>
<path d="M1.6 11.9998H2.4V13.5998H3.99999V14.3998H2.4V15.9998H1.6V14.3998H4.37112e-08V13.5998H1.6V11.9998Z" fill="url(#paint3_linear_1874_935)"/>
<path d="M2.99999 12.9998V11.9998H3.99999V12.9998H2.99999Z" fill="url(#paint4_linear_1874_935)"/>
<path d="M2.99999 14.9998H3.99999L3.99999 15.9998H2.99999V14.9998Z" fill="url(#paint5_linear_1874_935)"/>
<path d="M1 14.9998V15.9998H4.37112e-08L0 14.9998H1Z" fill="url(#paint6_linear_1874_935)"/>
<path d="M1 12.9998H6.55668e-08V11.9998H1V12.9998Z" fill="url(#paint7_linear_1874_935)"/>
<defs>
<linearGradient id="paint0_linear_1874_935" x1="8.00001" y1="0" x2="8.00001" y2="16" gradientUnits="userSpaceOnUse">
<stop stop-color="#19B400"/>
<stop offset="1" stop-color="#09492A"/>
</linearGradient>
<linearGradient id="paint1_linear_1874_935" x1="8.00001" y1="0" x2="8.00001" y2="16" gradientUnits="userSpaceOnUse">
<stop stop-color="#19B400"/>
<stop offset="1" stop-color="#09492A"/>
</linearGradient>
<linearGradient id="paint2_linear_1874_935" x1="8.00001" y1="0" x2="8.00001" y2="16" gradientUnits="userSpaceOnUse">
<stop stop-color="#19B400"/>
<stop offset="1" stop-color="#09492A"/>
</linearGradient>
<linearGradient id="paint3_linear_1874_935" x1="8.00001" y1="0" x2="8.00001" y2="16" gradientUnits="userSpaceOnUse">
<stop stop-color="#19B400"/>
<stop offset="1" stop-color="#09492A"/>
</linearGradient>
<linearGradient id="paint4_linear_1874_935" x1="8.00001" y1="0" x2="8.00001" y2="16" gradientUnits="userSpaceOnUse">
<stop stop-color="#19B400"/>
<stop offset="1" stop-color="#09492A"/>
</linearGradient>
<linearGradient id="paint5_linear_1874_935" x1="8.00001" y1="0" x2="8.00001" y2="16" gradientUnits="userSpaceOnUse">
<stop stop-color="#19B400"/>
<stop offset="1" stop-color="#09492A"/>
</linearGradient>
<linearGradient id="paint6_linear_1874_935" x1="8.00001" y1="0" x2="8.00001" y2="16" gradientUnits="userSpaceOnUse">
<stop stop-color="#19B400"/>
<stop offset="1" stop-color="#09492A"/>
</linearGradient>
<linearGradient id="paint7_linear_1874_935" x1="8.00001" y1="0" x2="8.00001" y2="16" gradientUnits="userSpaceOnUse">
<stop stop-color="#19B400"/>
<stop offset="1" stop-color="#09492A"/>
</linearGradient>
</defs>
</svg>
