<svg width="12" height="16" viewBox="0 0 12 16" fill="none" xmlns="http://www.w3.org/2000/svg">
<path d="M11.6734 1.66569L11.5401 0.906942C11.511 0.744539 11.4214 0.603917 11.288 0.509342C11.1837 0.436665 11.0625 0.397838 10.9389 0.397838C10.9026 0.397838 10.8662 0.400324 10.8298 0.407544L7.68983 0.956899L7.63088 0.619783C7.5595 0.21282 7.16937 -0.0594178 6.76371 0.0111265L4.19757 0.460453C3.79061 0.531712 3.51755 0.9209 3.5888 1.32786L3.64774 1.66416L0.50749 2.21352C0.175344 2.27164 -0.0476521 2.59169 0.0105894 2.92375L0.143872 3.68261C0.170506 3.84502 0.260228 3.98564 0.393632 4.08021C0.497915 4.15289 0.621492 4.19172 0.745202 4.19172C0.781541 4.19172 0.817879 4.18923 0.851852 4.18201L11.1741 2.37592C11.5061 2.3178 11.7315 1.99783 11.6734 1.66569H11.6734ZM4.06626 1.24406C4.04117 1.10059 4.13752 0.963287 4.2811 0.938184L6.84724 0.488858C6.86263 0.486017 6.8779 0.484833 6.89305 0.484833C7.01899 0.484833 7.13085 0.575268 7.15334 0.703342L7.21229 1.04046L4.12537 1.58057L4.06626 1.24406Z" fill="white"/>
<path d="M10.9244 4.94052H0.943944C0.876118 4.94052 0.813028 4.96964 0.766984 5.01817C0.720939 5.06907 0.696673 5.13452 0.703894 5.20247L1.46997 14.9866C1.51602 15.5539 1.99848 15.9999 2.57056 15.9999H9.30015C9.86987 15.9999 10.3522 15.5539 10.3983 14.9842L11.1667 5.2025C11.1715 5.13455 11.1473 5.06922 11.1012 5.0182C11.0578 4.96955 10.9923 4.94043 10.9245 4.94043L10.9244 4.94052ZM3.71905 14.8901C3.71148 14.8908 3.70402 14.891 3.69656 14.891C3.57263 14.891 3.46704 14.7965 3.45544 14.6708L2.71291 6.63157C2.7006 6.49829 2.79861 6.38015 2.93201 6.36784C3.06435 6.3553 3.18331 6.45354 3.19562 6.58707L3.93815 14.6263C3.95046 14.7596 3.85246 14.8777 3.71905 14.8901V14.8901ZM6.17686 14.6486C6.17686 14.7826 6.06832 14.891 5.93444 14.891C5.80056 14.891 5.69202 14.7826 5.69202 14.6486V6.60932C5.69202 6.47532 5.80056 6.36689 5.93444 6.36689C6.06832 6.36689 6.17686 6.47532 6.17686 6.60932V14.6486ZM8.41334 14.6708C8.40174 14.7965 8.29604 14.891 8.17222 14.891C8.16477 14.891 8.15731 14.8908 8.14973 14.8901C8.01633 14.8777 7.91832 14.7596 7.93063 14.6263L8.67316 6.58706C8.68535 6.45378 8.80337 6.35482 8.93677 6.36784C9.07017 6.38015 9.16818 6.49828 9.15587 6.63157L8.41334 14.6708Z" fill="white"/>
<path d="M9.08586 3.2892C8.9959 3.19923 8.85137 3.19426 8.75538 3.2776L8.32642 3.6508L8.44348 4.45561H10.2524L9.08586 3.2892Z" fill="white"/>
<path d="M7.83894 3.66783C7.81976 3.53526 7.69512 3.44222 7.5642 3.46282L4.4894 3.90954C4.35695 3.92871 4.26509 4.05158 4.28427 4.18416L4.32357 4.45593H7.95351L7.83894 3.66783Z" fill="white"/>
</svg>
