<svg width="18" height="16" viewBox="0 0 18 16" fill="none" xmlns="http://www.w3.org/2000/svg">
<path fill-rule="evenodd" clip-rule="evenodd" d="M15.1666 8H13.0833V10.0831H11V12.1665H13.0833V14.25H15.1666V12.1665H17.25V10.0831H15.1666V8Z" fill="white"/>
<path d="M0.099756 0.379311C-0.0464643 0.617752 -0.0254925 0.895991 0.120582 1.13455L0.141408 1.15437L5.194 7.89154V15.5032C5.194 15.7019 5.31925 15.8808 5.48629 15.9602C5.54892 16 5.63252 16 5.71597 16C5.84122 16 5.94564 15.9602 6.05006 15.8808L8.61807 13.8338C8.74332 13.7344 8.80595 13.5954 8.80595 13.4562V7.89153L13.8585 1.15436L13.8794 1.13454C14.0256 0.896094 14.0464 0.617855 13.9002 0.3793C13.754 0.140859 13.5035 0.00166544 13.2112 0.00166544H0.767993C0.496528 -0.0181582 0.225078 0.140848 0.0998066 0.3793L0.099756 0.379311Z" fill="white"/>
</svg>
