<svg width="16" height="16" viewBox="0 0 16 16" fill="currentColor" xmlns="http://www.w3.org/2000/svg">
<path fill-rule="evenodd" clip-rule="evenodd" d="M15.8758 9.39778C16.0414 8.47329 16.0414 7.52671 15.8758 6.60222L14.0358 6.10231C13.9243 5.74884 13.7818 5.40592 13.6099 5.07756L14.5587 3.42081C14.0196 2.65042 13.3495 1.98055 12.579 1.44163L10.9221 2.39048C10.5938 2.21853 10.251 2.07596 9.89769 1.96443L9.39778 0.124231C8.47329 -0.0414102 7.52671 -0.0414102 6.60222 0.124231L6.10231 1.96424C5.74884 2.0757 5.40592 2.21821 5.07756 2.3901L3.42081 1.44126C2.65042 1.98039 1.98055 2.65045 1.44163 3.42099L2.39048 5.07793C2.21853 5.40616 2.07596 5.74896 1.96443 6.10231L0.124231 6.60222C-0.0414102 7.52671 -0.0414102 8.47329 0.124231 9.39778L1.96424 9.89769C2.07569 10.2512 2.2182 10.5941 2.3901 10.9224L1.44126 12.5792C1.98039 13.3496 2.65045 14.0195 3.42099 14.5584L5.07793 13.6095C5.40616 13.7815 5.74896 13.924 6.10231 14.0356L6.60204 15.8758C7.52653 16.0414 8.4731 16.0414 9.39759 15.8758L9.89769 14.0358C10.2512 13.9243 10.5941 13.7818 10.9224 13.6099L12.5792 14.5587C13.3496 14.0196 14.0195 13.3495 14.5584 12.579L13.6095 10.9222C13.7815 10.594 13.924 10.2511 14.0356 9.89769L15.8758 9.39778ZM8 10.9768C7.41125 10.9768 6.83573 10.8022 6.3462 10.4751C5.85667 10.148 5.47513 9.68309 5.24983 9.13916C5.02453 8.59523 4.96558 7.9967 5.08043 7.41926C5.19529 6.84183 5.4788 6.31142 5.89511 5.89511C6.31142 5.4788 6.84183 5.19529 7.41926 5.08043C7.9967 4.96558 8.59523 5.02453 9.13916 5.24983C9.68309 5.47513 10.148 5.85667 10.4751 6.3462C10.8022 6.83573 10.9768 7.41125 10.9768 8C10.9768 8.78949 10.6631 9.54664 10.1049 10.1049C9.54664 10.6631 8.78949 10.9768 8 10.9768Z" />
</svg>
