<svg width="18" height="17" viewBox="0 0 18 17" fill="none" xmlns="http://www.w3.org/2000/svg">
<path d="M7 1C7 0.447715 7.44772 0 8 0H17C17.5523 0 18 0.447715 18 1V6C18 6.55228 17.5523 7 17 7H8C7.44771 7 7 6.55228 7 6V1Z" fill="white"/>
<path d="M7 11C7 10.4477 7.44772 10 8 10H17C17.5523 10 18 10.4477 18 11V16C18 16.5523 17.5523 17 17 17H8C7.44771 17 7 16.5523 7 16V11Z" fill="white"/>
<path d="M5 0H6V17H5V0Z" fill="white"/>
<path d="M0 8C0 7.44772 0.447715 7 1 7H3C3.55228 7 4 7.44772 4 8V9C4 9.55228 3.55228 10 3 10H1C0.447715 10 0 9.55228 0 9V8Z" fill="white"/>
</svg>
