<svg width="16" height="16" viewBox="0 0 16 16" fill="none" xmlns="http://www.w3.org/2000/svg">
<path d="M12.8144 10.2312L9.62844 10.1439L10.5407 11.6761C9.78431 12.21 8.8882 12.506 7.93488 12.5225C5.35574 12.5674 3.22068 10.5066 3.17589 7.92886C3.13122 5.35187 5.19345 3.21876 7.77224 3.17399C9.10499 3.15093 10.3892 3.70015 11.2937 4.68106C11.8874 5.32527 12.8927 5.36607 13.5368 4.77171C13.8837 4.45263 14.0564 4.01451 14.0488 3.5774C14.0414 3.20217 13.9026 2.82754 13.6283 2.53018C12.1095 0.883875 9.9553 -0.0377654 7.71716 0.0011866C3.38699 0.0762112 -0.0737695 3.65734 0.00119525 7.98396C0.0762648 12.3109 3.65922 15.7702 7.98938 15.6953C9.48318 15.6694 10.9326 15.2124 12.1652 14.4047L13.1151 16L14.5577 13.1594L16 10.3185L12.8144 10.2312Z" fill="white"/>
</svg>
