<svg width="16" height="16" viewBox="0 0 16 16" fill="none" xmlns="http://www.w3.org/2000/svg">
<path d="M8 4.89516C12.4183 4.89516 16 3.79934 16 2.44758C16 1.09582 12.4183 0 8 0C3.58172 0 0 1.09582 0 2.44758C0 3.79934 3.58172 4.89516 8 4.89516Z" fill="url(#paint0_linear_1764_2767)"/>
<path d="M7.99996 6.45904C5.10899 6.45904 1.91897 6.02846 0 4.91797V7.97743C0 9.33721 3.58875 10.425 7.99996 10.425C12.4112 10.425 16 9.33721 16 7.97743V4.91797C14.0809 6.0285 10.8909 6.45904 7.99996 6.45904ZM12.5358 8.74802C12.1121 8.74802 11.7881 8.43074 11.7881 8.04546C11.7881 7.66018 12.137 7.34294 12.5358 7.34294C12.9594 7.34294 13.3084 7.66018 13.3084 8.04546C13.3084 8.43074 12.9594 8.74802 12.5358 8.74802Z" fill="url(#paint1_linear_1764_2767)"/>
<path d="M0 10.4702V13.5297C0 14.8895 3.58875 15.9999 7.99996 15.9999C12.4112 15.9999 16 14.8895 16 13.5297V10.4702C14.1059 11.5807 10.8909 12.0113 7.99996 12.0113C5.10899 12.0113 1.91901 11.558 0 10.4702ZM12.5358 12.9178C12.9594 12.9178 13.3084 13.2351 13.3084 13.6204C13.3084 14.0056 12.9594 14.3229 12.5358 14.3229C12.1121 14.3229 11.7881 14.0056 11.7881 13.6204C11.7881 13.2124 12.137 12.9178 12.5358 12.9178Z" fill="url(#paint2_linear_1764_2767)"/>
<defs>
<linearGradient id="paint0_linear_1764_2767" x1="12.4989" y1="-1.29599" x2="11.6182" y2="6.91551" gradientUnits="userSpaceOnUse">
<stop stop-color="#1AE3D7"/>
<stop offset="1" stop-color="#0945DF"/>
</linearGradient>
<linearGradient id="paint1_linear_1764_2767" x1="13.1428" y1="3.14784" x2="10.595" y2="17.9522" gradientUnits="userSpaceOnUse">
<stop stop-color="#FFC700"/>
<stop offset="1" stop-color="#DF0909"/>
</linearGradient>
<linearGradient id="paint2_linear_1764_2767" x1="12.4989" y1="9.00623" x2="11.3786" y2="18.2532" gradientUnits="userSpaceOnUse">
<stop stop-color="#1AE3D7"/>
<stop offset="1" stop-color="#0945DF"/>
</linearGradient>
</defs>
</svg>
