<svg width="25" height="24" viewBox="0 0 25 24" fill="none" xmlns="http://www.w3.org/2000/svg">
<path d="M24.5752 19.2792C24.1035 17.9 21.0255 16.8944 19.6254 16.2694C18.9398 15.9636 18.1628 15.7782 17.7528 15.4668C17.3384 15.1519 17.2774 14.4736 16.7494 13.9946C16.5403 13.8051 15.9289 14.0389 15.8798 13.6607C15.8059 13.0852 16.4186 12.726 16.6154 12.1889C16.8167 11.6402 16.6878 11.713 16.8345 11.0455C17.9759 10.7188 18.4878 8.04202 17.7519 7.97488C18.1109 6.02275 18.4524 3.0636 17.0832 2.28981C16.7968 2.12743 16.4541 2.21802 16.2134 2.08892C16.0769 2.01564 15.9478 1.73031 15.8124 1.62093C15.1644 1.09957 13.4245 0.798577 12.401 0.796387C11.3778 0.798433 10.3068 1.09976 9.65874 1.62093L8.38777 2.29001C7.01934 3.06418 7.36085 6.02299 7.71908 7.97508C6.98306 8.04223 7.51354 10.7258 8.65524 11.052C8.80219 11.7199 8.65506 11.6405 8.85576 12.189C9.05274 12.7266 9.66564 13.0856 9.5914 13.6609C9.54267 14.0391 8.93109 13.8052 8.72181 13.9948C8.19411 14.4738 8.13273 15.1521 7.7187 15.4667C7.30892 15.778 6.53197 15.9631 5.84599 16.2692C4.44575 16.8944 1.36769 17.9005 0.896137 19.2794C0.629402 20.0604 0.784345 20.6897 0.747517 21.5537H0.748075C0.748075 21.5554 0.747517 21.558 0.747517 21.5593C0.747517 22.6837 5.96498 23.5953 12.401 23.5953C18.837 23.5953 24.723 22.6839 24.723 21.5593C24.723 21.5572 24.7224 21.555 24.7224 21.5537H24.723C24.6867 20.6901 24.842 20.0603 24.5753 19.2792L24.5752 19.2792Z" fill="white"/>
</svg>
