<svg width="13" height="17" viewBox="0 0 13 17" fill="none" xmlns="http://www.w3.org/2000/svg">
<path d="M12.3542 2.40202L12.2209 1.64327C12.1918 1.48087 12.1022 1.34024 11.9688 1.24567C11.8645 1.17299 11.7433 1.13417 11.6197 1.13417C11.5834 1.13417 11.547 1.13665 11.5106 1.14387L8.37062 1.69323L8.31167 1.35611C8.24029 0.949148 7.85016 0.67691 7.4445 0.747455L4.87836 1.19678C4.4714 1.26804 4.19834 1.65723 4.26958 2.06419L4.32853 2.40049L1.18828 2.94984C0.85613 3.00796 0.633134 3.32802 0.691376 3.66007L0.824658 4.41894C0.851292 4.58134 0.941014 4.72197 1.07442 4.81654C1.1787 4.88922 1.30228 4.92805 1.42599 4.92805C1.46233 4.92805 1.49867 4.92556 1.53264 4.91834L11.8549 3.11225C12.1869 3.05413 12.4123 2.73416 12.3542 2.40202H12.3542ZM4.74705 1.98039C4.72195 1.83692 4.81831 1.69961 4.96189 1.67451L7.52803 1.22519C7.54341 1.22235 7.55868 1.22116 7.57383 1.22116C7.69978 1.22116 7.81164 1.3116 7.83413 1.43967L7.89307 1.77679L4.80615 2.3169L4.74705 1.98039Z" fill="white"/>
<path d="M11.6052 5.67685H1.62473C1.5569 5.67685 1.49381 5.70596 1.44777 5.7545C1.40173 5.8054 1.37746 5.87085 1.38468 5.9388L2.15076 15.7229C2.1968 16.2902 2.67927 16.7362 3.25135 16.7362H9.98094C10.5507 16.7362 11.033 16.2902 11.079 15.7205L11.8475 5.93883C11.8523 5.87088 11.8281 5.80554 11.782 5.75453C11.7386 5.70588 11.6731 5.67676 11.6053 5.67676L11.6052 5.67685ZM4.39984 15.6264C4.39226 15.6271 4.3848 15.6273 4.37735 15.6273C4.25342 15.6273 4.14783 15.5329 4.13623 15.4072L3.3937 7.3679C3.38139 7.23462 3.4794 7.11648 3.6128 7.10417C3.74514 7.09163 3.8641 7.18987 3.87641 7.32339L4.61894 15.3627C4.63125 15.4959 4.53324 15.6141 4.39984 15.6264V15.6264ZM6.85765 15.3849C6.85765 15.5189 6.7491 15.6273 6.61523 15.6273C6.48135 15.6273 6.37281 15.5189 6.37281 15.3849V7.34564C6.37281 7.21165 6.48135 7.10322 6.61523 7.10322C6.7491 7.10322 6.85765 7.21165 6.85765 7.34564V15.3849ZM9.09413 15.4072C9.08253 15.5329 8.97682 15.6273 8.85301 15.6273C8.84555 15.6273 8.83809 15.6271 8.83052 15.6264C8.69712 15.6141 8.59911 15.4959 8.61142 15.3627L9.35395 7.32339C9.36614 7.19011 9.48416 7.09115 9.61756 7.10417C9.75096 7.11648 9.84897 7.23461 9.83666 7.3679L9.09413 15.4072Z" fill="white"/>
<path d="M9.7667 4.02552C9.67674 3.93556 9.53222 3.93059 9.43623 4.01392L9.00726 4.38713L9.12433 5.19193H10.9332L9.7667 4.02552Z" fill="white"/>
<path d="M8.51966 4.40416C8.50049 4.27159 8.37584 4.17855 8.24493 4.19915L5.17013 4.64587C5.03767 4.66504 4.94582 4.78791 4.96499 4.92048L5.00429 5.19226H8.63424L8.51966 4.40416Z" fill="white"/>
</svg>
