<svg width="11" height="15" viewBox="0 0 11 15" fill="none" xmlns="http://www.w3.org/2000/svg">
<path fill-rule="evenodd" clip-rule="evenodd" d="M3.19905 4.5H10.1379L9.93887 5.49948H3L3.19905 4.5Z" fill="url(#paint0_linear_3323_2852)"/>
<path fill-rule="evenodd" clip-rule="evenodd" d="M6.54986 1.61041C6.89104 1.27664 7.28799 1.00796 7.74074 0.80482C8.18638 0.601461 8.63223 0.5 9.07788 0.5C9.46794 0.5 9.79512 0.539842 10.0598 0.619749C10.3105 0.692252 10.5126 0.797636 10.6657 0.935459C10.798 1.05869 10.8886 1.20021 10.9373 1.36003C10.9791 1.51244 11 1.66855 11 1.82814C11 1.92982 10.9827 2.04218 10.9478 2.16563C10.906 2.28886 10.8469 2.40513 10.7702 2.514C10.6728 2.63005 10.5684 2.72084 10.4568 2.78616C10.3454 2.85148 10.1852 2.88413 9.97626 2.88413C9.73244 2.88413 9.52351 2.81882 9.34948 2.68818C9.17544 2.55036 9.02919 2.39054 8.91073 2.20917C8.77848 2.0204 8.66691 1.81378 8.57645 1.58865C8.49288 1.37092 8.41975 1.19673 8.35708 1.06609C8.17594 1.28382 8.0088 1.60324 7.85565 2.02411C7.63237 2.66665 7.60818 2.84948 7.45569 3.51078H5.24144C5.39742 2.82379 6.04765 2.07221 6.54986 1.61041ZM4.64171 6.52305H6.88246C6.60175 7.97431 6.28075 9.52632 5.93352 10.9619C5.82216 11.4191 5.63748 11.8655 5.37987 12.3009C5.12226 12.7364 4.81932 13.1137 4.47103 13.4329C4.10186 13.7741 3.70156 14.0354 3.2697 14.217C2.84496 14.4055 2.40266 14.5 1.94302 14.5C1.53227 14.5 1.20133 14.4599 0.950615 14.3803C0.693008 14.2932 0.494533 14.1843 0.355178 14.0537C0.215824 13.9228 0.121806 13.7778 0.0731257 13.6182C0.0244457 13.4586 0 13.3025 0 13.1501C0 12.8742 0.0940184 12.6349 0.282053 12.4316C0.463192 12.221 0.71035 12.1159 1.02374 12.1159C1.26756 12.1159 1.48004 12.1847 1.66097 12.3227C1.83501 12.4533 1.98481 12.6129 2.11016 12.8017C2.23552 12.9831 2.34688 13.1864 2.44445 13.4114C2.54181 13.6363 2.61848 13.8105 2.67426 13.9339C2.8623 13.7162 3.03633 13.3933 3.19658 12.965C3.36372 12.5296 3.52042 11.9526 3.66666 11.2341L4.64171 6.52305Z" fill="url(#paint1_linear_3323_2852)"/>
<defs>
<linearGradient id="paint0_linear_3323_2852" x1="8.86328" y1="4.17874" x2="8.67054" y2="6.93167" gradientUnits="userSpaceOnUse">
<stop stop-color="#FFC700"/>
<stop offset="1" stop-color="#DF0909"/>
</linearGradient>
<linearGradient id="paint1_linear_3323_2852" x1="8.59303" y1="-3.20648" x2="-0.246035" y2="16.6046" gradientUnits="userSpaceOnUse">
<stop stop-color="#1AE3D7"/>
<stop offset="1" stop-color="#0945DF"/>
</linearGradient>
</defs>
</svg>
