<svg width="20" height="20" viewBox="0 0 20 20" fill="none" xmlns="http://www.w3.org/2000/svg">
<path d="M0 0H20V18H8V16H18V3H2V16H3V18H0V0Z" fill="url(#paint0_linear_3242_2827)"/>
<path fill-rule="evenodd" clip-rule="evenodd" d="M6.15374 20H3.81268L5.38226 9.27396H4.23066L4.4672 7.87429H5.60592C5.63816 7.7259 5.66708 7.57602 5.69605 7.4259C5.81933 6.78704 5.9435 6.14363 6.32785 5.58978C6.62778 5.16488 7.01669 4.83992 7.49456 4.61544C7.97751 4.38572 8.53164 4.27583 9.15694 4.28577C9.29425 4.28891 9.42937 4.29729 9.56227 4.31142C9.6311 4.31874 9.69934 4.32711 9.76699 4.33706C9.97034 4.36636 10.1711 4.40299 10.3694 4.44694L10.1788 6.15387C10.0771 6.12927 9.97288 6.10991 9.86612 6.09526C9.76445 6.08061 9.66023 6.07067 9.55347 6.06596C9.31454 6.06596 9.09593 6.1052 8.89767 6.18317C8.6994 6.26114 8.53164 6.37835 8.39438 6.53481C8.14976 6.8147 8.08097 7.20978 8.01704 7.57692C7.99922 7.67925 7.98178 7.77941 7.96102 7.87429H9.55347L9.3093 9.27396H7.73453L6.15374 20ZM12.4846 11.4418L11.9035 10H10.2766L11.3278 12.3753L9.23071 15.0002H11.0108L12.2099 13.4659L12.8596 15.0002H14.4866L13.3826 12.5047L15.3846 10H13.6203L12.4846 11.4418Z" fill="url(#paint1_linear_3242_2827)"/>
<defs>
<linearGradient id="paint0_linear_3242_2827" x1="16.4286" y1="-5.78571" x2="-2.21562" y2="35.6458" gradientUnits="userSpaceOnUse">
<stop stop-color="#FFC700"/>
<stop offset="1" stop-color="#DF0909"/>
</linearGradient>
<linearGradient id="paint1_linear_3242_2827" x1="12.8524" y1="0.124679" x2="2.50374" y2="21.8624" gradientUnits="userSpaceOnUse">
<stop stop-color="#1AE3D7"/>
<stop offset="1" stop-color="#0945DF"/>
</linearGradient>
</defs>
</svg>
