<svg width="16" height="16" viewBox="0 0 16 16" fill="none" xmlns="http://www.w3.org/2000/svg">
<path d="M15.4285 16H0.571419C0.367211 16 0.178571 15.892 0.0765304 15.7168C-0.0255102 15.5415 -0.0255102 15.3256 0.0765304 15.1504C0.178571 14.9752 0.367217 14.8672 0.571419 14.8672H15.4285C15.6327 14.8672 15.8214 14.9752 15.9234 15.1504C16.0255 15.3256 16.0255 15.5416 15.9234 15.7168C15.8214 15.892 15.6327 16 15.4285 16Z" fill="black"/>
<path d="M5.29263 8.35388L4.3991 13.0505C4.37395 13.1871 4.39821 13.3283 4.46732 13.4484C4.53642 13.5683 4.64579 13.659 4.77549 13.7037C4.90506 13.7484 5.04631 13.7442 5.1731 13.6917L9.48675 11.7681L5.29263 8.35388Z" fill="black"/>
<path d="M15.0546 4.95574L15.6291 4.21473C15.9061 3.86954 16.0363 3.42797 15.9911 2.98637C15.9459 2.54477 15.7289 2.13913 15.3878 1.85828L13.5322 0.364625C13.1868 0.0879367 12.7467 -0.039359 12.3084 0.0106634C11.8701 0.0605469 11.4692 0.283603 11.1939 0.630981L10.6194 1.37199L15.0546 4.95574Z" fill="black"/>
<path d="M5.80514 7.36543L9.87795 2.26552L14.3007 5.80275L10.2279 10.9027L5.80514 7.36543Z" fill="black"/>
</svg>
