<svg width="11" height="11" viewBox="0 0 11 11" fill="none" xmlns="http://www.w3.org/2000/svg">
<path d="M3.92859 8.18562L1.76446 10.7936C1.10829 11.5845 -0.584582 9.8917 0.206211 9.23534L2.81421 7.07129L3.92859 8.18562Z" fill="url(#paint0_linear_3164_2879)"/>
<path fill-rule="evenodd" clip-rule="evenodd" d="M4.99035 6.68932L4.31188 7.36778L3.63223 6.68805L4.31063 6.00958C3.18047 4.54588 3.28647 2.43539 4.62887 1.09313C6.08638 -0.364376 8.44937 -0.364376 9.90687 1.09313C11.3644 2.55063 11.3644 4.9137 9.90687 6.37122C8.56453 7.71349 6.45413 7.81957 4.99035 6.68932ZM5.16197 5.83796C3.99892 4.67492 3.99892 2.78927 5.16197 1.62622C6.32501 0.463176 8.21074 0.463176 9.3737 1.62622C10.5367 2.78927 10.5367 4.67492 9.3737 5.83796C8.21065 7.00101 6.32501 7.00101 5.16197 5.83796Z" fill="url(#paint1_linear_3164_2879)"/>
<path d="M7.85718 1.57129H6.67861V3.14272H5.10718V4.32129H6.67861V5.89272H7.85718V4.32129H9.42861V3.14272H7.85718V1.57129Z" fill="black"/>
<defs>
<linearGradient id="paint0_linear_3164_2879" x1="0.701548" y1="5.80853" x2="5.05104" y2="14.5075" gradientUnits="userSpaceOnUse">
<stop stop-color="#FFC700"/>
<stop offset="1" stop-color="#DF0909"/>
</linearGradient>
<linearGradient id="paint1_linear_3164_2879" x1="5.16902" y1="-1.97616" x2="9.12301" y2="9.30289" gradientUnits="userSpaceOnUse">
<stop stop-color="#1AE3D7"/>
<stop offset="1" stop-color="#0945DF"/>
</linearGradient>
</defs>
</svg>
