<svg width="15" height="12" viewBox="0 0 15 12" fill="none" xmlns="http://www.w3.org/2000/svg">
<path fill-rule="evenodd" clip-rule="evenodd" d="M0 0.5V3.5L3 3.5V0.5H0ZM4 0.5V3.5L7 3.5V0.5H4ZM8 3.5V0.5H11V3.5L8 3.5ZM12 0.5V3.5L15 3.5V0.5H12ZM0 7.5V4.5H3V7.5H0ZM0 8.5V11.5H3V8.5H0ZM7 5.5L4 5.5V4.5H7V5.5ZM4 11.5H7V10.5H4V11.5ZM11 5.5L8 5.5V4.5H11V5.5ZM8 11.5H11V10.5H8V11.5ZM15 5.5L12 5.5V4.5H15V5.5ZM12 11.5H15V10.5H12V11.5ZM7 9.5H4V8.5H7V9.5ZM8 9.5H11V8.5H8V9.5ZM15 9.5H12V8.5H15V9.5ZM4 7.5L7 7.5V6.5H4V7.5ZM11 7.5L8 7.5V6.5H11V7.5ZM12 7.5L15 7.5V6.5H12V7.5Z" fill="black"/>
</svg>
