<svg width="15" height="12" viewBox="0 0 15 12" fill="none" xmlns="http://www.w3.org/2000/svg">
<path d="M7.70215 7.4541H4.94824L4.37207 9.10938H3.08789L5.77344 2H6.88184L9.57227 9.10938H8.2832L7.70215 7.4541ZM5.29492 6.45801H7.35547L6.3252 3.50879L5.29492 6.45801Z" fill="black"/>
<path d="M13.4248 9.10938C13.3727 9.00846 13.3271 8.84408 13.2881 8.61621C12.9105 9.01009 12.4482 9.20703 11.9014 9.20703C11.3708 9.20703 10.9378 9.05566 10.6025 8.75293C10.2673 8.4502 10.0996 8.07585 10.0996 7.62988C10.0996 7.06673 10.3079 6.63542 10.7246 6.33594C11.1445 6.0332 11.7435 5.88184 12.5215 5.88184H13.249V5.53516C13.249 5.26172 13.1725 5.04362 13.0195 4.88086C12.8665 4.71484 12.6338 4.63184 12.3213 4.63184C12.0511 4.63184 11.8298 4.7002 11.6572 4.83691C11.4847 4.97038 11.3984 5.14128 11.3984 5.34961H10.2119C10.2119 5.0599 10.3079 4.78971 10.5 4.53906C10.6921 4.28516 10.9525 4.08659 11.2812 3.94336C11.6133 3.80013 11.9827 3.72852 12.3896 3.72852C13.0081 3.72852 13.5013 3.88477 13.8691 4.19727C14.237 4.50651 14.4258 4.94271 14.4355 5.50586V7.88867C14.4355 8.36393 14.5023 8.74316 14.6357 9.02637V9.10938H13.4248ZM12.1211 8.25488C12.3555 8.25488 12.5752 8.19792 12.7803 8.08398C12.9886 7.97005 13.1449 7.81706 13.249 7.625V6.62891H12.6094C12.1699 6.62891 11.8395 6.7054 11.6182 6.8584C11.3968 7.01139 11.2861 7.22786 11.2861 7.50781C11.2861 7.73568 11.361 7.91797 11.5107 8.05469C11.6637 8.18815 11.8672 8.25488 12.1211 8.25488Z" fill="black"/>
<path fill-rule="evenodd" clip-rule="evenodd" d="M1 1H12V3H13V1V0H12H1H0V1V11V12H1H12H13V11V10H12V11H1V1Z" fill="black"/>
</svg>
