<svg width="30" height="30" viewBox="0 0 30 30" fill="none" xmlns="http://www.w3.org/2000/svg">
<path d="M0 0H30V27H12V24H27V4.5H3V24H4.5V27H0V0Z" fill="white"/>
<path fill-rule="evenodd" clip-rule="evenodd" d="M9.23082 30H5.71924L8.0736 13.9109H6.34621L6.70102 11.8114H8.40909C8.45745 11.5888 8.50083 11.364 8.54429 11.1389C8.72922 10.1806 8.91546 9.21545 9.49199 8.38467C9.94189 7.74732 10.5252 7.25989 11.2421 6.92316C11.9665 6.57858 12.7977 6.41375 13.7356 6.42866C13.9416 6.43337 14.1443 6.44593 14.3436 6.46712C14.4469 6.47811 14.5492 6.49067 14.6507 6.50558C14.9557 6.54954 15.2569 6.60448 15.5543 6.67042L15.2684 9.2308C15.1159 9.19391 14.9595 9.16487 14.7994 9.14289C14.6469 9.12092 14.4906 9.106 14.3304 9.09894C13.972 9.09894 13.6441 9.15781 13.3467 9.27476C13.0493 9.39171 12.7977 9.56753 12.5918 9.80222C12.2249 10.2221 12.1217 10.8147 12.0258 11.3654C11.999 11.5189 11.9729 11.6691 11.9417 11.8114H14.3304L13.9642 13.9109H11.602L9.23082 30ZM18.727 17.1627L17.8554 15H15.415L16.9918 18.563L13.8462 22.5003H16.5164L18.315 20.1989L19.2896 22.5003H21.73L20.074 18.7571L23.077 15H20.4305L18.727 17.1627Z" fill="white"/>
</svg>
