<svg width="18" height="16" viewBox="0 0 18 16" fill="none" xmlns="http://www.w3.org/2000/svg">
<path d="M17.9874 6.11024C17.9837 6.08445 17.9775 6.05967 17.9722 6.0344C17.9685 6.01765 17.9665 6.00058 17.9621 5.984L17.9605 5.98484C17.8816 5.68079 17.6797 5.42345 17.4031 5.27463C17.3884 5.26676 17.3723 5.2609 17.3571 5.2537C17.3244 5.23813 17.2924 5.22122 17.2578 5.20867L12.3824 3.4425V3.44267C12.1347 3.3531 11.8635 3.3531 11.6159 3.44267L6.74045 5.20883V5.20867C6.5233 5.28786 6.33578 5.43184 6.20319 5.62103C6.07042 5.81023 5.9991 6.03541 5.9986 6.26648V12.579C5.99826 12.8004 6.06339 13.017 6.18595 13.2015C6.30834 13.386 6.48263 13.5301 6.68673 13.6159L11.5622 15.6655C11.8414 15.7805 12.1548 15.7805 12.4341 15.6655L17.3095 13.6159L17.3104 13.6155H17.3105C17.3161 13.6132 17.3209 13.6098 17.3264 13.6075V13.6073C17.5267 13.5201 17.697 13.3763 17.8167 13.1936C17.9362 13.011 17.9999 12.7973 17.9997 12.579V6.26645L17.9994 6.2626V6.26277C17.999 6.21171 17.995 6.16081 17.9875 6.11025L17.9874 6.11024ZM6.97861 12.9238C6.83914 12.8657 6.7484 12.7293 6.74873 12.5781V6.47342L7.78074 6.86671L11.1947 8.16826L11.1957 8.16776L11.6241 8.331V14.8759L10.1548 14.2586L6.97861 12.9238ZM12.3744 8.46544V8.07283C12.3734 7.93018 12.291 7.80059 12.1622 7.73898L16.6013 5.76854L17.0025 5.91386C17.1508 5.96777 17.2496 6.10858 17.2499 6.26629V6.30028L12.3744 8.46544Z" fill="#C4C4C4"/>
<path d="M7.75009 4.04498L5.96348 0.216481C5.90187 0.0843843 5.76927 0 5.62361 0C5.47795 0 5.34535 0.0843843 5.28373 0.216481L0.0332794 11.4675C-0.0189594 11.5836 -0.00924647 11.7184 0.0592306 11.8259C0.127709 11.9334 0.245744 11.9992 0.373152 12.001H5.24857L5.24891 12.0005V6.26618C5.24975 5.8811 5.36862 5.50557 5.58979 5.19029C5.81079 4.87503 6.12336 4.63528 6.48519 4.50319L7.75009 4.04498Z" fill="#C4C4C4"/>
</svg>
