<svg width="18" height="17" viewBox="0 0 18 17" fill="none" xmlns="http://www.w3.org/2000/svg">
<path d="M0.222613 5.09768L1.01238 5.56068C1.17577 5.64237 1.25746 5.83312 1.25746 6.02368C1.25746 6.29612 1.25746 6.56836 1.28463 6.84082C1.3118 7.03157 1.2301 7.19496 1.06671 7.30382L0.304089 7.82136C0.11334 7.95759 0.0590032 8.20267 0.140698 8.39343L0.63086 9.4828C0.712555 9.67354 0.957641 9.78241 1.17554 9.72788L2.04721 9.4828C2.23796 9.42827 2.42851 9.4828 2.53737 9.61902C2.72812 9.80977 2.91867 10.0003 3.13658 10.1637C3.2728 10.2726 3.35449 10.4633 3.32733 10.6539L3.16393 11.5527C3.10941 11.7706 3.24563 11.9885 3.46355 12.0702L4.60763 12.506C4.82555 12.5877 5.04346 12.506 5.1797 12.3153L5.64269 11.5255C5.72439 11.3621 5.91514 11.2804 6.10569 11.2804C6.35078 11.2804 6.62323 11.2804 6.86831 11.2533C7.05906 11.2261 7.22245 11.3078 7.33131 11.4712L7.84886 12.2338C7.98508 12.4246 8.23016 12.4789 8.42092 12.3972L9.51029 11.907C9.70104 11.8254 9.8099 11.5803 9.75537 11.3624L9.51029 10.4907C9.45576 10.2999 9.51029 10.1094 9.67368 10.0005C9.86443 9.80979 10.055 9.61923 10.2184 9.42847C10.3272 9.29225 10.518 9.21055 10.7085 9.23772L11.6073 9.40111C11.8252 9.45564 12.0432 9.31942 12.1249 9.1015L12.5607 7.95742C12.6424 7.7395 12.5607 7.52159 12.37 7.38535L11.6073 6.94952C11.4439 6.86783 11.3622 6.67708 11.3622 6.48652C11.3894 6.21408 11.3622 5.94184 11.3351 5.69676C11.3079 5.50601 11.3896 5.34263 11.553 5.23376L12.3156 4.71622C12.5064 4.58 12.5607 4.33492 12.479 4.14415L11.9888 3.05479C11.9072 2.86404 11.6621 2.75518 11.4442 2.8097L10.5725 3.05479C10.3817 3.10931 10.1912 3.05479 10.0823 2.91857C9.91894 2.72782 9.70103 2.53726 9.51027 2.37388C9.37405 2.26502 9.29235 2.07427 9.31952 1.88372L9.48291 0.984915C9.53744 0.766998 9.40122 0.549086 9.1833 0.467372L8.03922 0.0315425C7.8213 -0.0501526 7.60339 0.0315424 7.46715 0.222291L7.03132 0.984915C6.94963 1.14831 6.75888 1.23 6.56832 1.23C6.29588 1.20283 6.02364 1.23 5.75118 1.25717C5.56043 1.28434 5.36987 1.20264 5.28818 1.03925L4.77064 0.303816C4.63441 0.113067 4.38933 0.0587298 4.19857 0.140425L3.1092 0.630586C2.91846 0.712281 2.80959 0.957367 2.86412 1.17527L3.1092 2.04694C3.16373 2.23769 3.1092 2.42824 2.97298 2.5371C2.78223 2.72785 2.59168 2.9184 2.4283 3.1363C2.31944 3.27253 2.12869 3.35422 1.93814 3.32705L1.03933 3.16366C0.821414 3.13649 0.603502 3.24536 0.521788 3.43611L0.0859583 4.58019C-0.0770527 4.77094 0.00469637 4.9888 0.222613 5.09768ZM3.76342 5.34277C4.25358 3.95375 5.77897 3.2455 7.1408 3.73586C8.52982 4.22602 9.23807 5.75141 8.74771 7.11324C8.25755 8.50226 6.73216 9.21051 5.37033 8.72015C3.98116 8.25716 3.27306 6.73193 3.76342 5.34277Z" fill="url(#paint0_linear_2638_4373)"/>
<path fill-rule="evenodd" clip-rule="evenodd" d="M10.4636 15.2569C10.3819 15.3658 10.4091 15.502 10.4908 15.611L10.981 16.1012C11.0627 16.21 11.2261 16.21 11.3351 16.1284L11.7709 15.8287C11.8526 15.7742 11.9889 15.747 12.0705 15.8016C12.1772 15.8655 12.3005 15.9128 12.4144 15.9565C12.4459 15.9686 12.4768 15.9805 12.5064 15.9923C12.6152 16.0195 12.6971 16.1285 12.6971 16.2374L12.7788 16.7821C12.806 16.9183 12.915 17 13.0513 17H13.7595C13.8957 17 14.0046 16.9183 14.032 16.7821L14.1137 16.2374C14.1408 16.1285 14.2225 16.0467 14.3044 16.0195C14.4678 15.965 14.604 15.9106 14.7402 15.8287C14.8491 15.7742 14.9581 15.7742 15.0398 15.8559L15.4757 16.1827C15.5845 16.2644 15.7481 16.2372 15.8298 16.1555L16.32 15.6654C16.4288 15.5565 16.4288 15.4203 16.3471 15.3112L16.0475 14.8754C15.993 14.7937 15.9658 14.6575 16.0204 14.5758C16.1018 14.44 16.1562 14.3041 16.2106 14.1685L16.2111 14.1673C16.2383 14.0584 16.3473 13.9766 16.4562 13.9766L17.0009 13.8949C17.1371 13.8677 17.2188 13.7586 17.2188 13.6224V12.9142C17.2188 12.778 17.1371 12.6691 17.0009 12.6417L16.4833 12.56C16.3745 12.5329 16.2926 12.4512 16.2382 12.3421C16.1837 12.1787 16.1294 12.0425 16.0748 11.9063C16.0203 11.7974 16.0203 11.6884 16.102 11.6067L16.4288 11.1709C16.5105 11.062 16.4833 10.8984 16.4016 10.8167L15.9115 10.3266C15.8298 10.2177 15.6664 10.2177 15.5573 10.2994L15.1215 10.599C15.0398 10.6535 14.9036 10.6807 14.8219 10.6262C14.7152 10.5622 14.5919 10.5149 14.4781 10.4712C14.4465 10.4591 14.4156 10.4473 14.3861 10.4354C14.2772 10.4083 14.1953 10.2992 14.1953 10.1903L14.1136 9.64565C14.0865 9.50943 13.9774 9.42773 13.8412 9.42773H13.1329C12.9967 9.42773 12.8878 9.50943 12.8605 9.64565L12.7788 10.1632C12.7516 10.2721 12.6699 10.3539 12.5609 10.4083C12.4928 10.4355 12.4179 10.4628 12.343 10.49C12.2681 10.5172 12.1932 10.5444 12.125 10.5717C12.0162 10.6262 11.9071 10.6262 11.8254 10.5445L11.3896 10.2177C11.2807 10.136 11.1172 10.1632 11.0355 10.2449L10.5453 10.7351C10.4364 10.8439 10.4364 10.9801 10.5181 11.0892L10.8178 11.525C10.8723 11.6067 10.8994 11.7429 10.8449 11.8246C10.7632 11.9608 10.7087 12.1242 10.6542 12.2876L10.6542 12.2876C10.627 12.3965 10.5179 12.4784 10.4091 12.4784L9.8644 12.5601C9.72818 12.5872 9.64648 12.6963 9.64648 12.8325V13.5408C9.64648 13.677 9.72818 13.7858 9.8644 13.8132L10.4091 13.8949C10.5179 13.9221 10.5998 14.0038 10.627 14.0856C10.6815 14.249 10.7359 14.3853 10.8178 14.5215C10.8723 14.6303 10.8723 14.7394 10.7906 14.8211L10.4636 15.2569ZM12.343 12.0704C12.9422 11.444 13.9499 11.444 14.5765 12.0432C15.2029 12.6425 15.2029 13.6502 14.6037 14.2767C14.0045 14.9031 12.9968 14.9031 12.3702 14.3039C11.7438 13.7047 11.7166 12.6968 12.343 12.0704Z" fill="url(#paint1_linear_2638_4373)"/>
<defs>
<linearGradient id="paint0_linear_2638_4373" x1="9.83687" y1="-3.31931" x2="3.21799" y2="15.6438" gradientUnits="userSpaceOnUse">
<stop stop-color="#1AE3D7"/>
<stop offset="1" stop-color="#0945DF"/>
</linearGradient>
<linearGradient id="paint1_linear_2638_4373" x1="15.8666" y1="6.99379" x2="7.48303" y2="23.761" gradientUnits="userSpaceOnUse">
<stop stop-color="#FFC700"/>
<stop offset="1" stop-color="#DF0909"/>
</linearGradient>
</defs>
</svg>
