<svg width="16" height="16" viewBox="0 0 16 16" fill="none" xmlns="http://www.w3.org/2000/svg">
<path d="M12.185 7.22266L8.36993 9.41697V13.8058L12.185 16.0001L16 13.8058V9.41697L12.185 7.22266ZM9.70848 12.9452C9.70848 13.1288 9.55848 13.2783 9.37375 13.2783C9.18902 13.2783 9.03948 13.1288 9.03948 12.9452V10.2783C9.03948 10.0937 9.18892 9.94523 9.37375 9.94523C9.55848 9.94523 9.70848 10.0937 9.70848 10.2783V12.9452Z" fill="url(#paint0_linear_2638_3039)"/>
<path d="M11.815 2.19431L7.99992 0L4.18488 2.19431V6.58317L7.99992 8.77748L11.815 6.58317V2.19431ZM7.92048 1.58594L5.60283 2.91897C5.44253 3.01082 5.23819 2.95614 5.14556 2.79687C5.05337 2.63772 5.10781 2.43359 5.26812 2.34185L7.58634 1.00782C7.74608 0.915965 7.95098 0.970651 8.04306 1.12991C8.13571 1.29007 8.08082 1.4932 7.92051 1.58594H7.92048Z" fill="url(#paint1_linear_2638_3039)"/>
<path d="M0 9.41697V13.8058L3.81505 16.0001L7.63009 13.8058V9.41697L3.81505 7.22266L0 9.41697ZM4.22858 8.23048L6.54681 9.56451C6.70655 9.65636 6.76144 9.86037 6.66936 10.0195C6.57671 10.1787 6.3724 10.2334 6.21209 10.1416L3.89444 8.80861C3.73413 8.71586 3.67924 8.51275 3.77189 8.35258C3.86397 8.19343 4.06885 8.13874 4.22861 8.23048H4.22858Z" fill="url(#paint2_linear_2638_3039)"/>
<defs>
<linearGradient id="paint0_linear_2638_3039" x1="14.3304" y1="4.89883" x2="9.16445" y2="17.7089" gradientUnits="userSpaceOnUse">
<stop stop-color="#1AE3D7"/>
<stop offset="1" stop-color="#0945DF"/>
</linearGradient>
<linearGradient id="paint1_linear_2638_3039" x1="10.1454" y1="-2.32383" x2="4.97939" y2="10.4862" gradientUnits="userSpaceOnUse">
<stop stop-color="#1AE3D7"/>
<stop offset="1" stop-color="#0945DF"/>
</linearGradient>
<linearGradient id="paint2_linear_2638_3039" x1="6.26758" y1="4.40132" x2="-4.23262" y2="22.6565" gradientUnits="userSpaceOnUse">
<stop stop-color="#FFC700"/>
<stop offset="1" stop-color="#DF0909"/>
</linearGradient>
</defs>
</svg>
