<svg width="42" height="44" viewBox="0 0 42 44" fill="none" xmlns="http://www.w3.org/2000/svg">
<path d="M14.2595 32.3698C14.6481 32.1761 14.891 31.7884 14.8422 31.4007L14.7938 30.3347C15.0851 30.141 15.3765 29.8986 15.6194 29.6563L16.6394 29.947C17.028 30.044 17.465 29.8986 17.7079 29.6076C17.9508 29.2682 17.9992 28.8322 17.8051 28.4445L17.3193 27.5237C17.5134 27.233 17.6594 26.8936 17.8051 26.5546L18.8252 26.3609C19.2137 26.2639 19.5535 25.9732 19.6508 25.5855C19.748 25.1978 19.6023 24.7618 19.2622 24.5194L18.4366 23.8894V23.3563V22.8232L19.2622 22.1932C19.6023 21.9508 19.748 21.5148 19.6508 21.1271C19.5535 20.7394 19.2137 20.4003 18.8252 20.3517L17.902 20.0616C17.7563 19.7223 17.6106 19.3832 17.4162 19.0926L17.902 18.1718C18.0961 17.7841 18.0476 17.348 17.8047 17.0087C17.5618 16.6693 17.1248 16.5239 16.7363 16.6693L15.6678 16.9117C15.3765 16.6693 15.1336 16.4269 14.8423 16.2333L14.8907 15.1672C14.8907 14.7311 14.6478 14.3434 14.308 14.1981C13.9679 14.0527 13.4824 14.0527 13.1423 14.3434L12.3652 15.0218C12.0251 14.9248 11.6853 14.8282 11.2967 14.7795L10.8597 13.8104C10.714 13.4227 10.3255 13.1803 9.88848 13.1803C9.45146 13.1803 9.11134 13.4227 8.91724 13.8104L8.48022 14.7795C8.14009 14.8278 7.75187 14.9248 7.41176 15.0218L6.63463 14.3434C6.2945 14.0527 5.85749 14.0041 5.46895 14.1981C5.08037 14.3918 4.83748 14.7795 4.88626 15.1672L4.9347 16.2333C4.64336 16.4269 4.35201 16.6693 4.10912 16.9117L3.0894 16.6693C2.70083 16.5723 2.26382 16.7176 1.97246 17.0087C1.72956 17.348 1.68112 17.7841 1.87524 18.1718L2.36104 19.0926C2.16692 19.3833 2.02091 19.7226 1.87524 20.0616L0.855172 20.2553C0.466599 20.3523 0.126817 20.643 0.0295892 21.0307C-0.0676386 21.4184 0.0780331 21.8545 0.418162 22.0968L1.24375 22.7269V23.26V23.793L0.418162 24.4231C0.078034 24.6654 -0.0676386 25.1015 0.0295892 25.4892C0.126817 25.9736 0.466945 26.2643 0.85551 26.3609L1.87558 26.5546C2.02125 26.894 2.16692 27.233 2.36138 27.5237L1.87558 28.4445C1.68146 28.8322 1.7299 29.2682 1.9728 29.6076C2.2157 29.9469 2.65271 30.0923 3.04126 29.9469L4.06132 29.6562C4.30423 29.8986 4.59557 30.141 4.88691 30.3346L4.83846 31.4007C4.83846 31.8368 5.08136 32.2245 5.42115 32.3698C5.80973 32.5635 6.24674 32.5152 6.58683 32.2245L7.36397 31.5461C7.7041 31.6431 8.04388 31.7398 8.43243 31.7884L8.86944 32.7575C9.01512 33.1452 9.40369 33.3876 9.84068 33.3876C10.2777 33.3876 10.6178 33.1452 10.8119 32.7575L11.2489 31.7884C11.5891 31.7401 11.9773 31.6431 12.3174 31.5461L13.0945 32.2245C13.434 32.5152 13.9194 32.5635 14.2596 32.3698L14.2595 32.3698ZM9.88874 28.9291C6.7805 28.9291 4.20649 26.4092 4.20649 23.2595C4.20649 20.1581 6.73202 17.5898 9.88874 17.5898C12.997 17.5898 15.571 20.1097 15.571 23.2595C15.571 26.4094 12.997 28.9291 9.88874 28.9291V28.9291Z" fill="url(#paint0_linear_5879_11214)"/>
<path d="M26.8868 34.8897L26.0128 34.7443C25.9643 34.5507 25.8671 34.405 25.8187 34.2113L26.3529 33.5329C26.6443 33.1452 26.6443 32.6608 26.3529 32.273C26.0616 31.8853 25.5758 31.74 25.1388 31.9337L24.3132 32.2244C24.1675 32.079 24.0218 31.982 23.8762 31.885L23.9734 31.0129C24.0218 30.5282 23.7793 30.0921 23.3419 29.8985C22.9049 29.7048 22.4191 29.8501 22.1278 30.1892L21.5451 30.8676C21.351 30.8192 21.1565 30.8192 20.9624 30.7705L20.6222 29.9468C20.4759 29.5107 20.0389 29.2684 19.5531 29.3167C19.0673 29.3651 18.7275 29.7044 18.6303 30.1888L18.4846 31.0609C18.2905 31.1092 18.1445 31.2062 17.9503 31.2546L17.2704 30.7222C16.8819 30.4315 16.3964 30.4315 16.0078 30.7222C15.6192 31.0129 15.4735 31.4976 15.6677 31.9337L15.959 32.7574C15.8133 32.9028 15.7161 33.0481 15.6189 33.1935L14.6964 33.0964C14.2106 33.0481 13.7735 33.2901 13.5794 33.7265C13.3853 34.1626 13.531 34.6473 13.8708 34.938L14.5507 35.5194C14.5023 35.7131 14.5023 35.9071 14.4535 36.1008L13.6279 36.4401C13.2393 36.5855 12.9968 37.0219 13.0452 37.5062C13.0936 37.991 13.4338 38.33 13.9192 38.427L14.7932 38.5724C14.8417 38.7661 14.9389 38.9118 14.9874 39.1054L14.4531 39.7839C14.1618 40.1716 14.1618 40.6559 14.4531 41.0437C14.7445 41.4314 15.2302 41.5768 15.6673 41.3831L16.4928 41.0924C16.6385 41.2377 16.7842 41.3347 16.9299 41.4317L16.8326 42.3038C16.7842 42.7885 17.0268 43.2246 17.4641 43.4183C17.9011 43.612 18.3869 43.4666 18.6783 43.1276L19.2609 42.4492C19.4551 42.4975 19.6495 42.4975 19.8436 42.5462L20.1838 43.3699C20.3294 43.7577 20.718 44 21.155 44H21.3007C21.7865 43.9517 22.1263 43.6123 22.2235 43.1279L22.3692 42.2558C22.5633 42.2075 22.7093 42.1105 22.9034 42.0622L23.5834 42.5952C23.9719 42.8859 24.4574 42.8859 24.846 42.5952C25.2346 42.3045 25.3802 41.8198 25.1861 41.3838L24.8948 40.56C25.0404 40.4147 25.1377 40.2693 25.2349 40.124L26.1089 40.221C26.5947 40.2693 27.0318 40.0273 27.2259 39.5909C27.42 39.1548 27.2743 38.6701 26.9345 38.3794L26.2546 37.798C26.303 37.6044 26.303 37.4103 26.3518 37.2166L27.1774 36.8773C27.6144 36.6836 27.8573 36.2472 27.8089 35.8112C27.7123 35.3258 27.3238 34.9864 26.8867 34.8898L26.8868 34.8897ZM20.3787 40.0746C18.4846 40.0746 16.9303 38.5237 16.9303 36.6339C16.9303 34.744 18.4846 33.1931 20.3787 33.1931C22.2727 33.1931 23.827 34.744 23.827 36.6339C23.827 38.5241 22.2727 40.0746 20.3787 40.0746Z" fill="url(#paint1_linear_5879_11214)"/>
<path d="M41.5538 13.6164L40.6798 12.9863V12.6956C40.6798 12.4533 40.6798 12.1626 40.6313 11.9202L41.5053 11.2418C41.8455 10.9994 41.9911 10.6117 41.8939 10.224C41.7967 9.83629 41.5053 9.49726 41.1168 9.40025L40.0483 9.10955C39.9511 8.77018 39.8054 8.43115 39.6597 8.14047L40.2424 7.21967C40.4365 6.8803 40.4853 6.44426 40.2424 6.10521C39.9995 5.76584 39.6597 5.57215 39.2712 5.62049L38.1542 5.7175C37.9113 5.4268 37.7172 5.18444 37.4743 4.94209L37.7172 3.876C37.8145 3.48829 37.6688 3.10058 37.3287 2.80991C37.0373 2.56755 36.6003 2.51921 36.2117 2.66456L35.2405 3.14928C34.9491 2.9556 34.609 2.80991 34.3176 2.61622L34.172 1.55014C34.1232 1.16242 33.8803 0.823397 33.4921 0.678056C33.1035 0.532706 32.7149 0.629719 32.4236 0.920418L31.6465 1.69583C31.3063 1.6475 30.9666 1.55048 30.578 1.55048L30.0922 0.581398C29.8981 0.242024 29.5095 0 29.121 0C28.7324 0 28.3438 0.242362 28.1981 0.581398L27.7611 1.55048C27.421 1.59882 27.0328 1.69583 26.6926 1.74417L25.8671 1.06542C25.5757 0.774722 25.1387 0.726047 24.7986 0.871734C24.41 1.01708 24.1671 1.35646 24.1187 1.74381L24.0215 2.8099C23.7301 3.00359 23.39 3.14928 23.0986 3.34296L22.0786 2.90691C21.69 2.76156 21.3014 2.8099 20.9616 3.1006C20.6703 3.34296 20.5246 3.779 20.6215 4.16669L20.9128 5.23278C20.6699 5.47514 20.4758 5.76584 20.2329 6.05653L19.116 6.00819C18.7274 6.00819 18.3389 6.20188 18.1448 6.54125C17.9507 6.88063 17.9506 7.31667 18.1932 7.65571L18.8247 8.52779C18.679 8.86717 18.5818 9.20619 18.4845 9.54559L17.4645 9.88497C17.0759 9.98198 16.7846 10.321 16.7361 10.7087C16.6877 11.0964 16.8333 11.4841 17.1731 11.7265L18.0472 12.3566V12.6473C18.0472 12.8896 18.0472 13.1803 18.0956 13.4227L17.2216 14.1011C16.8815 14.3435 16.7358 14.7312 16.833 15.1189C16.9302 15.5066 17.2216 15.8456 17.6101 15.9427L18.6786 16.2334C18.7758 16.5727 18.9215 16.9118 19.0672 17.2024L18.4845 18.1232C18.2904 18.4626 18.2416 18.8987 18.4845 19.2377C18.6786 19.5771 19.0672 19.7708 19.4557 19.7224L20.5727 19.6254C20.8156 19.9161 21.0097 20.1585 21.2526 20.4008L21.0097 21.4669C20.9124 21.8546 21.0581 22.2423 21.3982 22.533C21.6896 22.7754 22.1266 22.8237 22.5152 22.6783L23.4864 22.2423C23.7778 22.436 24.1179 22.5817 24.4093 22.7754L24.5549 23.8414C24.6034 24.2292 24.8951 24.5682 25.2833 24.7135C25.6719 24.8589 26.0604 24.7619 26.3517 24.4712L27.1289 23.6958C27.469 23.7441 27.8088 23.8411 28.1973 23.8411L28.6831 24.8102C28.8773 25.1496 29.2174 25.3916 29.606 25.3916C29.9946 25.3916 30.3831 25.1492 30.5288 24.7615L30.9659 23.7924C31.306 23.7441 31.6942 23.6471 32.0343 23.5987L32.8599 24.3255C33.1512 24.6162 33.5882 24.6649 33.9283 24.5192C34.3169 24.3738 34.5598 24.0345 34.6083 23.6471L34.7055 22.581C34.9968 22.3873 35.337 22.2416 35.6283 22.0479L36.6484 22.484C37.037 22.6293 37.4255 22.581 37.7653 22.2903C38.0567 22.0479 38.2023 21.6119 38.1055 21.2242L37.8141 20.1581C38.057 19.9158 38.2511 19.6251 38.494 19.3344L39.611 19.3827C39.9995 19.3827 40.3881 19.189 40.5822 18.8497C40.7763 18.5103 40.7279 18.0742 40.5338 17.7352L39.9023 16.8631C40.048 16.5237 40.1452 16.1847 40.2424 15.8453L41.2625 15.5059C41.6511 15.4089 41.9424 15.0699 41.9908 14.6822C42.0396 14.2461 41.894 13.8588 41.5538 13.6164L41.5538 13.6164ZM29.4122 20.9335C24.8469 20.9335 21.156 17.2508 21.156 12.6957C21.156 8.14057 24.847 4.45781 29.4122 4.45781C33.9774 4.45781 37.6684 8.14057 37.6684 12.6957C37.6684 17.2508 33.9774 20.9335 29.4122 20.9335V20.9335Z" fill="url(#paint2_linear_5879_11214)"/>
<defs>
<linearGradient id="paint0_linear_5879_11214" x1="15.374" y1="7.83049" x2="4.44806" y2="38.1848" gradientUnits="userSpaceOnUse">
<stop stop-color="#1AE3D7"/>
<stop offset="1" stop-color="#0945DF"/>
</linearGradient>
<linearGradient id="paint1_linear_5879_11214" x1="24.5818" y1="25.4216" x2="16.8362" y2="47.6467" gradientUnits="userSpaceOnUse">
<stop stop-color="#1AE3D7"/>
<stop offset="1" stop-color="#0945DF"/>
</linearGradient>
<linearGradient id="paint2_linear_5879_11214" x1="36.4699" y1="-6.72239" x2="22.9702" y2="31.6066" gradientUnits="userSpaceOnUse">
<stop stop-color="#1AE3D7"/>
<stop offset="1" stop-color="#0945DF"/>
</linearGradient>
</defs>
</svg>
