<svg
  width="46"
  height="51"
  viewBox="0 0 46 51"
  fill="none"
  xmlns="http://www.w3.org/2000/svg"
>
  <path
    fill-rule="evenodd"
    clip-rule="evenodd"
    d="M1.59568 1.30078H11.5659L10.6329 2.28719H1.59594C1.26103 2.28719 0.98649 2.5594 0.98649 2.8943V4.76902L0.365354 5.4252C0.211528 5.58564 0.0908102 5.76711 6.99747e-05 5.95793V2.89438C6.99747e-05 2.01739 0.718943 1.30089 1.59595 1.30089L1.59568 1.30078ZM14.2706 6.83492V13.9738C14.2706 14.8508 13.5541 15.5697 12.6747 15.5697H1.59588C0.718895 15.5697 0 14.8508 0 13.9738V7.70723C0.0140188 7.72086 0.0280392 7.73488 0.0416692 7.74656C0.141751 7.93972 0.276495 8.12119 0.441606 8.2793L0.986018 8.79801V13.9761C0.986018 14.3111 1.26056 14.5856 1.59547 14.5856H12.6753C13.0102 14.5856 13.2848 14.3111 13.2848 13.9761L13.2851 7.87466L14.2706 6.83492Z"
    fill="url(#paint0_radial_68_357)"
  />
  <path
    fill-rule="evenodd"
    clip-rule="evenodd"
    d="M2.36921 4.93867L1.17798 6.19729C0.838409 6.55557 0.852426 7.12529 1.21303 7.46488L6.30752 12.2965C6.43565 12.4176 6.59375 12.4943 6.75653 12.5243C6.80521 12.5337 6.85622 12.5407 6.90529 12.5407C6.94268 12.5407 6.97733 12.5407 7.01472 12.5383C7.03575 12.536 7.05678 12.5337 7.07742 12.529C7.12143 12.522 7.16348 12.5126 7.2032 12.4986L7.22891 12.4893C7.35197 12.4453 7.46334 12.3755 7.56108 12.2801L7.57744 12.2638L8.45676 11.3334L8.7683 11.0055L16.6378 2.70573C16.9774 2.34746 16.9634 1.77774 16.6028 1.43814L15.3469 0.244522C14.9886 -0.0950506 14.4189 -0.0787009 14.0789 0.27957L6.82623 7.92789L3.63915 4.90631C3.28088 4.56673 2.70882 4.58036 2.36927 4.93863L2.36921 4.93867Z"
    fill="url(#paint1_radial_68_357)"
  />
  <path
    fill-rule="evenodd"
    clip-rule="evenodd"
    d="M1.59568 19.2959H11.5659L10.6329 20.28H1.59594C1.26103 20.28 0.98649 20.5545 0.98649 20.8894V22.7645L0.365354 23.4203C0.211917 23.5808 0.0908102 23.7622 6.99747e-05 23.9531V20.8895C6.99747e-05 20.0125 0.718943 19.296 1.59595 19.296L1.59568 19.2959ZM14.2706 24.8319V31.9708C14.2706 32.8478 13.5541 33.5667 12.6747 33.5667H1.59588C0.718895 33.5667 0 32.8478 0 31.9708V25.7042C0.0140188 25.7183 0.0257023 25.7323 0.0397221 25.744C0.139804 25.9371 0.274548 26.1186 0.439659 26.2767L0.984071 26.7954V31.9735C0.984071 32.3085 1.25861 32.583 1.59352 32.583H12.6734C13.0083 32.583 13.2828 32.3085 13.2828 31.9735V25.8744L14.2706 24.8319Z"
    fill="url(#paint2_radial_68_357)"
  />
  <path
    fill-rule="evenodd"
    clip-rule="evenodd"
    d="M2.36934 22.9367L1.17812 24.1931C0.838543 24.5513 0.854893 25.1234 1.21316 25.463L6.30766 30.2946C6.43578 30.418 6.59388 30.4924 6.75666 30.5247C6.80534 30.5341 6.85441 30.5387 6.90542 30.5411C6.94281 30.5411 6.97747 30.5387 7.01486 30.5364C7.03589 30.5341 7.05691 30.5294 7.07755 30.527C7.12156 30.52 7.16362 30.5084 7.20334 30.4943L7.22904 30.485C7.35015 30.441 7.46387 30.3709 7.55927 30.2755L7.57563 30.2591L8.45495 29.3311L8.76649 29.0032L16.636 20.7011C16.9775 20.3432 16.9635 19.7731 16.6053 19.4335L15.347 18.2427C14.9888 17.9031 14.419 17.9171 14.079 18.2754L6.8284 25.9237L3.63943 22.9021C3.28116 22.5622 2.7091 22.5762 2.36955 22.9368L2.36934 22.9367Z"
    fill="url(#paint3_radial_68_357)"
  />
  <path
    fill-rule="evenodd"
    clip-rule="evenodd"
    d="M19.0927 5.74841H43.9202C44.5993 5.74841 45.1531 6.30451 45.1531 6.9837C45.1531 7.6629 44.5993 8.219 43.9202 8.219H19.0927C18.4136 8.219 17.8574 7.6629 17.8574 6.9837C17.8574 6.30451 18.4135 5.74841 19.0927 5.74841Z"
    fill="url(#paint4_radial_68_357)"
  />
  <path
    fill-rule="evenodd"
    clip-rule="evenodd"
    d="M19.0927 11.3455H43.9202C44.5993 11.3455 45.1531 11.9016 45.1531 12.5807C45.1531 13.2599 44.5993 13.8136 43.9202 13.8136H19.0927C18.4136 13.8136 17.8574 13.2599 17.8574 12.5807C17.8574 11.8993 18.4135 11.3455 19.0927 11.3455Z"
    fill="url(#paint5_radial_68_357)"
  />
  <path
    fill-rule="evenodd"
    clip-rule="evenodd"
    d="M19.0927 23.743H43.9202C44.5993 23.743 45.1531 24.2991 45.1531 24.9783C45.1531 25.6575 44.5993 26.2112 43.9202 26.2112H19.0927C18.4136 26.2112 17.8574 25.6575 17.8574 24.9783C17.8574 24.2988 18.4135 23.743 19.0927 23.743Z"
    fill="url(#paint6_radial_68_357)"
  />
  <path
    fill-rule="evenodd"
    clip-rule="evenodd"
    d="M19.0927 29.3398H43.9202C44.5993 29.3398 45.1531 29.8959 45.1531 30.5751C45.1531 31.2543 44.5993 31.808 43.9202 31.808L19.0927 31.8076C18.4136 31.8076 17.8574 31.2539 17.8574 30.5747C17.8574 29.8956 18.4135 29.3399 19.0927 29.3399V29.3398Z"
    fill="url(#paint7_radial_68_357)"
  />
  <path
    fill-rule="evenodd"
    clip-rule="evenodd"
    d="M19.0927 41.4106H43.9202C44.5993 41.4106 45.1531 41.9644 45.1531 42.6435C45.1531 43.3227 44.5993 43.8788 43.9202 43.8788H19.0927C18.4136 43.8788 17.8574 43.3227 17.8574 42.6435C17.8574 41.9643 18.4135 41.4106 19.0927 41.4106Z"
    fill="url(#paint8_radial_68_357)"
  />
  <path
    fill-rule="evenodd"
    clip-rule="evenodd"
    d="M19.0927 47.0054H43.9202C44.5993 47.0054 45.1531 47.5615 45.1531 48.2407C45.1531 48.9199 44.5993 49.4736 43.9202 49.4736H19.0927C18.4136 49.4736 17.8574 48.9198 17.8574 48.2407C17.8574 47.5615 18.4135 47.0054 19.0927 47.0054Z"
    fill="url(#paint9_radial_68_357)"
  />
  <path
    fill-rule="evenodd"
    clip-rule="evenodd"
    d="M1.59578 37.9495H12.6756C13.0105 37.9495 13.2851 38.2217 13.2851 38.5589V49.6388C13.2851 49.9737 13.0105 50.2482 12.6756 50.2482H1.59578C1.26087 50.2482 0.986328 49.9737 0.986328 49.6388V38.5589C0.986328 38.2217 1.26048 37.9495 1.59578 37.9495ZM2.02376 38.9846V49.21H12.2492V38.9846H2.02376Z"
    fill="url(#paint10_radial_68_357)"
  />
  <defs>
    <radialGradient
      id="paint0_radial_68_357"
      cx="0"
      cy="0"
      r="1"
      gradientUnits="userSpaceOnUse"
      gradientTransform="translate(9.60717 3.9762) rotate(102.036) scale(11.8541 11.8554)"
    >
      <stop stop-color="#1AE3D7" />
      <stop offset="1" stop-color="#0945DF" />
    </radialGradient>
    <radialGradient
      id="paint1_radial_68_357"
      cx="0"
      cy="0"
      r="1"
      gradientUnits="userSpaceOnUse"
      gradientTransform="translate(11.6708 2.35137) rotate(105.171) scale(10.5572 13.0767)"
    >
      <stop stop-color="#1AE3D7" />
      <stop offset="1" stop-color="#0945DF" />
    </radialGradient>
    <radialGradient
      id="paint2_radial_68_357"
      cx="0"
      cy="0"
      r="1"
      gradientUnits="userSpaceOnUse"
      gradientTransform="translate(9.60717 21.9717) rotate(102.034) scale(11.8556 11.8554)"
    >
      <stop stop-color="#1AE3D7" />
      <stop offset="1" stop-color="#0945DF" />
    </radialGradient>
    <radialGradient
      id="paint3_radial_68_357"
      cx="0"
      cy="0"
      r="1"
      gradientUnits="userSpaceOnUse"
      gradientTransform="translate(11.6712 20.3491) rotate(105.167) scale(10.5598 13.0762)"
    >
      <stop stop-color="#1AE3D7" />
      <stop offset="1" stop-color="#0945DF" />
    </radialGradient>
    <radialGradient
      id="paint4_radial_68_357"
      cx="0"
      cy="0"
      r="1"
      gradientUnits="userSpaceOnUse"
      gradientTransform="translate(36.2332 6.21165) rotate(156.996) scale(5.13648 9.06102)"
    >
      <stop stop-color="#1AE3D7" />
      <stop offset="1" stop-color="#0945DF" />
    </radialGradient>
    <radialGradient
      id="paint5_radial_68_357"
      cx="0"
      cy="0"
      r="1"
      gradientUnits="userSpaceOnUse"
      gradientTransform="translate(36.2332 11.8082) rotate(157.016) scale(5.13572 9.05358)"
    >
      <stop stop-color="#1AE3D7" />
      <stop offset="1" stop-color="#0945DF" />
    </radialGradient>
    <radialGradient
      id="paint6_radial_68_357"
      cx="0"
      cy="0"
      r="1"
      gradientUnits="userSpaceOnUse"
      gradientTransform="translate(36.2332 24.2058) rotate(157.016) scale(5.13572 9.05358)"
    >
      <stop stop-color="#1AE3D7" />
      <stop offset="1" stop-color="#0945DF" />
    </radialGradient>
    <radialGradient
      id="paint7_radial_68_357"
      cx="0"
      cy="0"
      r="1"
      gradientUnits="userSpaceOnUse"
      gradientTransform="translate(36.2332 29.8026) rotate(157.015) scale(5.13572 9.05359)"
    >
      <stop stop-color="#1AE3D7" />
      <stop offset="1" stop-color="#0945DF" />
    </radialGradient>
    <radialGradient
      id="paint8_radial_68_357"
      cx="0"
      cy="0"
      r="1"
      gradientUnits="userSpaceOnUse"
      gradientTransform="translate(36.2332 41.8734) rotate(157.016) scale(5.13572 9.05358)"
    >
      <stop stop-color="#1AE3D7" />
      <stop offset="1" stop-color="#0945DF" />
    </radialGradient>
    <radialGradient
      id="paint9_radial_68_357"
      cx="0"
      cy="0"
      r="1"
      gradientUnits="userSpaceOnUse"
      gradientTransform="translate(36.2332 47.4682) rotate(157.016) scale(5.13572 9.05358)"
    >
      <stop stop-color="#1AE3D7" />
      <stop offset="1" stop-color="#0945DF" />
    </radialGradient>
    <radialGradient
      id="paint10_radial_68_357"
      cx="0"
      cy="0"
      r="1"
      gradientUnits="userSpaceOnUse"
      gradientTransform="translate(9.26602 40.2555) rotate(102.035) scale(10.2173)"
    >
      <stop stop-color="#1AE3D7" />
      <stop offset="1" stop-color="#0945DF" />
    </radialGradient>
  </defs>
</svg>