<svg width="16" height="16" viewBox="0 0 16 16" fill="none" xmlns="http://www.w3.org/2000/svg">
<path fill-rule="evenodd" clip-rule="evenodd" d="M7.62913 12.774H8.59005C8.72697 11.164 9.51164 10.1342 10.9441 9.68458C11.8186 9.40191 12.6932 9.52125 13.5678 10.0425C12.5992 10.1255 11.8197 10.5111 11.2291 11.1993C10.8419 11.6438 10.6008 12.1656 10.5058 12.7648H11.5525C10.871 13.5646 10.2299 14.3005 9.62913 14.9724C8.75455 14.0066 8.08789 13.2738 7.62913 12.774ZM13.1004 12.7832H12.0705L13.977 10.5725L16 12.7648H15.0238C14.9247 14.2539 14.2146 15.2653 12.8935 15.7989C12.4378 15.975 11.9494 16.0355 11.4284 15.9802C10.9083 15.9249 10.4516 15.7661 10.0582 15.5039C11.0156 15.4312 11.788 15.0513 12.3755 14.364C12.7597 13.9175 13.0013 13.3906 13.1004 12.7832ZM7.50652 0C7.87538 0.00101393 8.27127 0.0481154 8.69426 0.141336C9.17141 0.245801 9.50756 0.376383 9.70269 0.533082C9.72822 0.553576 9.77113 0.606822 9.83142 0.692853C9.88559 0.77068 9.9285 0.817813 9.96016 0.834189C10.0082 0.860828 10.0976 0.880277 10.2284 0.892567C10.3581 0.903843 10.4552 0.927901 10.5195 0.964771C11.1867 1.34269 11.3303 2.56555 10.9502 4.63336C11.0646 4.64359 11.1351 4.74296 11.1617 4.9314C11.1862 5.10754 11.1683 5.31749 11.1081 5.56126C11.0457 5.81422 10.9528 6.03443 10.8291 6.22185C10.6891 6.43386 10.5328 6.56444 10.3602 6.6136C10.3336 6.73241 10.3142 6.86502 10.3019 7.01149C10.2937 7.10775 10.2662 7.22095 10.2192 7.35101C10.1926 7.42475 10.1477 7.50564 10.0843 7.59373C10.0087 7.69307 9.95302 7.76785 9.91725 7.81803C9.78444 7.99829 9.72721 8.1596 9.7456 8.30195C9.75786 8.39311 9.83808 8.44381 9.98621 8.45404C10.0261 8.45711 10.0858 8.4612 10.1655 8.46633C10.2298 8.47349 10.3133 8.50679 10.4161 8.56619C10.5191 8.62552 10.646 8.80166 10.7969 9.09463C9.23081 9.53726 8.34165 10.6093 8.12951 12.3108H7.20921C7.12547 12.3108 7.05341 12.3402 6.99311 12.3992C6.93261 12.4581 6.90119 12.5295 6.89886 12.6135C6.89659 12.6976 6.9239 12.7709 6.98085 12.8331C7.40534 13.2941 7.97163 13.915 8.6797 14.6959C8.29813 14.7051 7.90704 14.7097 7.50652 14.7097C5.43655 14.7097 3.66898 14.5817 2.20385 14.3256C1.51113 14.2037 0.975254 14.0644 0.596189 13.9077C0.202841 13.7449 0.00615195 13.5744 0.00615195 13.3962V13.3931C0.00207533 13.0469 2.17879e-05 12.7955 2.17879e-05 12.6388C-0.000989705 12.3674 0.0332171 12.1298 0.102704 11.926C0.230428 11.5501 0.686611 11.1661 1.47128 10.7738C1.72569 10.6458 2.05314 10.4988 2.45366 10.3329C2.96143 10.1219 3.23986 10.0057 3.28891 9.98412C3.35429 9.95441 3.57703 9.86891 3.9571 9.72757C4.2105 9.63229 4.38877 9.54525 4.49197 9.4664C4.57779 9.40084 4.6764 9.25591 4.78775 9.03164C4.90524 8.79405 5.02172 8.62251 5.13718 8.517C5.16578 8.49039 5.21227 8.47349 5.27664 8.46633C5.31444 8.4612 5.37424 8.4576 5.45595 8.45555C5.60513 8.44531 5.68584 8.3941 5.6981 8.30192C5.71649 8.15957 5.65926 7.99826 5.52645 7.818C5.44982 7.71968 5.39364 7.64492 5.35787 7.5937C5.29552 7.50561 5.25111 7.42524 5.22454 7.35251C5.17755 7.22346 5.15149 7.1103 5.14637 7.013C5.13923 6.87267 5.12237 6.74108 5.0958 6.61818C4.92314 6.56902 4.76578 6.43791 4.62377 6.2249C4.49911 6.03747 4.40461 5.81674 4.34025 5.56277C4.27793 5.31902 4.25902 5.10856 4.28354 4.93136C4.30907 4.74293 4.37856 4.64356 4.49197 4.63333C4.11395 2.56451 4.25749 1.34165 4.92262 0.96474L5.74101 0.533052C5.94637 0.367135 6.21046 0.236553 6.53335 0.141305C6.847 0.0481464 7.17141 0.00101393 7.50652 0Z" fill="black"/>
</svg>
