<svg width="14" height="14" viewBox="0 0 14 14" fill="none" xmlns="http://www.w3.org/2000/svg">
<path fill-rule="evenodd" clip-rule="evenodd" d="M0.623068 0H13.3893C13.7326 0 14.0123 0.279767 13.9996 0.623068V3.75193C13.9996 4.09526 13.7198 4.375 13.3765 4.375H0.623068C0.279738 4.375 0 4.09523 0 3.75193V0.623068C0 0.279738 0.279767 0 0.623068 0ZM1.86903 3.73818C2.03433 3.73818 2.1742 3.59831 2.1742 3.43301V1.46214C2.1742 1.29684 2.03433 1.15697 1.86903 1.15697H1.1951C1.0298 1.15697 0.889931 1.29684 0.889931 1.46214V3.43301C0.889931 3.59831 1.0298 3.73818 1.1951 3.73818H1.86903ZM4.01794 3.73818C4.18324 3.73818 4.32311 3.59831 4.32311 3.43301V1.46214C4.32311 1.29684 4.18324 1.15697 4.01794 1.15697H3.34401C3.17871 1.15697 3.03884 1.29684 3.03884 1.46214V3.43301C3.03884 3.59831 3.17871 3.73818 3.34401 3.73818H4.01794ZM12.2194 3.35673C12.4737 3.35673 12.7025 3.25501 12.8678 3.08971C13.0331 2.92442 13.1349 2.69553 13.1349 2.44122C13.1349 1.93261 12.728 1.52571 12.2194 1.52571C11.7108 1.52571 11.3039 1.93261 11.3039 2.44122C11.3039 2.94984 11.7108 3.35673 12.2194 3.35673ZM0.623068 5.25H13.3893C13.7326 5.25 14.0123 5.52977 13.9996 5.87307V9.00193C13.9996 9.34526 13.7198 9.625 13.3765 9.625H0.623068C0.279738 9.625 0 9.34523 0 9.00193V5.87307C0 5.52974 0.279767 5.25 0.623068 5.25ZM1.86903 8.98818C2.03433 8.98818 2.1742 8.84831 2.1742 8.68301V6.71214C2.1742 6.54684 2.03433 6.40697 1.86903 6.40697H1.1951C1.0298 6.40697 0.889931 6.54684 0.889931 6.71214V8.68301C0.889931 8.84831 1.0298 8.98818 1.1951 8.98818H1.86903ZM4.01794 8.98818C4.18324 8.98818 4.32311 8.84831 4.32311 8.68301V6.71214C4.32311 6.54684 4.18324 6.40697 4.01794 6.40697H3.34401C3.17871 6.40697 3.03884 6.54684 3.03884 6.71214V8.68301C3.03884 8.84831 3.17871 8.98818 3.34401 8.98818H4.01794ZM12.2194 8.60673C12.4737 8.60673 12.7025 8.50501 12.8678 8.33971C13.0331 8.17442 13.1349 7.94553 13.1349 7.69122C13.1349 7.18261 12.728 6.77571 12.2194 6.77571C11.7108 6.77571 11.3039 7.18261 11.3039 7.69122C11.3039 8.19984 11.7108 8.60673 12.2194 8.60673Z" fill="url(#paint0_linear_161_117)"/>
<path d="M13.125 12.25H7.875V10.875C7.875 10.4375 7.4375 10 7 10C6.5625 10 6.125 10.4375 6.125 10.875V12.25H0.875C0.4375 12.25 0 12.6396 0 13.125C0 13.5625 0.4375 14 0.875 14H13.125C13.5065 14 14 13.5065 14 13.125C14 12.7435 13.5065 12.25 13.125 12.25Z" fill="url(#paint1_radial_161_117)"/>
<defs>
<linearGradient id="paint0_linear_161_117" x1="11.5" y1="-3.09375" x2="3.31004" y2="20.7316" gradientUnits="userSpaceOnUse">
<stop stop-color="#FFC700"/>
<stop offset="1" stop-color="#DF0909"/>
</linearGradient>
<radialGradient id="paint1_radial_161_117" cx="0" cy="0" r="1" gradientUnits="userSpaceOnUse" gradientTransform="translate(9.425 10.75) rotate(126.729) scale(4.05501 9.53115)">
<stop stop-color="#1AE3D7"/>
<stop offset="1" stop-color="#0945DF"/>
</radialGradient>
</defs>
</svg>
