<svg width="31" height="33" viewBox="0 0 31 33" fill="none" xmlns="http://www.w3.org/2000/svg">
<path d="M5.63636 1.41702C5.63636 0.637658 5.00227 0 4.22727 0C3.45227 0 2.81818 0.637658 2.81818 1.41702V7.08508H0V15.5872H8.45455V7.08508H5.63636V1.41702ZM11.2727 18.9496C11.2727 20.7917 12.4564 22.3504 14.0909 22.9456V33H16.9091V22.9456C18.5436 22.3646 19.7273 20.8059 19.7273 18.9496V18.4212H11.2727V18.9496ZM0 18.9496C0 20.7917 1.18364 22.3504 2.81818 22.9456V33H5.63636V22.9456C7.27091 22.3504 8.45455 20.7917 8.45455 18.9496V18.4212H0V18.9496ZM28.1818 7.08508V1.41702C28.1818 0.637658 27.5477 0 26.7727 0C25.9977 0 25.3636 0.637658 25.3636 1.41702V7.08508H22.5455V15.5872H31V7.08508H28.1818ZM16.9091 1.41702C16.9091 0.637658 16.275 0 15.5 0C14.725 0 14.0909 0.637658 14.0909 1.41702V7.08508H11.2727V15.5872H19.7273V7.08508H16.9091V1.41702ZM22.5455 18.9496C22.5455 20.7917 23.7291 22.3504 25.3636 22.9456V33H28.1818V22.9456C29.8164 22.3646 31 20.8059 31 18.9496V18.4212H22.5455V18.9496Z" fill="url(#paint0_radial_110_648)"/>
<defs>
<radialGradient id="paint0_radial_110_648" cx="0" cy="0" r="1" gradientUnits="userSpaceOnUse" gradientTransform="translate(20.8696 6.1875) rotate(101.325) scale(27.3449 25.8196)">
<stop stop-color="#1AE3D7"/>
<stop offset="1" stop-color="#0945DF"/>
</radialGradient>
</defs>
</svg>
