<svg width="53" height="58" viewBox="0 0 53 58" fill="none" xmlns="http://www.w3.org/2000/svg">
<circle r="4" transform="matrix(1 0 0 -1 4 54)" fill="white"/>
<circle cx="4" cy="4" r="4" fill="white"/>
<circle cx="49" cy="29" r="4" fill="white"/>
<path fill-rule="evenodd" clip-rule="evenodd" d="M2 4C2 2.89543 2.89543 2 4 2C11.8233 2 16.7065 3.80656 20.1891 6.80523C22.935 9.16951 24.7014 12.2338 26.338 15.073C26.689 15.682 27.0341 16.2807 27.3816 16.8599C29.4098 20.2401 31.2706 22.6494 34.2421 24.3003C37.2523 25.9726 41.6509 27 49 27C50.1046 27 51 27.8954 51 29C51 30.1046 50.1046 31 49 31C41.3491 31 36.1643 29.944 32.2995 27.7969C28.3961 25.6283 26.0902 22.482 23.9517 18.9179C23.5255 18.2076 23.1281 17.522 22.7451 16.8614C21.124 14.065 19.7624 11.7163 17.5792 9.83643C15.0279 7.63974 11.1767 6 4 6C2.89543 6 2 5.10457 2 4Z" fill="url(#paint0_linear_1303_2177)"/>
<path fill-rule="evenodd" clip-rule="evenodd" d="M2 54C2 55.1046 2.89543 56 4 56C11.8233 56 16.7065 54.1934 20.1891 51.1948C22.935 48.8305 24.7014 45.7662 26.338 42.927C26.689 42.318 27.0341 41.7193 27.3816 41.1401C29.4098 37.7599 31.2706 35.3506 34.2421 33.6997C37.2523 32.0274 41.6509 31 49 31C50.1046 31 51 30.1046 51 29C51 27.8954 50.1046 27 49 27C41.3491 27 36.1643 28.056 32.2995 30.2031C28.3961 32.3717 26.0902 35.518 23.9517 39.0821C23.5255 39.7924 23.1281 40.478 22.7451 41.1386C21.124 43.935 19.7624 46.2837 17.5792 48.1636C15.0279 50.3603 11.1767 52 4 52C2.89543 52 2 52.8954 2 54Z" fill="url(#paint1_linear_1303_2177)"/>
<defs>
<linearGradient id="paint0_linear_1303_2177" x1="40.9643" y1="-4.03571" x2="23.1199" y2="60.2039" gradientUnits="userSpaceOnUse">
<stop stop-color="#FFC700"/>
<stop offset="1" stop-color="#DF0909"/>
</linearGradient>
<linearGradient id="paint1_linear_1303_2177" x1="40.9643" y1="62.0357" x2="23.1199" y2="-2.20395" gradientUnits="userSpaceOnUse">
<stop stop-color="#FFC700"/>
<stop offset="1" stop-color="#DF0909"/>
</linearGradient>
</defs>
</svg>
