<svg width="214" height="44" viewBox="0 0 214 44" fill="none" xmlns="http://www.w3.org/2000/svg">
<path fillRule="evenodd" clipRule="evenodd" d="M14.0348 30.9262C14.1651 31.1584 14.3568 31.2938 14.6127 31.3325C14.7751 31.3596 14.8987 31.3229 14.9843 31.2222C15.0806 31.0984 15.0612 30.932 14.9259 30.7211H14.9181C14.816 30.5818 14.6817 30.4821 14.5134 30.4212C14.3461 30.3641 14.2079 30.366 14.097 30.4299C13.9248 30.5286 13.9034 30.694 14.0348 30.9262ZM18.7737 28.9951C19.0598 29.3782 19.2923 29.7681 19.4752 30.1677C19.7106 30.693 19.8449 31.2048 19.8741 31.706C19.9013 32.1839 19.8284 32.6241 19.6513 33.0266C19.481 33.431 19.2242 33.7619 18.8808 34.0182C18.1637 34.5571 17.255 34.7535 16.1586 34.6084C15.1468 34.471 14.1389 34.0705 13.1358 33.4068C12.1308 32.748 11.3418 31.9691 10.7726 31.0694C10.1539 30.0903 9.90675 29.1373 10.0303 28.2115C10.1344 27.4365 10.5012 26.8415 11.1307 26.4226C11.7309 26.0259 12.4762 25.8518 13.3673 25.8982C14.2819 25.9476 15.2013 26.2233 16.1216 26.7254C17.1256 27.2721 18.009 28.0306 18.7737 28.998V28.9951ZM6.02197 21.8503C6.26616 20.0247 7.12912 18.6219 8.60696 17.6428C10.0206 16.7072 11.7757 16.2941 13.8742 16.4044C16.0311 16.5137 18.1968 17.162 20.3693 18.349C22.7305 19.6387 24.8115 21.4237 26.6124 23.7001C27.6242 25.0914 28.347 26.5058 28.781 27.9454C29.2217 29.4053 29.3219 30.7492 29.0826 31.9798C28.8325 33.2791 28.2225 34.3462 27.2516 35.1841C26.2018 36.0838 24.7892 36.6614 23.0127 36.9178C22.3443 36.9681 21.6846 36.9942 21.0328 37C20.6407 36.9865 20.3352 36.97 20.1183 36.9507C19.9383 36.9313 19.5307 36.882 18.8895 36.7997C18.5675 36.7446 18.3116 36.6962 18.1219 36.6527C17.9954 36.6256 17.6296 36.5317 17.0254 36.3731C16.7248 36.2831 16.5049 36.2154 16.3648 36.168C16.2082 36.1109 15.8774 35.9842 15.3715 35.7868C15.1079 35.6717 14.9143 35.5865 14.7946 35.5323C14.7002 35.4849 14.5416 35.4046 14.3198 35.2895C15.4386 35.8361 16.5886 36.2067 17.7717 36.4011C19.2125 36.6353 20.4977 36.5482 21.6282 36.139C22.7276 35.7394 23.5477 35.0834 24.0848 34.1701C24.6413 33.2269 24.8261 32.1259 24.6374 30.8652C24.437 29.5011 23.8182 28.0731 22.7821 26.5832L22.7772 26.588C21.9775 25.5113 21.0075 24.5525 19.8663 23.7127C18.728 22.8739 17.5236 22.2286 16.25 21.7768C14.8481 21.2795 13.5104 21.0696 12.2368 21.146C10.9633 21.2224 9.9048 21.5775 9.05741 22.2122C8.16331 22.8817 7.60584 23.7504 7.38305 24.8166C7.17388 25.8112 7.26728 26.9034 7.66227 28.0934C8.04949 29.2418 8.6809 30.3641 9.55456 31.4602C10.1247 32.1704 10.7571 32.8225 11.4517 33.4155C11.3894 33.3662 11.3194 33.312 11.2455 33.251C11.0363 33.0701 10.8826 32.9327 10.7833 32.837C10.6821 32.7373 10.4341 32.4925 10.041 32.0978C9.83475 31.8763 9.68395 31.7089 9.58764 31.5938C9.49035 31.4786 9.25685 31.1855 8.88618 30.7163C8.57485 30.279 8.34525 29.9432 8.19639 29.7111C8.07283 29.5118 7.86561 29.1509 7.57471 28.6294C7.3957 28.2792 7.26533 28.0073 7.18263 27.8167C7.11161 27.6523 6.95498 27.2643 6.71272 26.6529C6.59208 26.2939 6.50647 26.0259 6.45685 25.8479C6.40723 25.668 6.30313 25.2433 6.14455 24.5738C6.06088 24.1162 6.00737 23.7301 5.98305 23.4128C5.94122 22.8807 5.95289 22.3602 6.02197 21.8503ZM5.34191 10.4012C5.20473 10.41 5.09285 10.4119 5.00821 10.41C4.78736 10.3954 4.64532 10.3867 4.58208 10.3809C4.51689 10.3751 4.41863 10.3616 4.28924 10.3403C4.0859 10.3016 3.95748 10.2774 3.90494 10.2668C3.84949 10.2523 3.76776 10.229 3.65783 10.1971C3.47589 10.1391 3.36109 10.1023 3.31537 10.0868C3.26769 10.0694 3.19764 10.0423 3.10425 10.0046C2.93691 9.92815 2.83281 9.87784 2.79097 9.85753C2.74914 9.83721 2.68882 9.80528 2.60612 9.76271C2.45338 9.67177 2.35803 9.61372 2.31912 9.58954C2.2802 9.56825 2.22475 9.53052 2.15081 9.47925C2.00487 9.37282 1.91342 9.3051 1.87742 9.27801C1.8424 9.24995 1.78986 9.20835 1.72176 9.1503C1.57874 9.0197 1.49313 8.94133 1.46491 8.91617C1.42989 8.88135 1.38027 8.83007 1.31703 8.76525C1.18764 8.6211 1.10786 8.52822 1.07673 8.49049C1.0417 8.44695 0.992086 8.38406 0.928847 8.3028C0.814045 8.13446 0.737186 8.0203 0.69827 7.95644C0.645734 7.87517 0.575685 7.75617 0.488125 7.60041C0.396672 7.40692 0.338298 7.28018 0.310084 7.2231C0.282843 7.15731 0.246846 7.06153 0.203066 6.93576C0.133017 6.71517 0.0872907 6.57489 0.0717244 6.51781C0.0522664 6.45299 0.0298898 6.35914 0.00556734 6.23918C0.14761 6.81579 0.412239 7.37112 0.797506 7.9042C1.16526 8.41599 1.61474 8.86587 2.14594 9.25382C2.67714 9.64178 3.24143 9.93589 3.84073 10.1352C4.41766 10.3238 4.98388 10.409 5.53941 10.3896C5.43239 10.3974 5.36623 10.4012 5.34191 10.4012ZM9.35025 8.28538C9.17902 8.5021 9.06811 8.63754 9.01557 8.69559C8.95915 8.76041 8.86964 8.85232 8.75192 8.97035C8.54858 9.14837 8.41238 9.26447 8.3433 9.31864C8.25866 9.38443 8.13218 9.47344 7.96582 9.58567C7.20112 10.0143 6.30313 10.1304 5.27186 9.93396C4.31842 9.75304 3.39903 9.34186 2.51759 8.69946C1.6342 8.05706 0.967763 7.31307 0.516339 6.46847C0.0298898 5.55807 -0.112153 4.68154 0.0872907 3.83984C0.165123 3.59314 0.241981 3.37158 0.31884 3.17132C0.430724 2.93429 0.518284 2.76304 0.579577 2.65952C0.649626 2.52795 0.763455 2.34896 0.922037 2.12161L1.15261 1.8304C0.613628 2.54343 0.452127 3.36868 0.670056 4.30326C0.870473 5.15077 1.34719 5.97796 2.10119 6.78483C2.83573 7.56945 3.68701 8.1809 4.65407 8.6211C5.67562 9.08355 6.63781 9.25673 7.53969 9.14256C7.91133 9.09613 8.24698 9.00131 8.54664 8.86006C8.93871 8.6714 9.25685 8.40728 9.4991 8.06867L9.35025 8.28538ZM5.26311 0.000905636L5.47033 0.0134828C4.77958 -0.00586668 4.22016 0.123775 3.79111 0.402407C3.38444 0.668462 3.12954 1.04481 3.02836 1.53145C2.92912 2.00454 2.98458 2.5173 3.19764 3.06973C3.41752 3.64151 3.77165 4.17942 4.26199 4.68541C4.82238 5.26493 5.45866 5.70513 6.17082 6.00601C6.83726 6.29045 7.48326 6.41913 8.10981 6.39107C8.73343 6.36688 9.23448 6.18983 9.61488 5.86186C10.0215 5.51164 10.2278 5.03467 10.2327 4.43097C10.2366 4.21232 10.2083 3.98496 10.1509 3.74987C10.1286 3.65699 10.0974 3.55057 10.0556 3.4306L10.0731 3.4751C10.1412 3.69182 10.185 3.8321 10.2045 3.89789C10.2268 3.98303 10.2531 4.10106 10.2823 4.25102C10.3183 4.48321 10.3416 4.63994 10.3484 4.72218C10.3572 4.82279 10.364 4.96695 10.3689 5.1527C10.363 5.41005 10.3504 5.6345 10.3309 5.82897C10.1967 6.61552 9.82405 7.18924 9.21404 7.5472C8.65657 7.87808 7.96387 7.99417 7.13593 7.89549C6.33038 7.79874 5.52774 7.52011 4.72704 7.05863C3.89132 6.57199 3.19375 5.95764 2.63239 5.21365C2.27534 4.74346 2.01168 4.26263 1.84434 3.77018C1.67895 3.29515 1.61377 2.83947 1.64685 2.40508C1.67701 1.96778 1.80251 1.58273 2.02628 1.25282C2.25685 0.910331 2.57304 0.647178 2.97582 0.465293C3.21418 0.369513 3.3825 0.303725 3.47881 0.267928C3.7162 0.200205 3.88159 0.154734 3.97304 0.132482C4.07423 0.108295 4.22794 0.079271 4.43128 0.0463769C4.67256 0.024125 4.82822 0.0105804 4.8973 0.005743C4.98194 -6.18377e-05 5.10355 -0.00102931 5.26311 0.000905636ZM8.21196 1.06803C8.54469 1.31377 8.8278 1.59433 9.0613 1.9078C9.36582 2.34219 9.54775 2.75917 9.60612 3.15487C9.6606 3.52444 9.60709 3.84468 9.44559 4.11847C9.28798 4.38743 9.04962 4.57802 8.7276 4.69315C8.39778 4.81312 8.02224 4.83827 7.60293 4.77055C7.05227 4.68058 6.53274 4.46193 6.0424 4.11364C5.58611 3.79147 5.22127 3.40641 4.94594 2.95847C4.67159 2.50957 4.53635 2.08097 4.54122 1.67077C4.55095 1.23347 4.72412 0.887112 5.06172 0.633633C5.30883 0.447878 5.61821 0.343391 5.98889 0.321139C6.35762 0.29792 6.74678 0.358871 7.15637 0.505927C7.52801 0.637503 7.8802 0.824226 8.21196 1.06803ZM8.52621 2.83464C8.56707 2.73692 8.58458 2.6305 8.57874 2.51537C8.56609 2.29672 8.47659 2.07614 8.3112 1.85459H8.31509C8.12829 1.61949 7.91425 1.43664 7.672 1.30506C7.44726 1.18316 7.22252 1.11544 7.0007 1.10479C6.78569 1.09318 6.60473 1.13575 6.45977 1.23153C6.30508 1.33215 6.21655 1.47824 6.19125 1.66593C6.16109 1.88941 6.22044 2.12161 6.37318 2.35961C6.51036 2.57826 6.70202 2.76691 6.94719 2.92558C7.18847 3.08715 7.43364 3.18486 7.68076 3.21679C7.94441 3.25258 8.16331 3.20421 8.33649 3.0736C8.42113 3.00975 8.48437 2.93138 8.52621 2.83464ZM34.5969 29.7614L33.9665 30.6882C33.6669 31.0849 33.4334 31.379 33.265 31.5696C33.1094 31.7486 32.7465 32.1288 32.1764 32.7151C31.7288 33.1253 31.3786 33.4281 31.1256 33.6245C30.9301 33.7773 30.5769 34.0318 30.0613 34.3878C32.0051 32.9521 32.9926 31.0433 33.0218 28.6623C33.052 26.1904 32.046 23.4921 30.0039 20.5675H29.9981C28.1564 18.2001 25.9887 16.2719 23.4952 14.781C21.1408 13.3733 18.7718 12.5103 16.3853 12.194C13.9958 11.8766 11.9255 12.1485 10.1743 13.0096C8.31801 13.9229 7.05421 15.3963 6.37999 17.4309C6.54344 16.8911 6.77304 16.2303 7.07367 15.4447C7.42489 14.6939 7.71578 14.1241 7.94441 13.7352C8.10981 13.4478 8.41335 12.9747 8.85894 12.3159L9.55164 11.4461C10.8086 10.1207 12.4178 9.27317 14.3811 8.90457C16.2617 8.54563 18.2999 8.65109 20.4967 9.21996C22.6935 9.78593 24.83 10.7582 26.9062 12.1359C29.0748 13.5794 30.9787 15.3373 32.6181 17.4096C34.2837 19.7712 35.278 21.9722 35.6029 24.0117C35.9269 26.0521 35.5922 27.9686 34.5969 29.7614ZM34.0492 14.7239H34.0443C32.7494 13.086 31.3008 11.6619 29.6974 10.4506C28.134 9.27221 26.4985 8.35311 24.794 7.69426C23.0924 7.03734 21.4122 6.67938 19.7544 6.62036C18.0528 6.55747 16.4621 6.81095 14.9833 7.38273C15.281 7.25406 15.7801 7.06056 16.4845 6.80031C17.0712 6.61746 17.5275 6.48878 17.8573 6.41429C18.1268 6.35431 18.6113 6.26433 19.3127 6.14436C19.7933 6.08341 20.1698 6.04665 20.4393 6.03407C20.6534 6.02246 21.1067 6.01472 21.7965 6.00988L22.6079 6.05052C24.2307 6.1908 25.8652 6.63971 27.5113 7.40014C30.0574 8.57659 32.2834 10.3693 34.1883 12.7812C34.6398 13.4207 34.9628 13.9122 35.1573 14.2537C35.35 14.5923 35.5951 15.0954 35.8909 15.763L36.1137 16.357C36.2645 16.7885 36.3725 17.1213 36.4347 17.3535C36.4844 17.547 36.5865 17.9862 36.7402 18.6693C36.8317 19.214 36.8901 19.6261 36.9173 19.9076C36.9397 20.1563 36.9669 20.6362 37 21.3472C36.9893 22.0138 36.9494 22.6872 36.8852 23.3644C37.0058 21.7652 36.8015 20.2356 36.2752 18.7757C35.8384 17.5731 35.096 16.2216 34.0492 14.7239Z" fill="#003D5F"/>
<path d="M52.3735 19.3574H45V18.2473H60.9609V19.3574H53.5874V37.7048H52.3735V19.3574Z" fill="#003D5F"/>
<path d="M64.5799 23.4736C68.4246 23.4736 70.3425 26.4486 70.3425 29.81C70.3425 30.032 70.3154 30.3117 70.2838 30.5604H58.9573C58.9573 34.5922 61.7235 36.8967 65.0041 36.8967C66.588 36.8967 68.2531 36.2573 69.3813 35.1472L70.0311 36.1197C68.7901 37.2875 66.8091 38.0379 65.0041 38.0379C61.0195 38.0379 57.7163 35.2005 57.7163 30.7824C57.7163 26.0845 60.9654 23.4736 64.5799 23.4736ZM69.1015 29.4769C68.9616 26.0845 66.8994 24.5571 64.5528 24.5571C61.9536 24.5571 59.5529 26.2266 59.043 29.4769H69.1015Z" fill="#003D5F"/>
<path d="M72.0121 23.8066H73.1989V25.4762C73.1989 26.1156 73.1131 26.5907 73.1131 26.5907H73.1673C74.0157 24.6458 75.938 23.478 78.253 23.478C82.039 23.478 84.3539 26.453 84.3539 30.7601C84.3539 35.1827 81.7276 38.0467 78.0815 38.0467C75.9335 38.0467 74.0427 36.8789 73.1357 34.903H73.0816C73.0816 34.903 73.1944 35.4047 73.1944 36.1285V43.273H72.0076V23.8066H72.0121ZM78.086 36.9011C80.8567 36.9011 83.1175 34.6499 83.1175 30.7557C83.1175 27.0036 81.0823 24.6103 78.2033 24.6103C75.6041 24.6103 73.1763 26.4175 73.1763 30.7824C73.1673 33.8684 74.9227 36.9011 78.086 36.9011Z" fill="#003D5F"/>
<path d="M85.8838 23.8066H87.0706V30.0053H96.3123V23.8066H97.4991V37.7093H96.3123V31.0932H87.0706V37.7093H85.8838V23.8066Z" fill="#003D5F"/>
<path d="M100.622 18.0786H103.42V26.6973H106.809C107.264 21.582 111.443 17.7456 116.7 17.7456C122.354 17.7456 126.731 22.1104 126.731 27.7541C126.731 33.5354 122.35 38.0423 116.7 38.0423C111.524 38.0423 107.431 34.2059 106.867 29.0906H103.42V37.7093H100.622V18.0786ZM116.7 35.5113C120.658 35.5113 123.848 32.1189 123.848 27.7541C123.848 23.5269 120.658 20.2766 116.7 20.2766C112.77 20.2766 109.606 23.5313 109.606 27.7541C109.606 32.1189 112.77 35.5113 116.7 35.5113Z" fill="#003D5F"/>
<path d="M128.537 23.6379H131.276V29.366H138.509V23.6379H141.253V37.7049H138.509V31.6749H131.276V37.7093H128.537V23.6379Z" fill="#003D5F"/>
<path d="M143.613 23.6379H146.239V32.0346C146.239 32.785 146.181 33.7885 146.154 33.9262H146.208C146.321 33.6775 146.997 32.7051 147.48 32.0346L153.64 23.6379H156.293V37.7049H153.64V29.3127C153.64 28.6466 153.726 27.6742 153.726 27.4477H153.667C153.581 27.6964 152.873 28.6422 152.426 29.3127L146.239 37.7093H143.613V23.6379Z" fill="#003D5F"/>
<path d="M158.505 23.6379H164.407C167.291 23.6379 169.186 24.8901 169.186 27.2524C169.186 28.6155 168.45 29.7833 167.151 30.3384V30.365C168.929 30.7824 169.863 32.1456 169.863 33.6997C169.863 36.3106 167.715 37.7049 164.61 37.7049H158.509V23.6379H158.505ZM163.929 29.588C165.567 29.588 166.388 28.7532 166.388 27.4477C166.388 26.1689 165.571 25.5029 163.848 25.5029H161.248V29.588H163.929ZM164.181 35.8133C166.158 35.8133 167.092 34.9252 167.092 33.6198C167.092 32.23 166.045 31.3952 164.154 31.3952H161.244V35.8133H164.181Z" fill="#003D5F"/>
<path d="M177.99 23.3047C182.029 23.3047 184.177 26.2797 184.177 29.8941C184.177 30.2582 184.122 30.6445 184.064 31.0353H173.667C173.807 34.0636 176.013 35.7065 178.585 35.7065C180.111 35.7065 181.663 35.0671 182.796 34.068L183.955 36.044C182.575 37.2961 180.399 38.0465 178.418 38.0465C173.928 38.0465 170.819 34.8495 170.819 30.6801C170.815 26.1953 173.924 23.3047 177.99 23.3047ZM181.41 29.086C181.325 26.666 179.799 25.3872 177.936 25.3872C175.815 25.3872 174.15 26.7504 173.753 29.086H181.41Z" fill="#003D5F"/>
<path d="M185.783 23.6377H188.324V24.8899C188.324 25.4716 188.238 25.9467 188.238 25.9467H188.296C189.199 24.2505 191.008 23.3047 193.098 23.3047C196.97 23.3047 199.37 26.3063 199.37 30.6712C199.37 35.147 196.658 38.0377 192.899 38.0377C191.094 38.0377 189.452 37.1452 188.463 35.6443H188.409C188.409 35.6443 188.522 36.1461 188.522 36.8654V43.2595H185.783V23.6377ZM192.48 35.7021C194.74 35.7021 196.604 33.8948 196.604 30.6978C196.604 27.6384 194.934 25.6669 192.565 25.6669C190.417 25.6669 188.441 27.1678 188.441 30.7245C188.441 33.2288 189.853 35.7021 192.48 35.7021Z" fill="#003D5F"/>
<path d="M208.292 23.3047C210.187 23.3047 212.303 23.9441 213.662 25.3606L212.362 27.2521C211.401 26.3063 209.903 25.6403 208.404 25.6403C205.525 25.6403 203.432 27.7805 203.432 30.6445C203.432 33.5085 205.525 35.7021 208.49 35.7021C210.074 35.7021 211.798 34.9516 212.899 33.8105L214 35.7864C212.7 37.1452 210.525 38.0377 208.292 38.0377C203.77 38.0377 200.634 34.8939 200.634 30.6712C200.634 26.5017 203.797 23.3047 208.292 23.3047Z" fill="#003D5F"/>
</svg>
