<svg
  width="35"
  height="33"
  viewBox="0 0 35 33"
  fill="none"
  xmlns="http://www.w3.org/2000/svg"
>
  <path
    d="M11.0295 1.00728H6.07856C6.03491 0.44465 5.56249 0 4.98874 0H1.68968C1.08686 0 0.59668 0.490677 0.59668 1.09375V2.27167L11.7915 2.27273V1.76909C11.7918 1.34851 11.4497 1.00728 11.0297 1.00728L11.0295 1.00728Z"
    fill="url(#paint0_radial_63_304)"
  />
  <path
    d="M0.0609406 2.90803C0.0127986 2.96252 -0.00835987 3.03923 0.00301167 3.12387L0.802399 9.63835C0.828851 9.85023 1.03861 10.0357 1.25207 10.0357H11.1359C11.3494 10.0357 11.5594 9.85023 11.5856 9.63835L11.9863 6.38135L12.3863 3.12387C12.396 3.03896 12.3752 2.96226 12.3275 2.90803C12.2794 2.85354 12.2059 2.82312 12.1202 2.82312H0.268506C0.183069 2.82312 0.109001 2.85354 0.06139 2.90803H0.0609406Z"
    fill="url(#paint1_radial_63_304)"
  />
  <path
    d="M27.819 10.9179C27.7754 10.3556 27.3037 9.91064 26.7294 9.91064H23.4307C22.8278 9.91064 22.3369 10.4013 22.3369 11.0044V12.1825L33.5317 12.1828V11.6797C33.5317 11.2596 33.19 10.9179 32.7694 10.9179L27.819 10.9179Z"
    fill="url(#paint2_radial_63_304)"
  />
  <path
    d="M33.8599 12.7341H22.0089C21.9232 12.7341 21.8497 12.764 21.8016 12.8188C21.7529 12.8733 21.7325 12.9502 21.7428 13.0346L22.1428 16.2921L22.5435 19.5491C22.5692 19.761 22.779 19.9469 22.9932 19.9469H32.877C33.0905 19.9469 33.2997 19.7612 33.3267 19.5491L34.1261 13.0346C34.1372 12.95 34.1163 12.873 34.0682 12.8188C34.0195 12.764 33.9462 12.7341 33.8603 12.7341H33.8599Z"
    fill="url(#paint3_radial_63_304)"
  />
  <path
    d="M32.7697 23.9262H27.8188C27.7751 23.3635 27.3035 22.9194 26.7292 22.9194H23.4304C22.8276 22.9194 22.3367 23.4101 22.3367 24.0127V25.1906L33.5315 25.1914V24.6883C33.5323 24.268 33.19 23.9262 32.7699 23.9262L32.7697 23.9262Z"
    fill="url(#paint4_radial_63_304)"
  />
  <path
    d="M33.8599 25.7424H22.0089C21.9232 25.7424 21.8497 25.7729 21.8016 25.8273C21.7529 25.8818 21.7325 25.9583 21.7428 26.0432L22.1428 29.3002L22.5435 32.5577C22.5692 32.7695 22.779 32.9555 22.9932 32.9555H32.877C33.0905 32.9555 33.2997 32.7698 33.3267 32.5577L34.1261 26.0432C34.1372 25.9577 34.1163 25.8816 34.0682 25.8273C34.0195 25.7726 33.9462 25.7424 33.8603 25.7424H33.8599Z"
    fill="url(#paint5_radial_63_304)"
  />
  <path
    d="M21.0359 28.6805L17.8065 28.6834C17.738 28.6834 17.6824 28.6281 17.6824 28.5601V16.9109H21.0365C21.1047 16.9109 21.16 16.8556 21.16 16.7874V15.7965C21.16 15.728 21.1047 15.6724 21.0365 15.6724H17.6827V5.88478C17.6827 5.81653 17.6274 5.76125 17.5592 5.76125L13.0923 5.76099C13.024 5.76099 12.9688 5.81627 12.9688 5.88451V6.8754C12.9688 6.94391 13.024 6.99946 13.0923 6.99946H16.3196C16.3881 6.99946 16.4431 7.05474 16.4431 7.12299V29.7984C16.4431 29.8669 16.4984 29.9224 16.5672 29.9224L21.037 29.9179C21.1052 29.9179 21.1605 29.8626 21.1605 29.7939L21.1597 28.803C21.1603 28.7353 21.1047 28.68 21.0359 28.68L21.0359 28.6805Z"
    fill="url(#paint6_radial_63_304)"
  />
  <defs>
    <radialGradient
      id="paint0_radial_63_304"
      cx="0"
      cy="0"
      r="1"
      gradientUnits="userSpaceOnUse"
      gradientTransform="translate(8.13318 0.426136) rotate(136.4) scale(2.67769 6.55773)"
    >
      <stop stop-color="#1AE3D7" />
      <stop offset="1" stop-color="#0945DF" />
    </radialGradient>
    <radialGradient
      id="paint1_radial_63_304"
      cx="0"
      cy="0"
      r="1"
      gradientUnits="userSpaceOnUse"
      gradientTransform="translate(8.3402 4.17547) rotate(110.112) scale(6.24072 9.88156)"
    >
      <stop stop-color="#1AE3D7" />
      <stop offset="1" stop-color="#0945DF" />
    </radialGradient>
    <radialGradient
      id="paint2_radial_63_304"
      cx="0"
      cy="0"
      r="1"
      gradientUnits="userSpaceOnUse"
      gradientTransform="translate(29.8734 10.3367) rotate(136.407) scale(2.67736 6.55683)"
    >
      <stop stop-color="#1AE3D7" />
      <stop offset="1" stop-color="#0945DF" />
    </radialGradient>
    <radialGradient
      id="paint3_radial_63_304"
      cx="0"
      cy="0"
      r="1"
      gradientUnits="userSpaceOnUse"
      gradientTransform="translate(30.0805 14.0865) rotate(110.111) scale(6.24093 9.88172)"
    >
      <stop stop-color="#1AE3D7" />
      <stop offset="1" stop-color="#0945DF" />
    </radialGradient>
    <radialGradient
      id="paint4_radial_63_304"
      cx="0"
      cy="0"
      r="1"
      gradientUnits="userSpaceOnUse"
      gradientTransform="translate(29.8732 23.3454) rotate(136.409) scale(2.67727 6.55661)"
    >
      <stop stop-color="#1AE3D7" />
      <stop offset="1" stop-color="#0945DF" />
    </radialGradient>
    <radialGradient
      id="paint5_radial_63_304"
      cx="0"
      cy="0"
      r="1"
      gradientUnits="userSpaceOnUse"
      gradientTransform="translate(30.0805 27.0949) rotate(110.111) scale(6.24114 9.88176)"
    >
      <stop stop-color="#1AE3D7" />
      <stop offset="1" stop-color="#0945DF" />
    </radialGradient>
    <radialGradient
      id="paint6_radial_63_304"
      cx="0"
      cy="0"
      r="1"
      gradientUnits="userSpaceOnUse"
      gradientTransform="translate(18.4836 10.2913) rotate(94.1341) scale(19.6824 6.94021)"
    >
      <stop stop-color="#1AE3D7" />
      <stop offset="1" stop-color="#0945DF" />
    </radialGradient>
  </defs>
</svg>
