<svg width="17" height="13" viewBox="0 0 17 13" fill="none" xmlns="http://www.w3.org/2000/svg">
<path d="M12 13V11H6.49998C6.36737 11 6.24016 10.9473 6.14645 10.8536C6.05274 10.7598 6 10.6326 6 10.5V5.27906C6 5.12499 6.12499 5 6.27906 5H7.72094C7.87501 5 8 5.12499 8 5.27906L8.00005 9H12V7L17 10L12 13Z" fill="black"/>
<path d="M10.5 2.00004C10.7761 2.00004 11 2.22386 11 2.5V7.74166C11 7.81142 10.9723 7.87842 10.9229 7.92769C10.8736 7.97711 10.8067 8.00479 10.737 8.00479L9.263 8.00533C9.11779 8.00533 9 7.88753 9 7.74219V4H5V6L0 3L5 0V2.00004H10.5Z" fill="black"/>
</svg>
