<svg width="16" height="15" viewBox="0 0 16 15" fill="none" xmlns="http://www.w3.org/2000/svg">
<path d="M15.8933 12.1603C15.5788 11.2529 13.5268 10.5913 12.5933 10.1801C12.1363 9.97892 11.6183 9.85692 11.345 9.65206C11.0687 9.44487 11.028 8.99857 10.676 8.68344C10.5366 8.55873 10.129 8.71256 10.0962 8.46377C10.047 8.08513 10.4555 7.84881 10.5867 7.49539C10.7209 7.13439 10.6349 7.18235 10.7328 6.74312C11.4937 6.52823 11.8349 4.76709 11.3444 4.72292C11.5837 3.43856 11.8114 1.49166 10.8986 0.982564C10.7076 0.875726 10.4792 0.935326 10.3187 0.850393C10.2277 0.802175 10.1416 0.61445 10.0513 0.54249C9.61932 0.199471 8.45937 0.00144113 7.77706 0C7.09492 0.00134617 6.3809 0.199599 5.94884 0.54249L5.10152 0.982692C4.18922 1.49204 4.4169 3.43872 4.65572 4.72304C4.16503 4.76722 4.51869 6.53279 5.27983 6.74742C5.3778 7.18687 5.27971 7.13461 5.41351 7.49552C5.54483 7.84919 5.95344 8.08538 5.90395 8.4639C5.87146 8.71269 5.46373 8.55886 5.32421 8.68357C4.97241 8.9987 4.93149 9.44501 4.65546 9.65194C4.38228 9.8568 3.8643 9.97857 3.40697 10.18C2.47347 10.5913 0.421405 11.2533 0.107029 12.1604C-0.0707968 12.6743 0.0324999 13.0883 0.00794789 13.6568V13.6604C0.00794789 14.4002 3.4863 15 7.77703 15C12.0677 15 15.9918 14.4003 15.9918 13.6604C15.9918 13.6591 15.9914 13.6568 15.9914 13.6568C15.9673 13.0886 16.0711 12.6742 15.8933 12.1603Z" fill="black"/>
</svg>
