<svg width="14" height="11" viewBox="0 0 14 11" fill="none" xmlns="http://www.w3.org/2000/svg">
<path d="M13.9946 4.88155L12.5742 10.847C12.5529 10.9366 12.4728 10.9999 12.3809 10.9999H0.757051C0.647194 10.9999 0.558145 10.9108 0.558145 10.801C0.558145 10.7835 0.560503 10.766 0.56508 10.7491L2.13759 4.93063C2.18447 4.75724 2.34176 4.63671 2.52151 4.63671L13.8012 4.63643C13.9109 4.63643 14 4.72548 14 4.83534C14 4.85087 13.9982 4.86643 13.9946 4.88155ZM0.199041 0H2.55093C2.59754 0 2.64248 0.0163678 2.67826 0.0461903L3.53949 0.763859C3.71814 0.912829 3.9434 0.99425 4.17602 0.99425H11.7873C11.8972 0.99425 11.9862 1.0833 11.9862 1.19316V2.78399C11.9862 2.89384 11.8972 2.98275 11.7873 2.98275H2.25287C1.80375 2.98275 1.41035 3.28402 1.29317 3.71761L0.15632 7.92363C0.144808 7.96607 0.101114 7.99117 0.0588093 7.97966C0.0241328 7.97023 0 7.93888 0 7.90282L0.000277412 0.198828C0.000277412 0.0889712 0.0891836 0 0.199041 0Z" fill="url(#paint0_linear_2430_2687)"/>
<defs>
<linearGradient id="paint0_linear_2430_2687" x1="10.9366" y1="-2.9122" x2="6.15826" y2="14.4359" gradientUnits="userSpaceOnUse">
<stop stop-color="#1AE3D7"/>
<stop offset="1" stop-color="#0945DF"/>
</linearGradient>
</defs>
</svg>
