<svg width="12" height="16" viewBox="0 0 12 16" fill="none" xmlns="http://www.w3.org/2000/svg">
<path d="M11.6721 1.66569L11.5388 0.906942C11.5097 0.744539 11.4201 0.603917 11.2867 0.509342C11.1824 0.436665 11.0612 0.397838 10.9376 0.397838C10.9012 0.397838 10.8649 0.400324 10.8284 0.407544L7.68849 0.956899L7.62954 0.619783C7.55816 0.21282 7.16803 -0.0594178 6.76237 0.0111265L4.19623 0.460453C3.78927 0.531712 3.51621 0.9209 3.58745 1.32786L3.6464 1.66416L0.506148 2.21352C0.174001 2.27164 -0.0489948 2.59169 0.00924666 2.92375L0.14253 3.68261C0.169163 3.84502 0.258885 3.98564 0.392289 4.08021C0.496572 4.15289 0.620149 4.19172 0.743859 4.19172C0.780198 4.19172 0.816537 4.18923 0.850509 4.18201L11.1728 2.37592C11.5048 2.3178 11.7302 1.99783 11.6721 1.66569H11.6721ZM4.06492 1.24406C4.03982 1.10059 4.13618 0.963287 4.27976 0.938184L6.8459 0.488858C6.86128 0.486017 6.87655 0.484833 6.89171 0.484833C7.01765 0.484833 7.12951 0.575268 7.152 0.703342L7.21095 1.04046L4.12403 1.58057L4.06492 1.24406Z" fill="black"/>
<path d="M10.9229 4.94064H0.94248C0.874653 4.94064 0.811564 4.96976 0.765519 5.01829C0.719474 5.06919 0.695208 5.13465 0.702429 5.20259L1.46851 14.9867C1.51455 15.554 1.99701 16 2.5691 16H9.29868C9.8684 16 10.3508 15.554 10.3968 14.9843L11.1652 5.20262C11.1701 5.13468 11.1458 5.06934 11.0998 5.01832C11.0563 4.96967 10.9909 4.94055 10.923 4.94055L10.9229 4.94064ZM3.71759 14.8902C3.71001 14.8909 3.70255 14.8911 3.6951 14.8911C3.57116 14.8911 3.46558 14.7967 3.45398 14.671L2.71145 6.63169C2.69914 6.49841 2.79714 6.38028 2.93055 6.36797C3.06289 6.35542 3.18185 6.45367 3.19416 6.58719L3.93669 14.6265C3.949 14.7597 3.85099 14.8779 3.71759 14.8902V14.8902ZM6.1754 14.6487C6.1754 14.7827 6.06685 14.8911 5.93298 14.8911C5.7991 14.8911 5.69056 14.7827 5.69056 14.6487V6.60944C5.69056 6.47544 5.7991 6.36702 5.93298 6.36702C6.06685 6.36702 6.1754 6.47544 6.1754 6.60944V14.6487ZM8.41187 14.671C8.40027 14.7967 8.29457 14.8911 8.17076 14.8911C8.1633 14.8911 8.15584 14.8909 8.14827 14.8902C8.01487 14.8779 7.91686 14.7597 7.92916 14.6264L8.6717 6.58718C8.68389 6.4539 8.8019 6.35494 8.93531 6.36796C9.06871 6.38027 9.16672 6.49841 9.15441 6.63169L8.41187 14.671Z" fill="black"/>
<path d="M9.08464 3.28932C8.99467 3.19936 8.85015 3.19439 8.75416 3.27772L8.3252 3.65092L8.44226 4.45573H10.2512L9.08464 3.28932Z" fill="black"/>
<path d="M7.83747 3.66796C7.8183 3.53538 7.69365 3.44234 7.56274 3.46294L4.48794 3.90966C4.35548 3.92884 4.26363 4.0517 4.2828 4.18428L4.3221 4.45605H7.95205L7.83747 3.66796Z" fill="black"/>
</svg>
