<svg xmlns="http://www.w3.org/2000/svg" width="14" height="14" fill="none" xmlns:v="https://vecta.io/nano"><path fill-rule="evenodd" d="M.623 0h12.766c.343 0 .623.28.61.623v3.129c0 .343-.28.623-.623.623H.623C.28 4.375 0 4.095 0 3.752V.623C0 .28.28 0 .623 0zm1.246 3.738a.31.31 0 0 0 .305-.305V1.462a.31.31 0 0 0-.305-.305h-.674a.31.31 0 0 0-.305.305v1.971a.31.31 0 0 0 .305.305h.674zm2.149 0a.31.31 0 0 0 .305-.305V1.462a.31.31 0 0 0-.305-.305h-.674a.31.31 0 0 0-.305.305v1.971a.31.31 0 0 0 .305.305h.674zm8.201-.381a.91.91 0 0 0 .648-.267c.165-.165.267-.394.267-.648a.91.91 0 1 0-1.831 0 .91.91 0 0 0 .915.916zM.623 5.25h12.766c.343 0 .623.28.61.623v3.129c0 .343-.28.623-.623.623H.623C.28 9.625 0 9.345 0 9.002V5.873c0-.343.28-.623.623-.623zm1.246 3.738a.31.31 0 0 0 .305-.305V6.712a.31.31 0 0 0-.305-.305h-.674a.31.31 0 0 0-.305.305v1.971a.31.31 0 0 0 .305.305h.674zm2.149 0a.31.31 0 0 0 .305-.305V6.712a.31.31 0 0 0-.305-.305h-.674a.31.31 0 0 0-.305.305v1.971a.31.31 0 0 0 .305.305h.674zm8.201-.381a.91.91 0 0 0 .648-.267c.165-.165.267-.394.267-.648a.91.91 0 1 0-1.831 0 .91.91 0 0 0 .915.916z" fill="url(#A)"/><path d="M13.125 12.25h-5.25v-1.375c0-.437-.437-.875-.875-.875s-.875.438-.875.875v1.375H.875c-.437 0-.875.39-.875.875 0 .438.438.875.875.875h12.25c.382 0 .875-.493.875-.875s-.493-.875-.875-.875z" fill="url(#B)"/><defs><linearGradient id="A" x1="11.5" y1="-3.094" x2="3.31" y2="20.732" gradientUnits="userSpaceOnUse"><stop stop-color="#ffc700"/><stop offset="1" stop-color="#df0909"/></linearGradient><radialGradient id="B" cx="0" cy="0" r="1" gradientUnits="userSpaceOnUse" gradientTransform="translate(9.425 10.75) rotate(126.729) scale(4.05501 9.53115)"><stop stop-color="#1ae3d7"/><stop offset="1" stop-color="#0945df"/></radialGradient></defs></svg>