<svg width="17" height="17" viewBox="0 0 17 17" fill="black" xmlns="http://www.w3.org/2000/svg">
<path fill-rule="evenodd" clip-rule="evenodd" d="M16.868 9.98514C17.044 9.00287 17.044 7.99713 16.868 7.01486L14.913 6.48371C14.7946 6.10814 14.6432 5.74379 14.4605 5.39491L15.4687 3.63461C14.8958 2.81607 14.1839 2.10433 13.3652 1.53174L11.6047 2.53988C11.2559 2.35719 10.8917 2.20571 10.5163 2.0872L9.98514 0.131995C9.00287 -0.0439983 7.99713 -0.0439983 7.01486 0.131995L6.48371 2.08701C6.10814 2.20543 5.74379 2.35684 5.39491 2.53949L3.63461 1.53134C2.81607 2.10417 2.10433 2.81611 1.53174 3.63481L2.53988 5.39531C2.35719 5.74405 2.20571 6.10827 2.0872 6.48371L0.131995 7.01486C-0.0439983 7.99713 -0.0439983 9.00287 0.131995 9.98514L2.08701 10.5163C2.20542 10.8919 2.35684 11.2562 2.53949 11.6051L1.53134 13.3654C2.10417 14.1839 2.81611 14.8957 3.63481 15.4683L5.39531 14.4601C5.74405 14.6428 6.10827 14.7943 6.48371 14.9128L7.01467 16.868C7.99694 17.044 9.00267 17.044 9.98494 16.868L10.5163 14.913C10.8919 14.7946 11.2562 14.6432 11.6051 14.4605L13.3654 15.4687C14.1839 14.8958 14.8957 14.1839 15.4683 13.3652L14.4601 11.6049C14.6428 11.2561 14.7943 10.8918 14.9128 10.5163L16.868 9.98514ZM8.5 11.6628C7.87446 11.6628 7.26296 11.4773 6.74284 11.1298C6.22272 10.7822 5.81733 10.2883 5.57794 9.71036C5.33856 9.13243 5.27592 8.49649 5.39796 7.88297C5.52 7.26944 5.82123 6.70588 6.26356 6.26356C6.70588 5.82123 7.26944 5.52 7.88297 5.39796C8.49649 5.27592 9.13243 5.33856 9.71036 5.57794C10.2883 5.81733 10.7822 6.22272 11.1298 6.74284C11.4773 7.26296 11.6628 7.87446 11.6628 8.5C11.6628 9.33883 11.3296 10.1433 10.7364 10.7364C10.1433 11.3296 9.33883 11.6628 8.5 11.6628Z" />
</svg>
