<svg width="20" height="16" viewBox="0 0 20 16" fill="black" xmlns="http://www.w3.org/2000/svg">
<path fill-rule="evenodd" clip-rule="evenodd" d="M1.49108 10.3006C1.53156 10.203 1.60237 10.1327 1.70357 10.0897L3.63682 9.30598L9.11062 11.5172L8.90771 11.5998L8.90451 11.6014L6.44242 12.6078C6.33697 12.6508 6.23152 12.6508 6.12607 12.6078L1.70357 10.7916C1.60451 10.7496 1.53527 10.683 1.49587 10.5917C1.45219 10.4952 1.45059 10.3982 1.49108 10.3006ZM17.4068 8.90931C17.5687 8.97541 17.6496 9.09241 17.6496 9.26027C17.6496 9.42814 17.5687 9.54463 17.4068 9.60966L11.8163 11.8964C11.7962 11.9046 11.776 11.9112 11.7556 11.9161C11.6705 11.9377 11.5853 11.9312 11.5 11.8964L6.82667 9.94413C6.93672 9.93047 7.04403 9.90189 7.14861 9.85835L13.4932 7.26471L17.4068 8.90931ZM14.2074 5.43594C14.3086 5.48001 14.3783 5.54718 14.4167 5.63739C14.4614 5.73286 14.463 5.8299 14.4215 5.92855C14.381 6.02612 14.3096 6.09587 14.2074 6.13786L6.29064 9.39251C6.18519 9.43553 6.07974 9.43553 5.97429 9.39251L0.382257 7.10576C0.283198 7.0638 0.213952 6.99716 0.174553 6.90588C0.130871 6.80938 0.129273 6.7123 0.169759 6.61473C0.210245 6.51715 0.281057 6.44687 0.382257 6.40384L3.84452 4.97796L8.19672 6.75637C8.34796 6.81829 8.50562 6.84923 8.66965 6.84923C8.83367 6.84923 8.99079 6.81829 9.14098 6.75637L13.2838 5.0598L14.2074 5.43594ZM14.4167 3.06736C14.5147 3.10828 14.5844 3.17438 14.626 3.26566C14.6718 3.36323 14.6739 3.46135 14.6323 3.55996C14.5908 3.65754 14.5189 3.72679 14.4167 3.7677L8.82622 6.05603C8.72183 6.09905 8.61638 6.09905 8.50988 6.05603L1.07727 3.02172C0.981403 2.98395 0.911103 2.91785 0.866367 2.82342C0.823771 2.72584 0.823228 2.62826 0.864769 2.53069C0.906309 2.43207 0.977153 2.36229 1.07727 2.32137L6.6693 0.0330501C6.72467 0.0110168 6.77794 0 6.82907 0C6.88873 0.00314762 6.94091 0.0141644 6.98565 0.0330501L14.4167 3.06736ZM6.48236 13.2971L9.65277 11.8964L11.2313 12.5495L12.8738 13.2168C12.9207 13.2358 12.9627 13.2625 13 13.2971C13.0362 13.3328 13.0639 13.3721 13.0831 13.4152C13.1278 13.5127 13.1294 13.6108 13.0879 13.7095C13.0474 13.807 12.976 13.8763 12.8738 13.9172L11.1498 14.649L8.80545 15.639L7.99221 15.9679C7.96866 15.9775 7.94524 15.9848 7.92191 15.9899C7.83979 16.0087 7.75776 16.0013 7.67586 15.9679L6.86981 15.639L0.243254 12.9336C0.147391 12.8958 0.0770911 12.8297 0.0323548 12.7353C-0.0102405 12.6377 -0.0107833 12.5401 0.0307575 12.4426C0.0722983 12.3439 0.143141 12.2741 0.243254 12.2332L1.88971 11.5636L6.16601 13.2971C6.27146 13.3402 6.37691 13.3402 6.48236 13.2971Z" />
<path fill-rule="evenodd" clip-rule="evenodd" d="M18 11H17V13L15 13V14H17V16H18V14H20V13L18 13V11Z" />
</svg>
