<svg width="16" height="16" viewBox="0 0 16 16" fill="none" xmlns="http://www.w3.org/2000/svg">
<path d="M15.4285 15.9999H0.571419C0.367211 15.9999 0.178571 15.892 0.0765304 15.7167C-0.0255102 15.5415 -0.0255102 15.3256 0.0765304 15.1504C0.178571 14.9752 0.367217 14.8672 0.571419 14.8672H15.4285C15.6327 14.8672 15.8214 14.9752 15.9234 15.1504C16.0255 15.3256 16.0255 15.5415 15.9234 15.7167C15.8214 15.892 15.6327 15.9999 15.4285 15.9999Z" fill="#000000"/>
<path d="M5.29261 8.35388L4.39908 13.0504C4.37393 13.1871 4.39819 13.3283 4.4673 13.4484C4.5364 13.5683 4.64577 13.659 4.77547 13.7037C4.90504 13.7483 5.04629 13.7442 5.17308 13.6917L9.48673 11.768L5.29261 8.35388Z" fill="#000000"/>
<path d="M15.0546 4.95574L15.6291 4.21473C15.9061 3.86954 16.0363 3.42797 15.9911 2.98637C15.9459 2.54477 15.7289 2.13913 15.3878 1.85828L13.5322 0.364625C13.1868 0.0879367 12.7467 -0.039359 12.3084 0.0106634C11.8701 0.0605469 11.4692 0.283603 11.1939 0.630981L10.6194 1.37199L15.0546 4.95574Z" fill="#000000"/>
<path d="M5.80518 7.36541L9.87798 2.2655L14.3007 5.80274L10.2279 10.9026L5.80518 7.36541Z" fill="#000000"/>
</svg>
