<svg width="17" height="16" viewBox="0 0 17 16" fill="none" xmlns="http://www.w3.org/2000/svg">
<path d="M16.0012 1.20253V10.8521C16.0018 11.1716 15.8753 11.4781 15.6499 11.7043C15.4243 11.9304 15.1181 12.0577 14.7987 12.0579H13.2068V4.90028C13.2068 3.73849 12.2636 2.79352 11.1043 2.79352H3.94312V1.20257C3.94339 0.883337 4.07053 0.577379 4.2964 0.351776C4.52225 0.126333 4.82849 -0.000279529 5.14771 4.63396e-07H14.7973C15.1164 4.63396e-07 15.4223 0.126599 15.6482 0.352056C15.874 0.577635 16.001 0.883481 16.0015 1.20257L16.0012 1.20253Z" fill="black"/>
<path d="M11.1011 3.94189H0.957003C0.70326 3.94189 0.459771 4.04265 0.280401 4.22216C0.100895 4.40167 0 4.64502 0 4.8989V15.043C0 15.2968 0.100895 15.5402 0.280401 15.7198C0.459771 15.8991 0.70326 16 0.957003 16H11.1011C11.355 16 11.5983 15.8991 11.7779 15.7198C11.9574 15.5403 12.0581 15.2968 12.0581 15.043V4.8989C12.0581 4.64502 11.9574 4.40167 11.7779 4.22216C11.5984 4.04265 11.355 3.94189 11.1011 3.94189ZM8.56547 12.2678H3.48642C3.18387 12.2678 2.92426 12.0381 2.90249 11.7365L2.90236 11.7364C2.89046 11.5771 2.94542 11.42 3.05411 11.303C3.1628 11.1858 3.31537 11.1194 3.47504 11.1194H8.55375C8.8563 11.1194 9.1159 11.3491 9.13767 11.6507H9.13781C9.1497 11.8099 9.09474 11.967 8.98606 12.0842C8.87737 12.2012 8.7248 12.2678 8.56512 12.2678L8.56547 12.2678ZM8.56547 8.82258H3.48642C3.18387 8.82258 2.92426 8.5929 2.90249 8.29129L2.90236 8.29116C2.89046 8.13188 2.94542 7.9748 3.05411 7.85776C3.1628 7.7406 3.31537 7.67415 3.47504 7.67415H8.55375C8.8563 7.67415 9.1159 7.90384 9.13767 8.20544H9.13781C9.1497 8.36471 9.09474 8.5218 8.98606 8.63897C8.87737 8.756 8.7248 8.82258 8.56512 8.82258L8.56547 8.82258Z" fill="black"/>
</svg>
