<svg width="85" height="110" viewBox="0 0 85 110" fill="none" xmlns="http://www.w3.org/2000/svg">
<g filter="url(#filter0_bd_5869_15276)">
<path d="M9.875 0C6.64375 0 4.02938 2.61 4.02938 5.8L4 96.2C4 99.39 6.61437 102 9.84562 102H75.125C78.3562 102 81 99.39 81 96.2V17.4L63.375 0H9.875ZM60.4375 20.3V4.35L76.5938 20.3H60.4375Z" fill="url(#paint0_linear_5869_15276)" fill-opacity="0.52" shape-rendering="crispEdges"/>
<path d="M4.52938 5.80016V5.8C4.52938 2.88893 6.91709 0.5 9.875 0.5H63.1698L80.5 17.609V96.2C80.5 99.1078 78.0862 101.5 75.125 101.5H9.84562C6.88777 101.5 4.50009 99.1112 4.5 96.2002C4.5 96.2001 4.5 96.2001 4.5 96.2L4.52938 5.80016ZM59.9375 20.3V20.8H60.4375H76.5938H77.8119L76.945 19.9442L60.7888 3.99418L59.9375 3.15378V4.35V20.3Z" stroke="url(#paint1_radial_5869_15276)" stroke-opacity="0.59" shape-rendering="crispEdges"/>
<path d="M4.52938 5.80016V5.8C4.52938 2.88893 6.91709 0.5 9.875 0.5H63.1698L80.5 17.609V96.2C80.5 99.1078 78.0862 101.5 75.125 101.5H9.84562C6.88777 101.5 4.50009 99.1112 4.5 96.2002C4.5 96.2001 4.5 96.2001 4.5 96.2L4.52938 5.80016ZM59.9375 20.3V20.8H60.4375H76.5938H77.8119L76.945 19.9442L60.7888 3.99418L59.9375 3.15378V4.35V20.3Z" stroke="url(#paint2_radial_5869_15276)" shape-rendering="crispEdges"/>
</g>
<path fill-rule="evenodd" clip-rule="evenodd" d="M20.2188 66.6959C20.3605 66.3483 20.6083 66.0979 20.9625 65.9447L27.7289 63.1525L46.8872 71.03L46.177 71.3243L46.1658 71.3299L37.5485 74.9153C37.1794 75.0685 36.8103 75.0685 36.4412 74.9153L20.9625 68.4452C20.6158 68.2956 20.3734 68.0583 20.2355 67.733C20.0827 67.3892 20.0771 67.0435 20.2188 66.6959ZM70.15 59.1997C70.7166 59.4352 71 59.852 71 60.45C71 61.048 70.7167 61.463 70.15 61.6947L50.5835 69.8412C50.5129 69.8705 50.4421 69.8939 50.371 69.9113C50.0729 69.9885 49.7748 69.965 49.4763 69.8412L38.8934 65.426C39.2785 65.3773 39.6541 65.2755 40.0202 65.1204L62.2261 55.8805L70.15 59.1997ZM64.7257 49.3656C65.0799 49.5225 65.3241 49.7618 65.4583 50.0832C65.6149 50.4233 65.6205 50.769 65.4751 51.1205C65.3334 51.4681 65.0836 51.7166 64.7257 51.8661L37.0172 63.4608C36.6482 63.6141 36.2791 63.6141 35.91 63.4608L16.3379 55.3143C15.9912 55.1648 15.7488 54.9274 15.6109 54.6022C15.458 54.2584 15.4525 53.9126 15.5942 53.565C15.7359 53.2174 15.9837 52.967 16.3379 52.8137L28.4558 47.734L43.6885 54.0696C44.2179 54.2901 44.7697 54.4004 45.3438 54.4004C45.9178 54.4004 46.4678 54.2901 46.9934 54.0696L61.4934 48.0256L64.7257 49.3656ZM65.4583 40.9275C65.8013 41.0732 66.0455 41.3087 66.1909 41.6339C66.3512 41.9815 66.3586 42.331 66.2132 42.6824C66.0678 43.03 65.8162 43.2767 65.4583 43.4224L45.8918 51.5746C45.5264 51.7279 45.1573 51.7279 44.7846 51.5746L18.7704 40.7649C18.4349 40.6303 18.1889 40.3948 18.0323 40.0584C17.8832 39.7108 17.8813 39.3632 18.0267 39.0156C18.1721 38.6643 18.42 38.4157 18.7704 38.2699L38.3425 30.1177C38.5364 30.0392 38.7228 30 38.9017 30C39.1105 30.0112 39.2932 30.0505 39.4498 30.1177L65.4583 40.9275ZM37.6883 77.371L54.017 70.3739L59.5419 72.7007L65.2905 75.0779C65.4546 75.1453 65.6018 75.2405 65.7323 75.3639C65.859 75.491 65.956 75.6312 66.0231 75.7845C66.1797 76.1321 66.1853 76.4815 66.0399 76.8329C65.8982 77.1805 65.6484 77.4272 65.2905 77.573L59.2567 80.1801L45.8191 85.7138L42.9727 86.8856C42.8903 86.9198 42.8083 86.9459 42.7267 86.964C42.4393 87.0308 42.1522 87.0046 41.8655 86.8856L39.0443 85.7138L15.8514 76.0759C15.5159 75.9413 15.2698 75.7058 15.1132 75.3694C14.9642 75.0217 14.9623 74.6742 15.1077 74.3266C15.253 73.9752 15.501 73.7266 15.8514 73.5809L21.614 71.1953L36.5811 77.371C36.9501 77.5243 37.3192 77.5243 37.6883 77.371Z" fill="url(#paint3_linear_5869_15276)"/>
<defs>
<filter id="filter0_bd_5869_15276" x="-4" y="-8" width="93" height="118" filterUnits="userSpaceOnUse" color-interpolation-filters="sRGB">
<feFlood flood-opacity="0" result="BackgroundImageFix"/>
<feGaussianBlur in="BackgroundImage" stdDeviation="4"/>
<feComposite in2="SourceAlpha" operator="in" result="effect1_backgroundBlur_5869_15276"/>
<feColorMatrix in="SourceAlpha" type="matrix" values="0 0 0 0 0 0 0 0 0 0 0 0 0 0 0 0 0 0 127 0" result="hardAlpha"/>
<feOffset dy="4"/>
<feGaussianBlur stdDeviation="2"/>
<feComposite in2="hardAlpha" operator="out"/>
<feColorMatrix type="matrix" values="0 0 0 0 0.133333 0 0 0 0 0.32 0 0 0 0 0.4 0 0 0 0.25 0"/>
<feBlend mode="normal" in2="effect1_backgroundBlur_5869_15276" result="effect2_dropShadow_5869_15276"/>
<feBlend mode="normal" in="SourceGraphic" in2="effect2_dropShadow_5869_15276" result="shape"/>
</filter>
<linearGradient id="paint0_linear_5869_15276" x1="4" y1="0" x2="75.4653" y2="105.741" gradientUnits="userSpaceOnUse">
<stop stop-color="#151515" stop-opacity="0.4"/>
<stop offset="1" stop-color="#151515" stop-opacity="0"/>
</linearGradient>
<radialGradient id="paint1_radial_5869_15276" cx="0" cy="0" r="1" gradientUnits="userSpaceOnUse" gradientTransform="translate(42.5 51) rotate(-124.749) scale(86.1883 62.8503)">
<stop stop-color="white"/>
<stop offset="1" stop-color="white" stop-opacity="0"/>
</radialGradient>
<radialGradient id="paint2_radial_5869_15276" cx="0" cy="0" r="1" gradientUnits="userSpaceOnUse" gradientTransform="translate(42.5 51) rotate(127.973) scale(68.5783 49.7176)">
<stop stop-color="#151515"/>
<stop offset="1" stop-color="#151515" stop-opacity="0"/>
</radialGradient>
<linearGradient id="paint3_linear_5869_15276" x1="58.7463" y1="14.9093" x2="28.1337" y2="100.702" gradientUnits="userSpaceOnUse">
<stop stop-color="#1AE3D7"/>
<stop offset="1" stop-color="#0945DF"/>
</linearGradient>
</defs>
</svg>
