<svg
  width="39"
  height="40"
  viewBox="0 0 39 40"
  fill="none"
  xmlns="http://www.w3.org/2000/svg"
>
  <path
    fill-rule="evenodd"
    clip-rule="evenodd"
    d="M3.6345 25.7515C3.73318 25.5075 3.90579 25.3318 4.15246 25.2243L8.86474 23.2649L22.2071 28.793L21.7125 28.9995L21.7047 29.0035L15.7034 31.5195C15.4464 31.627 15.1893 31.627 14.9323 31.5195L4.15246 26.9791C3.911 26.8741 3.74222 26.7076 3.64618 26.4793C3.53971 26.238 3.53581 25.9954 3.6345 25.7515ZM38.408 20.491C38.8026 20.6563 39 20.9488 39 21.3684C39 21.7881 38.8027 22.0793 38.408 22.2419L24.7814 27.9588C24.7322 27.9793 24.6829 27.9957 24.6334 28.0079C24.4258 28.0621 24.2181 28.0456 24.0103 27.9588L16.64 24.8603C16.9083 24.8262 17.1698 24.7547 17.4247 24.6459L32.8896 18.1618L38.408 20.491ZM34.6304 13.5899C34.8771 13.7 35.0471 13.868 35.1406 14.0935C35.2496 14.3321 35.2535 14.5748 35.1523 14.8214C35.0536 15.0653 34.8797 15.2397 34.6304 15.3447L15.3334 23.4813C15.0764 23.5888 14.8194 23.5888 14.5623 23.4813L0.93175 17.7644C0.690294 17.6595 0.521509 17.4929 0.425472 17.2647C0.318998 17.0234 0.315102 16.7808 0.413788 16.5368C0.512473 16.2929 0.685076 16.1172 0.93175 16.0096L9.37102 12.4449L19.9795 16.8909C20.3482 17.0457 20.7325 17.1231 21.1323 17.1231C21.5321 17.1231 21.915 17.0457 22.2811 16.8909L32.3794 12.6495L34.6304 13.5899ZM35.1406 7.6684C35.3795 7.77069 35.5495 7.93594 35.6508 8.16415C35.7625 8.40809 35.7676 8.65337 35.6664 8.8999C35.5651 9.14384 35.3898 9.31696 35.1406 9.41926L21.5139 15.1401C21.2595 15.2476 21.0024 15.2476 20.7428 15.1401L2.62584 7.5543C2.39217 7.45987 2.22081 7.29462 2.11177 7.05854C2.00794 6.8146 2.00662 6.57066 2.10787 6.32672C2.20913 6.08018 2.38181 5.90573 2.62584 5.80343L16.2564 0.0826253C16.3914 0.0275419 16.5212 0 16.6459 0C16.7913 0.00786906 16.9185 0.035411 17.0275 0.0826253L35.1406 7.6684ZM15.8008 33.2428L27.1726 28.3325L31.0203 29.9654L35.0238 31.6336C35.138 31.6809 35.2405 31.7477 35.3314 31.8343C35.4197 31.9235 35.4872 32.0219 35.5339 32.1294C35.643 32.3734 35.6469 32.6186 35.5456 32.8652C35.4469 33.1091 35.273 33.2823 35.0238 33.3846L30.8217 35.2141L21.4633 39.0974L19.481 39.9197C19.4236 39.9437 19.3665 39.9621 19.3097 39.9747C19.1095 40.0216 18.9095 40.0032 18.7099 39.9197L16.7452 39.0974L0.592933 32.334C0.359266 32.2395 0.187909 32.0743 0.0788648 31.8382C-0.0249612 31.5942 -0.0262844 31.3503 0.0749713 31.1064C0.176227 30.8598 0.348906 30.6853 0.592933 30.5831L4.60616 28.9089L15.0297 33.2428C15.2867 33.3504 15.5437 33.3504 15.8008 33.2428Z"
    fill="url(#paint0_radial_63_285)"
  />
  <defs>
    <radialGradient
      id="paint0_radial_63_285"
      cx="0"
      cy="0"
      r="1"
      gradientUnits="userSpaceOnUse"
      gradientTransform="translate(26.2554 7.5) rotate(101.742) scale(33.1947 32.4344)"
    >
      <stop stop-color="#1AE3D7" />
      <stop offset="1" stop-color="#0945DF" />
    </radialGradient>
  </defs>
</svg>
