<svg width="90" height="91" viewBox="0 0 90 91" fill="none" xmlns="http://www.w3.org/2000/svg">
<g clip-path="url(#clip0_5098_7720)">
<path d="M8.4375 6.125C7.69158 6.125 6.97621 6.42132 6.44876 6.94876C5.92132 7.47621 5.625 8.19158 5.625 8.9375V25.8125C5.625 26.5584 5.32868 27.2738 4.80124 27.8012C4.27379 28.3287 3.55842 28.625 2.8125 28.625C2.06658 28.625 1.35121 28.3287 0.823762 27.8012C0.296316 27.2738 0 26.5584 0 25.8125V8.9375C0 6.69974 0.888948 4.55362 2.47129 2.97129C4.05362 1.38895 6.19974 0.5 8.4375 0.5L25.3125 0.5C26.0584 0.5 26.7738 0.796316 27.3012 1.32376C27.8287 1.85121 28.125 2.56658 28.125 3.3125C28.125 4.05842 27.8287 4.77379 27.3012 5.30124C26.7738 5.82868 26.0584 6.125 25.3125 6.125H8.4375ZM61.875 3.3125C61.875 2.56658 62.1713 1.85121 62.6988 1.32376C63.2262 0.796316 63.9416 0.5 64.6875 0.5L81.5625 0.5C83.8003 0.5 85.9464 1.38895 87.5287 2.97129C89.1111 4.55362 90 6.69974 90 8.9375V25.8125C90 26.5584 89.7037 27.2738 89.1762 27.8012C88.6488 28.3287 87.9334 28.625 87.1875 28.625C86.4416 28.625 85.7262 28.3287 85.1988 27.8012C84.6713 27.2738 84.375 26.5584 84.375 25.8125V8.9375C84.375 8.19158 84.0787 7.47621 83.5512 6.94876C83.0238 6.42132 82.3084 6.125 81.5625 6.125H64.6875C63.9416 6.125 63.2262 5.82868 62.6988 5.30124C62.1713 4.77379 61.875 4.05842 61.875 3.3125ZM2.8125 62.375C3.55842 62.375 4.27379 62.6713 4.80124 63.1988C5.32868 63.7262 5.625 64.4416 5.625 65.1875V82.0625C5.625 82.8084 5.92132 83.5238 6.44876 84.0512C6.97621 84.5787 7.69158 84.875 8.4375 84.875H25.3125C26.0584 84.875 26.7738 85.1713 27.3012 85.6988C27.8287 86.2262 28.125 86.9416 28.125 87.6875C28.125 88.4334 27.8287 89.1488 27.3012 89.6762C26.7738 90.2037 26.0584 90.5 25.3125 90.5H8.4375C6.19974 90.5 4.05362 89.6111 2.47129 88.0287C0.888948 86.4464 0 84.3003 0 82.0625L0 65.1875C0 64.4416 0.296316 63.7262 0.823762 63.1988C1.35121 62.6713 2.06658 62.375 2.8125 62.375ZM87.1875 62.375C87.9334 62.375 88.6488 62.6713 89.1762 63.1988C89.7037 63.7262 90 64.4416 90 65.1875V82.0625C90 84.3003 89.1111 86.4464 87.5287 88.0287C85.9464 89.6111 83.8003 90.5 81.5625 90.5H64.6875C63.9416 90.5 63.2262 90.2037 62.6988 89.6762C62.1713 89.1488 61.875 88.4334 61.875 87.6875C61.875 86.9416 62.1713 86.2262 62.6988 85.6988C63.2262 85.1713 63.9416 84.875 64.6875 84.875H81.5625C82.3084 84.875 83.0238 84.5787 83.5512 84.0512C84.0787 83.5238 84.375 82.8084 84.375 82.0625V65.1875C84.375 64.4416 84.6713 63.7262 85.1988 63.1988C85.7262 62.6713 86.4416 62.375 87.1875 62.375Z" fill="url(#paint0_linear_5098_7720)"/>
<path d="M16.875 79.25C16.875 79.25 11.25 79.25 11.25 73.625C11.25 68 16.875 51.125 45 51.125C73.125 51.125 78.75 68 78.75 73.625C78.75 79.25 73.125 79.25 73.125 79.25H16.875ZM61.875 28.625C61.875 33.1005 60.0971 37.3927 56.9324 40.5574C53.7678 43.7221 49.4755 45.5 45 45.5C40.5245 45.5 36.2323 43.7221 33.0676 40.5574C29.9029 37.3927 28.125 33.1005 28.125 28.625C28.125 24.1495 29.9029 19.8573 33.0676 16.6926C36.2323 13.5279 40.5245 11.75 45 11.75C49.4755 11.75 53.7678 13.5279 56.9324 16.6926C60.0971 19.8573 61.875 24.1495 61.875 28.625Z" fill="url(#paint1_linear_5098_7720)"/>
</g>
<defs>
<linearGradient id="paint0_linear_5098_7720" x1="70.3066" y1="-23.3274" x2="22.6317" y2="112.669" gradientUnits="userSpaceOnUse">
<stop stop-color="#1AE3D7"/>
<stop offset="1" stop-color="#0945DF"/>
</linearGradient>
<linearGradient id="paint1_linear_5098_7720" x1="63.98" y1="-6.12054" x2="28.2237" y2="95.8766" gradientUnits="userSpaceOnUse">
<stop stop-color="#1AE3D7"/>
<stop offset="1" stop-color="#0945DF"/>
</linearGradient>
<clipPath id="clip0_5098_7720">
<rect width="90" height="90" fill="white" transform="translate(0 0.5)"/>
</clipPath>
</defs>
</svg>
