<svg width="346" height="68" fill="#003d5f">
    <path fillRule="evenodd"
        d="M22.761 50.154a1.24 1.24 0 0 0 .937.659c.264.044.464-.016.603-.179.156-.201.125-.471-.095-.813h-.013a1.37 1.37 0 0 0-.656-.486c-.271-.092-.495-.089-.675.014-.279.16-.314.428-.101.805zm7.685-3.132a10.44 10.44 0 0 1 1.138 1.902c.382.852.6 1.682.647 2.495.044.775-.074 1.489-.361 2.142-.276.656-.693 1.193-1.25 1.608-1.163.874-2.637 1.192-4.415.957-1.641-.223-3.276-.872-4.902-1.949-1.63-1.069-2.91-2.332-3.832-3.791-1.003-1.588-1.404-3.133-1.204-4.635.169-1.257.764-2.222 1.785-2.901.973-.643 2.182-.926 3.627-.85 1.483.08 2.974.527 4.467 1.341 1.628.886 3.061 2.117 4.301 3.686v-.005zM9.766 35.436c.396-2.961 1.796-5.236 4.192-6.823 2.293-1.517 5.139-2.187 8.542-2.008 3.498.177 7.01 1.229 10.533 3.154 3.829 2.092 7.204 4.986 10.125 8.678 1.641 2.256 2.813 4.55 3.517 6.885.715 2.368.877 4.547.489 6.543-.405 2.107-1.395 3.838-2.969 5.197-1.702 1.459-3.993 2.396-6.874 2.812-1.084.082-2.154.124-3.211.133-.636-.022-1.131-.049-1.483-.08l-1.993-.245c-.522-.089-.937-.168-1.245-.238-.205-.044-.798-.196-1.778-.453l-1.071-.333c-.254-.093-.791-.298-1.611-.618l-.936-.413-.77-.394c1.814.886 3.679 1.487 5.598 1.803 2.337.38 4.421.239 6.254-.425 1.783-.648 3.113-1.712 3.984-3.193.902-1.53 1.202-3.315.896-5.36-.325-2.212-1.328-4.528-3.009-6.944l-.008.008c-1.297-1.746-2.87-3.301-4.721-4.663s-3.799-2.407-5.865-3.139c-2.274-.806-4.443-1.147-6.508-1.023s-3.782.7-5.156 1.729c-1.45 1.086-2.354 2.495-2.715 4.224-.339 1.613-.188 3.384.453 5.314.628 1.862 1.652 3.683 3.069 5.46a23.53 23.53 0 0 0 3.077 3.171l-.334-.267a20.22 20.22 0 0 1-.749-.672l-1.204-1.199c-.334-.359-.579-.631-.735-.817a81.74 81.74 0 0 1-1.138-1.423 43.67 43.67 0 0 1-1.119-1.63c-.2-.323-.536-.908-1.008-1.754-.29-.568-.502-1.009-.636-1.318-.115-.267-.369-.896-.762-1.888-.196-.582-.335-1.017-.415-1.305s-.249-.981-.507-2.066c-.136-.742-.222-1.368-.262-1.883-.068-.863-.049-1.707.063-2.534zM8.663 16.868c-.222.014-.404.017-.541.014l-.691-.047c-.106-.009-.265-.031-.475-.066l-.623-.119c-.09-.024-.222-.061-.401-.113l-.555-.179a11.38 11.38 0 0 1-.342-.133l-.508-.239c-.068-.033-.166-.085-.3-.154l-.465-.281c-.063-.034-.153-.096-.273-.179l-.443-.326-.252-.207-.417-.38-.24-.245-.39-.446-.24-.304-.374-.562a11.73 11.73 0 0 1-.341-.577l-.289-.612a9.13 9.13 0 0 1-.174-.466l-.213-.678a5.42 5.42 0 0 1-.107-.452c.23.935.66 1.836 1.284 2.7.596.83 1.325 1.56 2.187 2.189a9.98 9.98 0 0 0 2.749 1.429c.936.306 1.854.444 2.755.413l-.32.019zm6.5-3.431l-.543.665a10.34 10.34 0 0 1-.428.446l-.663.565a12.25 12.25 0 0 1-.612.433c-1.24.695-2.696.883-4.369.565-1.546-.293-3.037-.96-4.467-2.002S1.569 11.86.837 10.49C.048 9.014-.182 7.592.142 6.227a18.91 18.91 0 0 1 .376-1.084c.181-.384.323-.662.423-.83a9.25 9.25 0 0 1 .555-.872l.374-.472C.995 4.125.733 5.463 1.087 6.979c.325 1.374 1.098 2.716 2.321 4.025 1.191 1.272 2.572 2.264 4.14 2.978 1.657.75 3.217 1.031 4.68.846.603-.075 1.147-.229 1.633-.458a3.99 3.99 0 0 0 1.545-1.283l-.241.351zM8.535.001l.336.02C7.751-.01 6.844.201 6.148.653c-.66.431-1.073 1.042-1.237 1.831-.161.767-.071 1.599.275 2.495.357.927.931 1.8 1.726 2.62.909.94 1.941 1.654 3.096 2.142 1.081.461 2.128.67 3.144.624 1.011-.039 1.824-.326 2.441-.858.66-.568.994-1.341 1.002-2.321.006-.355-.04-.723-.133-1.105a5.5 5.5 0 0 0-.155-.518l.028.072.213.686c.036.138.079.329.126.573l.107.764a12.4 12.4 0 0 1 .033.698c-.009.417-.03.781-.062 1.097-.218 1.276-.822 2.206-1.811 2.787-.904.537-2.027.725-3.37.565-1.306-.157-2.608-.609-3.907-1.357a11.36 11.36 0 0 1-3.397-2.992c-.579-.763-1.007-1.542-1.278-2.341-.268-.77-.374-1.509-.32-2.214s.252-1.334.615-1.869c.374-.555.887-.982 1.54-1.277l.816-.32.802-.22c.164-.039.413-.086.743-.14l.756-.066c.137-.009.334-.011.593-.008zm4.782 1.731c.54.399.999.854 1.377 1.362.494.704.789 1.381.884 2.022.088.599.002 1.119-.26 1.563-.256.436-.642.745-1.164.932-.535.195-1.144.235-1.824.126-.893-.146-1.736-.501-2.531-1.065a6.36 6.36 0 0 1-1.778-1.873c-.445-.728-.664-1.423-.656-2.088a2.05 2.05 0 0 1 .844-1.682C8.61.726 9.111.557 9.712.521s1.229.061 1.893.3c.603.213 1.174.516 1.712.912zm.51 2.865a1.17 1.17 0 0 0 .085-.518c-.021-.355-.166-.712-.434-1.072h.006c-.303-.381-.65-.678-1.043-.891-.364-.198-.729-.308-1.089-.325-.349-.019-.642.05-.877.206a.95.95 0 0 0-.436.704c-.049.362.047.739.295 1.125.222.355.533.661.931.918.391.262.789.42 1.19.472.428.058.783-.02 1.063-.232a.95.95 0 0 0 .308-.388zm42.28 43.668l-1.022 1.503c-.486.643-.865 1.12-1.138 1.429-.253.29-.841.907-1.766 1.858-.726.665-1.294 1.156-1.704 1.475-.317.248-.89.661-1.726 1.238 3.152-2.328 4.754-5.424 4.801-9.285.049-4.009-1.583-8.385-4.894-13.128h-.01c-2.987-3.839-6.502-6.966-10.546-9.384-3.818-2.283-7.66-3.682-11.53-4.195s-7.233-.074-10.073 1.323c-3.01 1.481-5.06 3.871-6.153 7.17.265-.875.637-1.947 1.125-3.221.57-1.218 1.041-2.142 1.412-2.772.268-.466.76-1.233 1.483-2.302l1.123-1.41c2.039-2.15 4.648-3.524 7.832-4.122 3.05-.582 6.355-.411 9.918.512s7.027 2.495 10.395 4.729a40.04 40.04 0 0 1 9.263 8.552c2.701 3.83 4.314 7.399 4.841 10.707s-.017 6.417-1.631 9.325zm-.888-24.387h-.008c-2.1-2.656-4.449-4.966-7.05-6.93-2.535-1.911-5.188-3.402-7.952-4.47s-5.484-1.646-8.173-1.742c-2.76-.102-5.339.309-7.738 1.236.483-.209 1.292-.522 2.435-.944.951-.297 1.691-.505 2.226-.626.437-.097 1.223-.243 2.36-.438.779-.099 1.39-.158 1.827-.179.347-.019 1.082-.031 2.201-.039l1.316.066c2.632.228 5.282.956 7.952 2.189 4.129 1.908 7.739 4.815 10.828 8.727.732 1.037 1.256 1.834 1.572 2.388s.71 1.365 1.19 2.448l.361.963c.245.7.42 1.239.521 1.616.081.314.246 1.026.495 2.134.148.883.243 1.552.287 2.008.036.403.081 1.181.134 2.335-.017 1.081-.082 2.173-.186 3.271.196-2.593-.136-5.074-.989-7.442-.708-1.95-1.912-4.142-3.61-6.571z" />
    <path
        d="M84.407 29.104H72.473v-1.797h25.833v1.797H86.372V58.8h-1.965V29.104zm19.756 6.662c6.223 0 9.327 4.815 9.327 10.255 0 .359-.044.812-.095 1.214H95.063c0 6.526 4.477 10.255 9.787 10.255 2.563 0 5.258-1.035 7.084-2.831l1.052 1.574c-2.008 1.89-5.215 3.105-8.136 3.105-6.449 0-11.795-4.592-11.795-11.743 0-7.603 5.259-11.829 11.108-11.829zm7.318 9.716c-.226-5.491-3.564-7.963-7.362-7.963-4.206 0-8.092 2.702-8.917 7.963h16.279zm4.711-9.177h1.921v2.702c0 1.035-.139 1.804-.139 1.804h.088c1.373-3.148 4.484-5.038 8.231-5.038 6.128 0 9.875 4.815 9.875 11.786 0 7.158-4.251 11.793-10.152 11.793-3.477 0-6.537-1.89-8.005-5.088h-.088s.183.812.183 1.983V67.81h-1.921V36.305h.007zm9.831 21.194c4.484 0 8.143-3.644 8.143-9.946 0-6.073-3.293-9.946-7.953-9.946-4.207 0-8.136 2.925-8.136 9.99-.015 4.995 2.826 9.903 7.946 9.903zm12.621-21.194h1.92v10.033h14.958V36.305h1.921v22.502h-1.921V48.099h-14.958v10.708h-1.92V36.305zm23.853-9.27h4.528v13.949h5.485c.738-8.279 7.501-14.488 16.01-14.488 9.151 0 16.236 7.065 16.236 16.199 0 9.357-7.092 16.652-16.236 16.652-8.377 0-15.002-6.209-15.915-14.488h-5.58v13.949h-4.528V27.035zM188.52 55.25c6.405 0 11.569-5.491 11.569-12.555 0-6.842-5.164-12.102-11.569-12.102-6.362 0-11.481 5.268-11.481 12.102 0 7.064 5.119 12.555 11.481 12.555zm19.157-19.218h4.433v9.271h11.708v-9.271h4.441V58.8h-4.441v-9.76H212.11v9.767h-4.433V36.032zm24.401 0h4.251v13.59l-.139 3.062h.088c.183-.402 1.278-1.976 2.06-3.062l9.969-13.59h4.295V58.8h-4.295V45.217l.139-3.018h-.095c-.139.402-1.286 1.933-2.009 3.018l-10.013 13.59h-4.251V36.032zm24.102 0h9.553c4.667 0 7.735 2.027 7.735 5.85 0 2.206-1.191 4.096-3.294 4.995v.043c2.878.676 4.39 2.882 4.39 5.397 0 4.226-3.477 6.482-8.502 6.482h-9.874V36.032h-.008zm8.779 9.63c2.651 0 3.981-1.351 3.981-3.464 0-2.07-1.322-3.148-4.112-3.148h-4.207v6.612h4.338zm.409 10.076c3.199 0 4.711-1.437 4.711-3.55 0-2.249-1.694-3.601-4.755-3.601h-4.71v7.151h4.754zm22.349-20.245c6.537 0 10.014 4.815 10.014 10.665 0 .589-.088 1.215-.183 1.847H280.72c.227 4.901 3.798 7.56 7.961 7.56 2.469 0 4.981-1.035 6.815-2.652l1.877 3.198c-2.235 2.027-5.756 3.241-8.962 3.241-7.267 0-12.299-5.174-12.299-11.923-.007-7.259 5.025-11.937 11.605-11.937zm5.536 9.357c-.138-3.917-2.607-5.986-5.623-5.986-3.433 0-6.128 2.206-6.771 5.986h12.394zm7.078-8.818h4.112v2.027c0 .941-.139 1.71-.139 1.71h.095c1.46-2.745 4.389-4.276 7.771-4.276 6.266 0 10.152 4.858 10.152 11.923 0 7.244-4.39 11.923-10.474 11.923-2.921 0-5.58-1.444-7.179-3.874h-.088s.183.812.183 1.976V67.79h-4.433V36.032zm10.838 19.526c3.659 0 6.676-2.925 6.676-8.099 0-4.952-2.703-8.143-6.537-8.143-3.477 0-6.676 2.429-6.676 8.186 0 4.053 2.286 8.056 6.537 8.056zm25.592-20.065c3.067 0 6.493 1.035 8.691 3.328l-2.103 3.061a9.46 9.46 0 0 0-6.405-2.609c-4.66 0-8.049 3.464-8.049 8.099s3.389 8.186 8.187 8.186c2.564 0 5.354-1.215 7.136-3.062L346 55.695c-2.103 2.199-5.624 3.644-9.239 3.644-7.318 0-12.394-5.088-12.394-11.923 0-6.748 5.12-11.923 12.394-11.923z" />
</svg>