<svg xmlns="http://www.w3.org/2000/svg" width="76" height="72" fill="none" xmlns:v="https://vecta.io/nano"><path d="M75.492 58.37c-1.494-4.356-11.241-7.531-15.674-9.505-2.171-.966-4.631-1.551-5.93-2.535-1.312-.995-1.506-3.137-3.178-4.649-.662-.599-2.598.14-2.754-1.054-.234-1.818 1.706-2.952 2.33-4.648.637-1.733.229-1.503.694-3.611 3.614-1.031 5.235-9.485 2.905-9.697 1.137-6.165 2.218-15.51-2.117-17.954-.907-.513-1.992-.227-2.754-.634-.432-.231-.841-1.133-1.27-1.478C45.691.957 40.182.007 36.941 0c-3.24.006-6.632.958-8.684 2.604l-4.025 2.113c-4.333 2.445-3.252 11.789-2.117 17.954-2.331.212-.651 8.687 2.965 9.717.465 2.109-.001 1.858.635 3.591.624 1.698 2.565 2.831 2.33 4.648-.154 1.194-2.091.456-2.754 1.054-1.671 1.513-1.865 3.655-3.177 4.648-1.298.983-3.758 1.568-5.93 2.535C11.749 50.838 2.002 54.016.508 58.37c-.845 2.466-.354 4.454-.471 7.182H.04C.038 69.121 16.56 72 36.94 72s39.02-2.878 39.02-6.43v-.018c-.115-2.727.377-4.716-.468-7.183h0z" fill="url(#A)"/><defs><radialGradient id="A" cx="0" cy="0" r="1" gradientUnits="userSpaceOnUse" gradientTransform="translate(51.1643 13.5) rotate(102.682) scale(59.9629 62.9815)"><stop stop-color="#1ae3d7"/><stop offset="1" stop-color="#0945df"/></radialGradient></defs></svg>