<svg width="17" height="17" viewBox="0 0 17 17" fill="none" xmlns="http://www.w3.org/2000/svg">
<path fill-rule="evenodd" clip-rule="evenodd" d="M2.8255 16.6698L6.29103 12.4935L4.50652 10.7091L0.330189 14.1744C-0.93615 15.2255 1.77474 17.9361 2.8255 16.6698ZM7.5756 10.4904L6.51163 11.5544L5.44579 10.4884L6.50966 9.42439C4.73733 7.12896 4.90356 3.81925 7.00873 1.71427C9.2944 -0.571424 13.0001 -0.571424 15.2857 1.71427C17.5714 3.99997 17.5714 7.70579 15.2857 9.99152C13.1807 12.0965 9.87113 12.2628 7.5756 10.4904ZM7.84473 9.15525C6.02084 7.33133 6.02084 4.37421 7.84473 2.55028C9.66863 0.726365 12.6258 0.726365 14.4496 2.55028C16.2735 4.37421 16.2735 7.33133 14.4496 9.15525C12.6257 10.9792 9.66863 10.9792 7.84473 9.15525Z" fill="url(#paint0_linear_276_1685)"/>
<defs>
<linearGradient id="paint0_linear_276_1685" x1="3.71986" y1="-4.50073" x2="12.7251" y2="21.1874" gradientUnits="userSpaceOnUse">
<stop stop-color="#1AE3D7"/>
<stop offset="1" stop-color="#0945DF"/>
</linearGradient>
</defs>
</svg>
