<svg width="444" height="88" viewBox="0 0 444 88" fill="none" xmlns="http://www.w3.org/2000/svg">
<path fillRule="evenodd" clipRule="evenodd" d="M29.2075 64.3599C29.4788 64.8431 29.8776 65.125 30.4101 65.2056C30.7482 65.2619 31.0054 65.1854 31.1835 64.976C31.384 64.7183 31.3435 64.372 31.0621 63.9331H31.0459C30.8333 63.6432 30.5539 63.4358 30.2036 63.3089C29.8554 63.1902 29.5678 63.1942 29.337 63.3271C28.9787 63.5324 28.9341 63.8767 29.2075 64.3599ZM39.0697 60.3412C39.6649 61.1385 40.1488 61.9499 40.5295 62.7814C41.0194 63.8747 41.2988 64.9398 41.3596 65.9827C41.4163 66.9773 41.2644 67.8934 40.8959 68.731C40.5416 69.5726 40.0071 70.2612 39.2924 70.7947C37.8002 71.9162 35.9091 72.3249 33.6273 72.0229C31.5217 71.737 29.4241 70.9035 27.3367 69.5223C25.2452 68.1511 23.6031 66.5304 22.4187 64.6579C21.131 62.6204 20.6167 60.6372 20.8739 58.7104C21.0905 57.0976 21.8538 55.8594 23.1638 54.9876C24.413 54.1621 25.9639 53.7997 27.8185 53.8963C29.7217 53.999 31.635 54.5728 33.5504 55.6178C35.6399 56.7554 37.4783 58.3339 39.0697 60.3472V60.3412ZM12.5322 45.4723C13.0404 41.673 14.8363 38.7536 17.9118 36.7161C20.8536 34.7691 24.5062 33.9094 28.8734 34.1389C33.3621 34.3664 37.869 35.7154 42.3901 38.1858C47.304 40.8697 51.6348 44.5844 55.3825 49.3219C57.4882 52.2172 58.9925 55.1608 59.8955 58.1567C60.8127 61.1949 61.0212 63.9915 60.5232 66.5525C60.0028 69.2565 58.7333 71.4773 56.7127 73.2209C54.5281 75.0933 51.5883 76.2953 47.8912 76.8289C46.5002 76.9336 45.1275 76.9879 43.771 77C42.955 76.9718 42.3193 76.9376 41.8678 76.8973C41.4932 76.8571 40.6449 76.7544 39.3106 76.5832C38.6404 76.4685 38.1079 76.3678 37.7131 76.2772C37.4499 76.2208 36.6886 76.0255 35.4313 75.6953C34.8057 75.5081 34.3481 75.3671 34.0566 75.2685C33.7306 75.1497 33.0422 74.8859 31.9894 74.4752C31.4407 74.2356 31.0378 74.0584 30.7887 73.9457C30.5923 73.847 30.2623 73.6799 29.8007 73.4403C32.1291 74.5779 34.5222 75.349 36.9842 75.7537C39.9828 76.241 42.6574 76.0598 45.0101 75.2081C47.298 74.3766 49.0048 73.0115 50.1224 71.1108C51.2805 69.1478 51.6652 66.8565 51.2724 64.2331C50.8553 61.3942 49.5676 58.4224 47.4113 55.3218L47.4012 55.3319C45.7369 53.091 43.7183 51.0957 41.3434 49.3481C38.9745 47.6025 36.468 46.2595 33.8176 45.3193C30.9001 44.2844 28.1162 43.8475 25.4659 44.0066C22.8155 44.1656 20.6127 44.9045 18.8492 46.2253C16.9885 47.6186 15.8284 49.4266 15.3647 51.6454C14.9294 53.7151 15.1238 55.9883 15.9458 58.4647C16.7516 60.8546 18.0656 63.1902 19.8838 65.4713C21.0703 66.9492 22.3863 68.3062 23.8319 69.5404C23.7024 69.4377 23.5566 69.325 23.4027 69.1981C22.9674 68.8216 22.6475 68.5357 22.441 68.3364C22.2304 68.129 21.7141 67.6196 20.8962 66.7981C20.4669 66.3371 20.1531 65.9888 19.9526 65.7492C19.7502 65.5096 19.2643 64.8995 18.4929 63.923C17.845 63.013 17.3671 62.3143 17.0574 61.8311C16.8002 61.4164 16.369 60.6654 15.7636 59.5801C15.391 58.8513 15.1197 58.2855 14.9476 57.8889C14.7998 57.5466 14.4739 56.7392 13.9697 55.4668C13.7187 54.7198 13.5405 54.1621 13.4372 53.7916C13.334 53.4172 13.1173 52.5333 12.7873 51.14C12.6132 50.1877 12.5018 49.3843 12.4512 48.7239C12.3642 47.6166 12.3884 46.5334 12.5322 45.4723ZM11.117 21.6458C10.8315 21.664 10.5986 21.668 10.4225 21.664C9.96288 21.6338 9.66728 21.6156 9.53568 21.6036C9.40002 21.5915 9.19553 21.5633 8.92625 21.519C8.50309 21.4385 8.23583 21.3881 8.1265 21.366C8.01109 21.3358 7.84102 21.2875 7.61223 21.221C7.23362 21.1002 6.9947 21.0237 6.89954 20.9915C6.80033 20.9552 6.65456 20.8989 6.46019 20.8203C6.11194 20.6613 5.8953 20.5566 5.80824 20.5143C5.72118 20.472 5.59565 20.4056 5.42355 20.317C5.10568 20.1277 4.90726 20.0069 4.82627 19.9566C4.74529 19.9123 4.62988 19.8338 4.476 19.7271C4.1723 19.5056 3.98198 19.3647 3.90707 19.3083C3.83418 19.2499 3.72485 19.1633 3.58312 19.0425C3.28549 18.7707 3.10732 18.6076 3.0486 18.5553C2.97572 18.4828 2.87246 18.3761 2.74085 18.2412C2.47157 17.9412 2.30555 17.7479 2.24076 17.6694C2.16787 17.5788 2.06461 17.4479 1.93301 17.2788C1.69409 16.9285 1.53414 16.6909 1.45316 16.558C1.34382 16.3889 1.19805 16.1412 1.01583 15.8171C0.825507 15.4144 0.704026 15.1506 0.645311 15.0319C0.58862 14.8949 0.513707 14.6956 0.422596 14.4339C0.276819 13.9748 0.181659 13.6829 0.149264 13.5641C0.108771 13.4292 0.0622031 13.2339 0.0115861 12.9842C0.307189 14.1842 0.857902 15.3399 1.65967 16.4493C2.425 17.5144 3.36041 18.4506 4.46588 19.258C5.57135 20.0653 6.74567 20.6774 7.99287 21.0922C9.19351 21.4848 10.3719 21.6619 11.528 21.6217C11.3052 21.6378 11.1676 21.6458 11.117 21.6458ZM19.4586 17.2426C19.1023 17.6936 18.8715 17.9754 18.7621 18.0962C18.6447 18.2311 18.4584 18.4224 18.2135 18.668C17.7903 19.0385 17.5068 19.2801 17.3631 19.3929C17.1869 19.5298 16.9237 19.715 16.5775 19.9486C14.9861 20.8405 13.1173 21.0821 10.9712 20.6734C8.98699 20.2969 7.07367 19.4412 5.23931 18.1043C3.4009 16.7674 2.01399 15.2191 1.07454 13.4614C0.0622031 11.5668 -0.2334 9.74267 0.181659 7.99102C0.343633 7.47761 0.503583 7.01654 0.663533 6.59977C0.896371 6.10649 1.07859 5.75012 1.20615 5.53468C1.35192 5.26086 1.58881 4.88839 1.91883 4.41524L2.39868 3.80921C1.27701 5.29308 0.940914 7.0105 1.39444 8.95544C1.81153 10.7192 2.80362 12.4406 4.37275 14.1198C5.90138 15.7526 7.67297 17.0251 9.6855 17.9412C11.8114 18.9036 13.8138 19.264 15.6907 19.0264C16.4641 18.9298 17.1626 18.7325 17.7862 18.4385C18.6022 18.0459 19.2643 17.4962 19.7684 16.7916L19.4586 17.2426ZM10.953 0.0018847L11.3842 0.0280588C9.94669 -0.012209 8.7825 0.257585 7.88961 0.837442C7.0433 1.39112 6.51283 2.17433 6.30226 3.18707C6.09575 4.17162 6.21115 5.23872 6.65456 6.38836C7.11213 7.57828 7.84912 8.69772 8.86956 9.75072C10.0358 10.9567 11.3599 11.8728 12.842 12.499C14.2289 13.0909 15.5733 13.3587 16.8772 13.3003C18.175 13.25 19.2177 12.8815 20.0093 12.199C20.8557 11.4702 21.2849 10.4776 21.295 9.2212C21.3031 8.76618 21.2444 8.29303 21.1249 7.80378C21.0784 7.61049 21.0136 7.38902 20.9265 7.13936L20.963 7.23197C21.1047 7.68297 21.1958 7.97491 21.2363 8.11182C21.2829 8.289 21.3375 8.53464 21.3983 8.84671C21.4732 9.32993 21.5218 9.6561 21.5359 9.82723C21.5542 10.0366 21.5683 10.3366 21.5785 10.7232C21.5663 11.2588 21.54 11.7259 21.4995 12.1306C21.2201 13.7674 20.4446 14.9614 19.1752 15.7063C18.015 16.3949 16.5735 16.6365 14.8505 16.4312C13.174 16.2298 11.5037 15.65 9.83735 14.6896C8.09815 13.6768 6.64646 12.3983 5.47822 10.85C4.73516 9.87153 4.18647 8.87087 3.83823 7.84606C3.49403 6.85748 3.35838 5.90917 3.42722 5.00516C3.48998 4.09511 3.75117 3.29378 4.21684 2.60721C4.69669 1.89447 5.35471 1.34683 6.19293 0.968313C6.68898 0.768987 7.03925 0.632076 7.23969 0.557581C7.73371 0.416643 8.07791 0.322014 8.26823 0.275706C8.47879 0.225371 8.79869 0.164969 9.22185 0.0965141C9.72397 0.0502061 10.0479 0.0220186 10.1917 0.0119517C10.3678 -0.000128689 10.6209 -0.00214208 10.953 0.0018847ZM17.0898 2.22266C17.7822 2.73406 18.3714 3.31794 18.8573 3.97028C19.491 4.87429 19.8696 5.74206 19.9911 6.56554C20.1045 7.33466 19.9931 8.00109 19.657 8.57088C19.329 9.1306 18.833 9.52724 18.1628 9.76683C17.4765 10.0165 16.6949 10.0688 15.8223 9.9279C14.6763 9.74066 13.5952 9.28563 12.5747 8.56081C11.6251 7.89035 10.8659 7.08902 10.2929 6.15682C9.72195 5.22261 9.44052 4.33068 9.45064 3.477C9.47089 2.56695 9.83128 1.84615 10.5338 1.31864C11.0481 0.932071 11.692 0.714625 12.4634 0.668317C13.2307 0.619996 14.0406 0.74684 14.893 1.05288C15.6664 1.3267 16.3993 1.71528 17.0898 2.22266ZM17.7437 5.89911C17.8288 5.69576 17.8652 5.47428 17.8531 5.23469C17.8267 4.77966 17.6405 4.32061 17.2963 3.85954H17.3044C16.9156 3.37029 16.4702 2.98976 15.9661 2.71594C15.4984 2.46225 15.0307 2.32131 14.569 2.29916C14.1216 2.275 13.745 2.36359 13.4433 2.56292C13.1214 2.77231 12.9371 3.07633 12.8845 3.46693C12.8217 3.93202 12.9452 4.41524 13.2631 4.91053C13.5486 5.36556 13.9475 5.75817 14.4577 6.08837C14.9598 6.4246 15.47 6.62796 15.9843 6.6944C16.533 6.76889 16.9885 6.66822 17.3489 6.39642C17.5251 6.26353 17.6567 6.10045 17.7437 5.89911ZM71.999 61.9358L70.687 63.8646C70.0634 64.6901 69.5775 65.3022 69.2273 65.6988C68.9033 66.0713 68.1481 66.8626 66.9616 68.0827C66.0303 68.9364 65.3014 69.5666 64.775 69.9753C64.368 70.2934 63.6331 70.8229 62.56 71.5638C66.6053 68.576 68.6604 64.6036 68.7211 59.6486C68.7839 54.5044 66.6903 48.889 62.4405 42.8026H62.4284C58.5957 37.8758 54.0847 33.8631 48.8954 30.7605C43.9957 27.831 39.0656 26.035 34.0991 25.3767C29.1265 24.7163 24.818 25.282 21.1735 27.0739C17.3104 28.9746 14.6804 32.041 13.2773 36.2751C13.6174 35.1517 14.0953 33.7765 14.7209 32.1416C15.4518 30.5793 16.0572 29.3934 16.533 28.584C16.8772 27.986 17.5089 27.0015 18.4362 25.6303L19.8777 23.8203C22.4936 21.062 25.8424 19.2982 29.9282 18.5311C33.8419 17.7842 38.0836 18.0036 42.6554 19.1875C47.2271 20.3653 51.6733 22.3888 55.994 25.2558C60.507 28.2598 64.4693 31.9182 67.8809 36.2308C71.3471 41.1455 73.4163 45.726 74.0926 49.9702C74.7668 54.2165 74.0703 58.205 71.999 61.9358ZM70.8592 30.6417H70.849C68.1542 27.233 65.1394 24.2693 61.8028 21.7485C58.5491 19.2962 55.1456 17.3835 51.5984 16.0124C48.0572 14.6453 44.5606 13.9003 41.1105 13.7775C37.5694 13.6466 34.259 14.1741 31.1815 15.3641C31.8011 15.0963 32.8397 14.6936 34.3056 14.152C35.5265 13.7715 36.4761 13.5037 37.1624 13.3487C37.7233 13.2238 38.7315 13.0366 40.1913 12.7869C41.1915 12.6601 41.9751 12.5836 42.5359 12.5574C42.9813 12.5332 43.9248 12.5171 45.3603 12.5071L47.0489 12.5916C50.4261 12.8836 53.8275 13.8178 57.2533 15.4003C62.5519 17.8486 67.1844 21.5794 71.1487 26.5988C72.0881 27.9296 72.7603 28.9524 73.1653 29.6632C73.5661 30.3679 74.0764 31.4148 74.6919 32.8041L75.1555 34.0403C75.4693 34.9382 75.6941 35.6309 75.8237 36.1141C75.9269 36.5167 76.1395 37.4308 76.4594 38.8523C76.6497 39.9858 76.7712 40.8435 76.8279 41.4294C76.8745 41.9469 76.9312 42.9455 77 44.4254C76.9777 45.8126 76.8947 47.2139 76.7611 48.6233C77.0121 45.2951 76.587 42.112 75.4916 39.0738C74.5825 36.5711 73.0377 33.7584 70.8592 30.6417Z" fill="#003D5F"/>
<path d="M108.314 37.3477H93V35.0421H126.15V37.3477H110.835V75.4538H108.314V37.3477Z" fill="#003D5F"/>
<path d="M133.666 45.8966C141.651 45.8966 145.634 52.0755 145.634 59.0567C145.634 59.5178 145.578 60.0988 145.513 60.6153H121.988C121.988 68.989 127.733 73.7754 134.547 73.7754C137.837 73.7754 141.295 72.4474 143.638 70.1418L144.988 72.1615C142.41 74.5869 138.296 76.1455 134.547 76.1455C126.271 76.1455 119.411 70.2525 119.411 61.0764C119.411 51.3193 126.159 45.8966 133.666 45.8966ZM143.057 58.3651C142.767 51.3193 138.483 48.1469 133.61 48.1469C128.211 48.1469 123.225 51.6144 122.166 58.3651H143.057Z" fill="#003D5F"/>
<path d="M149.102 46.5883H151.567V50.0558C151.567 51.3838 151.389 52.3706 151.389 52.3706H151.501C153.263 48.3313 157.256 45.9059 162.064 45.9059C169.927 45.9059 174.735 52.0847 174.735 61.0303C174.735 70.2156 169.281 76.1639 161.708 76.1639C157.247 76.1639 153.32 73.7385 151.436 69.6346H151.323C151.323 69.6346 151.558 70.6767 151.558 72.1799V87.0184H149.093V46.5883H149.102ZM161.717 73.7846C167.472 73.7846 172.167 69.1089 172.167 61.021C172.167 53.2283 167.94 48.2575 161.961 48.2575C156.562 48.2575 151.52 52.011 151.52 61.0764C151.501 67.4858 155.147 73.7846 161.717 73.7846Z" fill="#003D5F"/>
<path d="M177.913 46.5883H180.378V59.4625H199.572V46.5883H202.037V75.463H199.572V61.722H180.378V75.463H177.913V46.5883Z" fill="#003D5F"/>
<path d="M208.522 34.6917H214.333V52.592H221.372C222.318 41.968 230.997 34 241.916 34C253.659 34 262.75 43.0654 262.75 54.7868C262.75 66.7942 253.65 76.1547 241.916 76.1547C231.166 76.1547 222.665 68.1867 221.493 57.5627H214.333V75.463H208.522V34.6917ZM241.916 70.898C250.135 70.898 256.761 63.8523 256.761 54.7868C256.761 46.0073 250.135 39.2567 241.916 39.2567C233.752 39.2567 227.182 46.0165 227.182 54.7868C227.182 63.8523 233.752 70.898 241.916 70.898Z" fill="#003D5F"/>
<path d="M266.499 46.2379H272.188V58.1345H287.212V46.2379H292.91V75.4538H287.212V62.93H272.188V75.463H266.499V46.2379Z" fill="#003D5F"/>
<path d="M297.812 46.2379H303.266V63.677C303.266 65.2356 303.145 67.3198 303.088 67.6057H303.201C303.435 67.0893 304.841 65.0696 305.844 63.677L318.637 46.2379H324.148V75.4538H318.637V58.0238C318.637 56.6405 318.815 54.6208 318.815 54.1505H318.693C318.515 54.6669 317.044 56.6313 316.116 58.0238L303.266 75.463H297.812V46.2379Z" fill="#003D5F"/>
<path d="M328.74 46.2379H340.999C346.988 46.2379 350.924 48.8385 350.924 53.7447C350.924 56.5759 349.397 59.0014 346.697 60.1542V60.2095C350.39 61.0764 352.33 63.9076 352.33 67.1354C352.33 72.558 347.869 75.4538 341.421 75.4538H328.75V46.2379H328.74ZM340.006 58.5956C343.408 58.5956 345.114 56.8618 345.114 54.1505C345.114 51.4945 343.417 50.1112 339.837 50.1112H334.439V58.5956H340.006ZM340.531 71.5251C344.636 71.5251 346.576 69.6807 346.576 66.9694C346.576 64.0828 344.401 62.349 340.474 62.349H334.429V71.5251H340.531Z" fill="#003D5F"/>
<path d="M369.209 45.5462C377.598 45.5462 382.059 51.7251 382.059 59.232C382.059 59.9882 381.946 60.7905 381.825 61.6021H360.231C360.521 67.8916 365.104 71.3038 370.447 71.3038C373.614 71.3038 376.838 69.9758 379.191 67.9008L381.6 72.0047C378.732 74.6054 374.214 76.1639 370.1 76.1639C360.774 76.1639 354.317 69.5239 354.317 60.8643C354.308 51.5499 360.765 45.5462 369.209 45.5462ZM376.314 57.5535C376.136 52.5274 372.968 49.8714 369.097 49.8714C364.692 49.8714 361.234 52.7026 360.409 57.5535H376.314Z" fill="#003D5F"/>
<path d="M385.395 46.2379H390.672V48.8385C390.672 50.0466 390.494 51.0334 390.494 51.0334H390.616C392.49 47.5105 396.248 45.5462 400.588 45.5462C408.629 45.5462 413.615 51.7804 413.615 60.8458C413.615 70.1418 407.982 76.1455 400.175 76.1455C396.426 76.1455 393.015 74.2918 390.962 71.1747H390.85C390.85 71.1747 391.084 72.2168 391.084 73.7108V86.9908H385.395V46.2379ZM399.304 71.2946C403.999 71.2946 407.87 67.5412 407.87 60.9012C407.87 54.5471 404.402 50.4524 399.482 50.4524C395.021 50.4524 390.916 53.5695 390.916 60.9565C390.916 66.1578 393.849 71.2946 399.304 71.2946Z" fill="#003D5F"/>
<path d="M432.144 45.5462C436.08 45.5462 440.476 46.8742 443.297 49.8161L440.598 53.7447C438.602 51.7804 435.49 50.3971 432.378 50.3971C426.399 50.3971 422.05 54.8422 422.05 60.7905C422.05 66.7388 426.399 71.2946 432.556 71.2946C435.846 71.2946 439.426 69.736 441.713 67.3659L444 71.4698C441.301 74.2918 436.783 76.1455 432.144 76.1455C422.753 76.1455 416.239 69.6161 416.239 60.8458C416.239 52.1862 422.809 45.5462 432.144 45.5462Z" fill="#003D5F"/>
</svg>
