<svg width="24" height="23" viewBox="0 0 24 23" fill="none" xmlns="http://www.w3.org/2000/svg">
<path d="M23.8396 18.4828C23.3679 17.1036 20.2899 16.098 18.8898 15.473C18.2042 15.1672 17.4272 14.9818 17.0172 14.6704C16.6028 14.3555 16.5418 13.6772 16.0138 13.1982C15.8047 13.0087 15.1933 13.2425 15.1442 12.8643C15.0703 12.2888 15.683 11.9296 15.8798 11.3925C16.0811 10.8438 15.9522 10.9167 16.0989 10.2491C17.2403 9.92244 17.7522 7.24564 17.0163 7.1785C17.3753 5.22636 17.7168 2.26721 16.3476 1.49343C16.0612 1.33104 15.7186 1.42163 15.4778 1.29254C15.3413 1.21925 15.2122 0.93392 15.0768 0.824547C14.4288 0.303182 12.6889 0.00219041 11.6654 0C10.6422 0.00204608 9.57122 0.303377 8.92314 0.824547L7.65218 1.49362C6.28374 2.26779 6.62526 5.22661 6.98349 7.17869C6.24746 7.24584 6.77795 9.92937 7.91965 10.2556C8.06659 10.9235 7.91946 10.8441 8.12016 11.3927C8.31714 11.9302 8.93004 12.2892 8.85581 12.8645C8.80707 13.2427 8.19549 13.0089 7.98621 13.1984C7.45851 13.6774 7.39713 14.3558 6.9831 14.6703C6.57333 14.9816 5.79637 15.1667 5.11039 15.4729C3.71015 16.098 0.632098 17.1041 0.160541 18.483C-0.106194 19.264 0.0487492 19.8933 0.0119217 20.7573V20.7629C0.0119217 21.8873 5.22939 22.7989 11.6654 22.7989C18.1014 22.7989 23.9874 21.8875 23.9874 20.7629C23.9874 20.7609 23.9868 20.7573 23.9868 20.7573C23.9506 19.8937 24.1064 19.2639 23.8396 18.4828Z" fill="url(#paint0_radial_276_1536)"/>
<defs>
<radialGradient id="paint0_radial_276_1536" cx="0" cy="0" r="1" gradientUnits="userSpaceOnUse" gradientTransform="translate(16.1569 4.2748) rotate(102.648) scale(18.9849 19.8912)">
<stop stop-color="#1AE3D7"/>
<stop offset="1" stop-color="#0945DF"/>
</radialGradient>
</defs>
</svg>
