<svg width="754" height="541" viewBox="0 0 754 541" fill="none" xmlns="http://www.w3.org/2000/svg">
<path d="M549.323 242.591C545.269 245.142 541.588 247.754 536.38 246.534C532.624 245.653 529.959 242.775 527.005 240.518C526.8 240.356 526.544 240.267 526.281 240.267C524.251 238.814 522.495 237.01 521.101 234.937C519.428 232.328 518.157 229.478 517.337 226.486C515.98 221.166 515.502 215.662 515.92 210.187C516.218 206.059 516.813 203.572 517.304 203.572C517.795 203.572 518.112 206.145 518.476 210.167H518.473C518.787 215.348 519.564 220.491 520.792 225.533C521.075 226.596 521.452 227.615 521.812 228.597C521.64 227.355 521.541 226.102 521.516 224.849C521.619 219.815 522.414 214.817 523.877 209.998C525.474 203.658 524.985 197.209 526.071 190.823C527.625 181.442 530.09 172.272 531.814 162.95V162.953C533.15 158.154 533.201 153.092 531.963 148.268C531.156 146.36 530.586 144.361 530.262 142.316C530.194 137.067 531.508 131.893 534.071 127.313C533.105 126.394 532.487 125.169 532.325 123.845C532.199 123.344 532.12 122.83 532.092 122.312C531.771 122.438 531.73 122.656 531.525 122.825C531.505 123.081 531.27 123.314 531.292 123.567H531.295C531.237 123.835 531.194 124.106 531.166 124.379C531.206 124.668 531.227 124.956 531.229 125.247C531.209 125.738 531.103 126.057 530.89 126.164C530.677 126.267 530.338 126.143 529.954 125.824C529.731 125.627 529.526 125.414 529.336 125.187C529.085 124.774 528.896 124.329 528.769 123.865C528.62 123.253 528.592 122.618 528.683 121.995C528.86 121.241 529.227 120.545 529.749 119.973C531.652 118.057 534.61 117.672 536.942 119.034C537.744 114.896 536.805 110.609 534.345 107.184C533.52 107.03 532.708 106.81 531.918 106.526C530.554 106 529.106 105.719 527.643 105.696C526.947 105.747 526.269 105.949 525.659 106.291C524.917 106.683 524.259 107.217 523.723 107.865C522.71 109.275 522.06 110.912 521.83 112.631C521.569 114.165 521.455 115.716 521.49 117.27C521.49 119.973 521.789 121.717 521.321 121.909C521.088 121.973 520.703 121.674 520.258 120.95L520.255 120.953C519.658 119.902 519.22 118.768 518.957 117.589C518.547 115.833 518.41 114.025 518.552 112.226C518.671 109.837 519.494 107.536 520.913 105.61C521.731 104.623 522.746 103.818 523.892 103.249C526.388 101.923 529.298 101.601 532.022 102.353C530.341 101.786 531.738 90.3309 531.786 89.0558H531.789C532.48 79.5373 528.486 70.2767 521.088 64.2453C515.682 59.7554 509.425 58.8392 502.916 58.4141H502.913C505.067 60.297 506.9 62.5192 508.34 64.9917C509.529 66.9784 510.466 69.1095 511.126 71.3316C512.212 74.9913 511.913 77.1831 511.47 77.2236C510.936 77.3097 510.319 75.414 508.575 72.4048C507.527 70.5977 506.338 68.8767 505.019 67.2544C503.404 65.1638 501.458 63.3517 499.254 61.8914C498.206 61.2005 497.011 60.755 495.766 60.593C494.731 60.5323 493.726 60.9499 493.04 61.7269C492.058 62.8228 491.307 64.1034 490.828 65.4954L490.34 66.9406L489.978 68.2617C489.765 69.1982 489.426 70.1549 489.254 71.1343C488.335 75.1205 488.07 79.2307 488.467 83.3054C488.637 84.3481 488.788 85.3909 488.958 86.4538C489.191 87.4536 489.446 88.4558 489.682 89.453C490.064 90.5868 490.469 91.7207 490.854 92.8798L491.469 94.7932C491.681 95.4765 491.813 96.2105 491.982 96.9014H491.977C492.529 101.498 492.635 106.137 492.296 110.753C492.233 112.517 492.329 114.284 492.58 116.03C492.939 115.306 493.304 114.542 493.622 113.762C494.728 111.059 495.559 108.356 496.708 105.504L496.705 105.507C497.874 103.072 499.168 100.7 500.577 98.3997C501.772 96.3547 502.812 94.4312 503.695 92.7304C505.014 90.0857 506.009 87.2941 506.657 84.4112C506.889 82.2195 507.102 80.9844 507.484 80.9641C507.866 80.9439 508.38 82.0701 508.848 84.2619L508.846 84.2594C509.096 87.6508 508.638 91.0547 507.507 94.2618C506.776 96.4384 505.93 98.5771 504.974 100.668C504.035 102.859 502.736 105.37 501.972 107.562C501.225 109.923 500.527 112.902 499.484 115.967V115.965C498.93 117.643 498.224 119.265 497.378 120.817C496.338 122.788 494.797 124.451 492.909 125.635L490.142 127.296L488.399 124.423V124.426C486.09 120.24 485 115.492 485.248 110.718C485.493 106.548 485.387 102.364 484.929 98.2105C484.802 97.7195 484.716 97.2107 484.59 96.7426L484.078 95.1886C483.701 94.0193 483.317 92.8703 482.929 91.7415C482.608 90.4002 482.312 89.1018 481.99 87.7731C481.927 87.2846 481.864 86.8189 481.801 86.3279C481.588 86.667 481.396 87.0315 481.183 87.3706C479.616 89.6333 477.789 91.7036 475.739 93.541C474.185 94.9254 473.036 95.6037 472.651 95.3076C472.269 95.0089 472.737 93.7106 473.785 91.9237C474.833 90.1344 476.486 87.8388 478.209 85.3506C479.465 83.4348 480.55 81.6454 481.358 80.1774L481.36 80.1749C481.416 76.5962 481.917 73.0375 482.851 69.5802C483.084 68.4464 483.509 67.4112 483.828 66.3685C483.985 65.8042 484.17 65.2499 484.382 64.7083L484.949 63.3061V63.3036C485.832 61.0207 487.227 58.9681 489.024 57.3053C489.09 57.2497 489.161 57.199 489.237 57.156C486.756 56.6853 484.339 55.9158 482.046 54.8605C468.895 48.6673 459.491 37.2631 446.831 30.1562C434.925 23.4749 422.084 19.7287 410.743 12.0477C365.265 -18.69 298.291 15.0417 265.137 49.9862C256.861 58.6877 248.392 69.0083 244.819 80.7342C239.818 97.0966 244.05 113.049 248.117 129.12C248.454 130.447 248.734 131.785 249.041 133.117C250.415 142.441 251.635 151.782 252.316 161.179L252.313 161.182C253.338 173.163 251.425 185.213 246.738 196.288C245.675 197.176 244.753 197.389 243.789 198.784V198.781C242.02 201.722 241.061 205.075 241.008 208.505C240.896 209.682 242.04 210.079 242.911 209.732C251.045 210.256 251.886 200.601 251.954 194.565H251.951C251.954 194.34 251.903 194.119 251.804 193.917C253.796 189.847 255.191 185.509 255.945 181.04C256.14 179.878 256.259 178.706 256.307 177.529C258.802 168.461 259.696 159.028 258.947 149.654C258.691 143.676 257.927 137.749 257.436 131.796C257.223 131.371 257.01 130.946 256.818 130.498C255.431 127.066 254.576 123.444 254.287 119.754C253.91 113.381 254.5 106.988 256.034 100.792C257.14 96.176 258.301 93.3466 259.288 93.4224C260.275 93.4983 260.908 96.5101 261.078 101.293C261.31 106.039 260.951 112.487 261.46 119.169H261.457C261.695 122.237 262.229 125.276 263.054 128.24C263.285 129.106 263.563 129.956 263.884 130.791C275.926 144.769 294.214 153.856 298.353 172.941C300.694 172.217 303.172 171.729 305.738 171.091C305.758 171.091 305.927 171.025 305.927 171.025L306.272 170.921L306.973 170.686C307.421 170.539 307.889 170.387 308.39 170.241L308.729 170.114L308.962 169.965L309.387 169.681C309.688 169.509 310.005 169.337 310.303 169.19C310.964 168.742 311.721 168.148 312.432 167.636C313.196 166.976 313.963 166.295 314.73 165.614C315.558 164.868 316.304 164.166 317.218 163.4V163.402C318.101 162.625 319.04 161.914 320.027 161.271C320.538 160.955 321.004 160.613 321.515 160.317C322.082 160.033 322.624 159.783 323.176 159.53L323.983 159.168L324.388 158.978L324.492 158.935C324.535 158.912 324.94 158.786 324.94 158.786L324.942 158.783C325.003 158.763 325.066 158.748 325.132 158.74C325.623 158.636 326.091 158.528 326.549 158.441L327.253 158.295L328.189 158.249L330.022 158.186L330.019 158.188C331.047 158.209 332.072 158.317 333.084 158.507C333.206 158.52 333.324 158.54 333.443 158.571C336.362 157.923 339.356 157.695 342.337 157.89C344.949 158.074 347.49 158.821 349.786 160.081C351.661 161.17 353.245 162.696 354.402 164.528C355.146 165.723 355.665 167.044 355.936 168.423C356.105 169.4 356.083 169.955 355.827 170.02C355.571 170.086 355.189 169.722 354.638 168.978C353.947 167.955 353.19 166.981 352.37 166.059C351.19 164.794 349.786 163.759 348.229 163.01C346.268 162.149 344.175 161.63 342.039 161.479C341.677 161.456 341.335 161.456 340.996 161.456H340.993C342.216 162.197 343.345 163.083 344.357 164.095C345.508 165.563 345.825 166.523 345.465 166.862C345.106 167.201 344.101 166.928 342.742 166.394H342.74C340.748 165.718 338.705 165.199 336.633 164.842C333.856 164.295 330.999 164.303 328.227 164.862C324.897 166.204 321.918 168.294 319.526 170.969C318.718 171.716 317.759 172.501 316.886 173.237C315.866 173.961 314.93 174.654 313.821 175.277C312.67 175.889 311.475 176.416 310.247 176.854C309.759 176.958 309.288 177.087 308.83 177.193L308.106 177.362L307.598 177.492L307.236 177.578H307.109C303.194 178.145 299.79 178.238 297.385 178.727C297.064 178.792 296.79 178.876 296.492 178.939L296.489 178.937C296.269 179.068 296.034 179.177 295.788 179.258C289.489 181.217 283.883 186.259 278.277 189.665C272.914 192.92 267.657 196.323 262.426 199.771C262.105 199.963 266.999 210.71 267.447 211.676L267.445 211.674C269.247 215.916 271.449 219.978 274.02 223.805C276.33 227.429 279.492 230.431 283.232 232.549C289.041 235.444 287.955 229.803 286.958 226.123C286.674 225.123 286.361 224.164 286.062 223.248C285.617 222.42 285.277 221.547 284.764 220.783C284.25 220.018 283.723 219.272 283.21 218.568C281.441 216.969 279.932 215.103 278.743 213.036C278.505 212.436 278.133 211.897 277.657 211.461C277.467 211.353 277.297 211.206 277.105 211.079L276.51 210.867C276.189 210.717 276.042 210.583 276.062 210.484C276.083 210.386 276.255 210.269 276.596 210.183C276.766 210.163 276.979 210.12 277.234 210.097H277.232C277.578 210.143 277.918 210.214 278.252 210.31C279.097 210.669 279.816 211.269 280.319 212.033C280.82 212.772 281.415 213.446 282.086 214.035C282.149 214.058 282.213 214.101 282.276 214.121L282.511 214.291L282.936 214.612C283.192 214.825 283.448 215.038 283.723 215.25C284.212 215.698 284.743 216.166 285.298 216.667L285.384 216.754C286.001 217.48 286.639 218.244 287.32 219.052L287.317 219.049C287.953 219.983 288.535 220.947 289.064 221.944C289.489 223.007 289.914 224.136 290.276 225.285C290.339 225.602 290.423 225.923 290.489 226.239C290.701 226.093 290.891 225.88 291.104 225.71C291.253 225.371 291.425 225.05 291.574 224.711L291.382 224.116C291.169 223.369 290.934 222.625 290.701 221.848C290.43 221.056 290.109 220.282 289.744 219.53C289.319 218.487 288.659 217.508 288.147 216.528C287.553 215.574 286.958 214.635 286.401 213.765C285.267 211.975 284.209 210.315 283.425 208.827C283.02 208.062 282.698 207.359 282.425 206.741V206.739C282.223 206.212 282.061 205.673 281.934 205.124C281.701 204.231 281.678 203.676 281.891 203.57C282.104 203.466 282.572 203.783 283.167 204.506C283.468 204.846 283.807 205.314 284.209 205.828C284.614 206.296 285.083 206.848 285.551 207.442C286.55 208.655 287.765 210.143 289.104 211.846C289.762 212.697 290.446 213.673 291.126 214.655C291.812 215.734 292.432 216.85 292.984 218.001C293.305 218.788 293.645 219.535 293.9 220.299C294.789 218.907 295.872 217.647 297.115 216.556C295.981 215.632 294.905 214.638 293.9 213.577C292.493 212.112 291.369 210.404 290.58 208.533C290.074 207.321 289.82 206.017 289.838 204.704C289.838 203.788 289.942 203.32 290.122 203.287C290.301 203.254 290.567 203.712 290.863 204.499C291.268 205.585 291.772 206.63 292.374 207.617C293.321 209.11 294.492 210.449 295.844 211.585C297.054 212.641 298.327 213.62 299.653 214.524C303.614 211.649 307.909 209.262 312.442 207.417C320.738 203.99 329.103 200.948 337.594 198.012C337.826 197.926 338.039 197.819 338.295 197.728C338.998 197.323 339.712 196.941 340.489 196.516C341.828 195.729 343.232 194.879 344.721 193.985C347.722 192.262 351 190.346 354.507 188.316C354.955 188.06 355.403 187.805 355.849 187.547L356.104 187.4L356.102 187.397C356.135 187.374 356.173 187.352 356.211 187.334L356.38 187.23L357.084 186.782C358.02 186.215 358.977 185.633 359.956 185.102C361.915 183.996 363.925 182.976 365.957 181.91L365.954 181.908C370.067 179.916 374.015 177.605 377.764 174.993C379.523 173.657 381.115 172.113 382.509 170.397C382.871 169.972 383.104 169.503 383.426 169.056C383.747 168.63 384.013 168.167 384.213 167.671C384.425 167.183 384.701 166.694 384.894 166.226C385.04 165.758 385.177 165.31 385.362 164.842V164.844C385.557 164.277 385.691 163.693 385.764 163.098L385.959 162.159L386.045 161.668V161.519C386.141 160.506 386.119 159.484 385.979 158.476C385.709 156.553 384.924 154.738 383.712 153.222L382.669 151.881L381.497 150.464C380.69 149.504 379.943 148.631 379.199 147.591C377.782 145.528 376.223 143.59 375.01 141.547H375.008C370.726 134.435 367.22 126.88 364.56 119.012C362.219 112.416 360.645 107.056 359.645 103.287C358.646 99.5212 358.304 97.3725 358.772 97.2004C359.24 97.0308 360.453 98.8379 362.262 102.285C364.072 105.732 366.37 110.86 369.263 117.073C369.797 118.225 370.369 119.437 370.943 120.647C369.984 116.628 369.772 113.115 369.177 110.604C368.643 107.731 367.557 105.669 368.068 105.433C368.283 105.307 368.752 105.626 369.41 106.284V106.289C370.351 107.331 371.095 108.536 371.604 109.842C373.021 113.034 373.644 117.713 375.071 122.163C375.112 122.294 375.162 122.421 375.221 122.545C376.8 118.944 378.87 115.577 381.371 112.545C383.476 110.014 384.967 108.63 385.37 108.908C385.772 109.187 385.03 111.1 383.499 113.95C381.454 117.518 379.635 121.211 378.05 125.004C377.795 125.662 377.602 126.303 377.412 126.941C377.498 127.067 377.582 127.173 377.668 127.3C377.924 126.832 378.202 126.386 378.518 125.921C379.761 124.195 381.196 122.618 382.796 121.218C386.306 118.095 390.032 115.22 393.944 112.62C397.736 110.087 401.38 107.343 404.86 104.4C407.649 102.076 410.041 99.3176 411.947 96.2302C412.36 95.6329 412.701 94.99 412.967 94.3143C413.271 93.7398 413.542 93.1526 413.78 92.5477C414.119 91.3987 414.564 90.4648 414.757 89.5486C415.116 87.8023 415.437 86.8253 415.693 86.8253C415.949 86.8253 416.098 87.8681 416.141 89.6776C416.088 90.8343 415.944 91.9884 415.716 93.1247C415.541 93.8232 415.328 94.5117 415.075 95.1874C414.853 95.9593 414.552 96.7085 414.182 97.4197C412.441 100.986 410.036 104.187 407.095 106.85C403.623 110.024 399.918 112.934 396.007 115.552C391.963 118.386 388.113 120.978 385.006 123.678H385.008C382.806 125.364 380.939 127.442 379.496 129.806C381.63 128.019 383.885 126.381 386.243 124.906C389.992 122.636 393.871 120.593 397.866 118.789C400.984 117.321 404.183 115.979 406.969 114.64C407.645 114.344 408.301 114.003 408.928 113.618C409.548 113.307 410.148 112.95 410.718 112.555C411.874 111.821 412.975 111.004 414.015 110.11C417.627 106.911 420.404 102.877 422.101 98.3615C423.334 95.1346 424.359 91.8293 425.166 88.4679C425.847 86.0408 426.356 84.6589 426.867 84.6791C427.335 84.7019 427.783 86.1268 427.953 88.7437C428.183 92.4894 427.847 96.2505 426.951 99.895C425.227 107.313 420.826 113.833 414.59 118.204C413.884 118.733 413.145 119.216 412.375 119.649C411.588 120.117 410.76 120.626 410.077 120.947C407.012 122.521 403.993 123.843 400.864 125.288C396.926 127.12 393.211 128.947 389.81 130.863C387.456 132.202 385.188 133.688 383.024 135.31C385.925 139.489 388.076 144.141 389.384 149.056C391.31 151.48 392.581 154.36 393.069 157.418C393.279 158.977 393.322 160.553 393.196 162.12V162.419L393.11 162.93L393.024 163.421L392.854 164.38L392.857 164.378C392.748 165.089 392.594 165.792 392.389 166.483L391.619 168.845C391.336 169.591 390.961 170.262 390.619 170.95C390.306 171.649 389.921 172.315 389.473 172.935C389.071 173.575 388.638 174.195 388.175 174.79C386.378 176.999 384.297 178.963 381.992 180.634C377.859 183.438 373.477 185.86 368.904 187.867C367.629 188.462 366.396 189.039 365.181 189.613C365.224 189.717 365.267 189.826 365.308 189.952C368.628 200.954 371.182 215.846 369.094 227.23L369.097 227.233C368.479 230.738 367.434 234.155 365.979 237.402C366.541 237.098 367.133 236.857 367.745 236.68C369.509 233.701 371.005 230.571 372.212 227.326C374.895 220.371 376.872 213.75 378.96 209.113C380.962 204.431 383.11 201.941 383.513 202.24C383.915 202.538 382.685 205.262 381.344 209.984C379.926 214.687 378.342 221.391 375.576 228.625H375.573C374.272 232.09 372.582 235.395 370.532 238.478C368.806 241.069 366.578 243.286 363.977 244.997C362.719 245.789 361.35 246.391 359.912 246.781C357.05 249.499 354.661 252.681 352.849 256.189C358.772 255.91 367.102 254.553 372.956 254.426C381.344 254.245 385.764 255.953 392.702 255.953C392.725 255.933 392.745 255.933 392.768 255.91C391.779 254.232 390.617 252.666 389.298 251.231C389.21 251.195 389.126 251.152 389.045 251.102C388.554 250.803 388.002 250.421 387.385 249.996L387.382 249.998C386.044 248.786 385.034 247.257 384.449 245.549C383.796 243.481 383.634 241.289 383.976 239.148C384.616 235.633 385.682 232.206 387.147 228.944C388.167 226.582 388.848 224.975 389.339 225.094C389.83 225.213 390.063 226.881 389.594 229.647C389.192 232.348 388.106 235.903 387.532 239.606H387.529C387.433 240.239 387.375 240.879 387.36 241.522C390.126 231.54 396.681 223.603 400.116 213.859C407.116 193.944 410.138 172.834 418.969 153.601C419.212 151.748 419.93 149.989 421.057 148.499C422.474 146.37 424.651 144.328 426.205 141.88C427.865 139.159 429.993 136.284 431.846 133.159C439.398 120.795 444.761 109.985 445.761 110.454C446.526 110.816 442.696 122.263 434.845 135.138C433.208 137.882 431.418 140.266 429.781 142.541C438.08 138.33 448.378 137.626 456.381 132.711L456.378 132.708C456.872 132.392 457.449 132.23 458.036 132.243C458.079 131.478 458.206 130.689 458.32 129.902V129.899C458.436 129.074 458.636 128.262 458.914 127.474C459.135 126.644 459.398 125.829 459.704 125.027C461.914 119.451 465.687 114.633 470.574 111.155C474.492 108.455 477.235 108.242 477.405 108.604C477.661 109.115 475.044 110.35 472.151 113.14C468.223 116.825 465.13 121.306 463.08 126.29C462.824 126.857 462.589 127.801 462.333 128.525V128.522C462.073 129.226 461.883 129.952 461.766 130.694C461.723 131.015 461.663 131.312 461.62 131.63C461.966 130.775 462.394 129.958 462.895 129.183C464.252 127.176 465.937 125.415 467.881 123.969C471.136 121.628 473.391 120.735 473.667 121.097C473.988 121.522 472.179 123.223 469.539 125.885C467.051 128.586 463.561 132.61 464.179 137.695C464.664 140.033 465.943 142.129 467.795 143.632C468.453 144.25 469.114 144.766 469.779 145.29C470.964 146.191 472.191 147.064 473.416 147.937C477.58 152.577 481.819 156.724 484.299 163.077C486.251 168.061 487.792 176.448 492.276 179.923C492.74 180.358 493.433 180.449 493.992 180.148C496.941 178.404 496.445 171.784 496.893 168.835C496.956 168.445 496.862 168.048 496.63 167.731L496.824 167.504C496.128 166.742 495.579 165.854 495.21 164.889C494.663 163.533 494.352 162.095 494.294 160.637C494.185 158.273 494.653 156.978 494.931 157.021C495.253 157.041 495.357 158.319 495.931 160.382H495.934C496.247 161.604 496.713 162.781 497.315 163.89C497.627 164.408 497.991 164.894 498.401 165.34C498.571 165.19 498.761 165.066 498.968 164.975C499.583 162.04 502.653 152.718 507.472 154.933C509.899 156.067 509.109 159.316 510.537 161.25C511.962 163.186 514.667 163.912 516.348 165.593L516.915 166.294L516.981 166.403C517.001 166.446 517.15 166.701 517.15 166.701V166.699C517.181 166.755 517.208 166.81 517.234 166.868L517.381 167.19C517.55 167.592 517.742 167.997 517.915 168.402C518.125 168.85 518.274 169.321 518.363 169.807C518.466 170.318 518.575 170.807 518.679 171.295C518.765 172.234 518.745 173.127 518.745 173.978C518.618 174.788 518.489 175.598 518.363 176.342C516.616 182.17 513.827 184.617 513.544 184.426C512.977 184.127 514.961 181.042 515.862 175.871V175.869C516.328 173.067 515.639 170.197 513.949 167.914C513.918 167.879 513.883 167.851 513.842 167.828C513.005 167.707 512.202 167.418 511.481 166.978C510.527 166.456 509.623 165.852 508.778 165.168C507.862 164.465 506.862 163.548 506.055 163.04C505.885 162.9 505.678 162.812 505.46 162.787C505.417 162.807 505.351 162.744 505.204 162.873V162.87C505.042 162.931 504.896 163.027 504.777 163.154C504.111 163.774 503.491 164.442 502.927 165.156C502.863 165.242 502.8 165.302 502.737 165.388C503.149 165.768 503.445 166.259 503.587 166.806C507.247 179.356 504.693 191.594 503.524 204.296C502.041 220.144 505.645 233.728 518.722 243.383V243.381C523.953 249.632 531.619 253.329 539.766 253.529C545.225 253.704 550.634 252.454 555.463 249.9C559.295 247.721 561.441 243.768 566.126 243.553C569.034 243.421 570.856 245.35 573.574 244.441C574.058 244.309 574.432 243.932 574.564 243.449C576.054 237.976 570.74 241.007 566.126 237.46C561.069 233.573 552.948 240.308 549.323 242.591ZM247.753 203.624L247.989 203.219C247.764 203.824 247.46 204.394 247.088 204.92C247.331 204.5 247.553 204.067 247.753 203.624ZM300.842 25.9602C307.205 22.3132 313.876 19.2303 320.78 16.7475C336.938 11.0454 350.544 8.52678 350.782 9.40535C351.081 10.4253 337.887 14.5077 322.013 20.129C314.099 23.0244 307.078 25.9602 302.077 28.1923C297.035 30.4904 293.856 31.938 293.573 31.4698C293.376 31.0649 296.053 28.8758 300.842 25.9602ZM265.488 63.4102C264.921 64.1138 264.38 64.8275 263.851 65.5159C263.337 66.1563 263 66.8371 262.572 67.4748C262.157 68.105 261.823 68.7833 261.57 69.4945C261.423 69.8337 261.287 70.1753 261.125 70.4942C261.016 70.8562 260.912 71.2181 260.841 71.5572V71.5597C260.148 74.1564 259.599 76.7937 259.204 79.4539C258.353 84.2728 256.906 86.9224 256.481 86.7961C255.947 86.6467 256.524 83.7311 256.67 79.1578V79.1553C256.724 76.3156 257.045 73.4886 257.627 70.7097C257.736 70.3048 257.84 69.9024 257.911 69.4772C258.06 69.0723 258.209 68.6471 258.379 68.2422V68.2396C258.662 67.369 259.042 66.5363 259.513 65.7518C259.968 64.9267 260.467 64.1244 261.003 63.3474C261.532 62.6439 262.087 61.9301 262.641 61.2189H262.643C264.987 58.5868 267.604 56.2128 270.451 54.132C272.96 52.2187 275.27 50.6419 277.216 49.3132C281.066 46.6735 283.387 44.9499 283.769 45.3118C284.151 45.6712 282.351 48.1009 278.788 51.3126C277.021 52.9096 274.85 54.7141 272.511 56.7186L272.514 56.7161C270.018 58.7788 267.67 61.016 265.488 63.4102ZM284.48 75.4348C283.865 75.8803 283.267 76.3055 282.736 76.6876C281.749 77.3609 280.823 78.1201 279.97 78.9553C278.481 80.274 277.586 80.9396 277.396 80.765C277.206 80.5903 277.778 79.6134 278.95 78.0189V78.0164C279.615 76.9863 280.418 76.0498 281.331 75.2298C281.865 74.7388 282.465 74.2099 283.055 73.6329V73.6354C283.685 73.0153 284.384 72.4712 285.14 72.0156C286.775 70.8413 288.529 69.8415 290.377 69.0392C291.389 68.5482 292.432 68.1154 293.495 67.7409C294.629 67.4422 295.778 67.1233 296.942 66.7816C302.11 65.6984 307.43 65.506 312.664 66.2147C322.049 67.5865 331.008 71.026 338.902 76.2826C344.923 80.2815 347.902 83.6526 347.624 83.9636C347.264 84.3888 343.751 81.7694 337.604 78.4741V78.4715C334.02 76.5329 330.304 74.8472 326.483 73.4325C321.841 71.7444 317.045 70.5169 312.163 69.7729C307.318 69.1249 302.404 69.2211 297.587 70.0563C296.501 70.2917 295.438 70.5473 294.416 70.7827C293.424 71.0662 292.452 71.4078 291.5 71.8026C289.764 72.4328 288.091 73.2225 286.502 74.164C285.776 74.5132 285.09 74.9384 284.457 75.4344L284.48 75.4348ZM327.077 131.543C321.616 129.526 315.982 128.01 310.247 127.007C305.736 126.37 302.877 125.874 302.907 125.37C302.927 124.902 305.78 124.477 310.396 124.477C316.546 124.76 322.615 126.01 328.376 128.179C334.02 130.439 339.393 133.322 344.399 136.777C348.185 139.46 350.351 141.353 350.068 141.755C349.463 142.78 339.754 136.645 327.077 131.543ZM331.375 136.797C331.228 137.288 329.375 137.288 326.556 137.08C323.704 136.977 319.831 136.911 315.501 137.146C311.161 137.43 307.182 137.807 304.264 137.893C301.348 137.979 299.498 137.807 299.445 137.326C299.392 136.845 301.083 136.136 303.915 135.39H303.917C307.65 134.446 311.46 133.838 315.301 133.58C319.209 133.33 323.132 133.666 326.938 134.582C329.834 135.438 331.504 136.362 331.375 136.797ZM306.374 75.9845C302.907 75.7492 300.779 75.2151 300.779 74.7292C300.779 74.2407 302.927 73.856 306.331 73.4511C312.583 72.5602 318.955 73.0613 324.992 74.919C328.376 76.0275 336.824 77.5157 336.588 82.1976C335.057 81.4282 333.675 80.1121 332.053 79.3225C328.135 77.6698 323.941 76.7613 319.692 76.6423C314.59 76.2854 309.845 76.2427 306.374 75.9845ZM316.374 114.819C316.205 115.778 311.556 115.48 306.312 114.073C301.397 112.797 296.737 111.967 296.884 110.904C296.993 110.031 301.353 109.137 307.162 110.582C312.565 112.033 316.567 113.819 316.374 114.819ZM290.149 121.906C290.022 121.458 292.318 120.096 296.595 118.884C302.13 117.381 307.88 116.819 313.603 117.224C316.766 117.459 319.9 118.001 322.957 118.841C325.465 119.552 327.885 120.544 330.168 121.797C334.063 123.989 335.837 126.201 335.531 126.522C335.192 126.948 332.957 125.54 329.085 124.095V124.098C326.822 123.252 324.504 122.562 322.147 122.033C319.237 121.45 316.296 121.046 313.34 120.82C300.61 119.861 290.481 122.906 290.149 121.906ZM347.408 156.567C346.274 156.033 344.599 155.433 342.589 154.734V154.737C337.163 153.261 331.468 153.056 325.951 154.142C320.269 155.036 314.663 156.362 309.184 158.111C307.581 158.655 306.03 159.338 304.544 160.153C303.479 160.877 302.818 161.173 302.649 161.003C302.479 160.834 302.818 160.173 303.588 159.153C304.891 157.769 306.432 156.63 308.141 155.79C310.568 154.555 313.111 153.565 315.736 152.831C317.204 152.386 318.735 152.004 320.332 151.619C321.119 151.429 321.929 151.237 322.759 151.052C323.759 150.839 324.46 150.736 325.356 150.584H325.354C331.44 149.328 337.765 149.946 343.495 152.35C345.188 153.127 346.765 154.137 348.18 155.352C349.157 156.223 349.597 156.797 349.478 156.989C349.359 157.182 348.59 157.035 347.408 156.567ZM322.557 145.373C318.946 145.327 315.334 145.504 311.745 145.907C308.832 146.274 305.952 146.864 303.127 147.673C298.382 149.015 295.446 150.609 295.19 150.101C294.978 149.739 297.253 147.441 302.277 145.282C305.167 144.074 308.177 143.191 311.259 142.642C315.012 142.029 318.814 141.746 322.62 141.792C329.507 141.936 336.333 143.105 342.875 145.261C347.856 146.939 350.686 148.62 350.528 149.048C350.167 150.035 338.054 145.651 322.567 145.373L322.557 145.373ZM374.38 27.9191C367.18 26.8713 359.903 26.4664 352.632 26.7093C346.963 27.1548 343.42 27.3902 343.333 26.8561C343.268 26.4082 346.631 25.2819 352.247 24.1961L352.25 24.1987C359.772 23.1584 367.408 23.2141 374.912 24.3682C382.29 25.616 389.579 27.3446 396.731 29.5389C402.18 31.1764 405.518 32.4115 405.414 32.8999C405.311 33.3909 401.752 33.0088 396.136 32.0065C390.52 31.0068 382.841 29.2833 374.38 27.9191ZM410.147 66.7304C409.889 70.8102 409.162 74.8442 407.978 78.755C406.748 82.6045 405.189 86.3401 403.318 89.9237C401.772 92.8242 400.038 95.6183 398.125 98.2883C394.827 102.798 392.274 105.159 391.912 104.884C391.509 104.563 393.329 101.67 395.976 96.9244C397.34 94.5631 398.811 91.6702 400.36 88.4588C401.972 84.9586 403.364 81.3596 404.531 77.6872C405.649 74.0377 406.426 70.2894 406.849 66.4958C407.006 64.8482 407.069 63.193 407.044 61.5378C407.021 60.7507 407.064 59.9839 406.998 59.2701C406.933 58.5564 406.852 57.8528 406.786 57.1846C406.171 52.014 404.829 48.6529 405.406 48.4832C405.746 48.3566 407.871 51.0597 409.279 56.7415C409.425 57.445 409.577 58.1866 409.747 58.9535C409.916 59.7178 409.916 60.5303 410.03 61.3604L410.028 61.3578C410.187 63.1446 410.228 64.9385 410.147 66.7304ZM421.108 60.3956C420.589 66.3711 418.876 72.1817 416.067 77.4817C413.875 81.5235 411.789 83.5255 411.43 83.2471C410.982 82.9484 412.26 80.5263 413.748 76.444H413.746C415.715 71.1898 416.985 65.6977 417.532 60.112C417.752 57.0876 417.666 54.048 417.276 51.0412C417.064 49.753 416.765 48.48 416.383 47.2322C416.191 46.6375 416.021 46.0832 415.849 45.5315C415.616 45.0202 415.404 44.5115 415.191 44.0433C413.508 40.3583 411.316 38.2551 411.79 37.8729C411.962 37.7034 412.62 37.9995 413.642 38.7233C413.926 38.9157 414.194 39.1055 414.493 39.3409C414.791 39.5762 415.087 39.9356 415.409 40.2773L415.411 40.2748C416.173 41.0391 416.844 41.8895 417.408 42.8108C417.692 43.2992 418.046 43.8307 418.385 44.385C418.669 44.9519 418.919 45.5745 419.195 46.2174L419.197 46.2148C419.752 47.5815 420.2 48.9913 420.539 50.4263C421.164 53.7088 421.356 57.062 421.108 60.3956ZM416.385 25.0765C410.62 22.6924 402.779 19.1795 393.959 15.8185C386.453 13.0649 378.731 10.9439 370.87 9.47597C364.783 8.56229 360.893 8.09158 360.893 7.53981C360.936 7.09438 364.786 6.66662 371.065 6.94505H371.062C379.326 7.68659 387.447 9.5418 395.214 12.4574C402.858 15.4034 410.301 18.8505 417.492 22.7761C422.981 25.755 426.258 27.8379 426.066 28.2859C425.874 28.7364 422.171 27.4506 416.383 25.0716L416.385 25.0765ZM434.299 59.1198C433.821 62.4859 432.973 65.7914 431.768 68.9726C430.786 71.5617 429.516 74.0344 427.982 76.3426C425.322 80.3111 422.897 82.0448 422.596 81.7284C422.191 81.369 423.851 79.0912 425.765 75.0899C426.899 72.7589 427.865 70.347 428.66 67.8793C429.581 64.8573 430.28 61.7696 430.746 58.6439C431.138 55.5183 431.252 52.3622 431.085 49.2161C430.989 47.852 430.819 46.498 430.576 45.1541C430.467 44.5163 430.363 43.8987 430.255 43.3217C430.146 42.7472 429.956 42.1878 429.807 41.6639C428.673 37.5335 427.147 34.9393 427.638 34.6632C427.977 34.4709 430.212 36.3007 432.191 40.8108C432.426 41.3778 432.659 41.9447 432.915 42.5572C433.107 43.1747 433.299 43.8328 433.482 44.4933C433.881 45.9385 434.178 47.4114 434.375 48.8971C434.755 52.2936 434.729 55.7229 434.296 59.1147L434.299 59.1198ZM468.345 63.3971C468.833 63.3971 469.451 65.5458 469.856 69.1194H469.858C470.395 73.8472 470.251 78.6282 469.433 83.3126C468.929 85.9422 468.145 88.5086 467.092 90.9658C466.196 92.9753 465.032 94.8507 463.627 96.5414C461.18 99.414 459.031 100.436 458.778 100.095C458.416 99.6671 459.864 98.0093 461.564 95.071V95.0735C462.529 93.355 463.356 91.5606 464.032 89.7105C464.817 87.4023 465.439 85.041 465.895 82.647C466.609 78.1799 467.082 73.6747 467.312 69.1574C467.578 65.6673 467.834 63.4122 468.345 63.392L468.345 63.3971ZM447.343 36.5443C447.533 36.1166 449.214 36.2887 451.747 37.2024H451.75C455.111 38.7082 458.064 40.9911 460.368 43.8635C462.572 46.6956 464.245 49.9023 465.303 53.3315C466.029 55.9712 466.133 57.6518 465.688 57.8213C464.622 58.2035 462.195 52.0762 457.581 46.098C455.521 43.6405 453.187 41.426 450.621 39.4997C448.47 38.0267 447.108 37.0067 447.344 36.5385L447.343 36.5443ZM473.989 103.156C471.754 105.328 468.54 108.114 465.075 111.197V111.199C462.109 113.751 459.309 116.486 456.69 119.394C456.245 119.961 455.84 120.457 455.501 120.925C455.217 121.351 454.906 121.712 454.671 122.074C454.288 122.884 453.967 123.309 453.734 123.246C453.501 123.18 453.352 122.679 453.309 121.801V121.796C453.39 121.206 453.519 120.622 453.691 120.052C453.944 119.338 454.243 118.642 454.585 117.967C456.756 114.398 459.494 111.209 462.691 108.519C465.728 105.803 468.981 103.338 472.418 101.149C475.055 99.5114 476.819 98.661 477.14 99.0431C477.462 99.4253 476.217 100.989 473.982 103.136L473.989 103.156ZM489.053 166.252C489.03 166.199 489.01 166.143 488.987 166.092L489.068 166.229L489.053 166.252ZM497.205 151.927H497.207C494.537 151.469 492.085 150.173 490.204 148.225C488.316 146.369 486.949 144.051 486.236 141.502C485.707 139.458 486.003 138.288 486.448 138.141C487.43 137.992 488.999 142.034 492.748 145.673V145.671C494.279 147.207 496.038 148.498 497.959 149.5C499.427 150.287 500.535 150.652 500.556 151.181C500.558 151.608 499.303 152.186 497.197 151.907L497.205 151.927ZM517.738 141.968H517.74C516.832 144.57 516.353 147.301 516.323 150.054C516.323 152.099 516.493 153.739 515.979 153.843C515.533 153.929 514.562 152.927 513.81 150.416C513.046 147.25 513.223 143.929 514.321 140.865C515.351 138.05 516.531 135.294 517.854 132.606C518.813 130.584 519.451 129.286 519.96 129.372C520.471 129.458 520.664 130.969 520.281 133.34H520.279C519.659 136.273 518.806 139.151 517.73 141.95L517.738 141.968Z" fill="#003D5F"/>
<path fill-rule="evenodd" clip-rule="evenodd" d="M327.153 408.036C327.947 409.454 329.116 410.281 330.675 410.517C331.665 410.682 332.418 410.458 332.94 409.844C333.527 409.088 333.409 408.072 332.584 406.784H332.537C331.914 405.934 331.096 405.325 330.07 404.953C329.05 404.605 328.208 404.617 327.532 405.006C326.483 405.609 326.352 406.619 327.153 408.036ZM356.036 396.247C357.779 398.586 359.197 400.967 360.311 403.406C361.746 406.613 362.565 409.737 362.742 412.797C362.909 415.715 362.464 418.402 361.385 420.859C360.347 423.328 358.782 425.348 356.688 426.913C352.318 430.203 346.78 431.402 340.097 430.516C333.93 429.677 327.787 427.232 321.674 423.18C315.549 419.158 310.74 414.403 307.271 408.91C303.5 402.933 301.993 397.116 302.747 391.463C303.381 386.732 305.616 383.1 309.453 380.543C313.112 378.121 317.654 377.058 323.085 377.341C328.659 377.643 334.262 379.326 339.872 382.391C345.991 385.728 351.375 390.359 356.036 396.265V396.247ZM278.316 352.629C279.805 341.484 285.064 332.92 294.071 326.943C302.687 321.231 313.384 318.709 326.174 319.383C339.32 320.05 352.52 324.007 365.761 331.254C380.152 339.128 392.835 350.025 403.811 363.922C409.978 372.415 414.384 381.05 417.028 389.839C419.714 398.752 420.325 406.956 418.866 414.468C417.343 422.4 413.625 428.915 407.707 434.03C401.309 439.523 392.699 443.049 381.871 444.614C377.798 444.921 373.778 445.081 369.805 445.116C367.415 445.033 365.553 444.933 364.231 444.815C363.134 444.697 360.649 444.396 356.742 443.893C354.779 443.557 353.22 443.262 352.063 442.996C351.292 442.83 349.063 442.257 345.381 441.289C343.548 440.74 342.208 440.326 341.354 440.037C340.4 439.688 338.384 438.914 335.3 437.71C333.693 437.007 332.513 436.487 331.784 436.156C331.209 435.867 330.242 435.377 328.89 434.674C335.709 438.011 342.718 440.273 349.929 441.46C358.71 442.889 366.543 442.358 373.434 439.86C380.134 437.42 385.133 433.416 388.406 427.84C391.798 422.082 392.924 415.36 391.774 407.664C390.552 399.336 386.781 390.619 380.466 381.523L380.437 381.553C375.562 374.979 369.651 369.126 362.695 363.999C355.757 358.878 348.417 354.939 340.655 352.181C332.11 349.145 323.957 347.863 316.195 348.33C308.433 348.796 301.982 350.964 296.817 354.838C291.368 358.925 287.97 364.229 286.612 370.738C285.337 376.81 285.906 383.478 288.314 390.743C290.674 397.754 294.522 404.605 299.847 411.297C303.322 415.632 307.176 419.613 311.41 423.233C311.03 422.932 310.603 422.601 310.153 422.229C308.878 421.125 307.941 420.286 307.336 419.701C306.719 419.093 305.207 417.599 302.812 415.189C301.555 413.836 300.636 412.815 300.049 412.112C299.456 411.409 298.032 409.619 295.773 406.755C293.876 404.085 292.476 402.036 291.569 400.618C290.816 399.401 289.553 397.198 287.78 394.015C286.689 391.877 285.895 390.217 285.391 389.054C284.958 388.049 284.003 385.681 282.526 381.948C281.791 379.757 281.269 378.121 280.967 377.034C280.665 375.936 280.03 373.343 279.064 369.256C278.554 366.462 278.228 364.105 278.079 362.168C277.824 358.92 277.895 355.742 278.316 352.629ZM452.476 400.925L448.633 406.583C446.807 409.005 445.384 410.801 444.358 411.964C443.409 413.057 441.197 415.378 437.723 418.957C434.995 421.461 432.86 423.31 431.319 424.509C430.127 425.442 427.974 426.996 424.832 429.169C436.679 420.404 442.698 408.751 442.876 394.216C443.059 379.125 436.928 362.652 424.482 344.798H424.446C413.221 330.345 400.01 318.574 384.813 309.472C370.463 300.878 356.024 295.61 341.479 293.679C326.916 291.741 314.297 293.401 303.624 298.658C292.31 304.233 284.608 313.228 280.499 325.649C281.495 322.354 282.894 318.32 284.726 313.524C286.867 308.94 288.64 305.462 290.033 303.087C291.041 301.333 292.891 298.445 295.607 294.423L299.829 289.113C307.49 281.021 317.298 275.847 329.264 273.597C340.726 271.406 353.148 272.05 366.537 275.523C379.927 278.978 392.948 284.914 405.602 293.324C418.819 302.136 430.423 312.868 440.415 325.519C450.566 339.937 456.626 353.374 458.607 365.824C460.581 378.28 458.542 389.981 452.476 400.925ZM449.137 309.124H449.108C441.215 299.124 432.386 290.43 422.614 283.035C413.085 275.842 403.117 270.231 392.729 266.208C382.358 262.198 372.117 260.013 362.013 259.652C351.642 259.269 341.947 260.816 332.934 264.307C334.749 263.521 337.791 262.34 342.084 260.751C345.659 259.635 348.44 258.849 350.45 258.394C352.093 258.028 355.046 257.479 359.321 256.747C362.25 256.374 364.545 256.15 366.188 256.073C367.492 256.002 370.255 255.955 374.459 255.926L379.405 256.174C389.295 257.03 399.257 259.771 409.29 264.413C424.808 271.595 438.375 282.539 449.985 297.264C452.736 301.168 454.705 304.168 455.891 306.253C457.065 308.32 458.559 311.392 460.362 315.467L461.72 319.093C462.639 321.728 463.297 323.759 463.677 325.177C463.979 326.358 464.602 329.04 465.539 333.209C466.096 336.535 466.452 339.051 466.618 340.77C466.754 342.287 466.92 345.217 467.122 349.558C467.056 353.628 466.813 357.738 466.422 361.873C467.157 352.11 465.912 342.772 462.704 333.859C460.042 326.518 455.517 318.267 449.137 309.124Z" fill="#003D5F"/>
<path fill-rule="evenodd" clip-rule="evenodd" d="M600.364 299.371C599.79 299.407 599.322 299.415 598.967 299.407C598.043 299.347 597.448 299.31 597.183 299.286C596.91 299.262 596.499 299.206 595.957 299.117C595.106 298.955 594.568 298.855 594.348 298.81C594.116 298.75 593.774 298.653 593.314 298.52C592.552 298.278 592.071 298.124 591.88 298.06C591.68 297.987 591.387 297.874 590.996 297.717C590.296 297.398 589.86 297.189 589.685 297.104C589.51 297.019 589.257 296.886 588.911 296.708C588.271 296.329 587.872 296.087 587.709 295.986C587.546 295.898 587.314 295.74 587.005 295.526C586.394 295.083 586.011 294.8 585.86 294.687C585.713 294.57 585.493 294.397 585.208 294.155C584.61 293.61 584.251 293.283 584.133 293.179C583.986 293.033 583.779 292.82 583.514 292.549C582.972 291.948 582.638 291.561 582.508 291.404C582.361 291.222 582.153 290.96 581.889 290.621C581.408 289.919 581.086 289.443 580.923 289.177C580.703 288.838 580.41 288.342 580.044 287.692C579.661 286.885 579.416 286.357 579.298 286.119C579.184 285.844 579.033 285.445 578.85 284.921C578.557 284.001 578.365 283.416 578.3 283.178C578.219 282.908 578.125 282.516 578.023 282.016C578.618 284.42 579.726 286.736 581.339 288.959C582.878 291.093 584.76 292.969 586.984 294.586C589.208 296.204 591.571 297.431 594.08 298.262C596.495 299.048 598.865 299.403 601.191 299.323C600.743 299.355 600.466 299.371 600.364 299.371ZM617.146 290.548C616.429 291.452 615.964 292.017 615.744 292.259C615.508 292.529 615.133 292.912 614.641 293.404C613.789 294.147 613.219 294.631 612.93 294.857C612.576 295.131 612.046 295.502 611.35 295.97C608.148 297.757 604.389 298.241 600.071 297.422C596.079 296.668 592.23 294.954 588.54 292.275C584.842 289.596 582.052 286.494 580.162 282.972C578.125 279.176 577.53 275.521 578.365 272.011C578.691 270.983 579.013 270.059 579.335 269.224C579.803 268.235 580.17 267.521 580.426 267.09C580.72 266.541 581.196 265.795 581.86 264.847L582.826 263.632C580.569 266.606 579.893 270.047 580.805 273.944C581.644 277.478 583.64 280.927 586.797 284.291C589.872 287.563 593.436 290.113 597.485 291.948C601.761 293.876 605.79 294.599 609.566 294.123C611.121 293.929 612.527 293.534 613.781 292.945C615.423 292.158 616.755 291.057 617.769 289.645L617.146 290.548ZM600.034 256.004L600.902 256.056C598.01 255.976 595.668 256.516 593.872 257.678C592.169 258.787 591.102 260.357 590.678 262.386C590.263 264.359 590.495 266.497 591.387 268.8C592.308 271.184 593.79 273.427 595.843 275.537C598.189 277.954 600.853 279.789 603.835 281.044C606.625 282.23 609.329 282.766 611.952 282.649C614.563 282.549 616.661 281.81 618.254 280.443C619.956 278.982 620.82 276.994 620.84 274.476C620.856 273.564 620.738 272.616 620.498 271.636C620.404 271.249 620.274 270.805 620.099 270.305L620.172 270.49C620.457 271.394 620.64 271.979 620.722 272.253C620.815 272.608 620.925 273.101 621.048 273.726C621.198 274.694 621.296 275.348 621.325 275.69C621.361 276.11 621.39 276.711 621.41 277.486C621.386 278.559 621.333 279.495 621.251 280.306C620.689 283.585 619.129 285.978 616.575 287.47C614.241 288.85 611.341 289.334 607.875 288.923C604.503 288.519 601.142 287.357 597.79 285.433C594.291 283.404 591.371 280.842 589.021 277.74C587.526 275.779 586.422 273.774 585.722 271.721C585.029 269.74 584.756 267.84 584.895 266.029C585.021 264.205 585.546 262.6 586.483 261.224C587.449 259.796 588.772 258.699 590.459 257.94C591.456 257.541 592.161 257.266 592.564 257.117C593.558 256.835 594.251 256.645 594.633 256.552C595.057 256.452 595.701 256.331 596.552 256.193C597.562 256.101 598.214 256.044 598.503 256.024C598.857 256 599.366 255.996 600.034 256.004ZM612.38 260.453C613.773 261.478 614.958 262.648 615.936 263.955C617.211 265.766 617.972 267.505 618.217 269.155C618.445 270.696 618.221 272.031 617.545 273.173C616.885 274.295 615.887 275.089 614.539 275.569C613.158 276.07 611.586 276.175 609.83 275.892C607.525 275.517 605.35 274.605 603.297 273.153C601.387 271.81 599.859 270.204 598.707 268.336C597.558 266.464 596.992 264.677 597.012 262.967C597.053 261.143 597.778 259.699 599.191 258.642C600.226 257.868 601.521 257.432 603.073 257.339C604.617 257.242 606.246 257.496 607.961 258.11C609.517 258.658 610.991 259.437 612.38 260.453ZM613.696 267.82C613.867 267.412 613.94 266.969 613.916 266.489C613.863 265.577 613.488 264.657 612.796 263.733H612.812C612.03 262.753 611.134 261.99 610.119 261.442C609.179 260.934 608.238 260.651 607.309 260.607C606.409 260.558 605.651 260.736 605.044 261.135C604.397 261.555 604.026 262.164 603.92 262.947C603.794 263.878 604.042 264.847 604.682 265.839C605.256 266.751 606.059 267.537 607.085 268.199C608.095 268.873 609.122 269.28 610.156 269.413C611.26 269.563 612.176 269.361 612.901 268.816C613.256 268.55 613.521 268.223 613.696 267.82Z" fill="#003D5F"/>
<path fill-rule="evenodd" clip-rule="evenodd" d="M749.6 388.361C749.759 389.404 749.85 390.258 749.893 390.907C749.932 392.605 749.962 393.698 749.961 394.185C749.961 394.687 749.924 395.448 749.85 396.452C749.693 398.033 749.596 399.032 749.551 399.441C749.478 399.874 749.357 400.515 749.188 401.377C748.869 402.808 748.667 403.711 748.58 404.071C748.48 404.447 748.321 405.001 748.097 405.741C747.629 407.072 747.316 407.902 747.19 408.236C747.064 408.57 746.861 409.053 746.593 409.714C746.004 410.943 745.627 411.712 745.469 412.026C745.334 412.338 745.084 412.787 744.743 413.387C744.032 414.575 743.578 415.32 743.396 415.614C743.206 415.901 742.925 416.331 742.529 416.891C741.632 418.073 741.093 418.781 740.92 419.013C740.679 419.305 740.322 419.719 739.871 420.246C738.861 421.333 738.208 422.006 737.942 422.27C737.634 422.567 737.188 422.989 736.612 423.527C735.408 424.519 734.591 425.184 734.131 425.525C733.548 425.982 732.689 426.598 731.562 427.373C730.15 428.203 729.224 428.735 728.809 428.989C728.326 429.242 727.621 429.582 726.693 430.002C725.06 430.687 724.023 431.131 723.599 431.289C723.118 431.482 722.419 431.716 721.521 431.983C725.817 430.507 729.867 428.108 733.666 424.801C737.314 421.643 740.435 417.902 743.03 413.577C745.624 409.252 747.481 404.738 748.592 400.021C749.638 395.481 749.902 391.093 749.377 386.858C749.509 387.671 749.583 388.175 749.6 388.361ZM730.763 359.138C732.53 360.301 733.637 361.058 734.114 361.42C734.646 361.808 735.407 362.43 736.386 363.251C737.88 364.686 738.857 365.649 739.316 366.14C739.875 366.743 740.639 367.65 741.606 368.846C745.39 374.404 746.884 381.193 746.088 389.212C745.357 396.626 742.85 403.935 738.555 411.11C734.262 418.3 729.048 423.899 722.921 427.922C716.317 432.258 709.737 433.937 703.191 432.981C701.259 432.552 699.52 432.114 697.942 431.662C696.061 430.967 694.697 430.413 693.867 430.014C692.817 429.567 691.377 428.818 689.537 427.759L687.163 426.192C692.96 429.832 699.355 430.509 706.325 428.211C712.644 426.105 718.621 421.9 724.255 415.589C729.732 409.441 733.812 402.517 736.508 394.824C739.337 386.7 740.003 379.224 738.521 372.405C737.915 369.594 736.965 367.091 735.686 364.895C733.982 362.025 731.755 359.77 729.011 358.147L730.763 359.138ZM670.438 395.995L670.393 394.402C670.715 399.698 672.082 403.888 674.495 406.981C676.798 409.911 679.837 411.605 683.613 412.05C687.283 412.489 691.151 411.718 695.214 409.716C699.42 407.648 703.276 404.576 706.798 400.484C710.831 395.806 713.752 390.643 715.56 384.994C717.274 379.705 717.816 374.678 717.177 369.905C716.569 365.153 714.881 361.441 712.124 358.753C709.181 355.88 705.408 354.625 700.806 354.996C699.138 355.114 697.426 355.484 695.674 356.082C694.982 356.316 694.192 356.626 693.307 357.027L693.634 356.863C695.239 356.196 696.277 355.766 696.765 355.573C697.398 355.344 698.28 355.063 699.402 354.739C701.146 354.306 702.324 354.022 702.946 353.914C703.706 353.779 704.8 353.63 706.211 353.467C708.175 353.337 709.893 353.282 711.388 353.3C717.47 353.795 722.092 356.256 725.233 360.679C728.131 364.719 729.486 369.937 729.296 376.336C729.106 382.561 727.529 388.888 724.558 395.323C721.418 402.043 717.213 407.793 711.927 412.589C708.588 415.637 705.105 417.978 701.468 419.591C697.962 421.177 694.536 421.984 691.204 422.024C687.853 422.089 684.835 421.39 682.171 419.902C679.405 418.37 677.186 416.13 675.528 413.173C674.636 411.415 674.021 410.172 673.683 409.46C673.006 407.69 672.547 406.456 672.316 405.772C672.063 405.014 671.738 403.859 671.349 402.326C671.016 400.496 670.807 399.314 670.723 398.79C670.621 398.146 670.531 397.217 670.438 395.995ZM676.564 372.723C678.21 370.012 680.155 367.658 682.384 365.66C685.485 363.038 688.538 361.365 691.512 360.651C694.29 359.984 696.765 360.177 698.96 361.227C701.116 362.25 702.729 363.944 703.825 366.329C704.963 368.77 705.409 371.625 705.178 374.877C704.867 379.149 703.554 383.27 701.234 387.255C699.09 390.962 696.405 394.013 693.18 396.421C689.947 398.823 686.774 400.147 683.647 400.387C680.309 400.608 677.554 399.518 675.394 397.108C673.811 395.343 672.805 393.048 672.384 390.229C671.957 387.424 672.157 384.407 672.999 381.176C673.749 378.245 674.932 375.425 676.564 372.723ZM689.806 369.126C689.034 368.879 688.212 368.817 687.339 368.94C685.682 369.184 684.063 370.018 682.487 371.432L682.485 371.403C680.821 372.99 679.574 374.751 678.736 376.692C677.96 378.493 677.597 380.258 677.666 381.961C677.724 383.613 678.171 384.968 678.999 386.012C679.87 387.127 681.043 387.705 682.49 387.772C684.212 387.851 685.941 387.24 687.65 385.911C689.222 384.715 690.529 383.121 691.571 381.139C692.638 379.185 693.215 377.244 693.291 375.333C693.384 373.292 692.867 371.651 691.755 370.415C691.211 369.811 690.571 369.38 689.806 369.126Z" fill="#003D5F"/>
<path fill-rule="evenodd" clip-rule="evenodd" d="M68.9665 536.918C67.1904 536.948 65.7449 536.906 64.6534 536.831C61.8109 536.513 59.9824 536.316 59.1695 536.204C58.3314 536.091 57.0709 535.858 55.4132 535.507C52.8112 534.888 51.1676 534.501 50.4957 534.333C49.7885 534.113 48.7472 533.766 47.3469 533.29C45.0327 532.435 43.5725 531.894 42.9914 531.668C42.3863 531.416 41.4981 531.026 40.3148 530.485C38.1999 529.402 36.8858 528.693 36.3578 528.407C35.8298 528.121 35.0701 527.675 34.0277 527.078C32.1098 525.818 30.9135 525.015 30.4254 524.681C29.9357 524.384 29.2422 523.866 28.318 523.162C26.4972 521.707 25.3568 520.782 24.9082 520.412C24.4727 520.03 23.8192 519.464 22.9744 518.677C21.2057 516.913 20.1469 515.854 19.7976 515.514C19.3661 515.045 18.756 514.356 17.9781 513.485C16.3932 511.555 15.4184 510.313 15.0389 509.809C14.6126 509.229 14.0093 508.39 13.2412 507.308C11.859 505.075 10.9346 503.561 10.4701 502.717C9.84005 501.641 9.00637 500.069 7.96842 498.014C6.90262 495.472 6.22423 493.808 5.89387 493.057C5.58124 492.195 5.17336 490.942 4.68279 489.299C3.90938 486.421 3.4023 484.59 3.23522 483.847C3.02248 483.001 2.78929 481.782 2.54648 480.225C4.03807 487.723 7.12481 495.021 11.7821 502.105C16.226 508.904 21.7616 514.956 28.389 520.261C35.0163 525.566 42.1264 529.683 49.7449 532.603C57.0808 535.372 64.3399 536.804 71.5229 536.886C70.1368 536.922 69.2804 536.932 68.9665 536.918ZM121.967 512.1C119.628 514.785 118.116 516.46 117.403 517.175C116.636 517.975 115.426 519.104 113.837 520.551C111.106 522.719 109.279 524.131 108.355 524.786C107.223 525.581 105.538 526.651 103.324 527.994C93.1974 533.05 81.536 534.007 68.3394 530.868C56.1384 527.974 44.5135 522.139 33.5156 513.354C22.4927 504.568 14.3308 494.606 9.00422 483.477C3.26456 471.482 1.9509 460.127 5.02499 449.423C6.17613 446.298 7.29978 443.495 8.4108 440.966C9.99578 437.985 11.2277 435.835 12.0804 434.541C13.0628 432.89 14.6384 430.657 16.8205 427.828L19.9699 424.221C12.5889 433.068 10.0144 443.583 12.2732 455.729C14.3577 466.745 20.0211 477.665 29.2761 488.489C38.2931 499.015 48.9199 507.384 61.143 513.62C74.0562 520.174 86.3749 522.974 98.0853 522.043C102.911 521.668 107.3 520.648 111.252 519.011C116.426 516.819 120.689 513.612 124.017 509.403L121.967 512.1ZM74.1196 403.147L76.7873 403.432C67.8815 402.772 60.5828 404.105 54.8787 407.432C49.471 410.611 45.9571 415.298 44.3622 421.495C42.8004 427.519 43.2121 434.145 45.6349 441.374C48.1341 448.857 52.3867 455.984 58.4165 462.782C65.307 470.567 73.2598 476.606 82.2749 480.899C90.7094 484.953 98.9727 486.993 107.078 487.005C115.143 487.066 121.716 485.088 126.821 481.097C132.279 476.836 135.225 470.827 135.646 463.067C135.826 460.258 135.596 457.318 134.995 454.261C134.761 453.054 134.422 451.667 133.953 450.099L134.153 450.682C134.904 453.509 135.385 455.339 135.598 456.196C135.836 457.304 136.105 458.838 136.393 460.783C136.72 463.79 136.928 465.819 136.967 466.881C137.021 468.179 137.023 470.037 136.976 472.428C136.748 475.734 136.451 478.612 136.085 481.101C133.885 491.134 128.734 498.289 120.647 502.528C113.254 506.45 104.243 507.53 93.613 505.768C83.271 504.045 73.0747 499.984 63.012 493.573C52.512 486.818 43.8713 478.504 37.0658 468.603C32.7354 462.345 29.617 456.006 27.7489 449.574C25.8956 443.368 25.3245 437.47 26.0092 431.905C26.658 426.3 28.5067 421.424 31.5911 417.315C34.7709 413.049 39.0089 409.854 44.3165 407.755C47.4504 406.666 49.6623 405.92 50.9269 405.517C54.0316 404.788 56.1937 404.302 57.3875 404.07C58.7081 403.819 60.7097 403.538 63.3542 403.236C66.4821 403.094 68.4997 403.012 69.3943 402.991C70.4904 402.967 72.061 403.027 74.1196 403.147ZM111.555 418.624C115.704 421.982 119.193 425.758 122.021 429.927C125.694 435.694 127.796 441.164 128.314 446.286C128.798 451.071 127.918 455.156 125.67 458.581C123.476 461.945 120.286 464.253 116.06 465.542C111.732 466.888 106.869 466.988 101.496 465.867C94.4402 464.382 87.8631 461.261 81.7398 456.491C76.0404 452.077 71.5591 446.909 68.2705 440.985C64.995 435.05 63.5035 429.459 63.8097 424.187C64.1947 418.57 66.6358 414.22 71.1444 411.162C74.4447 408.921 78.5006 407.762 83.299 407.697C88.0729 407.618 93.0606 408.633 98.2609 410.768C102.981 412.681 107.416 415.292 111.555 418.624ZM114.563 441.526C115.149 440.294 115.438 438.936 115.431 437.452C115.397 434.633 114.373 431.744 112.369 428.796L112.419 428.799C110.147 425.665 107.493 423.186 104.443 421.35C101.614 419.649 98.7533 418.644 95.8961 418.375C93.1273 418.098 90.766 418.537 88.8377 419.683C86.7811 420.884 85.5515 422.71 85.1136 425.108C84.5916 427.964 85.22 430.984 87.0507 434.135C88.6918 437.028 91.0541 439.568 94.125 441.754C97.1439 443.976 100.251 445.378 103.422 445.936C106.805 446.553 109.659 446.061 111.972 444.485C113.103 443.715 113.966 442.745 114.563 441.526Z" fill="#003D5F"/>
<path fill-rule="evenodd" clip-rule="evenodd" d="M543.193 451.373C542.866 452.211 542.569 452.88 542.325 453.377C541.63 454.648 541.188 455.467 540.979 455.826C540.765 456.197 540.414 456.743 539.932 457.452C539.143 458.553 538.646 459.248 538.439 459.531C538.2 459.82 537.838 460.242 537.346 460.806C536.502 461.727 535.968 462.307 535.751 462.536C535.517 462.771 535.163 463.112 534.683 463.563C533.77 464.346 533.186 464.826 532.951 465.018C532.716 465.211 532.361 465.481 531.881 465.855C530.923 466.512 530.317 466.919 530.067 467.083C529.834 467.256 529.458 467.481 528.951 467.779C527.92 468.353 527.268 468.71 527.009 468.849C526.746 468.98 526.356 469.178 525.825 469.423C524.659 469.913 523.96 470.206 523.734 470.304C523.431 470.417 522.992 470.57 522.434 470.768C521.226 471.14 520.457 471.359 520.148 471.44C519.794 471.528 519.286 471.65 518.631 471.802C517.32 472.022 516.434 472.164 515.949 472.22C515.324 472.309 514.428 472.398 513.266 472.49C511.87 472.502 510.96 472.5 510.545 472.511C510.081 472.492 509.416 472.443 508.552 472.358C507.055 472.168 506.1 472.055 505.72 471.99C505.283 471.928 504.667 471.803 503.891 471.618C507.69 472.358 511.702 472.311 515.914 471.488C519.952 470.71 523.849 469.277 527.606 467.19C531.362 465.102 534.655 462.56 537.484 459.551C540.189 456.645 542.252 453.519 543.668 450.169C543.419 450.825 543.26 451.229 543.193 451.373ZM541.731 421.781C542.54 423.391 543.035 424.421 543.233 424.892C543.461 425.405 543.758 426.188 544.131 427.211C544.623 428.906 544.934 430.033 545.063 430.591C545.219 431.274 545.397 432.269 545.602 433.564C546.028 439.278 544.24 444.925 540.238 450.506C536.542 455.668 531.578 459.995 525.353 463.463C519.122 466.942 512.889 468.855 506.653 469.216C499.932 469.605 494.36 468.043 489.935 464.549C488.692 463.41 487.594 462.346 486.622 461.341C485.529 460.026 484.758 459.037 484.315 458.389C483.731 457.612 482.987 456.446 482.08 454.881L480.994 452.713C483.723 457.868 488.156 461.091 494.28 462.363C499.841 463.499 506.043 462.94 512.89 460.68C519.551 458.474 525.51 455.1 530.776 450.57C536.324 445.777 539.999 440.542 541.809 434.877C542.558 432.544 542.923 430.292 542.913 428.126C542.879 425.282 542.194 422.669 540.86 420.303L541.731 421.781ZM481.506 423.301L482.151 422.106C480.134 426.152 479.359 429.827 479.824 433.138C480.276 436.281 481.798 438.826 484.395 440.762C486.918 442.649 490.101 443.727 493.953 443.979C497.938 444.243 502.093 443.618 506.435 442.096C511.404 440.361 515.759 437.793 519.499 434.393C523.016 431.219 525.557 427.738 527.117 423.943C528.692 420.176 529.027 416.717 528.136 413.56C527.187 410.186 524.936 407.653 521.381 405.967C520.1 405.344 518.678 404.888 517.131 404.583C516.52 404.461 515.805 404.354 514.981 404.273L515.292 404.291C516.761 404.482 517.71 404.607 518.153 404.672C518.718 404.773 519.488 404.941 520.454 405.179C521.926 405.603 522.917 405.894 523.421 406.079C524.04 406.304 524.911 406.659 526.022 407.14C527.527 407.88 528.819 408.571 529.915 409.22C534.193 412.176 536.558 415.961 536.993 420.563C537.412 424.779 536.19 429.209 533.326 433.851C530.534 438.366 526.676 442.364 521.743 445.849C516.564 449.473 511.011 451.927 505.067 453.216C501.304 454.045 497.736 454.29 494.365 453.932C491.101 453.609 488.228 452.746 485.752 451.357C483.251 449.979 481.321 448.177 479.987 445.944C478.598 443.636 477.914 441.037 477.949 438.148C478.04 436.471 478.114 435.292 478.168 434.622C478.422 433.027 478.609 431.921 478.729 431.317C478.865 430.65 479.117 429.659 479.483 428.362C480.016 426.869 480.365 425.908 480.527 425.485C480.726 424.967 481.055 424.242 481.506 423.301ZM495.938 408.73C498.307 407.43 500.745 406.52 503.241 405.994C506.648 405.379 509.613 405.444 512.113 406.184C514.447 406.874 516.192 408.071 517.366 409.78C518.521 411.454 518.991 413.391 518.784 415.618C518.584 417.904 517.698 420.202 516.143 422.504C514.094 425.525 511.37 428.008 507.961 429.962C504.799 431.786 501.519 432.894 498.112 433.299C494.703 433.695 491.798 433.321 489.387 432.167C486.829 430.909 485.259 428.931 484.691 426.232C484.274 424.256 484.509 422.133 485.398 419.873C486.277 417.621 487.71 415.479 489.707 413.452C491.509 411.607 493.583 410.03 495.938 408.73ZM507.245 411.713C506.78 411.203 506.199 410.807 505.503 410.525C504.175 410 502.625 409.926 500.86 410.3L500.871 410.277C498.967 410.74 497.296 411.508 495.851 412.585C494.511 413.584 493.492 414.732 492.818 416.019C492.157 417.263 491.91 418.454 492.077 419.577C492.245 420.771 492.865 421.697 493.904 422.362C495.142 423.154 496.678 423.439 498.505 423.186C500.175 422.972 501.819 422.352 503.432 421.333C505.052 420.344 506.305 419.158 507.174 417.779C508.112 416.313 508.429 414.881 508.134 413.495C507.99 412.817 507.701 412.227 507.245 411.713Z" fill="#003D5F"/>
</svg>
