<svg width="14" height="12" viewBox="0 0 14 12" fill="none" xmlns="http://www.w3.org/2000/svg">
<path d="M13.9946 5.38155L12.5742 11.347C12.5529 11.4366 12.4728 11.4999 12.3809 11.4999H0.757051C0.647194 11.4999 0.558145 11.4108 0.558145 11.301C0.558145 11.2835 0.560503 11.266 0.56508 11.2491L2.13759 5.43063C2.18447 5.25724 2.34176 5.13671 2.52151 5.13671L13.8012 5.13643C13.9109 5.13643 14 5.22548 14 5.33534C14 5.35087 13.9982 5.36643 13.9946 5.38155ZM0.199041 0.5H2.55093C2.59754 0.5 2.64248 0.516368 2.67826 0.54619L3.53949 1.26386C3.71814 1.41283 3.9434 1.49425 4.17602 1.49425H11.7873C11.8972 1.49425 11.9862 1.5833 11.9862 1.69316V3.28399C11.9862 3.39384 11.8972 3.48275 11.7873 3.48275H2.25287C1.80375 3.48275 1.41035 3.78402 1.29317 4.21761L0.15632 8.42363C0.144808 8.46607 0.101114 8.49117 0.0588093 8.47966C0.0241328 8.47023 0 8.43888 0 8.40282L0.000277412 0.698828C0.000277412 0.588971 0.0891836 0.5 0.199041 0.5Z" fill="url(#paint0_linear_2432_2692)"/>
<defs>
<linearGradient id="paint0_linear_2432_2692" x1="10.9366" y1="-2.4122" x2="6.15826" y2="14.9359" gradientUnits="userSpaceOnUse">
<stop stop-color="#1AE3D7"/>
<stop offset="1" stop-color="#0945DF"/>
</linearGradient>
</defs>
</svg>
