<svg width="16" height="16" viewBox="0 0 16 16" fill="none" xmlns="http://www.w3.org/2000/svg">
<path d="M15.4285 15.9999H0.571419C0.367211 15.9999 0.178571 15.892 0.0765304 15.7167C-0.0255102 15.5415 -0.0255102 15.3256 0.0765304 15.1504C0.178571 14.9752 0.367217 14.8672 0.571419 14.8672H15.4285C15.6327 14.8672 15.8214 14.9752 15.9234 15.1504C16.0255 15.3256 16.0255 15.5415 15.9234 15.7167C15.8214 15.892 15.6327 15.9999 15.4285 15.9999Z" fill="#0078BB"/>
<path d="M5.29285 8.354L4.39933 13.0506C4.37418 13.1873 4.39844 13.3285 4.46754 13.4485C4.53665 13.5684 4.64602 13.6591 4.77571 13.7039C4.90528 13.7485 5.04653 13.7443 5.17332 13.6919L9.48698 11.7682L5.29285 8.354Z" fill="#0078BB"/>
<path d="M15.0549 4.95574L15.6294 4.21473C15.9064 3.86954 16.0365 3.42797 15.9914 2.98637C15.9461 2.54477 15.7291 2.13913 15.388 1.85828L13.5324 0.364625C13.187 0.0879367 12.7469 -0.039359 12.3086 0.0106634C11.8703 0.0605469 11.4695 0.283603 11.1941 0.630981L10.6196 1.37199L15.0549 4.95574Z" fill="#0078BB"/>
<path d="M5.80518 7.36553L9.87798 2.26562L14.3007 5.80286L10.2279 10.9028L5.80518 7.36553Z" fill="#0078BB"/>
</svg>
