<svg width="16" height="15" viewBox="0 0 16 15" fill="none" xmlns="http://www.w3.org/2000/svg">
<path d="M11 5.625C11 6.37092 10.6839 7.08629 10.1213 7.61374C9.55871 8.14118 8.79565 8.4375 8 8.4375C7.20435 8.4375 6.44129 8.14118 5.87868 7.61374C5.31607 7.08629 5 6.37092 5 5.625C5 4.87908 5.31607 4.16371 5.87868 3.63626C6.44129 3.10882 7.20435 2.8125 8 2.8125C8.79565 2.8125 9.55871 3.10882 10.1213 3.63626C10.6839 4.16371 11 4.87908 11 5.625Z" fill="black"/>
<path fill-rule="evenodd" clip-rule="evenodd" d="M0 7.5C0 5.51088 0.842855 3.60322 2.34315 2.1967C3.84344 0.790176 5.87827 0 8 0C10.1217 0 12.1566 0.790176 13.6569 2.1967C15.1571 3.60322 16 5.51088 16 7.5C16 9.48912 15.1571 11.3968 13.6569 12.8033C12.1566 14.2098 10.1217 15 8 15C5.87827 15 3.84344 14.2098 2.34315 12.8033C0.842855 11.3968 0 9.48912 0 7.5ZM8 0.9375C6.68178 0.937566 5.39037 1.28659 4.2744 1.9444C3.15844 2.60221 2.26328 3.54207 1.69196 4.65581C1.12065 5.76954 0.896386 7.01188 1.045 8.23983C1.19361 9.46779 1.70905 10.6314 2.532 11.5969C3.242 10.5244 4.805 9.375 8 9.375C11.195 9.375 12.757 10.5234 13.468 11.5969C14.2909 10.6314 14.8064 9.46779 14.955 8.23983C15.1036 7.01188 14.8794 5.76954 14.308 4.65581C13.7367 3.54207 12.8416 2.60221 11.7256 1.9444C10.6096 1.28659 9.31822 0.937566 8 0.9375Z" fill="black"/>
</svg>
