<svg width="16" height="14" viewBox="0 0 16 14" fill="none" xmlns="http://www.w3.org/2000/svg">
<path d="M14.6666 0.333333C14.6666 0.149213 14.437 0 14.1538 0H1.84607C1.56284 0 1.33325 0.149213 1.33325 0.333333V1.33333H14.6666L14.6666 0.333333Z" fill="black"/>
<path d="M15.3333 2H0.666667C0.49 2.00052 0.320733 2.07094 0.19584 2.19584C0.0709467 2.32074 0.000533333 2.49 0 2.66667V7.98667C0.000520827 8.16333 0.0709373 8.3326 0.19584 8.45749C0.320743 8.58239 0.49 8.6528 0.666667 8.65333H2.66667V5.33H13.3333V8.65333H15.3333C15.51 8.65281 15.6793 8.5824 15.8042 8.45749C15.9291 8.33259 15.9995 8.16333 16 7.98667V2.66667C15.9995 2.49 15.9291 2.32073 15.8042 2.19584C15.6793 2.07095 15.51 2.00053 15.3333 2ZM10.3333 4.33333C10.1565 4.33333 9.98693 4.26307 9.86193 4.13807C9.73693 4.01306 9.66667 3.84348 9.66667 3.66667C9.66667 3.48985 9.73693 3.32027 9.86193 3.19527C9.98694 3.07027 10.1565 3 10.3333 3C10.5101 3 10.6797 3.07026 10.8047 3.19527C10.9297 3.32027 11 3.48985 11 3.66667C10.9995 3.84333 10.9291 4.0126 10.8042 4.13749C10.6793 4.26239 10.51 4.3328 10.3333 4.33333ZM12.6667 4.33333C12.4898 4.33333 12.3203 4.26307 12.1953 4.13807C12.0703 4.01306 12 3.84348 12 3.66667C12 3.48985 12.0703 3.32027 12.1953 3.19527C12.3203 3.07027 12.4899 3 12.6667 3C12.8435 3 13.0131 3.07026 13.1381 3.19527C13.2631 3.32027 13.3333 3.48985 13.3333 3.66667C13.3328 3.84333 13.2624 4.0126 13.1375 4.13749C13.0126 4.26239 12.8433 4.3328 12.6667 4.33333Z" fill="black"/>
<path d="M3.33326 8.65337V13.6667C3.33352 13.755 3.36873 13.8397 3.43117 13.9021C3.49362 13.9646 3.57825 13.9998 3.66659 14H12.3333C12.4216 13.9998 12.5062 13.9646 12.5687 13.9021C12.6311 13.8397 12.6663 13.755 12.6666 13.6667V5.9967H3.33325L3.33326 8.65337ZM11.3333 11.6667H4.66659C4.54753 11.6667 4.43747 11.6032 4.3779 11.5C4.31837 11.3969 4.31837 11.2698 4.3779 11.1667C4.43748 11.0636 4.54754 11 4.66659 11H11.3333C11.4523 11 11.5624 11.0636 11.622 11.1667C11.6815 11.2698 11.6815 11.3969 11.622 11.5C11.5624 11.6032 11.4523 11.6667 11.3333 11.6667ZM11.3333 9.6667H4.66659C4.54753 9.6667 4.43747 9.60316 4.3779 9.50004C4.31837 9.39691 4.31837 9.26982 4.3779 9.1667C4.43748 9.06358 4.54754 9.00004 4.66659 9.00004H11.3333C11.4523 9.00004 11.5624 9.06358 11.622 9.1667C11.6815 9.26983 11.6815 9.39692 11.622 9.50004C11.5624 9.60316 11.4523 9.6667 11.3333 9.6667Z" fill="black"/>
</svg>
