<svg width="85" height="110" viewBox="0 0 85 110" fill="none" xmlns="http://www.w3.org/2000/svg">
<g filter="url(#filter0_bd_589_1901)">
<path d="M9.875 0C6.64375 0 4.02938 2.61 4.02938 5.8L4 96.2C4 99.39 6.61437 102 9.84562 102H75.125C78.3563 102 81 99.39 81 96.2V17.4L63.375 0H9.875ZM60.4375 20.3V4.35L76.5938 20.3H60.4375Z" fill="url(#paint0_linear_589_1901)"/>
</g>
<rect x="16" y="49" width="53" height="5" fill="white"/>
<rect x="16" y="16" width="16" height="18" fill="white"/>
<rect x="16" y="59" width="53" height="5" fill="white"/>
<rect x="16" y="69" width="53" height="5" fill="white"/>
<rect x="16" y="79" width="37" height="5" fill="white"/>
<defs>
<filter id="filter0_bd_589_1901" x="-3" y="-7" width="91" height="117" filterUnits="userSpaceOnUse" color-interpolation-filters="sRGB">
<feFlood flood-opacity="0" result="BackgroundImageFix"/>
<feGaussianBlur in="BackgroundImage" stdDeviation="3.5"/>
<feComposite in2="SourceAlpha" operator="in" result="effect1_backgroundBlur_589_1901"/>
<feColorMatrix in="SourceAlpha" type="matrix" values="0 0 0 0 0 0 0 0 0 0 0 0 0 0 0 0 0 0 127 0" result="hardAlpha"/>
<feOffset dy="4"/>
<feGaussianBlur stdDeviation="2"/>
<feComposite in2="hardAlpha" operator="out"/>
<feColorMatrix type="matrix" values="0 0 0 0 0.133333 0 0 0 0 0.32 0 0 0 0 0.4 0 0 0 0.25 0"/>
<feBlend mode="normal" in2="effect1_backgroundBlur_589_1901" result="effect2_dropShadow_589_1901"/>
<feBlend mode="normal" in="SourceGraphic" in2="effect2_dropShadow_589_1901" result="shape"/>
</filter>
<linearGradient id="paint0_linear_589_1901" x1="64.1512" y1="-27.0044" x2="-1.96193" y2="115.364" gradientUnits="userSpaceOnUse">
<stop stop-color="#1AE3D7"/>
<stop offset="1" stop-color="#0945DF"/>
</linearGradient>
</defs>
</svg>
