<svg width="97" height="126" viewBox="0 0 97 126" fill="none" xmlns="http://www.w3.org/2000/svg">
<g filter="url(#filter0_bd_63_346)">
<path d="M10.7906 0C7.05576 0 4.03395 3.01941 4.03395 6.7098L4 111.29C4 114.981 7.02181 118 10.7566 118H86.2094C89.9442 118 93 114.981 93 111.29V20.1294L72.6283 0H10.7906ZM69.233 23.4843V5.03235L87.9071 23.4843H69.233Z" fill="url(#paint0_linear_63_346)"/>
</g>
<rect x="17.8701" y="56.6863" width="61.2597" height="5.78431" fill="white"/>
<rect x="17.8701" y="18.5098" width="18.4935" height="20.8235" fill="white"/>
<rect x="17.8701" y="68.2549" width="61.2597" height="5.78432" fill="white"/>
<rect x="17.8701" y="79.8235" width="61.2597" height="5.78432" fill="white"/>
<rect x="17.8701" y="91.3922" width="42.7662" height="5.78432" fill="white"/>
<defs>
<filter id="filter0_bd_63_346" x="-3" y="-7" width="103" height="133" filterUnits="userSpaceOnUse" color-interpolation-filters="sRGB">
<feFlood flood-opacity="0" result="BackgroundImageFix"/>
<feGaussianBlur in="BackgroundImage" stdDeviation="3.5"/>
<feComposite in2="SourceAlpha" operator="in" result="effect1_backgroundBlur_63_346"/>
<feColorMatrix in="SourceAlpha" type="matrix" values="0 0 0 0 0 0 0 0 0 0 0 0 0 0 0 0 0 0 127 0" result="hardAlpha"/>
<feOffset dy="4"/>
<feGaussianBlur stdDeviation="2"/>
<feComposite in2="hardAlpha" operator="out"/>
<feColorMatrix type="matrix" values="0 0 0 0 0.133333 0 0 0 0 0.32 0 0 0 0 0.4 0 0 0 0.25 0"/>
<feBlend mode="normal" in2="effect1_backgroundBlur_63_346" result="effect2_dropShadow_63_346"/>
<feBlend mode="normal" in="SourceGraphic" in2="effect2_dropShadow_63_346" result="shape"/>
</filter>
<linearGradient id="paint0_linear_63_346" x1="79.3321" y1="-73.75" x2="26.8623" y2="111.884" gradientUnits="userSpaceOnUse">
<stop stop-color="#1AE3D7"/>
<stop offset="1" stop-color="#0945DF"/>
</linearGradient>
</defs>
</svg>
