<svg
  width="30"
  height="40"
  viewBox="0 0 30 40"
  fill="none"
  xmlns="http://www.w3.org/2000/svg"
>
  <path
    d="M27.8604 0.000309673H2.1396C0.956075 0.000309673 0 0.932759 0 2.08686V37.9134C0 39.0676 0.956156 40 2.1396 40L27.8604 39.9997C29.0439 39.9997 30 39.0672 30 37.9131V2.08655C29.9543 0.93237 28.9985 0 27.8604 0V0.000309673ZM6.37329 16.8259C6.82866 15.8492 7.60251 15.4498 8.46754 15.2277C9.10485 15.0503 10.3341 14.7836 11.381 14.4288C12.2461 14.1624 13.0199 13.8073 13.293 13.4521C13.3842 13.3189 13.4296 13.1858 13.5207 13.0526C13.3842 12.8752 13.1111 12.7417 12.9745 12.6531C12.0184 11.9873 11.6087 10.7885 11.381 9.72299C11.1533 8.65743 10.9714 7.59212 10.9714 6.48225C10.9714 5.59443 11.1991 4.61767 11.9276 3.99622C12.7926 3.24155 13.9307 2.97522 14.9776 2.97522H15.023H15.0685C16.07 2.97522 17.2535 3.28613 18.1185 3.99622C18.6647 4.48458 18.9836 5.1504 19.0289 5.81648C19.1655 7.10378 18.9378 8.4357 18.6647 9.67875C18.3916 10.7443 17.982 11.9428 17.0712 12.6089C16.9347 12.6978 16.6616 12.8752 16.525 13.0084C16.5704 13.1415 16.6616 13.2747 16.7527 13.4078C16.9804 13.763 17.7542 14.0736 18.6647 14.3845C19.7573 14.7397 20.9863 15.006 21.5782 15.1835C22.4432 15.4055 23.217 15.805 23.6724 16.7817C23.809 17.0037 24.3098 19.3566 24.2186 19.3566H5.91817C5.78162 19.4009 6.2824 17.048 6.37354 16.8259H6.37329ZM24.4006 34.5394H5.59939C5.3263 34.5394 5.14403 34.362 5.14403 34.0954C5.14403 33.829 5.32598 33.6513 5.59939 33.6513H24.3551C24.6282 33.6513 24.8104 33.8287 24.8104 34.0954C24.8104 34.362 24.6282 34.5394 24.4005 34.5394H24.4006ZM24.4006 30.1H5.59939C5.3263 30.1 5.14403 29.9225 5.14403 29.6559C5.14403 29.3896 5.32598 29.2118 5.59939 29.2118H24.3551C24.6282 29.2118 24.8104 29.3893 24.8104 29.6559C24.8104 29.9225 24.6282 30.1 24.4005 30.1H24.4006ZM24.4006 25.6605H5.59939C5.3263 25.6605 5.14403 25.483 5.14403 25.2164C5.14403 24.9501 5.32598 24.7723 5.59939 24.7723H24.3551C24.6282 24.7723 24.8104 24.9498 24.8104 25.2164C24.8104 25.483 24.6282 25.6605 24.4005 25.6605H24.4006Z"
    fill="url(#paint0_radial_63_300)"
  />
  <defs>
    <radialGradient
      id="paint0_radial_63_300"
      cx="0"
      cy="0"
      r="1"
      gradientUnits="userSpaceOnUse"
      gradientTransform="translate(20.1964 7.5) rotate(99.0841) scale(32.9128 25.1632)"
    >
      <stop stop-color="#1AE3D7" />
      <stop offset="1" stop-color="#0945DF" />
    </radialGradient>
  </defs>
</svg>
