<svg width="30" height="33" viewBox="0 0 30 33" fill="none" xmlns="http://www.w3.org/2000/svg">
<path fill-rule="evenodd" clip-rule="evenodd" d="M2.98215 21.245C3.06313 21.0437 3.20475 20.8988 3.40715 20.8101L7.27364 19.1936L18.2212 23.7542L17.8154 23.9246L17.809 23.9278L12.8848 26.0036C12.6739 26.0923 12.463 26.0923 12.2521 26.0036L3.40715 22.2577C3.20903 22.1711 3.07054 22.0338 2.99174 21.8454C2.90438 21.6464 2.90118 21.4462 2.98215 21.245ZM28.4147 11.2116C28.6171 11.3025 28.7566 11.4411 28.8333 11.6271C28.9228 11.824 28.926 12.0242 28.8429 12.2276C28.7619 12.4289 28.6192 12.5727 28.4147 12.6593L12.5813 19.372C12.3704 19.4608 12.1595 19.4608 11.9486 19.372L0.764513 14.6556C0.566395 14.5691 0.427905 14.4317 0.349105 14.2434C0.261742 14.0443 0.258546 13.8441 0.339518 13.6429C0.420491 13.4416 0.562114 13.2967 0.764513 13.2079L7.68905 10.2671L16.3934 13.935C16.6959 14.0627 17.0112 14.1265 17.3393 14.1265C17.6673 14.1265 17.9816 14.0627 18.282 13.935L26.5677 10.4358L28.4147 11.2116ZM28.8333 6.32643C29.0293 6.41082 29.1688 6.54715 29.2519 6.73542C29.3436 6.93667 29.3478 7.13903 29.2647 7.34242C29.1816 7.54367 29.0378 7.6865 28.8333 7.77089L17.6524 12.4906C17.4437 12.5793 17.2328 12.5793 17.0198 12.4906L2.15453 6.23229C1.96281 6.15439 1.82221 6.01806 1.73273 5.8233C1.64754 5.62205 1.64646 5.4208 1.72954 5.21955C1.81262 5.01615 1.95431 4.87223 2.15453 4.78783L13.3386 0.0681659C13.4493 0.0227221 13.5559 0 13.6581 0C13.7775 0.00649197 13.8818 0.0292141 13.9713 0.0681659L28.8333 6.32643ZM12.9647 27.4253L22.2954 23.3743L25.4525 24.7214L28.7374 26.0977C28.8312 26.1367 28.9153 26.1919 28.9899 26.2633C29.0623 26.3369 29.1177 26.418 29.1561 26.5068C29.2455 26.708 29.2487 26.9103 29.1656 27.1138C29.0847 27.315 28.942 27.4579 28.7374 27.5423L25.2896 29.0516L17.6109 32.2554L15.9844 32.9338C15.9373 32.9536 15.8905 32.9687 15.8438 32.9792C15.6796 33.0178 15.5155 33.0027 15.3517 32.9338L13.7396 32.2554L0.486509 26.6755C0.294782 26.5976 0.154182 26.4613 0.0647096 26.2665C-0.020481 26.0652 -0.0215667 25.864 0.061515 25.6628C0.144597 25.4593 0.286282 25.3154 0.486509 25.231L3.77942 23.8499L12.332 27.4253C12.5429 27.5141 12.7538 27.5141 12.9647 27.4253Z" fill="url(#paint0_radial_183_4601)"/>
<defs>
<radialGradient id="paint0_radial_183_4601" cx="0" cy="0" r="1" gradientUnits="userSpaceOnUse" gradientTransform="translate(19.7413 6.1875) rotate(100.727) scale(27.2894 24.4733)">
<stop stop-color="#1AE3D7"/>
<stop offset="1" stop-color="#0945DF"/>
</radialGradient>
</defs>
</svg>
