
<svg
  width="1280"
  height="142"
  viewBox="0 0 1280 142"
  fill="none"
  xmlns="http://www.w3.org/2000/svg"
>
  <g filter="url(#filter0_d_63_251)">
    <path
      fill-rule="evenodd"
      clip-rule="evenodd"
      d="M82.4525 15H102.123L105.08 26.037L86.7275 30.9545L82.4525 15ZM117.637 22.6723L115.581 15H1440V103H80.5816L82.1111 102.59L78.7465 90.0331L73.829 71.6807L70.4643 59.1236L57.9073 62.4883L39.5548 67.4058L26.9978 70.7705L30.3625 83.3275L35.28 101.68L35.6337 103H0V15H22.6325L12.7628 17.6446L16.1274 30.2016L21.0449 48.5541L24.4096 61.1111L36.9666 57.7465L55.3191 52.8289L67.8761 49.4643L64.5115 36.9072L59.5939 18.5548L58.6414 15H68.9939L69.2529 15.9667L74.1704 34.3191L77.5351 46.8762L90.0921 43.5115L108.445 38.594L121.002 35.2294L117.637 22.6723ZM47.0369 21.9194L28.6845 26.837L33.602 45.1894L51.9544 40.2719L47.0369 21.9194ZM42.9195 79.9628L61.2719 75.0453L66.1895 93.3978L47.837 98.3153L42.9195 79.9628ZM96.045 65.7279L114.397 60.8104L119.315 79.1628L100.963 84.0804L96.045 65.7279ZM80.1233 56.5355L92.6803 53.1709L111.033 48.2534L123.59 44.8887L126.954 57.4457L131.872 75.7982L135.237 88.3552L122.68 91.7199L104.327 96.6374L91.7701 100.002L88.4055 87.445L83.4879 69.0926L80.1233 56.5355Z"
      fill="white"
    />
  </g>
  <defs>
    <filter
      id="filter0_d_63_251"
      x="-27"
      y="0"
      width="1494"
      height="142"
      filterUnits="userSpaceOnUse"
      color-interpolation-filters="sRGB"
    >
      <feFlood flood-opacity="0" result="BackgroundImageFix" />
      <feColorMatrix
        in="SourceAlpha"
        type="matrix"
        values="0 0 0 0 0 0 0 0 0 0 0 0 0 0 0 0 0 0 127 0"
        result="hardAlpha"
      />
      <feOffset dy="12" />
      <feGaussianBlur stdDeviation="13.5" />
      <feComposite in2="hardAlpha" operator="out" />
      <feColorMatrix
        type="matrix"
        values="0 0 0 0 0.0463368 0 0 0 0 0.289469 0 0 0 0 0.654167 0 0 0 0.31 0"
      />
      <feBlend
        mode="normal"
        in2="BackgroundImageFix"
        result="effect1_dropShadow_63_251"
      />
      <feBlend
        mode="normal"
        in="SourceGraphic"
        in2="effect1_dropShadow_63_251"
        result="shape"
      />
    </filter>
  </defs>
</svg>