<svg width="55" height="58" viewBox="0 0 55 58" fill="none" xmlns="http://www.w3.org/2000/svg">
<path d="M27.257 20.5886C26.9819 20.0379 26.4312 19.6936 25.8805 19.7628L24.3662 19.8314C24.0911 19.4185 23.7469 19.0056 23.4026 18.6614L23.8155 17.2157C23.9533 16.665 23.7469 16.0456 23.3335 15.7014C22.8514 15.3571 22.2321 15.2885 21.6814 15.5636L20.3735 16.2521C19.9606 15.977 19.4786 15.77 18.997 15.5636L18.7219 14.1179C18.5841 13.5672 18.1712 13.0856 17.6205 12.9478C17.0698 12.81 16.4504 13.0165 16.1062 13.4985L15.2112 14.6686L14.4541 14.6686L13.6969 14.6686L12.802 13.4985C12.4577 13.0165 11.8384 12.81 11.2877 12.9478C10.737 13.0856 10.2554 13.5672 10.1863 14.1179L9.77431 15.4263C9.29226 15.6327 8.8107 15.8392 8.39781 16.1148L7.0899 15.4263C6.53919 15.1512 5.91983 15.2198 5.43783 15.5641C4.95578 15.9083 4.74932 16.5277 4.95578 17.0784L5.30003 18.5927C4.95578 19.0056 4.61152 19.3498 4.33642 19.7627L2.82214 19.6941C2.20277 19.6941 1.65207 20.0383 1.44564 20.5199C1.23918 21.0019 1.23918 21.69 1.65209 22.172L2.61571 23.2734C2.47791 23.7554 2.34059 24.237 2.27145 24.7877L0.894952 25.407C0.344241 25.6135 -6.39668e-07 26.1642 -6.12596e-07 26.7835C-5.85523e-07 27.4029 0.344254 27.8849 0.894952 28.16L2.27145 28.7794C2.34011 29.2614 2.47791 29.8117 2.61571 30.2937L1.65209 31.3951C1.23918 31.8771 1.17004 32.4965 1.44564 33.0472C1.72075 33.5979 2.27147 33.9421 2.82214 33.873L4.33642 33.8043C4.61154 34.2172 4.95579 34.6302 5.30003 34.9744L4.95578 36.4196C4.81798 36.9703 5.02444 37.5897 5.43783 38.0026C5.91988 38.3468 6.53924 38.4155 7.0899 38.1404L8.39782 37.4519C8.81073 37.727 9.29277 37.9339 9.77432 38.1404L10.0494 39.5861C10.1872 40.1368 10.6001 40.6184 11.1508 40.7562C11.7015 40.894 12.3209 40.6875 12.6651 40.2054L13.5601 39.0354L14.3172 39.0354L15.0744 39.0354L15.9694 40.2054C16.3136 40.6875 16.933 40.894 17.4836 40.7562C18.1717 40.6184 18.5846 40.1363 18.7219 39.5856L18.997 38.1399C19.479 37.9335 19.9606 37.727 20.3735 37.4514L21.6814 38.1399C22.2321 38.415 22.8515 38.3464 23.3335 38.0021C23.8155 37.6579 24.022 37.0385 23.8155 36.4878L23.4026 35.0421L23.4026 31.7488L23.2225 31.1187L24.3662 28.9677L25.3734 28.43L25.3734 27.8923L26.0869 23.3411L27.0505 22.2397C27.4635 21.7586 27.5321 21.0707 27.257 20.5886ZM22.3698 26.7832C22.3698 31.1883 18.7904 34.8364 14.3165 34.8364C9.91134 34.8364 6.26329 31.2571 6.26329 26.7832C6.26329 22.378 9.84263 18.7299 14.3165 18.7299C18.7908 18.7299 22.3698 22.378 22.3698 26.7832Z" fill="#D00000"/>
<path d="M33.8778 44.5508L35.7582 44.9468C36.3776 45.0841 36.9282 45.5662 37.065 46.2557C37.1337 46.875 36.7895 47.4948 36.1701 47.77L35 48.252C34.9309 48.5271 34.9309 48.8027 34.8622 49.0778L35.8258 49.9037C36.3074 50.3165 36.5139 51.0051 36.2387 51.6244C35.9637 52.2443 35.3443 52.5881 34.6557 52.5194L33.417 52.3816L33.417 52.3816C33.2792 52.5881 33.1414 52.7945 32.935 53.001L33.3479 54.171C33.623 54.7904 33.4166 55.4789 32.8658 55.8918C32.3151 56.3047 31.6271 56.3047 31.0764 55.8918L30.1127 55.1346C29.8376 55.2033 29.6307 55.3411 29.3556 55.4098L29.1491 56.6485C29.0113 57.3365 28.5297 57.8185 27.8412 57.8872H27.6347C27.0154 57.8872 26.4647 57.543 26.2582 56.9922L25.7762 55.8222C25.5011 55.753 25.2255 55.753 24.9504 55.6844L24.1245 56.648C23.7117 57.1296 23.0231 57.336 22.4038 57.0609C21.7839 56.7858 21.4402 56.1664 21.5088 55.4779L21.6466 54.2392C21.4402 54.1014 21.2337 53.9636 21.0272 53.7571L19.8572 54.1701C19.2378 54.4452 18.5493 54.2388 18.1364 53.688C17.7235 53.1372 17.7235 52.4492 18.1364 51.8985L18.8936 50.9349C18.8249 50.6598 18.6871 50.4528 18.6184 50.1777L17.3797 49.9713C16.6917 49.8334 16.2097 49.3519 16.141 48.6634C16.0724 47.9754 16.4161 47.3555 16.9668 47.1491L18.1369 46.667C18.206 46.3919 18.2061 46.1163 18.2747 45.8412L17.3111 45.0154C16.8295 44.6025 16.6231 43.914 16.8982 43.2946C17.1733 42.6748 17.7927 42.331 18.4812 42.3996L19.7886 42.5374L19.7886 42.5374C19.9264 42.331 20.0642 42.1245 20.2706 41.9181L19.8577 40.748C19.5826 40.1286 19.7891 39.4401 20.3398 39.0272C20.8906 38.6143 21.5786 38.6143 22.1293 39.0272L22.5852 39.7111H23.6607L24.7362 40.2488L25.274 41.3243H26.8872L26.5345 42.537C23.8501 42.537 21.6472 44.7398 21.6472 47.4242C21.6472 50.1086 23.8501 52.3115 26.5345 52.3115C29.2189 52.3115 31.4217 50.1091 31.4217 47.4242C31.4217 46.2709 31.0151 45.2065 30.3384 44.3675L31.0764 42.9376L32.8024 43.4753L33.8778 44.5508Z" fill="#D00000"/>
<path d="M36.5541 33.9473L35.6591 35.186C35.3149 35.668 34.7646 35.8746 34.1452 35.8054C33.5945 35.7368 33.113 35.3239 32.9752 34.7732L32.4931 33.3275C32.011 33.1897 31.5295 33.0519 31.0474 32.8454L29.8087 33.7404C29.3271 34.0155 28.7078 34.0841 28.2257 33.809C27.7436 33.5339 27.4685 32.9832 27.4685 32.4325L28.5004 30.428L29.9565 30.368L31.4661 28.3117C33.1052 29.1848 34.9775 29.6794 36.9669 29.6794C43.437 29.6794 48.6681 24.4483 48.6681 17.9782C48.6681 11.5081 43.437 6.27704 36.9669 6.27704C34.3357 6.27704 31.9094 7.14214 29.9565 8.60389C28.3509 9.80568 27.0653 11.4108 26.2489 13.27C25.6166 14.71 25.8117 15.909 25.8117 15.909L24.8528 16.2575L23.8109 15.5483L23.6828 14.3579L22.1977 12.9538L20.4342 12.6825C20.4342 12.6825 20.5846 11.1628 21.1353 11.0942L22.6496 10.8877C22.9247 10.4748 23.1316 9.99271 23.4067 9.5798L22.7874 8.2033C22.5809 7.65258 22.6496 7.03322 22.9938 6.62031C23.4067 6.13825 23.9574 5.9318 24.5081 6.0696L26.0224 6.41385C26.3666 6.06961 26.7109 5.79449 27.1238 5.45024L26.986 3.86725C26.9174 3.31657 27.1925 2.76586 27.6745 2.49075C28.1561 2.14649 28.7755 2.21563 29.2575 2.49075L30.5654 3.31657C30.9783 3.11012 31.4599 2.90366 31.9419 2.76586L32.3548 1.25158C32.4926 0.700879 32.9742 0.287965 33.5249 0.150168C34.0757 0.0123704 34.6264 0.218827 34.9706 0.700878L35.9342 1.93959C36.2785 1.87094 36.6914 1.87093 37.0356 1.87093L37.4485 1.87093L38.3435 0.632224C38.6878 0.150652 39.2385 -0.0558078 39.7892 0.0128512C40.3399 0.0815102 40.8215 0.494412 40.9593 1.04512L41.4413 2.49082C41.9234 2.62862 42.405 2.76642 42.887 2.97287L44.1257 2.07792C44.6073 1.73415 45.2267 1.73417 45.7087 2.00926C46.1908 2.28435 46.4659 2.83505 46.4659 3.38576L46.3972 4.96876C46.8101 5.313 47.223 5.58811 47.5673 5.93237L49.0816 5.51945C49.6323 5.38213 50.2516 5.58859 50.5959 6.0015C51.0088 6.48309 51.0774 7.03379 50.871 7.5845L50.2516 9.0302C50.5267 9.44316 50.7337 9.9252 51.0088 10.3381L52.5231 10.4759C53.0733 10.5446 53.5553 10.8888 53.7618 11.4395C53.9687 11.9215 53.8996 12.5409 53.4867 12.9538L52.5226 14.1239C52.5912 14.6059 52.729 15.1561 52.7977 15.6382L54.1742 16.2575C54.6557 16.464 55 17.0148 55 17.5654C55 18.1161 54.6562 18.6668 54.1742 18.9419L52.7977 19.6304C52.7977 20.1811 52.6599 20.6627 52.5912 21.1447L53.6926 22.2461C54.1055 22.659 54.2433 23.2097 54.0369 23.7604C53.8304 24.3106 53.3489 24.6549 52.7982 24.724L51.2839 24.9305C51.0088 25.3435 50.8018 25.8255 50.5267 26.2384L51.2152 27.6149C51.4217 28.1656 51.353 28.785 51.0088 29.1979C50.5959 29.68 50.0452 29.8864 49.4945 29.7486L47.9802 29.4044C47.636 29.7486 47.2917 30.0237 46.8788 30.368L47.0166 31.951C47.0852 32.5016 46.8101 32.9832 46.3281 33.3275C45.8465 33.6717 45.2271 33.6026 44.7451 33.3275L43.4372 32.5016C43.0243 32.7081 42.5427 32.9145 42.0607 33.0523L41.6478 34.5666C41.51 35.1173 41.0284 35.5302 40.4777 35.668C39.9269 35.8058 39.3762 35.5994 39.032 35.1173L38.0684 33.8786C37.7241 33.9473 37.3112 33.9473 36.967 33.9473L36.5541 33.9473Z" fill="#D00000"/>
</svg>
