<svg width="20" height="14" viewBox="0 0 20 14" fill="none" xmlns="http://www.w3.org/2000/svg">
<path fill-rule="evenodd" clip-rule="evenodd" d="M0 0.5C0 0.223858 0.223858 0 0.5 0H1.5C1.77614 0 2 0.223858 2 0.5V1.5C2 1.77614 1.77614 2 1.5 2H0.5C0.223858 2 0 1.77614 0 1.5V0.5ZM0 3.5C0 3.22386 0.223858 3 0.5 3H1.5C1.77614 3 2 3.22386 2 3.5V4.5C2 4.77614 1.77614 5 1.5 5H0.5C0.223858 5 0 4.77614 0 4.5V3.5ZM0.5 6C0.223858 6 0 6.22386 0 6.5V7.5C0 7.77614 0.223858 8 0.5 8H1.5C1.77614 8 2 7.77614 2 7.5V6.5C2 6.22386 1.77614 6 1.5 6H0.5ZM0.5 9C0.223858 9 0 9.22386 0 9.5V10.5C0 10.7761 0.223858 11 0.5 11H1.5C1.77614 11 2 10.7761 2 10.5V9.5C2 9.22386 1.77614 9 1.5 9H0.5ZM0 12.5C0 12.2239 0.223858 12 0.5 12H1.5C1.77614 12 2 12.2239 2 12.5V13.5C2 13.7761 1.77614 14 1.5 14H0.5C0.223858 14 0 13.7761 0 13.5V12.5ZM11.5 6C11.2239 6 11 6.22386 11 6.5V7.5C11 7.77614 11.2239 8 11.5 8H12.5C12.7761 8 13 7.77614 13 7.5V6.5C13 6.22386 12.7761 6 12.5 6H11.5ZM11 9.5C11 9.22386 11.2239 9 11.5 9H12.5C12.7761 9 13 9.22386 13 9.5V10.5C13 10.7761 12.7761 11 12.5 11H11.5C11.2239 11 11 10.7761 11 10.5V9.5ZM11.5 12C11.2239 12 11 12.2239 11 12.5V13.5C11 13.7761 11.2239 14 11.5 14H12.5C12.7761 14 13 13.7761 13 13.5V12.5C13 12.2239 12.7761 12 12.5 12H11.5ZM11.5 3C11.2239 3 11 3.22386 11 3.5V4.5C11 4.77614 11.2239 5 11.5 5H12.5C12.7761 5 13 4.77614 13 4.5V3.5C13 3.22386 12.7761 3 12.5 3H11.5ZM11.5 0C11.2239 0 11 0.223858 11 0.5V1.5C11 1.77614 11.2239 2 11.5 2H12.5C12.7761 2 13 1.77614 13 1.5V0.5C13 0.223858 12.7761 0 12.5 0H11.5ZM3 6.5C3 6.22386 3.22386 6 3.5 6H8.5C8.77614 6 9 6.22386 9 6.5V7.5C9 7.77614 8.77614 8 8.5 8H3.5C3.22386 8 3 7.77614 3 7.5V6.5ZM3.5 9C3.22386 9 3 9.22386 3 9.5V10.5C3 10.7761 3.22386 11 3.5 11H8.5C8.77614 11 9 10.7761 9 10.5V9.5C9 9.22386 8.77614 9 8.5 9H3.5ZM3 12.5C3 12.2239 3.22386 12 3.5 12H8.5C8.77614 12 9 12.2239 9 12.5V13.5C9 13.7761 8.77614 14 8.5 14H3.5C3.22386 14 3 13.7761 3 13.5V12.5ZM14.5 6C14.2239 6 14 6.22386 14 6.5V7.5C14 7.77614 14.2239 8 14.5 8H19.5C19.7761 8 20 7.77614 20 7.5V6.5C20 6.22386 19.7761 6 19.5 6H14.5ZM14 9.5C14 9.22386 14.2239 9 14.5 9H19.5C19.7761 9 20 9.22386 20 9.5V10.5C20 10.7761 19.7761 11 19.5 11H14.5C14.2239 11 14 10.7761 14 10.5V9.5ZM14.5 12C14.2239 12 14 12.2239 14 12.5V13.5C14 13.7761 14.2239 14 14.5 14H19.5C19.7761 14 20 13.7761 20 13.5V12.5C20 12.2239 19.7761 12 19.5 12H14.5ZM3 3.5C3 3.22386 3.22386 3 3.5 3H8.5C8.77614 3 9 3.22386 9 3.5V4.5C9 4.77614 8.77614 5 8.5 5H3.5C3.22386 5 3 4.77614 3 4.5V3.5ZM14.5 3C14.2239 3 14 3.22386 14 3.5V4.5C14 4.77614 14.2239 5 14.5 5H19.5C19.7761 5 20 4.77614 20 4.5V3.5C20 3.22386 19.7761 3 19.5 3H14.5ZM3 0.5C3 0.223858 3.22386 0 3.5 0H8.5C8.77614 0 9 0.223858 9 0.5V1.5C9 1.77614 8.77614 2 8.5 2H3.5C3.22386 2 3 1.77614 3 1.5V0.5ZM14.5 0C14.2239 0 14 0.223858 14 0.5V1.5C14 1.77614 14.2239 2 14.5 2H19.5C19.7761 2 20 1.77614 20 1.5V0.5C20 0.223858 19.7761 0 19.5 0H14.5Z" fill="url(#paint0_linear_276_1687)"/>
<defs>
<linearGradient id="paint0_linear_276_1687" x1="16.4286" y1="-4.5" x2="4.34617" y2="30.0212" gradientUnits="userSpaceOnUse">
<stop stop-color="#FFC700"/>
<stop offset="1" stop-color="#DF0909"/>
</linearGradient>
</defs>
</svg>
