<svg width="21" height="14" viewBox="0 0 21 14" fill="none" xmlns="http://www.w3.org/2000/svg">
<path fill-rule="evenodd" clip-rule="evenodd" d="M1 0C0.723858 0 0.5 0.223858 0.5 0.5V1.5C0.5 1.77614 0.723858 2 1 2H2C2.27614 2 2.5 1.77614 2.5 1.5V0.5C2.5 0.223858 2.27614 0 2 0H1ZM1 4C0.723858 4 0.5 4.22386 0.5 4.5V5.5C0.5 5.77614 0.723858 6 1 6H2C2.27614 6 2.5 5.77614 2.5 5.5V4.5C2.5 4.22386 2.27614 4 2 4H1ZM1 8C0.723858 8 0.5 8.22386 0.5 8.5V9.5C0.5 9.77614 0.723858 10 1 10H2C2.27614 10 2.5 9.77614 2.5 9.5V8.5C2.5 8.22386 2.27614 8 2 8H1ZM0.5 12.5C0.5 12.2239 0.723858 12 1 12H2C2.27614 12 2.5 12.2239 2.5 12.5V13.5C2.5 13.7761 2.27614 14 2 14H1C0.723858 14 0.5 13.7761 0.5 13.5V12.5ZM3.5 4.5C3.5 4.22386 3.72386 4 4 4H20C20.2761 4 20.5 4.22386 20.5 4.5V5.5C20.5 5.77614 20.2761 6 20 6H4C3.72386 6 3.5 5.77614 3.5 5.5V4.5ZM4 8C3.72386 8 3.5 8.22386 3.5 8.5V9.5C3.5 9.77614 3.72386 10 4 10H20C20.2761 10 20.5 9.77614 20.5 9.5V8.5C20.5 8.22386 20.2761 8 20 8H4ZM3.5 12.5C3.5 12.2239 3.72386 12 4 12H20C20.2761 12 20.5 12.2239 20.5 12.5V13.5C20.5 13.7761 20.2761 14 20 14H4C3.72386 14 3.5 13.7761 3.5 13.5V12.5ZM4 0C3.72386 0 3.5 0.223858 3.5 0.5V1.5C3.5 1.77614 3.72386 2 4 2H20C20.2761 2 20.5 1.77614 20.5 1.5V0.5C20.5 0.223858 20.2761 0 20 0H4Z" fill="url(#paint0_linear_174_2416)"/>
<defs>
<linearGradient id="paint0_linear_174_2416" x1="16.9286" y1="-4.5" x2="4.84617" y2="30.0212" gradientUnits="userSpaceOnUse">
<stop stop-color="#FFC700"/>
<stop offset="1" stop-color="#DF0909"/>
</linearGradient>
</defs>
</svg>
