
<svg
  width="46"
  height="33"
  viewBox="0 0 46 33"
  fill="none"
  xmlns="http://www.w3.org/2000/svg"
>
  <path
    d="M45.4477 20.4987C44.9254 18.9685 41.5108 17.8527 39.9583 17.1596C39.1969 16.8209 38.3365 16.615 37.8807 16.2699C37.4224 15.9212 37.3538 15.1683 36.7689 14.6376C36.5372 14.4271 35.858 14.6864 35.8052 14.2673C35.7231 13.629 36.4028 13.2305 36.6203 12.635C36.8427 12.0256 36.7006 12.1073 36.8633 11.3664C38.1296 11.004 38.6976 8.03558 37.8814 7.96134C38.2788 5.79604 38.6576 2.51433 37.1408 1.6561C36.8219 1.4761 36.4414 1.57653 36.1765 1.43367C36.0238 1.35269 35.8816 1.03584 35.7309 0.914535C35.012 0.335993 33.0819 0.00289696 31.9474 0C30.813 0.00318268 29.6244 0.335948 28.9065 0.914535L27.4966 1.65681C25.9799 2.51473 26.359 5.79612 26.755 7.96205C25.9399 8.03596 26.5273 11.0128 27.7943 11.3746C27.9559 12.1147 27.794 12.026 28.0164 12.6353C28.2342 13.2308 28.9143 13.6293 28.8315 14.2676C28.7778 14.6863 28.0995 14.4275 27.8678 14.6379C27.2829 15.1687 27.2143 15.9209 26.7549 16.2702C26.3005 16.6154 25.4387 16.8212 24.6774 17.16C24.2693 17.3425 23.7318 17.5539 23.1528 17.7948C23.1344 17.8184 23.1157 17.8453 23.098 17.8683C23.2685 17.9302 23.4407 18.0239 23.5984 18.1664C24.1455 18.6626 24.4238 19.2245 24.6462 19.6768C24.7396 19.8639 24.8789 20.1472 24.9524 20.2027C25.1812 20.376 25.7021 20.5652 26.2082 20.7473C26.5954 20.8884 26.9961 21.0334 27.3982 21.213C27.7303 21.3612 28.1511 21.5334 28.5966 21.7148C30.757 22.5964 33.3562 23.6627 34.554 25.2412C40.5987 25.0329 45.6131 24.1213 45.6131 23.0289C45.6131 23.0264 45.6121 23.0239 45.6121 23.0211H45.6131C45.5725 22.0631 45.7436 21.3639 45.4473 20.4986L45.4477 20.4987Z"
    fill="url(#paint0_radial_63_301)"
  />
  <path
    d="M33.9903 26.5442C33.3183 24.5787 28.9301 23.144 26.9328 22.2529C25.955 21.8158 24.8478 21.5527 24.2622 21.1081C23.672 20.6594 23.5839 19.6922 22.8313 19.0093C22.5332 18.7391 21.6608 19.0726 21.5919 18.5337C21.4858 17.7129 22.36 17.2019 22.6404 16.4342C22.9272 15.6516 22.7437 15.7559 22.9534 14.8032C24.5811 14.3378 25.3125 10.5214 24.2629 10.4256C24.7739 7.64144 25.2615 3.42229 23.3092 2.31855C22.9007 2.08727 22.412 2.2167 22.0697 2.0321C21.8749 1.92814 21.691 1.5204 21.4972 1.3655C20.5735 0.622169 18.0924 0.192866 16.6333 0.189697C15.1742 0.193234 13.6469 0.62254 12.7232 1.3655L10.9108 2.31924C8.96012 3.42289 9.44708 7.64177 9.95704 10.4263C8.90816 10.5218 9.66387 14.3477 11.2931 14.8135C11.5021 15.7655 11.2927 15.6516 11.5792 16.4341C11.8596 17.2015 12.7331 17.7122 12.6281 18.5336C12.5587 19.0726 11.686 18.7391 11.3879 19.0093C10.635 19.6921 10.5473 20.6593 9.95669 21.1081C9.37249 21.5526 8.26559 21.8157 7.28606 22.2529C5.28942 23.144 0.900156 24.5787 0.228604 26.5442C-0.15155 27.6581 0.0698231 28.5564 0.0167815 29.7873H0.0171352C0.0171352 29.7908 0.0167815 29.794 0.0167815 29.7969C0.0167815 31.3999 7.45618 32.6998 16.6336 32.6998C25.8106 32.6998 34.2037 31.4005 34.2037 29.7969C34.2037 29.7937 34.2033 29.7908 34.2033 29.7873H34.2037C34.1495 28.5559 34.3716 27.6584 33.9908 26.5442L33.9903 26.5442Z"
    fill="url(#paint1_radial_63_301)"
  />
  <defs>
    <radialGradient
      id="paint0_radial_63_301"
      cx="0"
      cy="0"
      r="1"
      gradientUnits="userSpaceOnUse"
      gradientTransform="translate(38.2642 4.73273) rotate(100.773) scale(20.8764 18.7987)"
    >
      <stop stop-color="#1AE3D7" />
      <stop offset="1" stop-color="#0945DF" />
    </radialGradient>
    <radialGradient
      id="paint1_radial_63_301"
      cx="0"
      cy="0"
      r="1"
      gradientUnits="userSpaceOnUse"
      gradientTransform="translate(23.0372 6.28534) rotate(102.648) scale(27.0713 28.3619)"
    >
      <stop stop-color="#1AE3D7" />
      <stop offset="1" stop-color="#0945DF" />
    </radialGradient>
  </defs>
</svg>
