<svg width="35" height="31" viewBox="0 0 35 31" fill="none" xmlns="http://www.w3.org/2000/svg">
<path d="M34.5337 26.3501L20.1638 1.55C19.5744 0.590543 18.5795 0 17.4741 0C16.3686 0 15.3737 0.590537 14.7844 1.55L0.414439 26.3501C-0.138146 27.3095 -0.138146 28.4905 0.414439 29.45C0.967024 30.4095 1.96197 31 3.10413 31H31.9177C33.0232 31 34.0548 30.4095 34.6074 29.45C35.1603 28.4905 35.1233 27.3095 34.5339 26.3501H34.5337ZM17.474 7.82383C18.7267 7.82383 19.7584 8.89393 19.6849 10.1489L19.2428 18.7108C19.2061 19.6703 18.4322 20.4086 17.4743 20.4086C16.5164 20.4086 15.7425 19.6705 15.7058 18.7108L15.2632 10.1489C15.1897 8.8571 16.2213 7.82383 17.4741 7.82383H17.474ZM17.474 26.6822C16.1843 26.6822 15.1527 25.6489 15.1527 24.3571C15.1527 23.0653 16.1843 22.0321 17.474 22.0321C18.7637 22.0321 19.7954 23.0654 19.7954 24.3571C19.7954 25.6489 18.7637 26.6822 17.474 26.6822Z" fill="white"/>
</svg>
