<svg width="35" height="32" viewBox="0 0 35 32" fill="none" xmlns="http://www.w3.org/2000/svg">
<path d="M34.5337 26.8501L20.1638 2.05C19.5744 1.09054 18.5795 0.5 17.4741 0.5C16.3686 0.5 15.3737 1.09054 14.7844 2.05L0.414439 26.8501C-0.138146 27.8095 -0.138146 28.9905 0.414439 29.95C0.967024 30.9095 1.96197 31.5 3.10413 31.5H31.9177C33.0232 31.5 34.0548 30.9095 34.6074 29.95C35.1603 28.9905 35.1233 27.8095 34.5339 26.8501H34.5337ZM17.474 8.32383C18.7267 8.32383 19.7584 9.39393 19.6849 10.6489L19.2428 19.2108C19.2061 20.1703 18.4322 20.9086 17.4743 20.9086C16.5164 20.9086 15.7425 20.1705 15.7058 19.2108L15.2632 10.6489C15.1897 9.3571 16.2213 8.32383 17.4741 8.32383H17.474ZM17.474 27.1822C16.1843 27.1822 15.1527 26.1489 15.1527 24.8571C15.1527 23.5653 16.1843 22.5321 17.474 22.5321C18.7637 22.5321 19.7954 23.5654 19.7954 24.8571C19.7954 26.1489 18.7637 27.1822 17.474 27.1822Z" fill="white"/>
</svg>
