<svg width="38" height="28" viewBox="0 0 38 28" fill="none" xmlns="http://www.w3.org/2000/svg">
<path d="M26.8242 28.0003V23.6926H14.53C14.2336 23.6926 13.9492 23.579 13.7398 23.3772C13.5303 23.1753 13.4124 22.9014 13.4124 22.6157V11.3706C13.4124 11.0387 13.6918 10.7695 14.0362 10.7695H17.2592C17.6036 10.7695 17.883 11.0387 17.883 11.3706L17.8831 19.3849H26.8242V15.0772L38.0007 21.5388L26.8242 28.0003Z" fill="url(#paint0_linear_2824_2824)"/>
<path d="M23.4712 4.30778C24.0885 4.30778 24.5888 4.78986 24.5888 5.38461V16.6743C24.5888 16.8246 24.5269 16.9689 24.4164 17.075C24.3063 17.1815 24.1568 17.2411 24.0009 17.2411L20.7061 17.2422C20.3816 17.2422 20.1183 16.9885 20.1183 16.6755V8.61538H11.1771V12.9231L0.000610352 6.46154L11.1771 0V4.30778H23.4712Z" fill="url(#paint1_linear_2824_2824)"/>
<defs>
<linearGradient id="paint0_linear_2824_2824" x1="33.6099" y1="5.23107" x2="18.7264" y2="47.7084" gradientUnits="userSpaceOnUse">
<stop stop-color="#FFC700"/>
<stop offset="1" stop-color="#DF0909"/>
</linearGradient>
<linearGradient id="paint1_linear_2824_2824" x1="19.2085" y1="-4.56486" x2="12.4264" y2="23.024" gradientUnits="userSpaceOnUse">
<stop stop-color="#1AE3D7"/>
<stop offset="1" stop-color="#0945DF"/>
</linearGradient>
</defs>
</svg>
