<svg width="28" height="28" viewBox="0 0 28 28" fill="none" xmlns="http://www.w3.org/2000/svg">
<path d="M10 20.8365L4.49132 27.4751C2.82106 29.4881 -1.48807 25.1792 0.524856 23.5085L7.16341 18L10 20.8365Z" fill="url(#paint0_linear_2998_3029)"/>
<path fill-rule="evenodd" clip-rule="evenodd" d="M12.7027 17.0274L10.9757 18.7544L9.24567 17.0241L10.9725 15.2971C8.09574 11.5713 8.36555 6.19918 11.7826 2.78251C15.4926 -0.927503 21.5075 -0.927503 25.2175 2.78251C28.9275 6.49252 28.9275 12.5076 25.2175 16.2177C21.8006 19.6343 16.4287 19.9044 12.7027 17.0274ZM13.1395 14.8603C10.1791 11.8998 10.1791 7.09996 13.1395 4.13948C16.1 1.17899 20.9001 1.17899 23.8603 4.13948C26.8208 7.09996 26.8208 11.8998 23.8603 14.8603C20.8998 17.8208 16.1 17.8208 13.1395 14.8603Z" fill="url(#paint1_linear_2998_3029)"/>
<path d="M20 4H17V8H13V11H17V15H20V11H24V8H20V4Z" fill="black"/>
<defs>
<linearGradient id="paint0_linear_2998_3029" x1="1.78571" y1="14.7857" x2="12.8571" y2="36.9286" gradientUnits="userSpaceOnUse">
<stop stop-color="#FFC700"/>
<stop offset="1" stop-color="#DF0909"/>
</linearGradient>
<linearGradient id="paint1_linear_2998_3029" x1="13.1575" y1="-5.03023" x2="23.2222" y2="23.6801" gradientUnits="userSpaceOnUse">
<stop stop-color="#1AE3D7"/>
<stop offset="1" stop-color="#0945DF"/>
</linearGradient>
</defs>
</svg>
