<svg width="28" height="22" viewBox="0 0 28 22" fill="none" xmlns="http://www.w3.org/2000/svg">
<path d="M14.5054 13.9742H9.42807L8.36579 17.0013H5.99817L10.9495 4H12.993L17.9533 17.0013H15.5767L14.5054 13.9742ZM10.0672 12.1526H13.8662L11.9667 6.75921L10.0672 12.1526Z" fill="url(#paint0_linear_2714_3551)"/>
<path d="M25.0562 17.0013C24.9602 16.8168 24.8761 16.5161 24.8041 16.0994C24.1079 16.8197 23.2557 17.1799 22.2475 17.1799C21.2692 17.1799 20.471 16.9031 19.8528 16.3495C19.2347 15.7958 18.9256 15.1112 18.9256 14.2957C18.9256 13.2658 19.3097 12.477 20.0779 11.9294C20.8521 11.3757 21.9564 11.0989 23.3908 11.0989H24.7321V10.4649C24.7321 9.96489 24.5911 9.56604 24.309 9.26839C24.0269 8.96479 23.5978 8.81299 23.0217 8.81299C22.5235 8.81299 22.1154 8.938 21.7973 9.18802C21.4792 9.4321 21.3202 9.74463 21.3202 10.1256H19.1326C19.1326 9.5958 19.3097 9.10171 19.6638 8.64333C20.0179 8.17899 20.498 7.81586 21.1041 7.55393C21.7163 7.292 22.3975 7.16103 23.1477 7.16103C24.288 7.16103 25.1972 7.44678 25.8754 8.01826C26.5536 8.5838 26.9017 9.3815 26.9197 10.4114V14.7689C26.9197 15.6381 27.0427 16.3316 27.2888 16.8495V17.0013H25.0562ZM22.6526 15.4387C23.0847 15.4387 23.4898 15.3345 23.8679 15.1261C24.252 14.9178 24.5401 14.638 24.7321 14.2868V12.4651H23.5528C22.7426 12.4651 22.1334 12.605 21.7253 12.8848C21.3172 13.1646 21.1132 13.5605 21.1132 14.0724C21.1132 14.4892 21.2512 14.8225 21.5273 15.0725C21.8093 15.3166 22.1844 15.4387 22.6526 15.4387Z" fill="url(#paint1_linear_2714_3551)"/>
<path d="M2 2H22V5.6208H24V0H0V22H24V18.3602H22V20H2V2Z" fill="url(#paint2_linear_2714_3551)"/>
<defs>
<linearGradient id="paint0_linear_2714_3551" x1="23.4869" y1="-0.236397" x2="13.1826" y2="33.0543" gradientUnits="userSpaceOnUse">
<stop stop-color="#FFC700"/>
<stop offset="1" stop-color="#DF0909"/>
</linearGradient>
<linearGradient id="paint1_linear_2714_3551" x1="23.4869" y1="-0.236397" x2="13.1826" y2="33.0543" gradientUnits="userSpaceOnUse">
<stop stop-color="#FFC700"/>
<stop offset="1" stop-color="#DF0909"/>
</linearGradient>
<linearGradient id="paint2_linear_2714_3551" x1="18.7484" y1="-5.82447" x2="7.87565" y2="28.0105" gradientUnits="userSpaceOnUse">
<stop stop-color="#1AE3D7"/>
<stop offset="1" stop-color="#0945DF"/>
</linearGradient>
</defs>
</svg>
