<svg width="30" height="22" viewBox="0 0 30 22" fill="none" xmlns="http://www.w3.org/2000/svg">
<path fill-rule="evenodd" clip-rule="evenodd" d="M0 6V0H6V6L0 6ZM0 14V8H6V14H0ZM0 16V22H6V16H0ZM14 10L8 10V8H14V10ZM8 22H14V20H8V22ZM22 10L16 10V8H22V10ZM16 22H22V20H16V22ZM30 10L24 10V8H30V10ZM24 22H30V20H24V22ZM14 6L8 6V4L14 4V6ZM8 18H14V16H8V18ZM22 6L16 6V4L22 4V6ZM16 18H22V16H16V18ZM30 6L24 6V4L30 4V6ZM24 18H30V16H24V18ZM14 2L8 2V0H14V2ZM8 14L14 14V12H8V14ZM22 2L16 2V0H22V2ZM16 14L22 14V12H16V14ZM30 2L24 2V0H30V2ZM24 14L30 14V12H24V14Z" fill="black"/>
</svg>
