<svg width="23" height="23" viewBox="0 0 23 23" fill="none" xmlns="http://www.w3.org/2000/svg">
<path d="M16.0495 21.2703C16.4783 21.0561 16.7464 20.6272 16.6926 20.1984L16.6391 19.0192C16.9607 18.805 17.2822 18.5369 17.5503 18.2688L18.6761 18.5904C19.1049 18.6977 19.5872 18.5369 19.8553 18.215C20.1233 17.8396 20.1768 17.3573 19.9626 16.9285L19.4264 15.91C19.6407 15.5885 19.8018 15.2131 19.9626 14.8381L21.0884 14.6239C21.5172 14.5166 21.8922 14.195 21.9995 13.7662C22.1068 13.3373 21.946 12.855 21.5707 12.587L20.6595 11.8901V11.3004V10.7108L21.5707 10.0139C21.946 9.74583 22.1068 9.26353 21.9995 8.83471C21.8922 8.40586 21.5172 8.03087 21.0884 7.97703L20.0695 7.65623C19.9087 7.28085 19.7479 6.90585 19.5333 6.58433L20.0695 5.56583C20.2837 5.13698 20.2302 4.65468 19.9622 4.27933C19.6941 3.90395 19.2118 3.74318 18.783 3.90395L17.6038 4.17203C17.2822 3.90395 17.0142 3.63588 16.6926 3.42165L16.7461 2.24245C16.7461 1.76013 16.478 1.3313 16.103 1.17054C15.7276 1.00977 15.1919 1.00977 14.8165 1.33132L13.9588 2.0817C13.5834 1.97439 13.2084 1.86746 12.7796 1.81362L12.2973 0.741715C12.1365 0.312867 11.7077 0.0447998 11.2254 0.0447998C10.7431 0.0447998 10.3677 0.312877 10.1535 0.741715L9.67118 1.81362C9.2958 1.86708 8.86734 1.97439 8.49198 2.0817L7.6343 1.33132C7.25892 1.00977 6.77661 0.955933 6.3478 1.17054C5.91895 1.38478 5.65089 1.81363 5.70472 2.24245L5.75818 3.42165C5.43664 3.63589 5.1151 3.90396 4.84703 4.17203L3.72162 3.90395C3.29277 3.79665 2.81047 3.95742 2.48892 4.27933C2.22084 4.65472 2.16737 5.13702 2.38161 5.56583L2.91776 6.58433C2.70353 6.90587 2.54238 7.28124 2.38161 7.65623L1.25582 7.87047C0.826972 7.97777 0.451973 8.29931 0.344668 8.72815C0.237363 9.15699 0.398133 9.63931 0.773516 9.90735L1.68467 10.6043V11.1939V11.7835L0.773516 12.4804C0.398134 12.7485 0.237363 13.2308 0.344668 13.6596C0.451973 14.1954 0.827355 14.5169 1.25619 14.6238L2.38199 14.8381C2.54276 15.2135 2.70353 15.5885 2.91814 15.91L2.38199 16.9285C2.16775 17.3573 2.22121 17.8396 2.48929 18.215C2.75737 18.5903 3.23967 18.7511 3.66849 18.5904L4.79428 18.2688C5.06236 18.5369 5.3839 18.805 5.70543 19.0192L5.65197 20.1984C5.65197 20.6807 5.92004 21.1096 6.29505 21.2703C6.7239 21.4845 7.20621 21.4311 7.58155 21.1095L8.43924 20.3592C8.81462 20.4665 9.18962 20.5734 9.61844 20.6272L10.1007 21.6991C10.2615 22.128 10.6904 22.396 11.1727 22.396C11.655 22.396 12.0303 22.128 12.2446 21.6991L12.7269 20.6272C13.1023 20.5738 13.5307 20.4665 13.9061 20.3592L14.7638 21.1095C15.1384 21.4311 15.6742 21.4845 16.0496 21.2703L16.0495 21.2703ZM11.2257 17.4645C7.79529 17.4645 4.95449 14.6772 4.95449 11.1933C4.95449 7.76293 7.74178 4.92213 11.2257 4.92213C14.6561 4.92213 17.4969 7.70943 17.4969 11.1933C17.4969 14.6775 14.6561 17.4645 11.2257 17.4645Z" fill="white"/>
</svg>
