<svg width="47" height="50" viewBox="0 0 47 50" fill="none" xmlns="http://www.w3.org/2000/svg">
<path d="M16.0495 36.2703C16.4783 36.0561 16.7464 35.6272 16.6926 35.1984L16.6391 34.0192C16.9607 33.805 17.2822 33.5369 17.5503 33.2688L18.6761 33.5904C19.1049 33.6977 19.5872 33.5369 19.8553 33.215C20.1233 32.8396 20.1768 32.3573 19.9626 31.9285L19.4264 30.91C19.6407 30.5885 19.8018 30.2131 19.9626 29.8381L21.0884 29.6239C21.5172 29.5166 21.8922 29.195 21.9995 28.7662C22.1068 28.3373 21.946 27.855 21.5707 27.587L20.6595 26.8901V26.3004V25.7108L21.5707 25.0139C21.946 24.7458 22.1068 24.2635 21.9995 23.8347C21.8922 23.4059 21.5172 23.0309 21.0884 22.977L20.0695 22.6562C19.9087 22.2808 19.7479 21.9058 19.5333 21.5843L20.0695 20.5658C20.2837 20.137 20.2302 19.6547 19.9622 19.2793C19.6941 18.904 19.2118 18.7432 18.783 18.904L17.6038 19.172C17.2822 18.904 17.0142 18.6359 16.6926 18.4216L16.7461 17.2424C16.7461 16.7601 16.478 16.3313 16.103 16.1705C15.7276 16.0098 15.1919 16.0098 14.8165 16.3313L13.9588 17.0817C13.5834 16.9744 13.2084 16.8675 12.7796 16.8136L12.2973 15.7417C12.1365 15.3129 11.7077 15.0448 11.2254 15.0448C10.7431 15.0448 10.3677 15.3129 10.1535 15.7417L9.67118 16.8136C9.2958 16.8671 8.86734 16.9744 8.49198 17.0817L7.6343 16.3313C7.25892 16.0098 6.77661 15.9559 6.3478 16.1705C5.91895 16.3848 5.65089 16.8136 5.70472 17.2424L5.75818 18.4216C5.43664 18.6359 5.1151 18.904 4.84703 19.172L3.72162 18.904C3.29277 18.7966 2.81047 18.9574 2.48892 19.2793C2.22084 19.6547 2.16737 20.137 2.38161 20.5658L2.91776 21.5843C2.70353 21.9059 2.54238 22.2812 2.38161 22.6562L1.25582 22.8705C0.826972 22.9778 0.451973 23.2993 0.344668 23.7282C0.237363 24.157 0.398133 24.6393 0.773516 24.9074L1.68467 25.6043V26.1939V26.7835L0.773516 27.4804C0.398134 27.7485 0.237363 28.2308 0.344668 28.6596C0.451973 29.1954 0.827355 29.5169 1.25619 29.6238L2.38199 29.8381C2.54276 30.2135 2.70353 30.5885 2.91814 30.91L2.38199 31.9285C2.16775 32.3573 2.22121 32.8396 2.48929 33.215C2.75737 33.5903 3.23967 33.7511 3.66849 33.5904L4.79428 33.2688C5.06236 33.5369 5.3839 33.805 5.70543 34.0192L5.65197 35.1984C5.65197 35.6807 5.92004 36.1096 6.29505 36.2703C6.7239 36.4845 7.20621 36.4311 7.58155 36.1095L8.43924 35.3592C8.81462 35.4665 9.18962 35.5734 9.61844 35.6272L10.1007 36.6991C10.2615 37.128 10.6904 37.396 11.1727 37.396C11.655 37.396 12.0303 37.128 12.2446 36.6991L12.7269 35.6272C13.1023 35.5738 13.5307 35.4665 13.9061 35.3592L14.7638 36.1095C15.1384 36.4311 15.6742 36.4845 16.0496 36.2703L16.0495 36.2703ZM11.2257 32.4645C7.79529 32.4645 4.95449 29.6772 4.95449 26.1933C4.95449 22.7629 7.74178 19.9221 11.2257 19.9221C14.6561 19.9221 17.4969 22.7094 17.4969 26.1933C17.4969 29.6775 14.6561 32.4645 11.2257 32.4645Z" fill="white"/>
<path d="M29.9857 39.0576L29.0211 38.8968C28.9676 38.6826 28.8603 38.5214 28.8068 38.3072L29.3964 37.5568C29.718 37.128 29.718 36.5922 29.3964 36.1633C29.0749 35.7345 28.5387 35.5737 28.0564 35.7879L27.1453 36.1095C26.9845 35.9487 26.8237 35.8414 26.663 35.7341L26.7703 34.7695C26.8237 34.2333 26.556 33.751 26.0734 33.5368C25.591 33.3225 25.0549 33.4833 24.7334 33.8583L24.0903 34.6087C23.876 34.5552 23.6614 34.5552 23.4472 34.5014L23.0718 33.5902C22.9103 33.1079 22.428 32.8399 21.8918 32.8933C21.3557 32.9468 20.9807 33.3222 20.8733 33.8579L20.7126 34.8225C20.4983 34.876 20.3372 34.9833 20.1229 35.0368L19.3726 34.4479C18.9437 34.1264 18.408 34.1264 17.9791 34.4479C17.5502 34.7695 17.3894 35.3056 17.6037 35.7879L17.9252 36.6991C17.7645 36.8598 17.6571 37.0206 17.5498 37.1814L16.5317 37.0741C15.9956 37.0206 15.5132 37.2883 15.299 37.771C15.0848 38.2533 15.2456 38.7895 15.6206 39.111L16.3709 39.7541C16.3175 39.9683 16.3175 40.1829 16.2636 40.3972L15.3525 40.7725C14.9236 40.9333 14.6559 41.416 14.7094 41.9518C14.7629 42.4879 15.1383 42.8629 15.674 42.9702L16.6386 43.131C16.6921 43.3453 16.7994 43.5064 16.8529 43.7206L16.2632 44.471C15.9417 44.8999 15.9417 45.4356 16.2632 45.8645C16.5848 46.2934 17.1209 46.4541 17.6032 46.2399L18.5144 45.9184C18.6752 46.0791 18.8359 46.1864 18.9967 46.2937L18.8894 47.2584C18.8359 47.7945 19.1036 48.2769 19.5863 48.4911C20.0686 48.7053 20.6048 48.5445 20.9263 48.1695L21.5694 47.4191C21.7836 47.4726 21.9983 47.4726 22.2125 47.5264L22.5879 48.4376C22.7486 48.8664 23.1775 49.1345 23.6598 49.1345H23.8205C24.3567 49.081 24.7317 48.7057 24.839 48.1699L24.9998 47.2053C25.2141 47.1518 25.3752 47.0445 25.5894 46.9911L26.3398 47.5807C26.7687 47.9022 27.3044 47.9022 27.7333 47.5807C28.1622 47.2591 28.3229 46.723 28.1087 46.2407L27.7872 45.3295C27.9479 45.1687 28.0552 45.008 28.1625 44.8472L29.1271 44.9545C29.6633 45.008 30.1456 44.7403 30.3599 44.2576C30.5741 43.7753 30.4133 43.2391 30.0383 42.9176L29.2879 42.2745C29.3414 42.0603 29.3414 41.8457 29.3952 41.6314L30.3064 41.256C30.7887 41.0418 31.0568 40.5591 31.0033 40.0768C30.8967 39.5399 30.4679 39.1646 29.9856 39.0577L29.9857 39.0576ZM22.803 44.7926C20.7126 44.7926 18.9972 43.0772 18.9972 40.9868C18.9972 38.8964 20.7126 37.181 22.803 37.181C24.8934 37.181 26.6088 38.8964 26.6088 40.9868C26.6088 43.0776 24.8934 44.7926 22.803 44.7926Z" fill="white"/>
<path d="M46.1729 15.5272L45.2083 14.8302V14.5087C45.2083 14.2406 45.2083 13.9191 45.1548 13.651L46.1194 12.9006C46.4948 12.6326 46.6556 12.2037 46.5483 11.7748C46.441 11.346 46.1194 10.971 45.6906 10.8637L44.5114 10.5421C44.4041 10.1668 44.2433 9.79177 44.0825 9.47024L44.7256 8.45175C44.9399 8.07636 44.9937 7.59406 44.7256 7.21904C44.4575 6.84366 44.0825 6.62942 43.6537 6.68289L42.421 6.79019C42.1529 6.46865 41.9387 6.20058 41.6706 5.93251L41.9387 4.75331C42.046 4.32446 41.8852 3.89562 41.5099 3.57411C41.1883 3.30603 40.706 3.25257 40.2772 3.41334L39.2053 3.94949C38.8837 3.73525 38.5083 3.57411 38.1868 3.35987L38.026 2.18067C37.9721 1.75182 37.7041 1.37682 37.2756 1.21606C36.8468 1.05529 36.4179 1.1626 36.0964 1.48414L35.2387 2.34183C34.8633 2.28836 34.4883 2.18105 34.0595 2.18105L33.5234 1.10915C33.3091 0.733768 32.8803 0.466064 32.4515 0.466064C32.0226 0.466064 31.5938 0.734141 31.433 1.10915L30.9507 2.18105C30.5753 2.23452 30.1468 2.34182 29.7715 2.39529L28.8603 1.64453C28.5388 1.32298 28.0565 1.26915 27.6811 1.43029C27.2523 1.59106 26.9842 1.96644 26.9307 2.3949L26.8234 3.5741C26.5019 3.78834 26.1265 3.94948 25.8049 4.16372L24.6791 3.6814C24.2503 3.52063 23.8214 3.5741 23.4464 3.89564C23.1249 4.16372 22.9641 4.64602 23.071 5.07484L23.3926 6.25404C23.1245 6.52212 22.9103 6.84366 22.6422 7.16519L21.4095 7.11173C20.9807 7.11173 20.5518 7.32597 20.3376 7.70135C20.1234 8.07673 20.1234 8.55903 20.3911 8.93405L21.088 9.89866C20.9272 10.274 20.8199 10.649 20.7126 11.0245L19.5868 11.3998C19.158 11.5071 18.8364 11.8821 18.783 12.311C18.7295 12.7398 18.8903 13.1687 19.2653 13.4368L20.2299 14.1337V14.4552C20.2299 14.7233 20.2299 15.0449 20.2833 15.3129L19.3187 16.0633C18.9434 16.3314 18.7826 16.7602 18.8899 17.1891C18.9972 17.6179 19.3187 17.9929 19.7476 18.1002L20.9268 18.4218C21.0341 18.7972 21.1949 19.1722 21.3556 19.4937L20.7125 20.5122C20.4983 20.8876 20.4445 21.3699 20.7125 21.7449C20.9268 22.1203 21.3556 22.3345 21.7844 22.281L23.0171 22.1737C23.2852 22.4953 23.4995 22.7634 23.7675 23.0314L23.4994 24.2106C23.3921 24.6395 23.5529 25.0683 23.9283 25.3898C24.2498 25.6579 24.7321 25.7114 25.161 25.5506L26.2329 25.0683C26.5544 25.2825 26.9298 25.4437 27.2514 25.6579L27.4122 26.8371C27.4656 27.2659 27.7876 27.6409 28.216 27.8017C28.6449 27.9625 29.0737 27.8552 29.3952 27.5336L30.2529 26.6759C30.6283 26.7294 31.0033 26.8367 31.4321 26.8367L31.9683 27.9086C32.1825 28.284 32.5579 28.5517 32.9868 28.5517C33.4156 28.5517 33.8444 28.2836 34.0052 27.8548L34.4876 26.7829C34.8629 26.7294 35.2914 26.6221 35.6668 26.5687L36.5779 27.3725C36.8995 27.694 37.3818 27.7479 37.7571 27.5867C38.186 27.426 38.454 27.0506 38.5075 26.6221L38.6148 25.4429C38.9363 25.2287 39.3117 25.0675 39.6333 24.8533L40.7591 25.3356C41.1879 25.4964 41.6168 25.4429 41.9918 25.1214C42.3133 24.8533 42.4741 24.371 42.3672 23.9422L42.0456 22.763C42.3137 22.4949 42.5279 22.1734 42.796 21.8518L44.0287 21.9053C44.4576 21.9053 44.8864 21.6911 45.1006 21.3157C45.3148 20.9403 45.2614 20.458 45.0472 20.083L44.3502 19.1184C44.511 18.743 44.6183 18.368 44.7256 17.9926L45.8514 17.6172C46.2803 17.5099 46.6018 17.1349 46.6553 16.706C46.7091 16.2237 46.5483 15.7953 46.1729 15.5272L46.1729 15.5272ZM32.7729 23.6207C27.7344 23.6207 23.661 19.5472 23.661 14.5088C23.661 9.47036 27.7345 5.39685 32.7729 5.39685C37.8113 5.39685 41.8848 9.47036 41.8848 14.5088C41.8848 19.5472 37.8113 23.6207 32.7729 23.6207Z" fill="white"/>
</svg>
