<svg width="18" height="18" viewBox="0 0 18 18" fill="none" xmlns="http://www.w3.org/2000/svg">
<path d="M15.9857 7.05759L15.0211 6.89682C14.9676 6.68258 14.8603 6.52143 14.8068 6.3072L15.3964 5.55682C15.718 5.12797 15.718 4.59221 15.3964 4.16331C15.0749 3.73446 14.5387 3.57369 14.0564 3.78793L13.1453 4.10947C12.9845 3.9487 12.8237 3.8414 12.663 3.73409L12.7703 2.76948C12.8237 2.23333 12.556 1.75099 12.0734 1.53678C11.591 1.32254 11.0549 1.48331 10.7334 1.85832L10.0903 2.6087C9.87603 2.55523 9.66142 2.55523 9.44718 2.50139L9.0718 1.59024C8.91028 1.10793 8.42797 0.839862 7.89184 0.893328C7.35568 0.946793 6.98068 1.32218 6.87334 1.85794L6.71257 2.82254C6.49833 2.87601 6.33719 2.98332 6.12295 3.03678L5.37257 2.44792C4.94372 2.12637 4.40796 2.12637 3.97906 2.44792C3.55021 2.76946 3.38944 3.3056 3.60368 3.78792L3.92522 4.69907C3.76445 4.85984 3.65715 5.02062 3.54984 5.18139L2.53173 5.07408C1.99557 5.02061 1.51323 5.28832 1.29902 5.771C1.08479 6.25331 1.24556 6.78949 1.62057 7.111L2.37095 7.75408C2.31748 7.96832 2.31748 8.18293 2.26364 8.39717L1.35249 8.77255C0.923641 8.93332 0.655949 9.41601 0.709405 9.95175C0.762871 10.4879 1.13825 10.8629 1.67401 10.9702L2.63862 11.131C2.69209 11.3453 2.79939 11.5064 2.85286 11.7206L2.26324 12.471C1.9417 12.8999 1.9417 13.4356 2.26324 13.8645C2.58478 14.2934 3.12093 14.4541 3.60324 14.2399L4.51439 13.9184C4.67517 14.0791 4.83594 14.1864 4.99671 14.2937L4.8894 15.2584C4.83594 15.7945 5.10364 16.2769 5.58632 16.4911C6.06863 16.7053 6.60481 16.5445 6.92632 16.1695L7.5694 15.4191C7.78364 15.4726 7.99825 15.4726 8.21249 15.5264L8.58787 16.4376C8.74864 16.8664 9.17749 17.1345 9.65978 17.1345H9.82055C10.3567 17.081 10.7317 16.7057 10.839 16.1699L10.9998 15.2053C11.2141 15.1518 11.3752 15.0445 11.5894 14.9911L12.3398 15.5807C12.7687 15.9022 13.3044 15.9022 13.7333 15.5807C14.1622 15.2591 14.3229 14.723 14.1087 14.2407L13.7872 13.3295C13.9479 13.1687 14.0552 13.008 14.1625 12.8472L15.1271 12.9545C15.6633 13.008 16.1456 12.7403 16.3599 12.2576C16.5741 11.7753 16.4133 11.2391 16.0383 10.9176L15.2879 10.2745C15.3414 10.0603 15.3414 9.84566 15.3952 9.63142L16.3064 9.25604C16.7887 9.0418 17.0568 8.55912 17.0033 8.07684C16.8967 7.53994 16.4679 7.16457 15.9856 7.05767L15.9857 7.05759ZM8.80297 12.7926C6.71257 12.7926 4.99718 11.0772 4.99718 8.98681C4.99718 6.8964 6.71257 5.18101 8.80297 5.18101C10.8934 5.18101 12.6088 6.8964 12.6088 8.98681C12.6088 11.0776 10.8934 12.7926 8.80297 12.7926Z" fill="white"/>
</svg>
