<svg width="29" height="29" viewBox="0 0 29 29" fill="none" xmlns="http://www.w3.org/2000/svg">
<path d="M28.1729 15.5272L27.2083 14.8302V14.5087C27.2083 14.2406 27.2083 13.9191 27.1548 13.651L28.1194 12.9006C28.4948 12.6326 28.6556 12.2037 28.5483 11.7748C28.441 11.346 28.1194 10.971 27.6906 10.8637L26.5114 10.5421C26.4041 10.1668 26.2433 9.79177 26.0825 9.47024L26.7256 8.45175C26.9399 8.07636 26.9937 7.59406 26.7256 7.21904C26.4575 6.84366 26.0825 6.62942 25.6537 6.68289L24.421 6.79019C24.1529 6.46865 23.9387 6.20058 23.6706 5.93251L23.9387 4.75331C24.046 4.32446 23.8852 3.89562 23.5099 3.57411C23.1883 3.30603 22.706 3.25257 22.2772 3.41334L21.2053 3.94949C20.8837 3.73525 20.5083 3.57411 20.1868 3.35987L20.026 2.18067C19.9721 1.75182 19.7041 1.37682 19.2756 1.21606C18.8468 1.05529 18.4179 1.1626 18.0964 1.48414L17.2387 2.34183C16.8633 2.28836 16.4883 2.18105 16.0595 2.18105L15.5234 1.10915C15.3091 0.733768 14.8803 0.466064 14.4515 0.466064C14.0226 0.466064 13.5938 0.734141 13.433 1.10915L12.9507 2.18105C12.5753 2.23452 12.1468 2.34182 11.7715 2.39529L10.8603 1.64453C10.5388 1.32298 10.0565 1.26915 9.6811 1.43029C9.25225 1.59106 8.98419 1.96644 8.93072 2.3949L8.82342 3.5741C8.50187 3.78834 8.1265 3.94948 7.80492 4.16372L6.67913 3.6814C6.25028 3.52063 5.82144 3.5741 5.44642 3.89564C5.12488 4.16372 4.96411 4.64602 5.07104 5.07484L5.39258 6.25404C5.12451 6.52212 4.91027 6.84366 4.64221 7.16519L3.4095 7.11173C2.98065 7.11173 2.55182 7.32597 2.3376 7.70135C2.12338 8.07673 2.12336 8.55903 2.39106 8.93405L3.08798 9.89866C2.92721 10.274 2.8199 10.649 2.71259 11.0245L1.5868 11.3998C1.15796 11.5071 0.836423 11.8821 0.782957 12.311C0.729491 12.7398 0.890264 13.1687 1.26527 13.4368L2.22988 14.1337V14.4552C2.22988 14.7233 2.22988 15.0449 2.28334 15.3129L1.31874 16.0633C0.943353 16.3314 0.782582 16.7602 0.889887 17.1891C0.997193 17.6179 1.31874 17.9929 1.74757 18.1002L2.92677 18.4218C3.03408 18.7972 3.19485 19.1722 3.35562 19.4937L2.71254 20.5122C2.4983 20.8876 2.44446 21.3699 2.71254 21.7449C2.92677 22.1203 3.35562 22.3345 3.78444 22.281L5.01714 22.1737C5.28522 22.4953 5.49946 22.7634 5.76753 23.0314L5.49945 24.2106C5.39214 24.6395 5.55291 25.0683 5.9283 25.3898C6.24984 25.6579 6.73214 25.7114 7.161 25.5506L8.2329 25.0683C8.55445 25.2825 8.92982 25.4437 9.2514 25.6579L9.41217 26.8371C9.46564 27.2659 9.78755 27.6409 10.216 27.8017C10.6449 27.9625 11.0737 27.8552 11.3952 27.5336L12.2529 26.6759C12.6283 26.7294 13.0033 26.8367 13.4321 26.8367L13.9683 27.9086C14.1825 28.284 14.5579 28.5517 14.9868 28.5517C15.4156 28.5517 15.8444 28.2836 16.0052 27.8548L16.4876 26.7829C16.8629 26.7294 17.2914 26.6221 17.6668 26.5687L18.5779 27.3725C18.8995 27.694 19.3818 27.7479 19.7571 27.5867C20.186 27.426 20.454 27.0506 20.5075 26.6221L20.6148 25.4429C20.9363 25.2287 21.3117 25.0675 21.6333 24.8533L22.7591 25.3356C23.1879 25.4964 23.6168 25.4429 23.9918 25.1214C24.3133 24.8533 24.4741 24.371 24.3672 23.9422L24.0456 22.763C24.3137 22.4949 24.5279 22.1734 24.796 21.8518L26.0287 21.9053C26.4576 21.9053 26.8864 21.6911 27.1006 21.3157C27.3148 20.9403 27.2614 20.458 27.0472 20.083L26.3502 19.1184C26.511 18.743 26.6183 18.368 26.7256 17.9926L27.8514 17.6172C28.2803 17.5099 28.6018 17.1349 28.6553 16.706C28.7091 16.2237 28.5483 15.7953 28.1729 15.5272L28.1729 15.5272ZM14.7729 23.6207C9.7344 23.6207 5.66099 19.5472 5.66099 14.5088C5.66099 9.47036 9.73449 5.39685 14.7729 5.39685C19.8113 5.39685 23.8848 9.47036 23.8848 14.5088C23.8848 19.5472 19.8113 23.6207 14.7729 23.6207Z" fill="white"/>
</svg>
