<svg width="15" height="11" viewBox="0 0 15 11" fill="none" xmlns="http://www.w3.org/2000/svg">
<path d="M9.83509e-08 3L0 8.74228e-07L15 0V3L9.83509e-08 3Z" fill="white"/>
<path d="M9.83509e-08 4H1V5H9.83509e-08V4Z" fill="white"/>
<path d="M9.83509e-08 6H1V7H9.83509e-08V6Z" fill="white"/>
<path d="M9.83509e-08 8H1V9H9.83509e-08V8Z" fill="white"/>
<path d="M9.83509e-08 10H1V11H9.83509e-08V10Z" fill="white"/>
<path d="M2 4H3V5H2V4Z" fill="white"/>
<path d="M2 6H3V7H2V6Z" fill="white"/>
<path d="M2 8H3V9H2V8Z" fill="white"/>
<path d="M2 10H3V11H2V10Z" fill="white"/>
<path d="M4 4H5V5H4V4Z" fill="white"/>
<path d="M4 6H5V7H4V6Z" fill="white"/>
<path d="M4 8H5V9H4V8Z" fill="white"/>
<path d="M4 10H5V11H4V10Z" fill="white"/>
<path d="M6 4H7V5H6V4Z" fill="white"/>
<path d="M6 6H7V7H6V6Z" fill="white"/>
<path d="M6 8H7V9H6V8Z" fill="white"/>
<path fill-rule="evenodd" clip-rule="evenodd" d="M15 3V11L8 11L8 3H9V4H10L10.0307 3H11V4H12V3H13V4H14L14 3L15 3ZM12.167 9.98682V5H12.061L10 5.73486V6.51074L11.1826 6.13477V9.98682H12.167Z" fill="white"/>
</svg>
