<svg width="15" height="11" viewBox="0 0 15 11" fill="none" xmlns="http://www.w3.org/2000/svg">
<path d="M9.83509e-08 3L0 8.74228e-07L15 0V1.5L7.5 1.5V3L9.83509e-08 3Z" fill="white"/>
<path d="M4.33817 8.17866H3.3635C3.36605 7.93565 3.38389 7.72639 3.41702 7.55089C3.45269 7.37268 3.51257 7.21202 3.59666 7.06891C3.6833 6.92581 3.79796 6.78405 3.94066 6.64365C4.06042 6.53024 4.16489 6.42224 4.25408 6.31963C4.34326 6.21703 4.41334 6.11172 4.4643 6.00372C4.51526 5.89301 4.54074 5.77016 4.54074 5.63515C4.54074 5.47854 4.51781 5.34894 4.47194 5.24633C4.42863 5.14103 4.36237 5.06138 4.27319 5.00737C4.18655 4.95337 4.07698 4.92637 3.94448 4.92637C3.83491 4.92637 3.73298 4.95202 3.6387 5.00332C3.54442 5.05193 3.4667 5.12753 3.40555 5.23013C3.34694 5.33274 3.31636 5.46774 3.31382 5.63515H2.20538C2.21302 5.26523 2.29329 4.96012 2.44617 4.71981C2.60161 4.4768 2.80928 4.29724 3.06919 4.18114C3.3291 4.06233 3.62087 4.00293 3.94448 4.00293C4.30122 4.00293 4.607 4.06503 4.86181 4.18924C5.11662 4.31074 5.31156 4.4903 5.44661 4.72791C5.58166 4.96282 5.64918 5.24903 5.64918 5.58655C5.64918 5.82146 5.60587 6.03072 5.51923 6.21433C5.43259 6.39524 5.3192 6.56399 5.17905 6.7206C5.03891 6.87721 4.88474 7.03921 4.71657 7.20662C4.57132 7.34433 4.47194 7.48878 4.41843 7.63999C4.36747 7.7912 4.34072 7.97075 4.33817 8.17866ZM3.24884 9.43017C3.24884 9.25736 3.3049 9.11425 3.41702 9.00085C3.52913 8.88474 3.67947 8.82669 3.86804 8.82669C4.05405 8.82669 4.20312 8.88474 4.31523 9.00085C4.4299 9.11425 4.48723 9.25736 4.48723 9.43017C4.48723 9.59758 4.4299 9.73933 4.31523 9.85544C4.20312 9.97154 4.05405 10.0296 3.86804 10.0296C3.67947 10.0296 3.52913 9.97154 3.41702 9.85544C3.3049 9.73933 3.24884 9.59758 3.24884 9.43017Z" fill="white"/>
<path fill-rule="evenodd" clip-rule="evenodd" d="M15 2H8L8 11L15 11L15 2ZM11.9797 8.14472L12.1146 4.01167H10.8596L10.9986 8.14472H11.9797ZM11.0067 8.99096C10.8868 9.10543 10.8269 9.24987 10.8269 9.4243C10.8269 9.59327 10.8868 9.73635 11.0067 9.85355C11.1294 9.97074 11.2902 10.0293 11.4891 10.0293C11.6908 10.0293 11.8516 9.97074 11.9715 9.85355C12.0914 9.73635 12.1514 9.59327 12.1514 9.4243C12.1514 9.24987 12.0914 9.10543 11.9715 8.99096C11.8516 8.87377 11.6908 8.81517 11.4891 8.81517C11.2902 8.81517 11.1294 8.87377 11.0067 8.99096Z" fill="white"/>
</svg>
