<svg width="10" height="7" viewBox="0 0 10 7" fill="none" xmlns="http://www.w3.org/2000/svg">
<path d="M0 2L-6.55671e-08 5.96046e-07L10 1.3228e-08L10 0.5L4.5 0.5L4.5 2L0 2Z" fill="white"/>
<path d="M2.37625 5.27151H1.74732C1.74896 5.11022 1.76047 4.97133 1.78185 4.85484C1.80487 4.73656 1.84351 4.62993 1.89777 4.53495C1.95367 4.43996 2.02766 4.34588 2.11974 4.25269C2.19702 4.17742 2.26444 4.10573 2.32199 4.03763C2.37954 3.96953 2.42475 3.89964 2.45764 3.82796C2.49052 3.75448 2.50697 3.67294 2.50697 3.58333C2.50697 3.47939 2.49217 3.39337 2.46257 3.32527C2.43462 3.25538 2.39187 3.20251 2.33432 3.16667C2.27841 3.13082 2.20771 3.1129 2.12221 3.1129C2.05151 3.1129 1.98574 3.12993 1.9249 3.16398C1.86406 3.19624 1.81391 3.24642 1.77445 3.31452C1.73663 3.38262 1.7169 3.47222 1.71525 3.58333H1C1.00493 3.33781 1.05673 3.1353 1.15538 2.97581C1.25568 2.81452 1.38969 2.69534 1.55741 2.61828C1.72512 2.53943 1.91339 2.5 2.12221 2.5C2.35241 2.5 2.54972 2.54122 2.71414 2.62366C2.87857 2.7043 3.00436 2.82348 3.0915 2.98118C3.17865 3.1371 3.22222 3.32706 3.22222 3.55108C3.22222 3.70699 3.19427 3.84588 3.13836 3.96774C3.08246 4.08781 3.00929 4.19982 2.91886 4.30376C2.82842 4.40771 2.72894 4.51523 2.62042 4.62634C2.5267 4.71774 2.46257 4.81362 2.42804 4.91398C2.39516 5.01434 2.37789 5.13351 2.37625 5.27151ZM1.67333 6.10215C1.67333 5.98746 1.7095 5.89247 1.78185 5.8172C1.85419 5.74014 1.95121 5.70161 2.07288 5.70161C2.19291 5.70161 2.2891 5.74014 2.36145 5.8172C2.43544 5.89247 2.47244 5.98746 2.47244 6.10215C2.47244 6.21326 2.43544 6.30735 2.36145 6.38441C2.2891 6.46147 2.19291 6.5 2.07288 6.5C1.95121 6.5 1.85419 6.46147 1.78185 6.38441C1.7095 6.30735 1.67333 6.21326 1.67333 6.10215Z" fill="white"/>
<path fill-rule="evenodd" clip-rule="evenodd" d="M10 1H5L5 7L10 7L10 1ZM7.84264 5.09648L7.939 2.34111H7.04254L7.14183 5.09648H7.84264ZM7.14767 5.66064C7.06201 5.73695 7.01918 5.83325 7.01918 5.94953C7.01918 6.06218 7.06201 6.15757 7.14767 6.2357C7.23527 6.31383 7.35012 6.35289 7.49223 6.35289C7.63629 6.35289 7.75115 6.31383 7.8368 6.2357C7.92246 6.15757 7.96528 6.06218 7.96528 5.94953C7.96528 5.83325 7.92246 5.73695 7.8368 5.66064C7.75115 5.58251 7.63629 5.54345 7.49223 5.54345C7.35012 5.54345 7.23527 5.58251 7.14767 5.66064Z" fill="white"/>
</svg>
