<svg width="1280" height="142" viewBox="0 0 1280 142" fill="none" xmlns="http://www.w3.org/2000/svg">
    <g filter="url(#filter0_d_63_248)">
        <path fill-rule="evenodd" clip-rule="evenodd"
            d="M91.9081 15C99.6576 20.1862 105.609 28.0549 108.198 37.7193C113.93 59.1097 101.001 81.1163 79.2845 86.9353C68.4542 89.8372 57.4639 88.1021 48.5124 82.977L42.6471 92.9608C54.208 99.5193 68.2737 101.734 82.2465 97.9898C110.136 90.5168 126.782 62.1824 119.421 34.712C117.414 27.2201 113.828 20.5654 109.108 15L1440 15V103H0V15H29.2473C18.4805 27.5077 13.8662 44.8072 18.4132 61.7771L1.57852 66.288L29.1687 81.9399L29.7688 82.6084L46.4711 54.259L29.6364 58.7699C25.0751 41.7471 32.3317 24.3341 46.4306 15H91.9081ZM64.7868 55.2754L57.3817 27.6392L65.7991 25.3838L72.0934 48.8746L94.8144 55.1086L92.5661 62.8792L64.7868 55.2754Z"
            fill="white" />
    </g>
    <defs>
        <filter id="filter0_d_63_248" x="-27" y="0" width="1494" height="142" filterUnits="userSpaceOnUse"
            color-interpolation-filters="sRGB">
            <feFlood flood-opacity="0" result="BackgroundImageFix" />
            <feColorMatrix in="SourceAlpha" type="matrix" values="0 0 0 0 0 0 0 0 0 0 0 0 0 0 0 0 0 0 127 0"
                result="hardAlpha" />
            <feOffset dy="12" />
            <feGaussianBlur stdDeviation="13.5" />
            <feComposite in2="hardAlpha" operator="out" />
            <feColorMatrix type="matrix" values="0 0 0 0 0.0463368 0 0 0 0 0.289469 0 0 0 0 0.654167 0 0 0 0.31 0" />
            <feBlend mode="normal" in2="BackgroundImageFix" result="effect1_dropShadow_63_248" />
            <feBlend mode="normal" in="SourceGraphic" in2="effect1_dropShadow_63_248" result="shape" />
        </filter>
    </defs>
</svg>