<svg width="35" height="35" viewBox="0 0 35 35" fill="none" xmlns="http://www.w3.org/2000/svg">
<path fill-rule="evenodd" clip-rule="evenodd" d="M20.8357 7.91316C21.4399 9.9773 23.6005 11.1601 25.6615 10.555C27.7226 9.94996 28.9036 7.78612 28.2994 5.72198C27.6953 3.65783 25.5347 2.47502 23.4736 3.0801C21.4126 3.68518 20.2316 5.84901 20.8357 7.91316ZM26.482 13.3581C22.8752 14.417 19.0941 12.3471 18.0368 8.73485C16.9795 5.1226 19.0463 1.33589 22.6532 0.277C26.26 -0.781887 30.041 1.28803 31.0983 4.90028C32.1556 8.51254 30.0888 12.2992 26.482 13.3581Z" fill="url(#paint0_linear_930_2298)"/>
<path fill-rule="evenodd" clip-rule="evenodd" d="M3.07547 28.8494C3.67964 30.9136 5.84023 32.0964 7.90128 31.4913C9.96232 30.8862 11.1434 28.7224 10.5392 26.6583C9.93502 24.5941 7.77443 23.4113 5.71338 24.0164C3.65234 24.6215 2.47131 26.7853 3.07547 28.8494ZM8.72173 34.2944C5.1149 35.3533 1.33388 33.2834 0.276584 29.6711C-0.780713 26.0589 1.28609 22.2722 4.89293 21.2133C8.49976 20.1544 12.2808 22.2243 13.3381 25.8366C14.3954 29.4488 12.3286 33.2355 8.72173 34.2944Z" fill="url(#paint1_linear_930_2298)"/>
<path fill-rule="evenodd" clip-rule="evenodd" d="M25.9669 6.40699C26.1935 7.18105 25.7506 7.99249 24.9777 8.21939C21.6312 9.20183 20.1722 10.6153 19.3733 12.1375C18.6596 13.4976 18.4076 15.0115 18.0983 16.8697C18.0243 17.3137 17.9471 17.7775 17.8596 18.2635C17.4326 20.6337 16.8442 22.8734 15.2449 24.7842C13.6426 26.6985 11.1851 28.1008 7.40874 29.2095C6.63585 29.4364 5.82563 28.9928 5.59906 28.2188C5.3725 27.4447 5.81539 26.6333 6.58828 26.4064C10.0907 25.3781 11.9279 24.2002 13.0097 22.9077C14.0945 21.6116 14.5798 20.0179 14.9893 17.7448C15.0574 17.3667 15.1214 16.975 15.187 16.5742C15.4956 14.6865 15.8374 12.5968 16.7915 10.7785C18.0338 8.41132 20.2249 6.57074 24.1572 5.41629C24.9301 5.18939 25.7403 5.63294 25.9669 6.40699Z" fill="url(#paint2_linear_930_2298)"/>
<path d="M27.75 24.25V19H24.25V24.25H19V27.75H24.25V33H27.75V27.75H33V24.25H27.75Z" fill="black"/>
<defs>
<linearGradient id="paint0_linear_930_2298" x1="28.9437" y1="-4.38272" x2="13.8341" y2="25.7912" gradientUnits="userSpaceOnUse">
<stop stop-color="#FFC700"/>
<stop offset="1" stop-color="#DF0909"/>
</linearGradient>
<linearGradient id="paint1_linear_930_2298" x1="11.1835" y1="16.5536" x2="-3.92618" y2="46.7275" gradientUnits="userSpaceOnUse">
<stop stop-color="#FFC700"/>
<stop offset="1" stop-color="#DF0909"/>
</linearGradient>
<linearGradient id="paint2_linear_930_2298" x1="21.5434" y1="-0.97371" x2="7.32278" y2="33.7805" gradientUnits="userSpaceOnUse">
<stop stop-color="#1AE3D7"/>
<stop offset="1" stop-color="#0945DF"/>
</linearGradient>
</defs>
</svg>
