<svg width="41" height="33" viewBox="0 0 41 33" fill="none" xmlns="http://www.w3.org/2000/svg">
<path d="M0 2C0 0.895431 0.895431 0 2 0H16C17.1046 0 18 0.894516 18 1.99909C18 10.4785 18 20.308 18 30.9994C18 32.1039 17.1046 33 16 33H2C0.89543 33 0 32.1046 0 31V2Z" fill="url(#paint0_linear_849_1956)"/>
<rect x="23" width="18" height="33" rx="2" fill="url(#paint1_linear_849_1956)"/>
<circle cx="7" cy="7" r="4" fill="white"/>
<circle cx="34" cy="25" r="4" fill="white"/>
<g filter="url(#filter0_d_849_1956)">
<path d="M7 7C16 7 17.4813 11.9627 20 17C22.5 21.9999 25 25 34 25" stroke="url(#paint2_linear_849_1956)" stroke-width="4" stroke-linecap="round"/>
</g>
<defs>
<filter id="filter0_d_849_1956" x="3.5" y="5" width="34" height="25" filterUnits="userSpaceOnUse" color-interpolation-filters="sRGB">
<feFlood flood-opacity="0" result="BackgroundImageFix"/>
<feColorMatrix in="SourceAlpha" type="matrix" values="0 0 0 0 0 0 0 0 0 0 0 0 0 0 0 0 0 0 127 0" result="hardAlpha"/>
<feOffset dy="1.5"/>
<feGaussianBlur stdDeviation="0.75"/>
<feComposite in2="hardAlpha" operator="out"/>
<feColorMatrix type="matrix" values="0 0 0 0 0 0 0 0 0 0 0 0 0 0 0 0 0 0 0.5 0"/>
<feBlend mode="normal" in2="BackgroundImageFix" result="effect1_dropShadow_849_1956"/>
<feBlend mode="normal" in="SourceGraphic" in2="effect1_dropShadow_849_1956" result="shape"/>
</filter>
<linearGradient id="paint0_linear_849_1956" x1="14.0613" y1="-8.73671" x2="-11.4059" y2="30.889" gradientUnits="userSpaceOnUse">
<stop stop-color="#1AE3D7"/>
<stop offset="1" stop-color="#0945DF"/>
</linearGradient>
<linearGradient id="paint1_linear_849_1956" x1="37.0613" y1="-8.73671" x2="11.5941" y2="30.889" gradientUnits="userSpaceOnUse">
<stop stop-color="#1AE3D7"/>
<stop offset="1" stop-color="#0945DF"/>
</linearGradient>
<linearGradient id="paint2_linear_849_1956" x1="29.1786" y1="1.21429" x2="14.2322" y2="46.0535" gradientUnits="userSpaceOnUse">
<stop stop-color="#FFC700"/>
<stop offset="1" stop-color="#DF0909"/>
</linearGradient>
</defs>
</svg>
