<svg width="33" height="35" viewBox="0 0 33 35" fill="none" xmlns="http://www.w3.org/2000/svg">
<path d="M0 2C0 0.89543 0.895431 0 2 0H12C13.1046 0 14 0.894915 14 1.99948C14 11.0521 14 21.5622 14 32.9992C14 34.1038 13.1046 35 12 35H2C0.89543 35 0 34.1046 0 33V2Z" fill="url(#paint0_linear_6836_24697)"/>
<rect x="19" width="14" height="35" rx="2" fill="url(#paint1_linear_6836_24697)"/>
<circle cx="7" cy="8" r="4" fill="white"/>
<circle cx="26" cy="26" r="4" fill="white"/>
<g filter="url(#filter0_d_6836_24697)">
<path fill-rule="evenodd" clip-rule="evenodd" d="M5 8C5 6.89543 5.66435 6 6.48387 6C10.1332 6 12.4957 7.38008 14.176 9.72009C15.4567 11.5036 16.2792 13.815 17.0064 15.8583C17.1594 16.2884 17.3083 16.7066 17.4562 17.1056C18.3612 19.5451 19.146 21.1405 20.3372 22.2109C21.5245 23.2777 23.3227 24 26.5161 24C27.3356 24 28 24.8954 28 26C28 27.1046 27.3356 28 26.5161 28C23.0322 28 20.5642 27.2222 18.691 25.5391C16.8217 23.8594 15.7517 21.4549 14.8018 18.8944C14.6039 18.361 14.4216 17.8531 14.248 17.3693C13.5288 15.3654 12.9584 13.7761 12.0435 12.5019C11.0377 11.1013 9.51196 10 6.48387 10C5.66435 10 5 9.10457 5 8Z" fill="url(#paint2_linear_6836_24697)"/>
</g>
<defs>
<filter id="filter0_d_6836_24697" x="3.5" y="6" width="26" height="25" filterUnits="userSpaceOnUse" color-interpolation-filters="sRGB">
<feFlood flood-opacity="0" result="BackgroundImageFix"/>
<feColorMatrix in="SourceAlpha" type="matrix" values="0 0 0 0 0 0 0 0 0 0 0 0 0 0 0 0 0 0 127 0" result="hardAlpha"/>
<feOffset dy="1.5"/>
<feGaussianBlur stdDeviation="0.75"/>
<feComposite in2="hardAlpha" operator="out"/>
<feColorMatrix type="matrix" values="0 0 0 0 0 0 0 0 0 0 0 0 0 0 0 0 0 0 0.5 0"/>
<feBlend mode="normal" in2="BackgroundImageFix" result="effect1_dropShadow_6836_24697"/>
<feBlend mode="normal" in="SourceGraphic" in2="effect1_dropShadow_6836_24697" result="shape"/>
</filter>
<linearGradient id="paint0_linear_6836_24697" x1="10.9366" y1="-9.26621" x2="-18.5003" y2="24.3221" gradientUnits="userSpaceOnUse">
<stop stop-color="#1AE3D7"/>
<stop offset="1" stop-color="#0945DF"/>
</linearGradient>
<linearGradient id="paint1_linear_6836_24697" x1="29.9366" y1="-9.26621" x2="0.499691" y2="24.3221" gradientUnits="userSpaceOnUse">
<stop stop-color="#1AE3D7"/>
<stop offset="1" stop-color="#0945DF"/>
</linearGradient>
<linearGradient id="paint2_linear_6836_24697" x1="22.9389" y1="2.21429" x2="4.31468" y2="43.6683" gradientUnits="userSpaceOnUse">
<stop stop-color="#FFC700"/>
<stop offset="1" stop-color="#DF0909"/>
</linearGradient>
</defs>
</svg>
