<svg width="34" height="35" viewBox="0 0 34 35" fill="none" xmlns="http://www.w3.org/2000/svg">
<path d="M20 25C20 23.8954 20.8954 23 22 23H30C31.1046 23 32 23.8954 32 25C32 27.4258 32 30.1179 32 32.9998C32 34.1044 31.1046 35 30 35H22C20.8954 35 20 34.1046 20 33V25Z" fill="url(#paint0_linear_849_1987)"/>
<path d="M3 2C3 0.895431 3.89543 0 5 0H13C14.1046 0 15 0.895415 15 1.99998C15 4.42579 15 7.11788 15 9.99982C15 11.1044 14.1046 12 13 12H5C3.89543 12 3 11.1046 3 10V2Z" fill="url(#paint1_linear_849_1987)"/>
<circle cx="9" cy="6" r="4" fill="white"/>
<circle cx="26" cy="29" r="4" fill="white"/>
<path d="M26.0001 29C17 19.5 12.5 -4.00007 26.0001 5.99999" stroke="url(#paint2_linear_849_1987)" stroke-width="4" stroke-linecap="round"/>
<path d="M20 2C20 0.895431 20.8954 0 22 0H30C31.1046 0 32 0.895415 32 1.99998C32 4.42579 32 7.11788 32 9.99982C32 11.1044 31.1046 12 30 12H22C20.8954 12 20 11.1046 20 10V2Z" fill="url(#paint3_linear_849_1987)"/>
<circle cx="26" cy="6" r="4" fill="white"/>
<g filter="url(#filter0_d_849_1987)">
<path d="M26 6C32 8.5 31.2338 15.6262 25.5 19C20.416 21.9914 11.3799 21.9205 9.5 28.5" stroke="url(#paint4_linear_849_1987)" stroke-width="4" stroke-linecap="round"/>
</g>
<path d="M3 25C3 23.8954 3.89543 23 5 23H13C14.1046 23 15 23.8954 15 25C15 27.4258 15 30.1179 15 32.9998C15 34.1044 14.1046 35 13 35H5C3.89543 35 3 34.1046 3 33V25Z" fill="url(#paint5_linear_849_1987)"/>
<circle cx="9" cy="29" r="4" fill="white"/>
<path d="M9.00025 6C6.49991 14.5 7 23 9.0004 29.5" stroke="url(#paint6_linear_849_1987)" stroke-width="4" stroke-linecap="round"/>
<defs>
<filter id="filter0_d_849_1987" x="5.99951" y="3.99951" width="27.6635" height="29.501" filterUnits="userSpaceOnUse" color-interpolation-filters="sRGB">
<feFlood flood-opacity="0" result="BackgroundImageFix"/>
<feColorMatrix in="SourceAlpha" type="matrix" values="0 0 0 0 0 0 0 0 0 0 0 0 0 0 0 0 0 0 127 0" result="hardAlpha"/>
<feOffset dy="1.5"/>
<feGaussianBlur stdDeviation="0.75"/>
<feComposite in2="hardAlpha" operator="out"/>
<feColorMatrix type="matrix" values="0 0 0 0 0 0 0 0 0 0 0 0 0 0 0 0 0 0 0.5 0"/>
<feBlend mode="normal" in2="BackgroundImageFix" result="effect1_dropShadow_849_1987"/>
<feBlend mode="normal" in="SourceGraphic" in2="effect1_dropShadow_849_1987" result="shape"/>
</filter>
<linearGradient id="paint0_linear_849_1987" x1="29.8571" y1="19.1429" x2="16.5714" y2="45.7143" gradientUnits="userSpaceOnUse">
<stop stop-color="#FFC700"/>
<stop offset="1" stop-color="#DF0909"/>
</linearGradient>
<linearGradient id="paint1_linear_849_1987" x1="12.8571" y1="-3.85714" x2="-0.428571" y2="22.7143" gradientUnits="userSpaceOnUse">
<stop stop-color="#FFC700"/>
<stop offset="1" stop-color="#DF0909"/>
</linearGradient>
<linearGradient id="paint2_linear_849_1987" x1="24.1357" y1="-3.16123" x2="2.58425" y2="17.4377" gradientUnits="userSpaceOnUse">
<stop stop-color="#1AE3D7"/>
<stop offset="1" stop-color="#0945DF"/>
</linearGradient>
<linearGradient id="paint3_linear_849_1987" x1="29.8571" y1="-3.85714" x2="16.5714" y2="22.7143" gradientUnits="userSpaceOnUse">
<stop stop-color="#FFC700"/>
<stop offset="1" stop-color="#DF0909"/>
</linearGradient>
<linearGradient id="paint4_linear_849_1987" x1="25.6416" y1="0.0431538" x2="12.9217" y2="33.3649" gradientUnits="userSpaceOnUse">
<stop stop-color="#1AE3D7"/>
<stop offset="1" stop-color="#0945DF"/>
</linearGradient>
<linearGradient id="paint5_linear_849_1987" x1="12.8571" y1="19.1429" x2="-0.428571" y2="45.7143" gradientUnits="userSpaceOnUse">
<stop stop-color="#FFC700"/>
<stop offset="1" stop-color="#DF0909"/>
</linearGradient>
<linearGradient id="paint6_linear_849_1987" x1="8.62994" y1="-0.221595" x2="0.767499" y2="1.39421" gradientUnits="userSpaceOnUse">
<stop stop-color="#1AE3D7"/>
<stop offset="1" stop-color="#0945DF"/>
</linearGradient>
</defs>
</svg>
