<svg width="31" height="35" viewBox="0 0 31 35" fill="none" xmlns="http://www.w3.org/2000/svg">
<path d="M17 25C17 23.8954 17.8954 23 19 23H27C28.1046 23 29 23.8954 29 25C29 27.4258 29 30.1179 29 32.9998C29 34.1044 28.1046 35 27 35H19C17.8954 35 17 34.1046 17 33V25Z" fill="url(#paint0_linear_6836_24553)"/>
<path d="M0 2C0 0.895431 0.895431 0 2 0H10C11.1046 0 12 0.895415 12 1.99998C12 4.42579 12 7.11788 12 9.99982C12 11.1044 11.1046 12 10 12H2C0.895431 12 0 11.1046 0 10V2Z" fill="url(#paint1_linear_6836_24553)"/>
<circle cx="6" cy="6" r="4" fill="white"/>
<circle cx="23" cy="29" r="4" fill="white"/>
<path fill-rule="evenodd" clip-rule="evenodd" d="M16.5532 9.99481C17.0772 15.4096 20.2883 23.2295 24.452 27.6245C25.2117 28.4263 25.1775 29.6922 24.3756 30.4519C23.5738 31.2115 22.3079 31.1773 21.5482 30.3755C16.7118 25.2705 13.1728 16.5903 12.5718 10.3801C12.4192 8.80288 12.4433 7.27281 12.743 5.93925C13.0391 4.62216 13.6587 3.27328 14.8838 2.4064C16.1643 1.50039 17.7116 1.39437 19.2527 1.79045C20.7555 2.17665 22.4007 3.06704 24.1905 4.39286C25.0781 5.05033 25.2647 6.30285 24.6072 7.19043C23.9497 8.07802 22.6972 8.26456 21.8096 7.60709C20.2245 6.43291 19.0571 5.87016 18.2571 5.66455C17.4955 5.46883 17.2499 5.63233 17.1943 5.67163C17.0835 5.75006 16.8242 6.02228 16.6457 6.81652C16.4708 7.59429 16.4246 8.66578 16.5532 9.99481Z" fill="url(#paint2_linear_6836_24553)"/>
<path d="M17 2C17 0.895431 17.8954 0 19 0H27C28.1046 0 29 0.895415 29 1.99998C29 4.42579 29 7.11788 29 9.99982C29 11.1044 28.1046 12 27 12H19C17.8954 12 17 11.1046 17 10V2Z" fill="url(#paint3_linear_6836_24553)"/>
<circle cx="23" cy="6" r="4" fill="white"/>
<g filter="url(#filter0_d_6836_24553)">
<path fill-rule="evenodd" clip-rule="evenodd" d="M21.1539 5.23074C21.5787 4.21114 22.7497 3.72898 23.7693 4.15382C27.5263 5.71924 29.3602 8.89771 29.1463 12.2979C28.9399 15.5788 26.8589 18.7557 23.5143 20.7237C22.0428 21.5895 20.3472 22.2005 18.7373 22.7233C18.2074 22.8954 17.6918 23.0566 17.187 23.2145C16.0869 23.5585 15.038 23.8864 14.0034 24.2761C11.0037 25.4058 9.08759 26.7236 8.42307 29.0494C8.11963 30.1115 7.01265 30.7265 5.95058 30.423C4.88851 30.1196 4.27353 29.0126 4.57698 27.9505C5.79232 23.6968 9.33423 21.7603 12.5936 20.5328C13.7386 20.1016 14.9683 19.7168 16.1199 19.3565C16.5979 19.2069 17.0624 19.0616 17.5018 18.9189C19.0749 18.408 20.4153 17.9061 21.4858 17.2762C23.8749 15.8705 25.044 13.7974 25.1542 12.0467C25.2568 10.4154 24.4738 8.78071 22.2308 7.84613C21.2112 7.42129 20.729 6.25034 21.1539 5.23074Z" fill="url(#paint4_linear_6836_24553)"/>
</g>
<path d="M0 25C0 23.8954 0.895431 23 2 23H10C11.1046 23 12 23.8954 12 25C12 27.4258 12 30.1179 12 32.9998C12 34.1044 11.1046 35 10 35H2C0.895431 35 0 34.1046 0 33V25Z" fill="url(#paint5_linear_6836_24553)"/>
<circle cx="6" cy="29" r="4" fill="white"/>
<path fill-rule="evenodd" clip-rule="evenodd" d="M6.48642 4.08032C7.60312 4.38635 8.2421 5.47782 7.91361 6.51819C5.40312 14.4693 5.91159 22.4202 7.9062 28.4584C8.24859 29.4948 7.62426 30.5936 6.51174 30.9126C5.39922 31.2316 4.21978 30.65 3.8774 29.6135C1.65589 22.8885 1.11036 14.1491 3.86966 5.40995C4.19815 4.36959 5.36971 3.77429 6.48642 4.08032Z" fill="url(#paint6_linear_6836_24553)"/>
<defs>
<filter id="filter0_d_6836_24553" x="2.99951" y="3.99945" width="27.6635" height="29.501" filterUnits="userSpaceOnUse" color-interpolation-filters="sRGB">
<feFlood flood-opacity="0" result="BackgroundImageFix"/>
<feColorMatrix in="SourceAlpha" type="matrix" values="0 0 0 0 0 0 0 0 0 0 0 0 0 0 0 0 0 0 127 0" result="hardAlpha"/>
<feOffset dy="1.5"/>
<feGaussianBlur stdDeviation="0.75"/>
<feComposite in2="hardAlpha" operator="out"/>
<feColorMatrix type="matrix" values="0 0 0 0 0 0 0 0 0 0 0 0 0 0 0 0 0 0 0.5 0"/>
<feBlend mode="normal" in2="BackgroundImageFix" result="effect1_dropShadow_6836_24553"/>
<feBlend mode="normal" in="SourceGraphic" in2="effect1_dropShadow_6836_24553" result="shape"/>
</filter>
<linearGradient id="paint0_linear_6836_24553" x1="26.8571" y1="19.1429" x2="13.5714" y2="45.7143" gradientUnits="userSpaceOnUse">
<stop stop-color="#FFC700"/>
<stop offset="1" stop-color="#DF0909"/>
</linearGradient>
<linearGradient id="paint1_linear_6836_24553" x1="9.85714" y1="-3.85714" x2="-3.42857" y2="22.7143" gradientUnits="userSpaceOnUse">
<stop stop-color="#FFC700"/>
<stop offset="1" stop-color="#DF0909"/>
</linearGradient>
<linearGradient id="paint2_linear_6836_24553" x1="22.2605" y1="-6.2193" x2="-2.24506" y2="23.5219" gradientUnits="userSpaceOnUse">
<stop stop-color="#1AE3D7"/>
<stop offset="1" stop-color="#0945DF"/>
</linearGradient>
<linearGradient id="paint3_linear_6836_24553" x1="26.8571" y1="-3.85714" x2="13.5714" y2="22.7143" gradientUnits="userSpaceOnUse">
<stop stop-color="#FFC700"/>
<stop offset="1" stop-color="#DF0909"/>
</linearGradient>
<linearGradient id="paint4_linear_6836_24553" x1="23.7663" y1="-3.01667" x2="8.93312" y2="36.3621" gradientUnits="userSpaceOnUse">
<stop stop-color="#1AE3D7"/>
<stop offset="1" stop-color="#0945DF"/>
</linearGradient>
<linearGradient id="paint5_linear_6836_24553" x1="9.85714" y1="19.1429" x2="-3.42857" y2="45.7143" gradientUnits="userSpaceOnUse">
<stop stop-color="#FFC700"/>
<stop offset="1" stop-color="#DF0909"/>
</linearGradient>
<linearGradient id="paint6_linear_6836_24553" x1="6.68711" y1="-3.14822" x2="-14.0292" y2="9.98398" gradientUnits="userSpaceOnUse">
<stop stop-color="#1AE3D7"/>
<stop offset="1" stop-color="#0945DF"/>
</linearGradient>
</defs>
</svg>
