<svg width="31" height="35" viewBox="0 0 31 35" fill="none" xmlns="http://www.w3.org/2000/svg">
<path d="M8.57963 17.5464L8.3811 26.3352H6.67706L6.47026 17.5464H8.57963ZM6.41235 29.0309C6.41235 28.7171 6.51162 28.4547 6.71015 28.2436C6.91419 28.0268 7.19544 27.9184 7.5539 27.9184C7.90684 27.9184 8.18533 28.0268 8.38938 28.2436C8.59342 28.4547 8.69544 28.7171 8.69544 29.0309C8.69544 29.3333 8.59342 29.5929 8.38938 29.8097C8.18533 30.0208 7.90684 30.1263 7.5539 30.1263C7.19544 30.1263 6.91419 30.0208 6.71015 29.8097C6.51162 29.5929 6.41235 29.3333 6.41235 29.0309Z" fill="black"/>
<path fill-rule="evenodd" clip-rule="evenodd" d="M5.53094 10.555C7.52617 11.1601 9.61776 9.9773 10.2026 7.91316C10.7875 5.84901 9.6442 3.68518 7.64897 3.0801C5.65373 2.47502 3.56214 3.65783 2.97727 5.72198C2.39239 7.78612 3.53571 9.94996 5.53094 10.555ZM4.73668 13.3581C8.22834 14.417 11.8886 12.3471 12.9122 8.73485C13.9357 5.1226 11.9349 1.33589 8.44323 0.277C4.95157 -0.781887 1.29129 1.28803 0.267752 4.90028C-0.755782 8.51254 1.24503 12.2992 4.73668 13.3581Z" fill="url(#paint0_linear_930_2292)"/>
<path fill-rule="evenodd" clip-rule="evenodd" d="M22.7238 31.4913C24.719 32.0964 26.8106 30.9136 27.3955 28.8494C27.9804 26.7853 26.8371 24.6215 24.8418 24.0164C22.8466 23.4113 20.755 24.5941 20.1701 26.6583C19.5853 28.7224 20.7286 30.8862 22.7238 31.4913ZM21.9296 34.2944C25.4212 35.3533 29.0815 33.2834 30.105 29.6711C31.1286 26.0589 29.1278 22.2722 25.6361 21.2133C22.1444 20.1544 18.4842 22.2243 17.4606 25.8366C16.4371 29.4488 18.4379 33.2355 21.9296 34.2944Z" fill="url(#paint1_linear_930_2292)"/>
<path fill-rule="evenodd" clip-rule="evenodd" d="M5.23511 6.40699C5.45444 5.63294 6.23879 5.18939 6.987 5.41629C10.7938 6.57074 12.9148 8.41132 14.1175 10.7785C15.0412 12.5968 15.372 14.6865 15.6708 16.5742C15.7342 16.975 15.7963 17.3667 15.8622 17.7448C16.2586 20.0179 16.7284 21.6116 17.7785 22.9077C18.8258 24.2002 20.6044 25.3781 23.9949 26.4064C24.7431 26.6333 25.1719 27.4447 24.9525 28.2188C24.7332 28.9928 23.9489 29.4364 23.2007 29.2095C19.5449 28.1008 17.1658 26.6985 15.6147 24.7842C14.0664 22.8734 13.4969 20.6337 13.0835 18.2635C12.9988 17.7775 12.924 17.3137 12.8525 16.8697C12.553 15.0115 12.3091 13.4976 11.6181 12.1375C10.8448 10.6153 9.43231 9.20183 6.19274 8.21939C5.44453 7.99249 5.01578 7.18105 5.23511 6.40699Z" fill="url(#paint2_linear_930_2292)"/>
<path d="M21.3048 14.6511H19.4601C19.4656 14.1206 19.5097 13.6756 19.5924 13.3161C19.6752 12.951 19.813 12.6201 20.006 12.3234C20.2046 12.0268 20.4665 11.713 20.7919 11.3821C21.0456 11.1311 21.2744 10.8943 21.4785 10.6718C21.6825 10.4436 21.8452 10.204 21.9665 9.95293C22.0878 9.6962 22.1485 9.40238 22.1485 9.07148C22.1485 8.71206 22.0906 8.40683 21.9748 8.1558C21.859 7.90477 21.688 7.71365 21.4619 7.58243C21.2413 7.45121 20.9656 7.3856 20.6347 7.3856C20.359 7.3856 20.0998 7.44265 19.8571 7.55676C19.6145 7.66515 19.4187 7.83631 19.2698 8.07022C19.1209 8.29843 19.041 8.6008 19.0299 8.97735H17.0364C17.0474 8.25849 17.2128 7.65374 17.5327 7.1631C17.8526 6.67245 18.2827 6.30447 18.8231 6.05915C19.3636 5.81382 19.9674 5.69116 20.6347 5.69116C21.3737 5.69116 22.0051 5.82238 22.529 6.08482C23.0529 6.34155 23.4527 6.71809 23.7285 7.21445C24.0097 7.70509 24.1503 8.29843 24.1503 8.99446C24.1503 9.49652 24.0538 9.95293 23.8608 10.3637C23.6678 10.7688 23.4169 11.1482 23.1081 11.5019C22.7992 11.8499 22.4656 12.1979 22.1071 12.5459C21.7983 12.8369 21.5888 13.1535 21.4785 13.4959C21.3682 13.8325 21.3103 14.2176 21.3048 14.6511ZM19.2946 17.3212C19.2946 17.0131 19.3967 16.7535 19.6007 16.5424C19.8048 16.3256 20.0833 16.2172 20.4362 16.2172C20.7891 16.2172 21.0676 16.3256 21.2717 16.5424C21.4757 16.7535 21.5777 17.0131 21.5777 17.3212C21.5777 17.6293 21.4757 17.8917 21.2717 18.1085C21.0676 18.3196 20.7891 18.4251 20.4362 18.4251C20.0833 18.4251 19.8048 18.3196 19.6007 18.1085C19.3967 17.8917 19.2946 17.6293 19.2946 17.3212Z" fill="black"/>
<defs>
<linearGradient id="paint0_linear_930_2292" x1="10.2959" y1="-3.60988" x2="2.88067" y2="16.8365" gradientUnits="userSpaceOnUse">
<stop stop-color="#1AE3D7"/>
<stop offset="1" stop-color="#0945DF"/>
</linearGradient>
<linearGradient id="paint1_linear_930_2292" x1="27.4888" y1="17.3264" x2="20.0735" y2="37.7728" gradientUnits="userSpaceOnUse">
<stop stop-color="#1AE3D7"/>
<stop offset="1" stop-color="#0945DF"/>
</linearGradient>
<linearGradient id="paint2_linear_930_2292" x1="21.4685" y1="-2.32903" x2="-7.79574" y2="46.2136" gradientUnits="userSpaceOnUse">
<stop stop-color="#FFC700"/>
<stop offset="1" stop-color="#DF0909"/>
</linearGradient>
</defs>
</svg>
