<svg width="36" height="37" viewBox="0 0 36 37" fill="none" xmlns="http://www.w3.org/2000/svg">
<path d="M19.0368 9.73485C17.9795 6.1226 20.0463 2.33589 23.6532 1.277C27.26 0.218113 31.041 2.28803 32.0983 5.90028C33.1556 9.51254 31.0888 13.2992 27.482 14.3581C24.9888 15.0901 22.4124 14.327 20.7099 12.593M21.6777 7.79604C21.6863 6.11903 22.7844 4.57602 24.4736 4.0801C26.5347 3.47502 28.6953 4.65783 29.2994 6.72198C29.9036 8.78612 28.7226 10.95 26.6615 11.555C25.2521 11.9688 23.7961 11.5465 22.8231 10.578" stroke="white"/>
<path d="M13.2586 24.6704C11.6055 22.4576 8.6966 21.3902 5.89293 22.2133C2.28609 23.2722 0.219287 27.0589 1.27658 30.6711C2.33388 34.2834 6.1149 36.3533 9.72173 35.2944C13.1082 34.3002 15.1371 30.9014 14.4973 27.5M10.7284 26.1813C9.76096 25.081 8.2109 24.5767 6.71338 25.0164C4.65234 25.6215 3.47131 27.7853 4.07547 29.8494C4.67964 31.9136 6.84023 33.0964 8.90128 32.4913C10.4893 32.0251 11.5549 30.6335 11.684 29.0751" stroke="white"/>
<path fill-rule="evenodd" clip-rule="evenodd" d="M26.9669 7.40699C27.1935 8.18105 26.7506 8.99249 25.9777 9.21939C22.6312 10.2018 21.1722 11.6153 20.3733 13.1375C19.6596 14.4976 19.4076 16.0115 19.0983 17.8697C19.0243 18.3137 18.9471 18.7775 18.8596 19.2635C18.4326 21.6337 17.8442 23.8734 16.2449 25.7842C14.6426 27.6985 12.1851 29.1008 8.40874 30.2095C7.63585 30.4364 6.82563 29.9928 6.59906 29.2188C6.3725 28.4447 6.81539 27.6333 7.58828 27.4064C11.0907 26.3781 12.9279 25.2002 14.0097 23.9077C15.0945 22.6116 15.5798 21.0179 15.9893 18.7448C16.0574 18.3667 16.1214 17.975 16.187 17.5742C16.4956 15.6865 16.8374 13.5968 17.7915 11.7785C19.0338 9.41132 21.2249 7.57074 25.1572 6.41629C25.9301 6.18939 26.7403 6.63294 26.9669 7.40699Z" stroke="white" stroke-linecap="round"/>
<path d="M28.75 25.25V20H25.25V25.25H20V28.75H25.25V34H28.75V28.75H34V25.25H28.75Z" stroke="white"/>
</svg>
