<svg width="32" height="37" viewBox="0 0 32 37" fill="none" xmlns="http://www.w3.org/2000/svg">
<path d="M22.5 24H28.5C29.6046 24 30.5 24.8954 30.5 26C30.5 28.4258 30.5 31.1179 30.5 33.9998C30.5 35.1044 29.6046 36 28.5 36H20.5C19.3954 36 18.5 35.1046 18.5 34V25" stroke="white"/>
<path d="M8 13H11.5C12.6046 13 13.5 12.1044 13.5 10.9998C13.5 8.11788 13.5 5.42579 13.5 2.99998C13.5 1.89541 12.6046 1 11.5 1H3.5C2.39543 1 1.5 1.89543 1.5 3V11C1.5 12.1046 2.39543 13 3.5 13H4.5" stroke="white"/>
<mask id="path-3-inside-1_1159_3649" fill="white">
<path d="M8.74847 10.8002C9.57347 10.5291 10.2879 9.99699 10.7837 9.28411C11.2796 8.57124 11.53 7.71635 11.4971 6.8486C11.4643 5.98085 11.1499 5.14736 10.6015 4.47403C10.0532 3.80071 9.30057 3.32413 8.45743 3.11627C7.6143 2.90842 6.72642 2.98059 5.92793 3.32188C5.12943 3.66317 4.46368 4.25503 4.03125 5.00808C3.59881 5.76113 3.42318 6.63444 3.53089 7.49611C3.63859 8.35778 4.02377 9.161 4.62826 9.78444L5.35243 9.08228C4.90038 8.61606 4.61233 8.01539 4.53178 7.37101C4.45124 6.72663 4.58258 6.07353 4.90597 5.51038C5.22935 4.94724 5.72722 4.50462 6.32436 4.24939C6.9215 3.99417 7.58548 3.9402 8.21599 4.09564C8.84651 4.25108 9.40933 4.60748 9.81941 5.11101C10.2295 5.61454 10.4646 6.23785 10.4892 6.88678C10.5138 7.53571 10.3265 8.17502 9.95566 8.70812C9.58484 9.24123 9.0506 9.63919 8.43365 9.84188L8.74847 10.8002Z"/>
</mask>
<path d="M8.74847 10.8002C9.57347 10.5291 10.2879 9.99699 10.7837 9.28411C11.2796 8.57124 11.53 7.71635 11.4971 6.8486C11.4643 5.98085 11.1499 5.14736 10.6015 4.47403C10.0532 3.80071 9.30057 3.32413 8.45743 3.11627C7.6143 2.90842 6.72642 2.98059 5.92793 3.32188C5.12943 3.66317 4.46368 4.25503 4.03125 5.00808C3.59881 5.76113 3.42318 6.63444 3.53089 7.49611C3.63859 8.35778 4.02377 9.161 4.62826 9.78444L5.35243 9.08228C4.90038 8.61606 4.61233 8.01539 4.53178 7.37101C4.45124 6.72663 4.58258 6.07353 4.90597 5.51038C5.22935 4.94724 5.72722 4.50462 6.32436 4.24939C6.9215 3.99417 7.58548 3.9402 8.21599 4.09564C8.84651 4.25108 9.40933 4.60748 9.81941 5.11101C10.2295 5.61454 10.4646 6.23785 10.4892 6.88678C10.5138 7.53571 10.3265 8.17502 9.95566 8.70812C9.58484 9.24123 9.0506 9.63919 8.43365 9.84188L8.74847 10.8002Z" stroke="white" stroke-width="2" mask="url(#path-3-inside-1_1159_3649)"/>
<path d="M23.9212 26.0421C24.7887 25.9152 25.6739 26.0769 26.4406 26.5023C27.2073 26.9276 27.8129 27.5931 28.1645 28.3963C28.516 29.1995 28.5938 30.096 28.3861 30.9478C28.1783 31.7996 27.6965 32.5595 27.0146 33.1107C26.3328 33.6619 25.4887 33.9738 24.6123 33.9984C23.7359 34.023 22.8757 33.759 22.164 33.247C21.4522 32.7349 20.9285 32.0032 20.6732 31.1645C20.418 30.3257 20.4454 29.4262 20.7513 28.6046L21.5067 28.8857C21.2624 29.5419 21.2405 30.26 21.4443 30.9298C21.6481 31.5996 22.0664 32.1839 22.6347 32.5927C23.203 33.0016 23.8899 33.2124 24.5897 33.1927C25.2895 33.1731 25.9635 32.924 26.5079 32.4839C27.0524 32.0438 27.4372 31.437 27.6031 30.7568C27.7689 30.0767 27.7068 29.3608 27.4261 28.7195C27.1454 28.0781 26.6618 27.5467 26.0496 27.2071C25.4374 26.8674 24.7305 26.7383 24.0378 26.8396L23.9212 26.0421Z" fill="white"/>
<path d="M18.5 6.93925C18.3892 7.01768 18.3242 7.02228 18.1457 7.81653C17.9708 8.59429 17.9246 9.66579 18.0532 10.9948C18.5772 16.4096 21.7883 24.2295 25.952 28.6245C26.7117 29.4263 26.6775 30.6922 25.8756 31.4519C25.0738 32.2115 23.8079 32.1773 23.0482 31.3755C18.2118 26.2705 14.6728 17.5903 14.0718 11.3801C13.9192 9.80289 13.9433 8.27282 14.243 6.93925C14.5391 5.62217 15.1587 4.27329 16.3838 3.40641C17.0601 2.92788 17.715 2.57608 18.5 2.5" stroke="white" stroke-linecap="round"/>
<path d="M30.5 11C30.5 9.66857 30.5 5.61197 30.5 2.99926C30.5 1.89469 29.6046 1 28.5 1H20.5C19.3954 1 18.5 1.89543 18.5 3V11C18.5 12.1046 19.3954 13 20.5 13H26.5" stroke="white"/>
<mask id="path-7-inside-2_1159_3649" fill="white">
<path d="M26.3532 10.5448C25.5712 10.9536 24.676 11.0924 23.8069 10.9395C22.9379 10.7866 22.1438 10.3506 21.5482 9.69947C20.9527 9.04832 20.5893 8.21852 20.5144 7.33931C20.4396 6.46009 20.6575 5.58079 21.1344 4.83834C21.6113 4.09589 22.3202 3.53196 23.1509 3.23436C23.9816 2.93676 24.8874 2.92219 25.7273 3.19293C26.5671 3.46366 27.2939 4.00451 27.7943 4.73124C28.2948 5.45797 28.541 6.3298 28.4944 7.21097L27.5977 7.16361C27.6338 6.48025 27.4429 5.80414 27.0548 5.24055C26.6667 4.67697 26.1031 4.25754 25.4518 4.04758C24.8005 3.83762 24.098 3.84892 23.4538 4.07971C22.8096 4.3105 22.2598 4.74784 21.8899 5.32361C21.5201 5.89939 21.3511 6.58129 21.4091 7.26314C21.4672 7.94498 21.7491 8.58849 22.2109 9.09347C22.6727 9.59845 23.2885 9.93655 23.9625 10.0551C24.6365 10.1737 25.3307 10.0661 25.9371 9.74905L26.3532 10.5448Z"/>
</mask>
<path d="M26.3532 10.5448C25.5712 10.9536 24.676 11.0924 23.8069 10.9395C22.9379 10.7866 22.1438 10.3506 21.5482 9.69947C20.9527 9.04832 20.5893 8.21852 20.5144 7.33931C20.4396 6.46009 20.6575 5.58079 21.1344 4.83834C21.6113 4.09589 22.3202 3.53196 23.1509 3.23436C23.9816 2.93676 24.8874 2.92219 25.7273 3.19293C26.5671 3.46366 27.2939 4.00451 27.7943 4.73124C28.2948 5.45797 28.541 6.3298 28.4944 7.21097L27.5977 7.16361C27.6338 6.48025 27.4429 5.80414 27.0548 5.24055C26.6667 4.67697 26.1031 4.25754 25.4518 4.04758C24.8005 3.83762 24.098 3.84892 23.4538 4.07971C22.8096 4.3105 22.2598 4.74784 21.8899 5.32361C21.5201 5.89939 21.3511 6.58129 21.4091 7.26314C21.4672 7.94498 21.7491 8.58849 22.2109 9.09347C22.6727 9.59845 23.2885 9.93655 23.9625 10.0551C24.6365 10.1737 25.3307 10.0661 25.9371 9.74905L26.3532 10.5448Z" stroke="white" stroke-width="2" mask="url(#path-7-inside-2_1159_3649)"/>
<path d="M13.5001 26.1127C14.122 25.818 14.7942 25.5432 15.5034 25.2762C16.4111 24.9343 17.0454 24.7994 18.0001 24.5M9.50012 23.9631C10.9047 22.8722 12.5316 22.1211 14.0936 21.5328C14.8736 21.2391 15.6929 20.9669 16.5001 20.7093M20.5001 19.4045C21.4409 19.0582 22.2731 18.6956 22.9858 18.2763C25.3749 16.8705 26.544 14.7975 26.6541 13.0468C26.7568 11.4154 25.9738 9.78077 23.7308 8.84619C22.7112 8.42135 22.229 7.25041 22.6538 6.2308C23.0787 5.2112 24.2496 4.72905 25.2692 5.15388C29.0262 6.7193 30.8602 9.89777 30.6462 13.2979C30.4398 16.5788 28.3589 19.7558 25.0142 21.7238C24.1198 22.2501 23.1426 22.6822 22.1521 23.0576" stroke="white" stroke-linecap="round"/>
<path d="M4 24H3.5C2.39543 24 1.5 24.8954 1.5 26V34C1.5 35.1046 2.39543 36 3.5 36H11.5C12.6046 36 13.5 35.1044 13.5 33.9998C13.5 31.1179 13.5 28.4258 13.5 26C13.5 24.8954 12.6046 24 11.5 24H8" stroke="white"/>
<mask id="path-10-inside-3_1159_3649" fill="white">
<path d="M4.38991 27.4846C3.85026 28.1518 3.53949 28.9749 3.50352 29.8323C3.46754 30.6897 3.70825 31.5359 4.19011 32.246C4.67197 32.9561 5.36942 33.4924 6.17945 33.7757C6.98949 34.059 7.86916 34.0743 8.68855 33.8193C9.50794 33.5643 10.2236 33.0526 10.7298 32.3597C11.2361 31.6668 11.5061 30.8294 11.4999 29.9713C11.4937 29.1131 11.2118 28.2797 10.6956 27.5942C10.1795 26.9086 9.45654 26.4072 8.63357 26.164L8.37329 27.0448C9.0073 27.2321 9.56425 27.6184 9.96188 28.1466C10.3595 28.6747 10.5767 29.3168 10.5815 29.9779C10.5862 30.639 10.3782 31.2841 9.98825 31.8179C9.59824 32.3517 9.0469 32.7459 8.41565 32.9424C7.7844 33.1388 7.10671 33.1271 6.48266 32.9088C5.85862 32.6905 5.32131 32.2774 4.95009 31.7303C4.57887 31.1833 4.39343 30.5313 4.42114 29.8708C4.44886 29.2103 4.68827 28.5762 5.10401 28.0621L4.38991 27.4846Z"/>
</mask>
<path d="M4.38991 27.4846C3.85026 28.1518 3.53949 28.9749 3.50352 29.8323C3.46754 30.6897 3.70825 31.5359 4.19011 32.246C4.67197 32.9561 5.36942 33.4924 6.17945 33.7757C6.98949 34.059 7.86916 34.0743 8.68855 33.8193C9.50794 33.5643 10.2236 33.0526 10.7298 32.3597C11.2361 31.6668 11.5061 30.8294 11.4999 29.9713C11.4937 29.1131 11.2118 28.2797 10.6956 27.5942C10.1795 26.9086 9.45654 26.4072 8.63357 26.164L8.37329 27.0448C9.0073 27.2321 9.56425 27.6184 9.96188 28.1466C10.3595 28.6747 10.5767 29.3168 10.5815 29.9779C10.5862 30.639 10.3782 31.2841 9.98825 31.8179C9.59824 32.3517 9.0469 32.7459 8.41565 32.9424C7.7844 33.1388 7.10671 33.1271 6.48266 32.9088C5.85862 32.6905 5.32131 32.2774 4.95009 31.7303C4.57887 31.1833 4.39343 30.5313 4.42114 29.8708C4.44886 29.2103 4.68827 28.5762 5.10401 28.0621L4.38991 27.4846Z" stroke="white" stroke-width="2" mask="url(#path-10-inside-3_1159_3649)"/>
<path fill-rule="evenodd" clip-rule="evenodd" d="M8.0646 5.08132C9.12428 5.39303 9.73062 6.50476 9.41891 7.56444C7.03663 15.6631 7.51913 23.7615 9.41188 29.9118C9.73678 30.9675 9.14434 32.0867 8.08863 32.4116C7.03293 32.7365 5.91373 32.144 5.58883 31.0883C3.48078 24.2385 2.96311 15.337 5.58149 6.43563C5.8932 5.37596 7.00493 4.76961 8.0646 5.08132Z" stroke="white" stroke-linecap="round"/>
</svg>
