<svg width="43" height="37" viewBox="0 0 43 37" fill="none" xmlns="http://www.w3.org/2000/svg">
<path d="M19 11.0758C19 8.27378 19 5.57774 19 2.99987C19 1.8953 18.1046 1 17 1H3C1.89543 1 1 1.89543 1 3V34C1 35.1046 1.89543 36 3 36H17C18.1046 36 19 35.1067 19 34.0021C19 29.5472 19 22.9363 19 19.5606" stroke="white"/>
<path d="M24 26.9848V34C24 35.1046 24.8954 36 26 36H40C41.1046 36 42 35.1046 42 34V3C42 1.89543 41.1046 1 40 1H26C24.8954 1 24 1.89543 24 3V20.5177" stroke="white"/>
<mask id="path-3-inside-1_1159_3643" fill="white">
<path d="M11.5657 7.18726C11.1726 6.41413 10.5389 5.7897 9.76011 5.40806C8.98128 5.02642 8.09951 4.90826 7.24768 5.07138C6.39586 5.23451 5.62013 5.67007 5.03739 6.31244C4.45466 6.95482 4.0965 7.76919 4.01689 8.63283C3.93728 9.49647 4.14052 10.3626 4.596 11.1007C5.05149 11.8387 5.73452 12.4088 6.54217 12.7249C7.34982 13.041 8.23833 13.086 9.0738 12.8532C9.90927 12.6203 10.6464 12.1223 11.1742 11.434L10.4666 10.8914C10.0564 11.4262 9.48363 11.8132 8.83441 11.9942C8.1852 12.1751 7.49477 12.1401 6.86717 11.8945C6.23957 11.6488 5.70881 11.2059 5.35488 10.6324C5.00094 10.0588 4.843 9.38579 4.90486 8.71468C4.96673 8.04358 5.24504 7.41076 5.69786 6.9116C6.15068 6.41243 6.75348 6.07397 7.4154 5.94721C8.07733 5.82046 8.76252 5.91227 9.36772 6.20883C9.97291 6.50539 10.4653 6.99061 10.7708 7.59139L11.5657 7.18726Z"/>
</mask>
<path d="M11.5657 7.18726C11.1726 6.41413 10.5389 5.7897 9.76011 5.40806C8.98128 5.02642 8.09951 4.90826 7.24768 5.07138C6.39586 5.23451 5.62013 5.67007 5.03739 6.31244C4.45466 6.95482 4.0965 7.76919 4.01689 8.63283C3.93728 9.49647 4.14052 10.3626 4.596 11.1007C5.05149 11.8387 5.73452 12.4088 6.54217 12.7249C7.34982 13.041 8.23833 13.086 9.0738 12.8532C9.90927 12.6203 10.6464 12.1223 11.1742 11.434L10.4666 10.8914C10.0564 11.4262 9.48363 11.8132 8.83441 11.9942C8.1852 12.1751 7.49477 12.1401 6.86717 11.8945C6.23957 11.6488 5.70881 11.2059 5.35488 10.6324C5.00094 10.0588 4.843 9.38579 4.90486 8.71468C4.96673 8.04358 5.24504 7.41076 5.69786 6.9116C6.15068 6.41243 6.75348 6.07397 7.4154 5.94721C8.07733 5.82046 8.76252 5.91227 9.36772 6.20883C9.97291 6.50539 10.4653 6.99061 10.7708 7.59139L11.5657 7.18726Z" stroke="white" stroke-width="2" mask="url(#path-3-inside-1_1159_3643)"/>
<mask id="path-4-inside-2_1159_3643" fill="white">
<path d="M31.5202 28.9725C31.9487 29.7285 32.6117 30.3244 33.409 30.67C34.2063 31.0156 35.0945 31.0922 35.9392 30.8882C36.7839 30.6842 37.5391 30.2106 38.0908 29.5391C38.6424 28.8677 38.9603 28.0349 38.9965 27.1666C39.0327 26.2984 38.7852 25.442 38.2914 24.727C37.7976 24.0119 37.0844 23.4771 36.2596 23.2035C35.4348 22.9299 34.5434 22.9322 33.7201 23.2103C32.8968 23.4884 32.1864 24.027 31.6965 24.7447L32.5157 25.304C32.8842 24.7643 33.4184 24.3593 34.0375 24.1502C34.6566 23.9411 35.327 23.9393 35.9472 24.145C36.5674 24.3508 37.1038 24.753 37.4751 25.2907C37.8465 25.8284 38.0326 26.4724 38.0054 27.1253C37.9782 27.7782 37.7391 28.4045 37.3242 28.9094C36.9094 29.4144 36.3415 29.7705 35.7063 29.9239C35.071 30.0773 34.4031 30.0197 33.8036 29.7598C33.204 29.4999 32.7054 29.0518 32.3832 28.4833L31.5202 28.9725Z"/>
</mask>
<path d="M31.5202 28.9725C31.9487 29.7285 32.6117 30.3244 33.409 30.67C34.2063 31.0156 35.0945 31.0922 35.9392 30.8882C36.7839 30.6842 37.5391 30.2106 38.0908 29.5391C38.6424 28.8677 38.9603 28.0349 38.9965 27.1666C39.0327 26.2984 38.7852 25.442 38.2914 24.727C37.7976 24.0119 37.0844 23.4771 36.2596 23.2035C35.4348 22.9299 34.5434 22.9322 33.7201 23.2103C32.8968 23.4884 32.1864 24.027 31.6965 24.7447L32.5157 25.304C32.8842 24.7643 33.4184 24.3593 34.0375 24.1502C34.6566 23.9411 35.327 23.9393 35.9472 24.145C36.5674 24.3508 37.1038 24.753 37.4751 25.2907C37.8465 25.8284 38.0326 26.4724 38.0054 27.1253C37.9782 27.7782 37.7391 28.4045 37.3242 28.9094C36.9094 29.4144 36.3415 29.7705 35.7063 29.9239C35.071 30.0773 34.4031 30.0197 33.8036 29.7598C33.204 29.4999 32.7054 29.0518 32.3832 28.4833L31.5202 28.9725Z" stroke="white" stroke-width="2" mask="url(#path-4-inside-2_1159_3643)"/>
<path fill-rule="evenodd" clip-rule="evenodd" d="M6 9C6 7.89543 6.89543 7 8 7C12.9187 7 16.1029 8.38007 18.3676 10.7201C20.0938 12.5036 21.2024 14.815 22.1825 16.8583C22.3888 17.2884 22.5894 17.7066 22.7889 18.1055C24.0086 20.545 25.0664 22.1405 26.6719 23.2109C28.2722 24.2777 30.6958 25 35 25C36.1046 25 37 25.8954 37 27C37 28.1046 36.1046 29 35 29C30.3042 29 26.9778 28.2222 24.4531 26.5391C21.9336 24.8594 20.4914 22.4549 19.2111 19.8944C18.9444 19.361 18.6987 18.8531 18.4647 18.3693C17.4954 16.3654 16.7265 14.7761 15.4934 13.5019C14.1378 12.1013 12.0813 11 8 11C6.89543 11 6 10.1046 6 9Z" stroke="white" stroke-linecap="round"/>
</svg>
