<svg width="32" height="37" viewBox="0 0 32 37" fill="none" xmlns="http://www.w3.org/2000/svg">
<path d="M9.57963 18.5464L9.3811 27.3352H7.67706L7.47026 18.5464H9.57963ZM7.41235 30.0309C7.41235 29.7171 7.51162 29.4547 7.71015 29.2436C7.91419 29.0268 8.19544 28.9184 8.5539 28.9184C8.90684 28.9184 9.18533 29.0268 9.38938 29.2436C9.59342 29.4547 9.69544 29.7171 9.69544 30.0309C9.69544 30.3333 9.59342 30.5929 9.38938 30.8097C9.18533 31.0208 8.90684 31.1263 8.5539 31.1263C8.19544 31.1263 7.91419 31.0208 7.71015 30.8097C7.51162 30.5929 7.41235 30.3333 7.41235 30.0309Z" stroke="white"/>
<path d="M13.9122 9.73485C14.9357 6.1226 12.9349 2.33589 9.44323 1.277C5.95157 0.218113 2.29129 2.28803 1.26775 5.90028C0.244218 9.51254 2.24503 13.2992 5.73668 14.3581C8.12164 15.0814 10.5853 14.3449 12.2336 12.6543M10.3205 10.5C9.37946 11.5236 7.93146 11.9798 6.53094 11.555C4.53571 10.95 3.39239 8.78612 3.97727 6.72198C4.56214 4.65783 6.65373 3.47502 8.64897 4.0801C10.2826 4.57552 11.3451 6.1159 11.3556 7.79094" stroke="white"/>
<path d="M19.5934 24.5518C21.2074 22.4197 23.9709 21.405 26.6361 22.2133C30.1278 23.2722 32.1286 27.0589 31.105 30.6711C30.0815 34.2834 26.4212 36.3533 22.9296 35.2944C19.6512 34.3002 17.6872 30.9014 18.3065 27.5M21.0246 29C21.1219 30.5886 22.1618 32.0176 23.7238 32.4913C25.719 33.0964 27.8106 31.9136 28.3955 29.8494C28.9804 27.7853 27.8371 25.6215 25.8418 25.0164C24.3924 24.5768 22.8921 25.0808 21.9556 26.1807" stroke="white"/>
<path fill-rule="evenodd" clip-rule="evenodd" d="M6.23511 7.40699C6.45444 6.63294 7.23879 6.18939 7.987 6.41629C11.7938 7.57074 13.9148 9.41132 15.1175 11.7785C16.0412 13.5968 16.372 15.6865 16.6708 17.5742C16.7342 17.975 16.7963 18.3667 16.8622 18.7448C17.2586 21.0179 17.7284 22.6116 18.7785 23.9077C19.8258 25.2002 21.6044 26.3781 24.9949 27.4064C25.7431 27.6333 26.1719 28.4447 25.9525 29.2188C25.7332 29.9928 24.9489 30.4364 24.2007 30.2095C20.5449 29.1008 18.1658 27.6985 16.6147 25.7842C15.0664 23.8734 14.4969 21.6337 14.0835 19.2635C13.9988 18.7775 13.924 18.3137 13.8525 17.8697C13.553 16.0115 13.3091 14.4976 12.6181 13.1375C11.8448 11.6153 10.4323 10.2018 7.19274 9.21939C6.44453 8.99249 6.01578 8.18105 6.23511 7.40699Z" stroke="white" stroke-linecap="round"/>
<path d="M22.3048 15.6511H20.4601C20.4656 15.1206 20.5097 14.6756 20.5924 14.3161C20.6752 13.951 20.813 13.6201 21.006 13.3234C21.2046 13.0268 21.4665 12.713 21.7919 12.3821C22.0456 12.1311 22.2744 11.8943 22.4785 11.6718C22.6825 11.4436 22.8452 11.204 22.9665 10.9529C23.0878 10.6962 23.1485 10.4024 23.1485 10.0715C23.1485 9.71206 23.0906 9.40683 22.9748 9.1558C22.859 8.90477 22.688 8.71365 22.4619 8.58243C22.2413 8.45121 21.9656 8.3856 21.6347 8.3856C21.359 8.3856 21.0998 8.44265 20.8571 8.55676C20.6145 8.66515 20.4187 8.83631 20.2698 9.07022C20.1209 9.29843 20.041 9.6008 20.0299 9.97735H18.0364C18.0474 9.25849 18.2128 8.65374 18.5327 8.1631C18.8526 7.67245 19.2827 7.30447 19.8231 7.05915C20.3636 6.81382 20.9674 6.69116 21.6347 6.69116C22.3737 6.69116 23.0051 6.82238 23.529 7.08482C24.0529 7.34155 24.4527 7.71809 24.7285 8.21445C25.0097 8.70509 25.1503 9.29843 25.1503 9.99446C25.1503 10.4965 25.0538 10.9529 24.8608 11.3637C24.6678 11.7688 24.4169 12.1482 24.1081 12.5019C23.7992 12.8499 23.4656 13.1979 23.1071 13.5459C22.7983 13.8369 22.5888 14.1535 22.4785 14.4958C22.3682 14.8325 22.3103 15.2176 22.3048 15.6511ZM20.2946 18.3212C20.2946 18.0131 20.3967 17.7535 20.6007 17.5424C20.8048 17.3256 21.0833 17.2172 21.4362 17.2172C21.7891 17.2172 22.0676 17.3256 22.2717 17.5424C22.4757 17.7535 22.5777 18.0131 22.5777 18.3212C22.5777 18.6293 22.4757 18.8917 22.2717 19.1085C22.0676 19.3196 21.7891 19.4251 21.4362 19.4251C21.0833 19.4251 20.8048 19.3196 20.6007 19.1085C20.3967 18.8917 20.2946 18.6293 20.2946 18.3212Z" stroke="white"/>
</svg>
