<svg width="36" height="36" viewBox="0 0 36 36" fill="none" xmlns="http://www.w3.org/2000/svg">
<path d="M0.5 0.5H13.5V1.5H0.5V0.5ZM5.5 4.5H30.5V5.5H5.5V4.5ZM0.5 8.5H13.5V9.5H0.5V8.5ZM5.5 12.5H25.5V13.5H5.5V12.5ZM5.5 17.5V16.5H13.5V17.5H5.5ZM5.5 20.5H13.5V21.5H5.5V20.5ZM0.5 24.5H13.5V25.5H0.5V24.5ZM5.5 28.5H13.5V29.5H5.5V28.5ZM5.5 33.5V32.5H13.5V33.5H5.5Z" fill="url(#paint0_linear_1159_3667)" stroke="white"/>
<path d="M31.1667 27.5H27.1667L28.2975 29.5005C27.415 30.1178 26.3696 30.46 25.2574 30.4791C22.2484 30.531 19.7575 28.1483 19.7052 25.1677C19.6531 22.1881 22.059 19.7217 25.0676 19.6699C26.6225 19.6433 28.1208 20.2783 29.176 21.4125C29.8686 22.1573 31.0415 22.2045 31.7929 21.5173C32.1977 21.1484 32.3992 20.6418 32.3902 20.1364C32.3817 19.7025 32.2197 19.2693 31.8996 18.9255C30.1278 17.022 27.6145 15.9563 25.0034 16.0014C19.9515 16.0881 15.9139 20.2288 16.0014 25.2315C16.089 30.2345 20.2691 34.2343 25.3209 34.1477C27.0637 34.1177 28.7547 33.5894 30.1927 32.6554L31.301 34.5L32.984 31.2156L34.6667 27.5H31.1667Z" stroke="white"/>
<defs>
<linearGradient id="paint0_linear_1159_3667" x1="24.2167" y1="-9.00146" x2="4.89237" y2="41.2587" gradientUnits="userSpaceOnUse">
<stop stop-color="#1AE3D7"/>
<stop offset="1" stop-color="#0945DF"/>
</linearGradient>
</defs>
</svg>
