<svg width="36" height="36" viewBox="0 0 36 36" fill="none" xmlns="http://www.w3.org/2000/svg">
<path d="M13.3221 26.4567L5.98338 35.3006C3.75822 37.9823 -1.98248 32.2421 0.699183 30.0164L9.54319 22.678L13.3221 26.4567Z" fill="url(#paint0_linear_930_2303)"/>
<path fill-rule="evenodd" clip-rule="evenodd" d="M16.0423 22.2149L13.7892 24.468L11.5321 22.2107L13.785 19.9575C10.0319 15.0966 10.3839 8.08782 14.8419 3.63023C19.6821 -1.21008 27.5295 -1.21008 32.3697 3.63023C37.2099 8.47053 37.2099 16.3181 32.3697 21.1585C27.9119 25.6161 20.9034 25.9684 16.0423 22.2149ZM16.6123 19.3876C12.7499 15.5252 12.7499 9.26302 16.6123 5.4006C20.4746 1.53818 26.737 1.53818 30.5991 5.4006C34.4614 9.26302 34.4614 15.5252 30.5991 19.3876C26.7367 23.25 20.4746 23.25 16.6123 19.3876Z" fill="url(#paint1_linear_930_2303)"/>
<defs>
<linearGradient id="paint0_linear_930_2303" x1="2.37892" y1="18.3959" x2="17.128" y2="47.8947" gradientUnits="userSpaceOnUse">
<stop stop-color="#FFC700"/>
<stop offset="1" stop-color="#DF0909"/>
</linearGradient>
<linearGradient id="paint1_linear_930_2303" x1="16.6357" y1="-6.56273" x2="29.7668" y2="30.8943" gradientUnits="userSpaceOnUse">
<stop stop-color="#1AE3D7"/>
<stop offset="1" stop-color="#0945DF"/>
</linearGradient>
</defs>
</svg>
