<svg width="35" height="28" viewBox="0 0 35 28" fill="none" xmlns="http://www.w3.org/2000/svg">
<path d="M34.9864 12.4259L31.4355 27.6109C31.3821 27.839 31.182 28 30.9521 28H1.89263C1.61798 28 1.39536 27.7733 1.39536 27.4937C1.39536 27.4492 1.40126 27.4047 1.4127 27.3616L5.34397 12.5508C5.46117 12.1095 5.85441 11.8027 6.30377 11.8027L34.5031 11.802C34.7774 11.802 35 12.0286 35 12.3083C35 12.3478 34.9954 12.3874 34.9864 12.4259ZM0.497602 0H6.37733C6.49384 0 6.60619 0.0416641 6.69565 0.117577L8.8832 2.40723C9.32983 2.78643 9.89299 2.99369 10.4745 2.99369H29.5027C29.7774 2.99369 30 3.22036 30 3.5L29.9655 7.49404C29.9655 7.77368 29.7429 8 29.4683 8H5.63217C4.50938 8 3.52587 8.76688 3.23292 9.87056L0.390801 20.1695C0.362019 20.2775 0.252786 20.3414 0.147023 20.3121C0.060332 20.2881 0 20.2083 0 20.1165L0.000693531 0.506114C0.000693531 0.226475 0.222959 0 0.497602 0Z" fill="url(#paint0_linear_6836_944)"/>
<defs>
<linearGradient id="paint0_linear_6836_944" x1="27.3415" y1="-7.41296" x2="14.989" y2="36.6323" gradientUnits="userSpaceOnUse">
<stop stop-color="#1AE3D7"/>
<stop offset="1" stop-color="#0945DF"/>
</linearGradient>
</defs>
</svg>
