<svg width="35" height="37" viewBox="0 0 35 37" fill="none" xmlns="http://www.w3.org/2000/svg">
<path fill-rule="evenodd" clip-rule="evenodd" d="M0 0H14V2H0V0ZM5 4H31V6H5V4ZM14 8H0V10H14V8ZM5 12H26V14H5V12ZM14 16H5V18H14V16ZM5 20H14V22H5V20ZM14 24H0V26H14V24ZM5 28H14V30H5V28ZM14 32H5V34H14V32Z" fill="url(#paint0_linear_930_2306)"/>
<path d="M31.5 30H27.5L28.6307 32.0005C27.7483 32.6178 26.7028 32.96 25.5906 32.9791C22.5816 33.031 20.0907 30.6483 20.0385 27.6677C19.9863 24.6881 22.3923 22.2217 25.4009 22.1699C26.9557 22.1433 28.454 22.7783 29.5092 23.9125C30.2019 24.6573 31.3748 24.7045 32.1262 24.0173C32.5309 23.6484 32.7324 23.1418 32.7235 22.6364C32.7149 22.2025 32.5529 21.7693 32.2329 21.4255C30.461 19.522 27.9478 18.4563 25.3366 18.5014C20.2847 18.5881 16.2472 22.7288 16.3346 27.7315C16.4222 32.7345 20.6023 36.7343 25.6542 36.6477C27.397 36.6177 29.0879 36.0894 30.526 35.1554L31.6342 37L33.3172 33.7156L35 30H31.5Z" fill="url(#paint1_linear_930_2306)"/>
<defs>
<linearGradient id="paint0_linear_930_2306" x1="24.2167" y1="-9.00146" x2="4.89237" y2="41.2587" gradientUnits="userSpaceOnUse">
<stop stop-color="#1AE3D7"/>
<stop offset="1" stop-color="#0945DF"/>
</linearGradient>
<linearGradient id="paint1_linear_930_2306" x1="31.6666" y1="12.5536" x2="11.2949" y2="53.664" gradientUnits="userSpaceOnUse">
<stop stop-color="#FFC700"/>
<stop offset="1" stop-color="#DF0909"/>
</linearGradient>
</defs>
</svg>
