<svg width="30" height="30" viewBox="0 0 30 30" fill="none" xmlns="http://www.w3.org/2000/svg">
<path d="M30 8.3878V26.7857C29.9991 27.6379 29.6601 28.4549 29.0575 29.0575C28.4549 29.6601 27.6379 29.9991 26.7857 30L25 30V19.2857C25 18.4332 24.6614 17.6157 24.0586 17.0129C23.4558 16.4101 22.6382 16.0714 21.7857 16.0714L8.21428 16.0714C7.3618 16.0714 6.54424 16.4101 5.94144 17.0129C5.33865 17.6157 5 18.4332 5 19.2857V30L3.21428 30C2.36209 29.9991 1.54507 29.6601 0.942476 29.0575C0.339883 28.4549 0.00093587 27.6379 0 26.7857V3.2143C0.00093587 2.3621 0.339883 1.54508 0.942476 0.942488C1.54507 0.339896 2.36209 0.000948404 3.21428 1.25335e-05H5V6C5 7 6 8 7 8H19C20 8 21 7 21 6V1.25335e-05H21.6122C22.0346 -0.00117081 22.4529 0.0814511 22.8431 0.243093C23.2333 0.404735 23.5876 0.642185 23.8853 0.941691L29.0583 6.11465C29.3578 6.41244 29.5953 6.76668 29.7569 7.15687C29.9186 7.54706 30.0012 7.96545 30 8.3878Z" fill="url(#paint0_linear_6251_20126)"/>
<path fill-rule="evenodd" clip-rule="evenodd" d="M6.99969 0V5C6.99969 5.58357 7.41612 6 7.99969 6H17.9997C18.5833 6 18.9997 5.58357 18.9997 5V0H6.99969ZM23 30V19C23 18.4165 22.5836 18 22 18H8.00001C7.41644 18 7.00001 18.4165 7.00001 19V30L23 30Z" fill="url(#paint1_linear_6251_20126)"/>
<defs>
<linearGradient id="paint0_linear_6251_20126" x1="23.4355" y1="-7.94246" x2="7.54389" y2="37.3896" gradientUnits="userSpaceOnUse">
<stop stop-color="#1AE3D7"/>
<stop offset="1" stop-color="#0945DF"/>
</linearGradient>
<linearGradient id="paint1_linear_6251_20126" x1="20.1428" y1="-9.64287" x2="-21.2887" y2="34.5516" gradientUnits="userSpaceOnUse">
<stop stop-color="#FFC700"/>
<stop offset="1" stop-color="#DF0909"/>
</linearGradient>
</defs>
</svg>
