<svg width="10" height="14" viewBox="0 0 10 14" fill="none" xmlns="http://www.w3.org/2000/svg">
<path d="M9.99281 9.2914C9.69175 9.40029 9.4099 9.48677 9.14727 9.55082C8.89104 9.62129 8.6188 9.65652 8.33055 9.65652C7.83091 9.65652 7.41774 9.54122 7.09105 9.31061C6.76437 9.0736 6.55939 8.69567 6.47611 8.17681H6.41846C6.25832 8.34336 6.07256 8.53233 5.86117 8.74371C5.65619 8.94869 5.45441 9.10563 5.25584 9.21453C5.00602 9.36186 4.74338 9.47396 4.46794 9.55082C4.1925 9.6341 3.83058 9.67573 3.38218 9.67573C3.01066 9.67573 2.65834 9.59887 2.32525 9.44513C1.99856 9.2914 1.75195 9.10883 1.5854 8.89745H1.52775V9.45474C1.52775 9.76221 1.55337 10.0569 1.60462 10.3387C1.65586 10.627 1.71351 10.9248 1.77757 11.2323C1.84162 11.5526 1.89607 11.8216 1.94091 12.0394C1.99216 12.2572 2.01778 12.4878 2.01778 12.7312C2.01778 13.0707 1.89928 13.3238 1.66227 13.4903C1.42526 13.6568 1.18505 13.7401 0.941631 13.7401C0.672593 13.7401 0.448395 13.6568 0.269037 13.4903C0.0896791 13.3238 0 13.0867 0 12.7793C0 12.4462 0.054448 11.9786 0.163344 11.3764C0.27224 10.7807 0.345905 10.3195 0.384339 9.99281C0.429179 9.61488 0.458004 9.28819 0.470815 9.01275C0.490032 8.73731 0.499641 8.45546 0.499641 8.1672V0H2.32525V6.50494C2.32525 7.11988 2.4886 7.62272 2.81528 8.01347C3.14838 8.39781 3.56154 8.58998 4.05478 8.58998C4.40709 8.58998 4.72417 8.53873 5.00602 8.43624C5.29427 8.33375 5.52487 8.21525 5.69783 8.08073C5.8964 7.9334 6.05974 7.78286 6.18786 7.62913C6.31597 7.47539 6.40565 7.35048 6.45689 7.2544V0H8.28251V7.53304C8.28251 7.80849 8.32414 8.02628 8.40742 8.18642C8.49069 8.34656 8.62841 8.47468 8.82058 8.57076C8.92948 8.62841 9.09602 8.66044 9.32022 8.66684C9.55082 8.67325 9.77502 8.67645 9.99281 8.67645V9.2914Z" fill="url(#paint0_linear_1436_2462)"/>
<defs>
<linearGradient id="paint0_linear_1436_2462" x1="7.80623" y1="-3.63768" x2="-1.31277" y2="15.2806" gradientUnits="userSpaceOnUse">
<stop stop-color="#1AE3D7"/>
<stop offset="1" stop-color="#0945DF"/>
</linearGradient>
</defs>
</svg>
