<svg width="29" height="40" viewBox="0 0 29 40" fill="none" xmlns="http://www.w3.org/2000/svg">
    <path
        d="M28.3903 4.57262L28.0661 2.7271C27.9953 2.33208 27.7774 1.99004 27.4529 1.76001C27.1992 1.58323 26.9044 1.48879 26.6038 1.48879C26.5154 1.48879 26.427 1.49484 26.3383 1.5124L18.7009 2.84861L18.5576 2.02864C18.3839 1.03877 17.435 0.376594 16.4483 0.548181L10.2066 1.64109C9.21675 1.81442 8.55259 2.76105 8.72587 3.75092L8.86925 4.56891L1.23112 5.90512C0.423229 6.04649 -0.119172 6.82497 0.0224909 7.63263L0.346679 9.47845C0.41146 9.87347 0.629694 10.2155 0.954176 10.4455C1.20783 10.6223 1.50841 10.7168 1.80931 10.7168C1.8977 10.7168 1.98609 10.7107 2.06872 10.6931L27.1759 6.30014C27.9835 6.15877 28.5317 5.38051 28.3903 4.57262H28.3903ZM9.88722 3.54708C9.82618 3.19812 10.0605 2.86415 10.4098 2.80309L16.6515 1.71018C16.6889 1.70327 16.726 1.70039 16.7629 1.70039C17.0692 1.70039 17.3413 1.92036 17.396 2.23188L17.5394 3.05185L10.031 4.36559L9.88722 3.54708Z"
        fill="url(#paint0_radial_63_312)" />
    <path
        d="M26.5684 12.5384H2.29263C2.12765 12.5384 1.9742 12.6092 1.8622 12.7273C1.75021 12.8511 1.69118 13.0103 1.70875 13.1756L3.5721 36.9737C3.6841 38.3537 4.8576 39.4385 6.2491 39.4385H22.6177C24.0034 39.4385 25.1767 38.3536 25.2886 36.9679L27.1577 13.1756C27.1695 13.0104 27.1105 12.8515 26.9985 12.7274C26.8928 12.609 26.7336 12.5382 26.5687 12.5382L26.5684 12.5384ZM9.0426 36.739C9.02418 36.7407 9.00604 36.7413 8.9879 36.7413C8.68646 36.7413 8.42964 36.5115 8.40142 36.2058L6.59534 16.6516C6.56539 16.3274 6.80378 16.0401 7.12827 16.0102C7.45015 15.9796 7.73951 16.2186 7.76945 16.5434L9.57553 36.0975C9.60548 36.4217 9.36709 36.709 9.0426 36.739V36.739ZM15.0208 36.1516C15.0208 36.4776 14.7568 36.7413 14.4312 36.7413C14.1055 36.7413 13.8415 36.4776 13.8415 36.1516V16.5975C13.8415 16.2716 14.1055 16.0078 14.4312 16.0078C14.7568 16.0078 15.0208 16.2716 15.0208 16.5975V36.1516ZM20.4607 36.2058C20.4324 36.5115 20.1753 36.7413 19.8742 36.7413C19.856 36.7413 19.8379 36.7407 19.8195 36.739C19.495 36.709 19.2566 36.4217 19.2866 36.0975L21.0926 16.5434C21.1223 16.2192 21.4093 15.9785 21.7338 16.0101C22.0583 16.0401 22.2967 16.3274 22.2667 16.6516L20.4607 36.2058Z"
        fill="url(#paint1_radial_63_312)" />
    <path
        d="M22.0965 8.52214C21.8777 8.30333 21.5261 8.29124 21.2926 8.49393L20.2493 9.40169L20.534 11.3592H24.9339L22.0965 8.52214Z"
        fill="url(#paint2_radial_63_312)" />
    <path
        d="M19.0635 9.44275C19.0169 9.12029 18.7137 8.89399 18.3953 8.94408L10.9164 10.0307C10.5942 10.0773 10.3708 10.3762 10.4174 10.6986L10.513 11.3597H19.3422L19.0635 9.44275Z"
        fill="url(#paint3_radial_63_312)" />
    <defs>
        <radialGradient id="paint0_radial_63_312" cx="0" cy="0" r="1" gradientUnits="userSpaceOnUse"
            gradientTransform="translate(19.1277 2.4328) rotate(120.714) scale(9.63559 20.7489)">
            <stop stopColor="#1AE3D7" />
            <stop offset="1" stopColor="#0945DF" />
        </radialGradient>
        <radialGradient id="paint1_radial_63_312" cx="0" cy="0" r="1" gradientUnits="userSpaceOnUse"
            gradientTransform="translate(18.8414 17.582) rotate(101.405) scale(22.2967 21.194)">
            <stop stopColor="#1AE3D7" />
            <stop offset="1" stopColor="#0945DF" />
        </radialGradient>
        <radialGradient id="paint2_radial_63_312" cx="0" cy="0" r="1" gradientUnits="userSpaceOnUse"
            gradientTransform="translate(23.403 8.91392) rotate(108.358) scale(2.57644 3.77673)">
            <stop stopColor="#1AE3D7" />
            <stop offset="1" stopColor="#0945DF" />
        </radialGradient>
        <radialGradient id="paint3_radial_63_312" cx="0" cy="0" r="1" gradientUnits="userSpaceOnUse"
            gradientTransform="translate(16.4237 9.39136) rotate(128.165) scale(2.50347 5.96452)">
            <stop stopColor="#1AE3D7" />
            <stop offset="1" stopColor="#0945DF" />
        </radialGradient>
    </defs>
</svg>