<svg width="16" height="11" viewBox="0 0 16 11" fill="none" xmlns="http://www.w3.org/2000/svg">
<rect x="0.5" y="3" width="3" height="15" transform="rotate(-90 0.5 3)" fill="url(#paint0_linear_6181_18005)"/>
<rect x="8.5" y="2" width="7" height="9" fill="url(#paint1_linear_6181_18005)"/>
<path fill-rule="evenodd" clip-rule="evenodd" d="M3.15699 6.42393V3.57898H3.05134L0.996094 3.99822V4.44085L2.17539 4.22636V6.42393H3.15699ZM7.62934 5.28322V4.79184C7.62934 4.62154 7.60321 4.47075 7.55095 4.33945C7.49868 4.20686 7.4237 4.09311 7.32599 3.99822C7.22829 3.90202 7.11013 3.82337 6.97152 3.76227C6.83292 3.70118 6.67727 3.65633 6.50458 3.62773C6.33416 3.59783 6.14897 3.58288 5.94902 3.58288C5.69907 3.58288 5.47185 3.60628 5.26734 3.65308C5.06284 3.69858 4.88561 3.77007 4.73564 3.86757C4.58794 3.96507 4.4732 4.09051 4.39139 4.24391C4.31187 4.396 4.2721 4.57865 4.2721 4.79184V5.28322C4.2721 5.45482 4.29823 5.60691 4.35049 5.73951C4.40276 5.8721 4.47774 5.9865 4.57545 6.08269C4.67543 6.17759 4.79358 6.25624 4.92992 6.31864C5.06852 6.38103 5.22417 6.42718 5.39686 6.45708C5.56955 6.48568 5.75588 6.49998 5.95583 6.49998C6.20578 6.49998 6.433 6.47658 6.6375 6.42978C6.84201 6.38298 7.0181 6.31084 7.1658 6.21334C7.31577 6.11454 7.43052 5.98845 7.51005 5.83505C7.58957 5.68036 7.62934 5.49641 7.62934 5.28322ZM6.64432 4.71579V5.35732C6.64432 5.48601 6.62955 5.59521 6.60001 5.68491C6.57047 5.7746 6.52503 5.8474 6.46368 5.9033C6.4046 5.9579 6.33189 5.9982 6.24554 6.0242C6.16147 6.0489 6.0649 6.06125 5.95583 6.06125C5.86722 6.06125 5.78541 6.05345 5.71043 6.03785C5.63772 6.02225 5.57296 5.99755 5.51615 5.96375C5.46162 5.92865 5.4139 5.8838 5.373 5.8292C5.33437 5.7733 5.30484 5.70636 5.28439 5.62836C5.26621 5.55036 5.25712 5.46002 5.25712 5.35732V4.71579C5.25712 4.5884 5.27189 4.4805 5.30143 4.3921C5.33324 4.3024 5.37868 4.23091 5.43776 4.17761C5.49684 4.12301 5.56842 4.08336 5.65249 4.05866C5.73883 4.03396 5.83768 4.02161 5.94902 4.02161C6.03763 4.02161 6.1183 4.02941 6.19101 4.04501C6.26372 4.06061 6.32848 4.08531 6.38529 4.11911C6.44209 4.15291 6.48981 4.19711 6.52844 4.25171C6.56706 4.305 6.59547 4.37 6.61365 4.4467C6.6341 4.5234 6.64432 4.61309 6.64432 4.71579ZM4.40118 9.32513V8.82827C4.40118 8.65608 4.37505 8.5036 4.32279 8.37084C4.27053 8.23677 4.19554 8.12176 4.09784 8.0258C4.00013 7.92853 3.88197 7.84901 3.74337 7.78723C3.60476 7.72545 3.44911 7.6801 3.27642 7.65118C3.106 7.62095 2.92082 7.60583 2.72086 7.60583C2.47091 7.60583 2.24369 7.62949 2.03919 7.67682C1.83468 7.72282 1.65745 7.79511 1.50748 7.8937C1.35979 7.99228 1.24504 8.11913 1.16324 8.27423C1.08371 8.42802 1.04395 8.6127 1.04395 8.82827V9.32513C1.04395 9.49864 1.07008 9.65243 1.12234 9.7865C1.1746 9.92058 1.24958 10.0362 1.34729 10.1335C1.44727 10.2295 1.56542 10.309 1.70176 10.3721C1.84037 10.4352 1.99601 10.4818 2.1687 10.5121C2.34139 10.541 2.52772 10.5555 2.72768 10.5555C2.97762 10.5555 3.20485 10.5318 3.40935 10.4845C3.61385 10.4372 3.78995 10.3642 3.93764 10.2656C4.08761 10.1657 4.20236 10.0382 4.28189 9.88311C4.36142 9.72669 4.40118 9.5407 4.40118 9.32513ZM3.41616 8.75138V9.40005C3.41616 9.53018 3.40139 9.6406 3.37186 9.7313C3.34232 9.82199 3.29687 9.8956 3.23552 9.95212C3.17644 10.0073 3.10373 10.0481 3.01739 10.0744C2.93331 10.0993 2.83674 10.1118 2.72768 10.1118C2.63906 10.1118 2.55726 10.1039 2.48227 10.0882C2.40956 10.0724 2.3448 10.0474 2.288 10.0132C2.23346 9.97775 2.18575 9.9324 2.14485 9.8772C2.10622 9.82068 2.07668 9.75298 2.05623 9.67412C2.03805 9.59525 2.02896 9.5039 2.02896 9.40005V8.75138C2.02896 8.62256 2.04373 8.51346 2.07327 8.42408C2.10508 8.33338 2.15053 8.26109 2.2096 8.20719C2.26868 8.15199 2.34026 8.1119 2.42433 8.08692C2.51068 8.06195 2.60952 8.04946 2.72086 8.04946C2.80948 8.04946 2.89014 8.05735 2.96285 8.07312C3.03556 8.08889 3.10032 8.11387 3.15713 8.14804C3.21393 8.18222 3.26165 8.22691 3.30028 8.28212C3.33891 8.33601 3.36731 8.40173 3.38549 8.47928C3.40594 8.55684 3.41616 8.64753 3.41616 8.75138ZM7.58021 10.516V7.63935H7.47455L5.41931 8.06326V8.51083L6.5986 8.29395V10.516H7.58021Z" fill="black"/>
<defs>
<linearGradient id="paint0_linear_6181_18005" x1="2.96428" y1="-1.82143" x2="-11.3522" y2="3.90517" gradientUnits="userSpaceOnUse">
<stop stop-color="#FFC700"/>
<stop offset="1" stop-color="#DF0909"/>
</linearGradient>
<linearGradient id="paint1_linear_6181_18005" x1="13.9683" y1="-0.382738" x2="8.24753" y2="12.3097" gradientUnits="userSpaceOnUse">
<stop stop-color="#1AE3D7"/>
<stop offset="1" stop-color="#0945DF"/>
</linearGradient>
</defs>
</svg>
