<svg width="5" height="13" viewBox="0 0 5 13" fill="none" xmlns="http://www.w3.org/2000/svg">
<path d="M4.61224 13H0.281456V12.4337C0.42067 12.4222 0.562912 12.4108 0.708179 12.3993C0.859499 12.3879 0.989635 12.365 1.09859 12.3307C1.26806 12.2792 1.39215 12.1905 1.47083 12.0647C1.55557 11.9331 1.59794 11.7644 1.59794 11.5584V6.33267C1.59794 6.14961 1.55255 5.98372 1.46175 5.83498C1.37701 5.68053 1.25596 5.55182 1.09859 5.44884C0.983582 5.3802 0.81713 5.32299 0.599228 5.27723C0.381327 5.22574 0.181584 5.19428 0 5.18284V4.62508L3.15957 4.4363L3.28668 4.55644V11.4554C3.28668 11.6557 3.32602 11.8216 3.40471 11.9531C3.48945 12.0847 3.61958 12.182 3.79511 12.2449C3.92828 12.2964 4.05841 12.3393 4.18552 12.3736C4.31263 12.4022 4.45487 12.4222 4.61224 12.4337V13ZM3.46826 1.09835C3.46826 1.42442 3.35326 1.71045 3.12325 1.95644C2.8993 2.1967 2.62087 2.31683 2.28796 2.31683C1.97927 2.31683 1.70992 2.20242 1.47991 1.9736C1.25596 1.73905 1.14398 1.47305 1.14398 1.17558C1.14398 0.860946 1.25596 0.586359 1.47991 0.351815C1.70992 0.117272 1.97927 0 2.28796 0C2.63297 0 2.91443 0.111551 3.13233 0.334653C3.35628 0.552035 3.46826 0.806601 3.46826 1.09835Z" fill="url(#paint0_linear_1436_2466)"/>
<defs>
<linearGradient id="paint0_linear_1436_2466" x1="3.60301" y1="-3.44173" x2="-7.42519" y2="7.71945" gradientUnits="userSpaceOnUse">
<stop stop-color="#1AE3D7"/>
<stop offset="1" stop-color="#0945DF"/>
</linearGradient>
</defs>
</svg>
