<svg width="15" height="11" viewBox="0 0 15 11" fill="none" xmlns="http://www.w3.org/2000/svg">
<rect y="3" width="3" height="15" transform="rotate(-90 0 3)" fill="url(#paint0_linear_436_1848)"/>
<path d="M15 11L15 3L14 3L14 4L13 4L13 3L12 3L12 4L11 4L11 3L10.0307 3L10 4L9 4L9 3L8 3L8 11L15 11Z" fill="url(#paint1_linear_436_1848)"/>
<rect y="4" width="1" height="1" fill="black"/>
<rect y="6" width="1" height="1" fill="black"/>
<rect y="8" width="1" height="1" fill="black"/>
<rect y="10" width="1" height="1" fill="black"/>
<rect x="2" y="4" width="1" height="1" fill="black"/>
<rect x="2" y="6" width="1" height="1" fill="black"/>
<rect x="2" y="8" width="1" height="1" fill="black"/>
<rect x="2" y="10" width="1" height="1" fill="black"/>
<rect x="4" y="4" width="1" height="1" fill="black"/>
<rect x="4" y="6" width="1" height="1" fill="black"/>
<rect x="4" y="8" width="1" height="1" fill="black"/>
<rect x="4" y="10" width="1" height="1" fill="black"/>
<rect x="6" y="4" width="1" height="1" fill="black"/>
<rect x="6" y="6" width="1" height="1" fill="black"/>
<rect x="6" y="8" width="1" height="1" fill="black"/>
<path d="M12.167 5V9.98682H11.1826V6.13477L10 6.51074V5.73486L12.061 5H12.167Z" fill="white"/>
<defs>
<linearGradient id="paint0_linear_436_1848" x1="2.46428" y1="-1.82143" x2="-11.8522" y2="3.90517" gradientUnits="userSpaceOnUse">
<stop stop-color="#FFC700"/>
<stop offset="1" stop-color="#DF0909"/>
</linearGradient>
<linearGradient id="paint1_linear_436_1848" x1="13.4683" y1="0.882012" x2="8.78212" y2="12.5787" gradientUnits="userSpaceOnUse">
<stop stop-color="#1AE3D7"/>
<stop offset="1" stop-color="#0945DF"/>
</linearGradient>
</defs>
</svg>
