<svg width="12" height="12" viewBox="0 0 12 12" fill="none" xmlns="http://www.w3.org/2000/svg">
<path fill-rule="evenodd" clip-rule="evenodd" d="M1.99447 11.7669L4.44073 8.81894L3.18108 7.55936L0.233074 10.0055C-0.660811 10.7474 1.25275 12.6608 1.99447 11.7669ZM5.34748 7.40496L4.59644 8.15601L3.84408 7.40356L4.59506 6.65251C3.344 5.03221 3.46134 2.69594 4.94734 1.21008C6.56075 -0.403358 9.17652 -0.403358 10.7899 1.21008C12.4034 2.82351 12.4034 5.43938 10.7899 7.05284C9.304 8.5387 6.96785 8.65613 5.34748 7.40496ZM5.53746 6.46253C4.25 5.17506 4.25 3.08767 5.53746 1.8002C6.82492 0.512728 8.91236 0.512728 10.1997 1.8002C11.4872 3.08767 11.4872 5.17506 10.1997 6.46253C8.91227 7.75 6.82492 7.75 5.53746 6.46253Z" fill="url(#paint0_linear_553_2112)"/>
<defs>
<linearGradient id="paint0_linear_553_2112" x1="2.62579" y1="-3.17698" x2="8.98245" y2="14.9558" gradientUnits="userSpaceOnUse">
<stop stop-color="#1AE3D7"/>
<stop offset="1" stop-color="#0945DF"/>
</linearGradient>
</defs>
</svg>
