<svg width="15" height="11" viewBox="0 0 15 11" fill="none" xmlns="http://www.w3.org/2000/svg">
<path d="M0 3L-9.83506e-08 9.53674e-07L15 7.94466e-08L15 2.5L7.5 2.5L7.5 3L0 3Z" fill="white"/>
<rect x="8" y="3" width="7" height="8" fill="white"/>
<path d="M2.5875 4.07104V10.9999H1.54471V5.42741L0 6.00126V5.05749L2.46202 4.07104H2.5875Z" fill="white"/>
<path d="M7 10.3496V11H4.08367V10.4411L5.5 8.6897C5.65538 8.49097 5.77789 8.31933 5.86753 8.1748C5.95717 8.03026 6.01992 7.90041 6.05578 7.78523C6.09363 7.6678 6.11255 7.55375 6.11255 7.44309C6.11255 7.28726 6.08665 7.15063 6.03486 7.0332C5.98506 6.9135 5.91135 6.81978 5.81375 6.75203C5.71614 6.68202 5.59761 6.64702 5.45817 6.64702C5.29681 6.64702 5.16135 6.68654 5.05179 6.76558C4.94223 6.84463 4.85956 6.95416 4.80378 7.09417C4.74801 7.23193 4.72012 7.39002 4.72012 7.56843H4C4 7.28162 4.05777 7.01965 4.17331 6.78252C4.28884 6.54313 4.45618 6.35343 4.6753 6.21341C4.89442 6.07114 5.15837 6 5.46713 6C5.75797 6 6.00498 6.05533 6.20817 6.16599C6.41135 6.27665 6.56574 6.4336 6.67131 6.63686C6.77888 6.84011 6.83267 7.08062 6.83267 7.3584C6.83267 7.51197 6.81076 7.66441 6.76693 7.81572C6.72311 7.96703 6.66036 8.11834 6.57869 8.26965C6.499 8.4187 6.40438 8.56888 6.29482 8.72019C6.18526 8.86924 6.06474 9.02055 5.93327 9.17412L4.99203 10.3496H7Z" fill="white"/>
</svg>
