<svg width="11" height="13" viewBox="0 0 11 13" fill="none" xmlns="http://www.w3.org/2000/svg">
<path d="M10.9714 8.94151L10.5333 13H0V12.6794L5.32257 6.85271L0.149144 0.320648V0H10.1231V3.45384H9.46131C9.3246 2.84308 9.06049 2.26897 8.66898 1.7315C8.2837 1.18793 7.88287 0.882546 7.46651 0.815363C7.28008 0.784825 7.01287 0.763448 6.66486 0.751233C6.32308 0.732911 6.04343 0.723749 5.82593 0.723749H2.94559L7.09365 5.96406V6.11064L2.24648 11.3876H8.33341C8.61306 11.3876 8.86163 11.3051 9.07913 11.1402C9.29663 10.9753 9.48306 10.7646 9.63842 10.5081C9.78135 10.276 9.90874 10.0195 10.0206 9.73855C10.1325 9.45149 10.2319 9.18581 10.3189 8.94151H10.9714Z" fill="url(#paint0_linear_1436_2464)"/>
<defs>
<linearGradient id="paint0_linear_1436_2464" x1="8.57068" y1="-3.44173" x2="0.756504" y2="15.3704" gradientUnits="userSpaceOnUse">
<stop stop-color="#1AE3D7"/>
<stop offset="1" stop-color="#0945DF"/>
</linearGradient>
</defs>
</svg>
