<svg width="15" height="11" viewBox="0 0 15 11" fill="none" xmlns="http://www.w3.org/2000/svg">
<rect y="3" width="3" height="15" transform="rotate(-90 0 3)" fill="url(#paint0_linear_272_1318)"/>
<rect x="11" y="2" width="4" height="9" fill="url(#paint1_linear_272_1318)"/>
<path fill-rule="evenodd" clip-rule="evenodd" d="M6.42551 8.29591C6.78529 8.02057 7.29209 7.88297 7.94604 7.88297H8.77376V7.43007C8.77376 7.16365 8.70227 6.95279 8.55917 6.79734C8.41606 6.64641 8.20761 6.57088 7.93379 6.57088C7.69258 6.57088 7.50043 6.63522 7.35745 6.76403C7.21435 6.88392 7.14286 7.04377 7.14286 7.24358L6.11895 7.25024V7.2236C6.09847 6.81958 6.2661 6.46206 6.62171 6.15129C6.97327 5.83599 7.43311 5.6784 8.00123 5.6784C8.54899 5.6784 8.9924 5.82932 9.3317 6.1313C9.66279 6.43768 9.82833 6.875 9.82833 7.44339V9.72122C9.82833 9.92995 9.84268 10.1319 9.87125 10.3273C9.89577 10.5226 9.93869 10.7113 10 10.8934H8.92704C8.89025 10.769 8.8596 10.6426 8.83507 10.5138C8.8065 10.3894 8.78811 10.2674 8.77989 10.1475C8.63679 10.3873 8.4488 10.5892 8.21582 10.7536C7.97462 10.9178 7.70693 11 7.41263 11C6.92214 11 6.54605 10.8601 6.28449 10.5804C6.01876 10.3096 5.88596 9.93208 5.88596 9.44815C5.88596 8.95528 6.06585 8.57125 6.42551 8.29591ZM1.87002 8.32255H3.54384L2.72839 5.60514H2.69773L1.87002 8.32255ZM3.21888 4L5.40773 10.8934H4.31024L3.83201 9.28164H1.58185L1.09135 10.8934H0L2.21336 4H3.21888ZM6.94666 9.42816C6.94666 9.62344 7.00589 9.78116 7.12447 9.90105C7.24304 10.0165 7.41263 10.0742 7.63335 10.0742C7.89491 10.0742 8.13403 10.001 8.35071 9.85442C8.56321 9.71243 8.70423 9.54592 8.77376 9.3549V8.59562H7.93379C7.62306 8.59562 7.38197 8.67994 7.2103 8.84872C7.03458 9.01296 6.94666 9.20611 6.94666 9.42816Z" fill="black"/>
<defs>
<linearGradient id="paint0_linear_272_1318" x1="2.46428" y1="-1.82143" x2="-11.8522" y2="3.90517" gradientUnits="userSpaceOnUse">
<stop stop-color="#FFC700"/>
<stop offset="1" stop-color="#DF0909"/>
</linearGradient>
<linearGradient id="paint1_linear_272_1318" x1="14.1247" y1="-0.382738" x2="6.69931" y2="9.03128" gradientUnits="userSpaceOnUse">
<stop stop-color="#1AE3D7"/>
<stop offset="1" stop-color="#0945DF"/>
</linearGradient>
</defs>
</svg>
