<svg width="14" height="14" viewBox="0 0 14 14" fill="none" xmlns="http://www.w3.org/2000/svg">
<path d="M14 3.9143V12.5C13.9996 12.8977 13.8414 13.279 13.5602 13.5602C13.279 13.8414 12.8977 13.9996 12.5 14H11.5V9C11.5 8.60218 11.342 8.22065 11.0607 7.93934C10.7794 7.65804 10.3978 7.5 10 7.5H4C3.60217 7.5 3.22064 7.65804 2.93934 7.93934C2.65803 8.22065 2.5 8.60218 2.5 9V14H1.5C1.10231 13.9996 0.721032 13.8414 0.439822 13.5602C0.158612 13.279 0.000436739 12.8977 0 12.5V1.50001C0.000436739 1.10231 0.158612 0.721038 0.439822 0.439828C0.721032 0.158618 1.10231 0.000442588 1.5 5.84895e-06H4V2.50001C4 2.89783 4.15803 3.27936 4.43934 3.56066C4.72064 3.84197 5.10217 4 5.5 4H8.5C8.89782 4 9.27935 3.84197 9.56066 3.56066C9.84196 3.27936 10 2.89783 10 2.50001V5.84895e-06H10.0857C10.2828 -0.000546379 10.478 0.0380105 10.6601 0.113443C10.8422 0.188876 11.0075 0.299686 11.1465 0.439456L13.5605 2.8535C13.7003 2.99247 13.8111 3.15778 13.8866 3.33987C13.962 3.52196 14.0005 3.71721 14 3.9143Z" fill="url(#paint0_linear_1819_3002)"/>
<path fill-rule="evenodd" clip-rule="evenodd" d="M5 0V2.5C5 2.63261 5.05268 2.75978 5.14645 2.85355C5.24021 2.94732 5.36739 3 5.5 3H8.5C8.63261 3 8.75978 2.94732 8.85355 2.85355C8.94732 2.75978 9 2.63261 9 2.5V0H5ZM10.5 14V9C10.5 8.86739 10.4473 8.74021 10.3536 8.64644C10.2598 8.55268 10.1326 8.5 10 8.5H4C3.86739 8.5 3.74021 8.55268 3.64645 8.64644C3.55268 8.74021 3.5 8.86739 3.5 9V14H10.5ZM4.5 10.4176H9.5C9.5 10.4176 9.75978 10.4703 9.85355 10.564C9.94732 10.6578 10 10.785 10 10.9176C10 11.0502 9.94732 11.1774 9.85355 11.2712C9.75978 11.3649 9.63261 11.4176 9.5 11.4176H4.5C4.36739 11.4176 4.24021 11.3649 4.14645 11.2712C4.05268 11.1774 4 11.0502 4 10.9176C4 10.785 4.04077 10.6697 4.14645 10.564C4.25212 10.4584 4.3675 10.4176 4.5 10.4176ZM4.5 11.9176H9.5C9.63261 11.9176 9.75978 11.9703 9.85355 12.064C9.94732 12.1578 10 12.285 10 12.4176C10 12.5502 9.94732 12.6774 9.85355 12.7712C9.75978 12.8649 9.63261 12.9176 9.5 12.9176H4.5C4.36739 12.9176 4.24021 12.8649 4.14645 12.7712C4.05268 12.6774 4 12.5502 4 12.4176C4 12.285 4.05268 12.1578 4.14645 12.064C4.24021 11.9703 4.36739 11.9176 4.5 11.9176Z" fill="url(#paint1_linear_1819_3002)"/>
<defs>
<linearGradient id="paint0_linear_1819_3002" x1="10.9366" y1="-3.70648" x2="3.52048" y2="17.4485" gradientUnits="userSpaceOnUse">
<stop stop-color="#1AE3D7"/>
<stop offset="1" stop-color="#0945DF"/>
</linearGradient>
<linearGradient id="paint1_linear_1819_3002" x1="9.25" y1="-4.5" x2="-10.125" y2="14.875" gradientUnits="userSpaceOnUse">
<stop stop-color="#FFC700"/>
<stop offset="1" stop-color="#DF0909"/>
</linearGradient>
</defs>
</svg>
