<svg width="15" height="11" viewBox="0 0 15 11" fill="none" xmlns="http://www.w3.org/2000/svg">
<path fill-rule="evenodd" clip-rule="evenodd" d="M0 0V3L3 3V0H0ZM4 0V3L7 3V0H4ZM8 3V0H11V3L8 3ZM12 0V3L15 3V0H12Z" fill="url(#paint0_linear_553_2070)"/>
<rect x="3" y="9" width="3" height="1" transform="rotate(180 3 9)" fill="black"/>
<rect x="11" y="7" width="3" height="1" transform="rotate(180 11 7)" fill="black"/>
<rect x="7" y="11" width="3" height="1" transform="rotate(180 7 11)" fill="black"/>
<rect x="15" y="11" width="3" height="1" transform="rotate(180 15 11)" fill="black"/>
<path fill-rule="evenodd" clip-rule="evenodd" d="M3 5L0 5V4H3V5ZM7 5L4 5V4H7V5ZM8 5L11 5V4H8V5ZM15 5L12 5V4H15V5ZM4 9L7 9V8H4V9ZM15 9L12 9V8H15V9ZM4 7L7 7V6L4 6V7ZM3 7L0 7V6L3 6V7ZM12 7L15 7V6L12 6V7Z" fill="url(#paint1_linear_553_2070)"/>
<defs>
<linearGradient id="paint0_linear_553_2070" x1="11.7178" y1="-0.794246" x2="11.3626" y2="4.27116" gradientUnits="userSpaceOnUse">
<stop stop-color="#1AE3D7"/>
<stop offset="1" stop-color="#0945DF"/>
</linearGradient>
<linearGradient id="paint1_linear_553_2070" x1="12.3214" y1="2.39286" x2="10.0772" y2="15.8581" gradientUnits="userSpaceOnUse">
<stop stop-color="#FFC700"/>
<stop offset="1" stop-color="#DF0909"/>
</linearGradient>
</defs>
</svg>
