<svg width="10" height="7" viewBox="0 0 10 7" fill="none" xmlns="http://www.w3.org/2000/svg">
<rect y="2" width="2" height="10" transform="rotate(-90 0 2)" fill="url(#paint0_linear_6053_18007)"/>
<rect x="7" y="1" width="3" height="6" fill="url(#paint1_linear_6053_18007)"/>
<path fill-rule="evenodd" clip-rule="evenodd" d="M4.28367 5.27917C4.52352 5.10396 4.86139 5.01639 5.29736 5.01639H5.84917V4.72818C5.84917 4.55864 5.80151 4.42446 5.70611 4.32553C5.61071 4.22949 5.47174 4.18143 5.28919 4.18143C5.12839 4.18143 5.00029 4.22237 4.90497 4.30434C4.80957 4.38063 4.76191 4.48235 4.76191 4.60951L4.0793 4.61374V4.59679C4.06564 4.33969 4.1774 4.11217 4.41447 3.91441C4.64885 3.71376 4.95541 3.61348 5.33415 3.61348C5.69933 3.61348 5.99493 3.70953 6.22113 3.90169C6.44186 4.09666 6.55222 4.37495 6.55222 4.73666V6.18618C6.55222 6.31902 6.56178 6.44752 6.58083 6.57188C6.59718 6.69615 6.62579 6.81626 6.66667 6.93214H5.95136C5.92683 6.85297 5.9064 6.77252 5.89005 6.69055C5.871 6.61138 5.85874 6.53373 5.85326 6.45744C5.75786 6.61002 5.63254 6.73853 5.47721 6.84313C5.31641 6.94765 5.13795 6.99996 4.94175 6.99996C4.61476 6.99996 4.36403 6.91095 4.18966 6.73294C4.01251 6.5606 3.92397 6.32037 3.92397 6.01241C3.92397 5.69877 4.0439 5.45439 4.28367 5.27917ZM1.24668 5.29612H2.36256L1.81893 3.56686H1.79849L1.24668 5.29612ZM2.14592 2.54541L3.60515 6.93214H2.87349L2.55467 5.90645H1.05457L0.72757 6.93214H0L1.47558 2.54541H2.14592ZM4.63111 5.9997C4.63111 6.12397 4.67059 6.22433 4.74964 6.30062C4.8287 6.37411 4.94175 6.41082 5.0889 6.41082C5.26327 6.41082 5.42269 6.3642 5.56714 6.27095C5.70881 6.18059 5.80282 6.07463 5.84917 5.95307V5.4699H5.28919C5.08204 5.4699 4.92132 5.52356 4.80687 5.63096C4.68972 5.73548 4.63111 5.85839 4.63111 5.9997Z" fill="white"/>
<defs>
<linearGradient id="paint0_linear_6053_18007" x1="1.64286" y1="-1.21429" x2="-7.90148" y2="2.60345" gradientUnits="userSpaceOnUse">
<stop stop-color="#FFC700"/>
<stop offset="1" stop-color="#DF0909"/>
</linearGradient>
<linearGradient id="paint1_linear_6053_18007" x1="9.34355" y1="-0.588492" x2="4.5581" y2="6.23693" gradientUnits="userSpaceOnUse">
<stop stop-color="#1AE3D7"/>
<stop offset="1" stop-color="#0945DF"/>
</linearGradient>
</defs>
</svg>
