<svg width="15" height="11" viewBox="0 0 15 11" fill="none" xmlns="http://www.w3.org/2000/svg">
<rect y="3" width="3" height="15" transform="rotate(-90 0 3)" fill="url(#paint0_linear_617_1947)"/>
<rect x="13" y="2" width="2" height="9" fill="url(#paint1_linear_617_1947)"/>
<rect y="4" width="4" height="1" fill="black"/>
<rect y="10" width="4" height="1" fill="black"/>
<rect y="8" width="2" height="1" fill="black"/>
<rect y="6" width="1" height="1" fill="black"/>
<rect x="5" y="4" width="2" height="1" fill="black"/>
<rect x="5" y="10" width="2" height="1" fill="black"/>
<rect x="3" y="8" width="4" height="1" fill="black"/>
<rect x="2" y="6" width="4" height="1" fill="black"/>
<rect x="8" y="4" width="3" height="1" fill="black"/>
<rect x="8" y="8" width="3" height="1" fill="black"/>
<rect x="7" y="6" width="2" height="1" fill="black"/>
<rect x="10" y="6" width="1" height="1" fill="black"/>
<defs>
<linearGradient id="paint0_linear_617_1947" x1="2.46428" y1="-1.82143" x2="-11.8522" y2="3.90517" gradientUnits="userSpaceOnUse">
<stop stop-color="#FFC700"/>
<stop offset="1" stop-color="#DF0909"/>
</linearGradient>
<linearGradient id="paint1_linear_617_1947" x1="14.5624" y1="-0.382738" x2="7.65692" y2="3.99465" gradientUnits="userSpaceOnUse">
<stop stop-color="#1AE3D7"/>
<stop offset="1" stop-color="#0945DF"/>
</linearGradient>
</defs>
</svg>
