<svg width="15" height="11" viewBox="0 0 15 11" fill="none" xmlns="http://www.w3.org/2000/svg">
<rect y="3" width="3" height="15" transform="rotate(-90 0 3)" fill="url(#paint0_linear_617_2005)"/>
<path d="M4.33811 8.17866H3.36345C3.366 7.93565 3.38384 7.72639 3.41696 7.55089C3.45264 7.37268 3.51252 7.21202 3.59661 7.06891C3.68324 6.92581 3.79791 6.78405 3.9406 6.64365C4.06037 6.53024 4.16484 6.42224 4.25403 6.31963C4.34321 6.21703 4.41328 6.11172 4.46425 6.00372C4.51521 5.89301 4.54069 5.77016 4.54069 5.63515C4.54069 5.47854 4.51776 5.34894 4.47189 5.24633C4.42857 5.14103 4.36232 5.06138 4.27314 5.00737C4.1865 4.95337 4.07693 4.92637 3.94443 4.92637C3.83486 4.92637 3.73293 4.95202 3.63865 5.00332C3.54437 5.05193 3.46665 5.12753 3.4055 5.23013C3.34689 5.33274 3.31631 5.46774 3.31376 5.63515H2.20532C2.21297 5.26524 2.29323 4.96012 2.44612 4.71981C2.60156 4.4768 2.80923 4.29724 3.06914 4.18114C3.32905 4.06233 3.62081 4.00293 3.94443 4.00293C4.30117 4.00293 4.60694 4.06503 4.86176 4.18924C5.11657 4.31074 5.3115 4.4903 5.44655 4.72791C5.5816 4.96282 5.64913 5.24903 5.64913 5.58655C5.64913 5.82146 5.60581 6.03072 5.51918 6.21433C5.43254 6.39523 5.31915 6.56399 5.179 6.7206C5.03885 6.87721 4.88469 7.03921 4.71651 7.20662C4.57127 7.34433 4.47189 7.48878 4.41838 7.63999C4.36742 7.7912 4.34066 7.97075 4.33811 8.17866ZM3.24878 9.43017C3.24878 9.25736 3.30484 9.11425 3.41696 9.00085C3.52908 8.88474 3.67942 8.82669 3.86798 8.82669C4.054 8.82669 4.20306 8.88474 4.31518 9.00085C4.42985 9.11425 4.48718 9.25736 4.48718 9.43017C4.48718 9.59758 4.42985 9.73933 4.31518 9.85544C4.20306 9.97154 4.054 10.0296 3.86798 10.0296C3.67942 10.0296 3.52908 9.97154 3.41696 9.85544C3.30484 9.73933 3.24878 9.59758 3.24878 9.43017Z" fill="black"/>
<path fill-rule="evenodd" clip-rule="evenodd" d="M15 2H8L8 11L15 11L15 2ZM11.9797 8.14473L12.1146 4.01167H10.8596L10.9986 8.14473H11.9797ZM11.0067 8.99096C10.8868 9.10543 10.8269 9.24987 10.8269 9.4243C10.8269 9.59327 10.8868 9.73636 11.0067 9.85355C11.1294 9.97074 11.2902 10.0293 11.4891 10.0293C11.6908 10.0293 11.8516 9.97074 11.9715 9.85355C12.0914 9.73636 12.1514 9.59327 12.1514 9.4243C12.1514 9.24987 12.0914 9.10543 11.9715 8.99096C11.8516 8.87377 11.6908 8.81517 11.4891 8.81517C11.2902 8.81517 11.1294 8.87377 11.0067 8.99096Z" fill="url(#paint1_linear_617_2005)"/>
<defs>
<linearGradient id="paint0_linear_617_2005" x1="2.46428" y1="-1.82143" x2="-11.8522" y2="3.90517" gradientUnits="userSpaceOnUse">
<stop stop-color="#FFC700"/>
<stop offset="1" stop-color="#DF0909"/>
</linearGradient>
<linearGradient id="paint1_linear_617_2005" x1="13.4683" y1="-0.382738" x2="7.74754" y2="12.3097" gradientUnits="userSpaceOnUse">
<stop stop-color="#1AE3D7"/>
<stop offset="1" stop-color="#0945DF"/>
</linearGradient>
</defs>
</svg>
