<svg width="76" height="72" viewBox="0 0 76 72" fill="none" xmlns="http://www.w3.org/2000/svg">
<path d="M50.75 29.5C50.75 32.8815 49.4067 36.1245 47.0156 38.5156C44.6245 40.9067 41.3815 42.25 38 42.25C34.6185 42.25 31.3755 40.9067 28.9844 38.5156C26.5933 36.1245 25.25 32.8815 25.25 29.5C25.25 26.1185 26.5933 22.8755 28.9844 20.4844C31.3755 18.0933 34.6185 16.75 38 16.75C41.3815 16.75 44.6245 18.0933 47.0156 20.4844C49.4067 22.8755 50.75 26.1185 50.75 29.5Z" fill="url(#paint0_linear_5210_8247)"/>
<path fill-rule="evenodd" clip-rule="evenodd" d="M4 38C4 28.9826 7.58213 20.3346 13.9584 13.9584C20.3346 7.58213 28.9826 4 38 4C47.0174 4 55.6654 7.58213 62.0416 13.9584C68.4179 20.3346 72 28.9826 72 38C72 47.0174 68.4179 55.6654 62.0416 62.0416C55.6654 68.4179 47.0174 72 38 72C28.9826 72 20.3346 68.4179 13.9584 62.0416C7.58213 55.6654 4 47.0174 4 38ZM38 8.25C32.3976 8.2503 26.9091 9.83254 22.1662 12.8146C17.4234 15.7967 13.619 20.0574 11.1908 25.1063C8.76274 30.1553 7.80964 35.7872 8.44124 41.3539C9.07284 46.9206 11.2635 52.1959 14.761 56.5725C17.7785 51.7105 24.4212 46.5 38 46.5C51.5788 46.5 58.2173 51.7062 61.239 56.5725C64.7365 52.1959 66.9272 46.9206 67.5588 41.3539C68.1904 35.7872 67.2373 30.1553 64.8092 25.1063C62.3811 20.0574 58.5766 15.7967 53.8338 12.8146C49.0909 9.83254 43.6024 8.2503 38 8.25Z" fill="url(#paint1_linear_5210_8247)"/>
<defs>
<linearGradient id="paint0_linear_5210_8247" x1="45.1702" y1="9.99891" x2="31.6623" y2="48.5312" gradientUnits="userSpaceOnUse">
<stop stop-color="#1AE3D7"/>
<stop offset="1" stop-color="#0945DF"/>
</linearGradient>
<linearGradient id="paint1_linear_5210_8247" x1="57.1205" y1="-14.0029" x2="21.0995" y2="88.7498" gradientUnits="userSpaceOnUse">
<stop stop-color="#1AE3D7"/>
<stop offset="1" stop-color="#0945DF"/>
</linearGradient>
</defs>
</svg>
