<svg width="36" height="28" viewBox="0 0 36 28" fill="none" xmlns="http://www.w3.org/2000/svg">
<rect width="36" height="28" fill="white"/>
<path d="M12 4.5C12 4.77614 11.7761 5 11.5 5C11.2239 5 11 4.77614 11 4.5C11 4.22386 11.2239 4 11.5 4C11.7761 4 12 4.22386 12 4.5Z" fill="url(#paint0_linear_3001_3101)"/>
<path d="M12 24.5C12 24.7761 11.7761 25 11.5 25C11.2239 25 11 24.7761 11 24.5C11 24.2239 11.2239 24 11.5 24C11.7761 24 12 24.2239 12 24.5Z" fill="url(#paint1_linear_3001_3101)"/>
<path d="M14 4.5C14 4.77614 13.7761 5 13.5 5C13.2239 5 13 4.77614 13 4.5C13 4.22386 13.2239 4 13.5 4C13.7761 4 14 4.22386 14 4.5Z" fill="url(#paint2_linear_3001_3101)"/>
<path d="M14 24.5C14 24.7761 13.7761 25 13.5 25C13.2239 25 13 24.7761 13 24.5C13 24.2239 13.2239 24 13.5 24C13.7761 24 14 24.2239 14 24.5Z" fill="url(#paint3_linear_3001_3101)"/>
<path d="M16 4.5C16 4.77614 15.7761 5 15.5 5C15.2239 5 15 4.77614 15 4.5C15 4.22386 15.2239 4 15.5 4C15.7761 4 16 4.22386 16 4.5Z" fill="url(#paint4_linear_3001_3101)"/>
<path d="M16 24.5C16 24.7761 15.7761 25 15.5 25C15.2239 25 15 24.7761 15 24.5C15 24.2239 15.2239 24 15.5 24C15.7761 24 16 24.2239 16 24.5Z" fill="url(#paint5_linear_3001_3101)"/>
<path d="M18 4.5C18 4.77614 17.7761 5 17.5 5C17.2239 5 17 4.77614 17 4.5C17 4.22386 17.2239 4 17.5 4C17.7761 4 18 4.22386 18 4.5Z" fill="url(#paint6_linear_3001_3101)"/>
<path d="M18 24.5C18 24.7761 17.7761 25 17.5 25C17.2239 25 17 24.7761 17 24.5C17 24.2239 17.2239 24 17.5 24C17.7761 24 18 24.2239 18 24.5Z" fill="url(#paint7_linear_3001_3101)"/>
<path d="M20 4.5C20 4.77614 19.7761 5 19.5 5C19.2239 5 19 4.77614 19 4.5C19 4.22386 19.2239 4 19.5 4C19.7761 4 20 4.22386 20 4.5Z" fill="url(#paint8_linear_3001_3101)"/>
<path d="M20 24.5C20 24.7761 19.7761 25 19.5 25C19.2239 25 19 24.7761 19 24.5C19 24.2239 19.2239 24 19.5 24C19.7761 24 20 24.2239 20 24.5Z" fill="url(#paint9_linear_3001_3101)"/>
<path d="M22 4.5C22 4.77614 21.7761 5 21.5 5C21.2239 5 21 4.77614 21 4.5C21 4.22386 21.2239 4 21.5 4C21.7761 4 22 4.22386 22 4.5Z" fill="url(#paint10_linear_3001_3101)"/>
<path d="M22 24.5C22 24.7761 21.7761 25 21.5 25C21.2239 25 21 24.7761 21 24.5C21 24.2239 21.2239 24 21.5 24C21.7761 24 22 24.2239 22 24.5Z" fill="url(#paint11_linear_3001_3101)"/>
<path d="M26 4.5C26 4.77614 25.7761 5 25.5 5C25.2239 5 25 4.77614 25 4.5C25 4.22386 25.2239 4 25.5 4C25.7761 4 26 4.22386 26 4.5Z" fill="url(#paint12_linear_3001_3101)"/>
<path d="M24 4.5C24 4.77614 23.7761 5 23.5 5C23.2239 5 23 4.77614 23 4.5C23 4.22386 23.2239 4 23.5 4C23.7761 4 24 4.22386 24 4.5Z" fill="url(#paint13_linear_3001_3101)"/>
<path d="M26 24.5C26 24.7761 25.7761 25 25.5 25C25.2239 25 25 24.7761 25 24.5C25 24.2239 25.2239 24 25.5 24C25.7761 24 26 24.2239 26 24.5Z" fill="url(#paint14_linear_3001_3101)"/>
<path d="M24 24.5C24 24.7761 23.7761 25 23.5 25C23.2239 25 23 24.7761 23 24.5C23 24.2239 23.2239 24 23.5 24C23.7761 24 24 24.2239 24 24.5Z" fill="url(#paint15_linear_3001_3101)"/>
<path d="M12 6.5C12 6.77614 11.7761 7 11.5 7C11.2239 7 11 6.77614 11 6.5C11 6.22386 11.2239 6 11.5 6C11.7761 6 12 6.22386 12 6.5Z" fill="url(#paint16_linear_3001_3101)"/>
<path d="M26 6.5C26 6.77614 25.7761 7 25.5 7C25.2239 7 25 6.77614 25 6.5C25 6.22386 25.2239 6 25.5 6C25.7761 6 26 6.22386 26 6.5Z" fill="url(#paint17_linear_3001_3101)"/>
<path d="M12 8.5C12 8.77614 11.7761 9 11.5 9C11.2239 9 11 8.77614 11 8.5C11 8.22386 11.2239 8 11.5 8C11.7761 8 12 8.22386 12 8.5Z" fill="url(#paint18_linear_3001_3101)"/>
<path d="M26 8.5C26 8.77614 25.7761 9 25.5 9C25.2239 9 25 8.77614 25 8.5C25 8.22386 25.2239 8 25.5 8C25.7761 8 26 8.22386 26 8.5Z" fill="url(#paint19_linear_3001_3101)"/>
<path d="M12 10.5C12 10.7761 11.7761 11 11.5 11C11.2239 11 11 10.7761 11 10.5C11 10.2239 11.2239 10 11.5 10C11.7761 10 12 10.2239 12 10.5Z" fill="url(#paint20_linear_3001_3101)"/>
<path d="M26 10.5C26 10.7761 25.7761 11 25.5 11C25.2239 11 25 10.7761 25 10.5C25 10.2239 25.2239 10 25.5 10C25.7761 10 26 10.2239 26 10.5Z" fill="url(#paint21_linear_3001_3101)"/>
<path d="M12 12.5C12 12.7761 11.7761 13 11.5 13C11.2239 13 11 12.7761 11 12.5C11 12.2239 11.2239 12 11.5 12C11.7761 12 12 12.2239 12 12.5Z" fill="url(#paint22_linear_3001_3101)"/>
<path d="M26 12.5C26 12.7761 25.7761 13 25.5 13C25.2239 13 25 12.7761 25 12.5C25 12.2239 25.2239 12 25.5 12C25.7761 12 26 12.2239 26 12.5Z" fill="url(#paint23_linear_3001_3101)"/>
<path d="M12 14.5C12 14.7761 11.7761 15 11.5 15C11.2239 15 11 14.7761 11 14.5C11 14.2239 11.2239 14 11.5 14C11.7761 14 12 14.2239 12 14.5Z" fill="url(#paint24_linear_3001_3101)"/>
<path d="M26 14.5C26 14.7761 25.7761 15 25.5 15C25.2239 15 25 14.7761 25 14.5C25 14.2239 25.2239 14 25.5 14C25.7761 14 26 14.2239 26 14.5Z" fill="url(#paint25_linear_3001_3101)"/>
<path d="M12 16.5C12 16.7761 11.7761 17 11.5 17C11.2239 17 11 16.7761 11 16.5C11 16.2239 11.2239 16 11.5 16C11.7761 16 12 16.2239 12 16.5Z" fill="url(#paint26_linear_3001_3101)"/>
<path d="M26 16.5C26 16.7761 25.7761 17 25.5 17C25.2239 17 25 16.7761 25 16.5C25 16.2239 25.2239 16 25.5 16C25.7761 16 26 16.2239 26 16.5Z" fill="url(#paint27_linear_3001_3101)"/>
<path d="M12 18.5C12 18.7761 11.7761 19 11.5 19C11.2239 19 11 18.7761 11 18.5C11 18.2239 11.2239 18 11.5 18C11.7761 18 12 18.2239 12 18.5Z" fill="url(#paint28_linear_3001_3101)"/>
<path d="M26 18.5C26 18.7761 25.7761 19 25.5 19C25.2239 19 25 18.7761 25 18.5C25 18.2239 25.2239 18 25.5 18C25.7761 18 26 18.2239 26 18.5Z" fill="url(#paint29_linear_3001_3101)"/>
<path d="M12 20.5C12 20.7761 11.7761 21 11.5 21C11.2239 21 11 20.7761 11 20.5C11 20.2239 11.2239 20 11.5 20C11.7761 20 12 20.2239 12 20.5Z" fill="url(#paint30_linear_3001_3101)"/>
<path d="M26 20.5C26 20.7761 25.7761 21 25.5 21C25.2239 21 25 20.7761 25 20.5C25 20.2239 25.2239 20 25.5 20C25.7761 20 26 20.2239 26 20.5Z" fill="url(#paint31_linear_3001_3101)"/>
<path d="M12 22.5C12 22.7761 11.7761 23 11.5 23C11.2239 23 11 22.7761 11 22.5C11 22.2239 11.2239 22 11.5 22C11.7761 22 12 22.2239 12 22.5Z" fill="url(#paint32_linear_3001_3101)"/>
<path d="M26 22.5C26 22.7761 25.7761 23 25.5 23C25.2239 23 25 22.7761 25 22.5C25 22.2239 25.2239 22 25.5 22C25.7761 22 26 22.2239 26 22.5Z" fill="url(#paint33_linear_3001_3101)"/>
<path fill-rule="evenodd" clip-rule="evenodd" d="M16.4668 11L18.7324 18.1094H17.4873L17.0248 16.4639H14.8577L14.3965 18.1094H13.1562L15.4121 11H16.4668ZM15.1368 15.4678H16.7449L15.9397 12.6028L15.1368 15.4678ZM23.5566 16.5176V15.5605H22.8682V11H21.7012L19.1816 15.79L19.2109 16.5176H21.7256V18.1094H22.8682V16.5176H23.5566ZM21.7256 12.7063L20.3438 15.5605H21.7256V12.7063Z" fill="url(#paint34_linear_3001_3101)"/>
<defs>
<linearGradient id="paint0_linear_3001_3101" x1="22.7178" y1="-1.55972" x2="8.62465" y2="27.1557" gradientUnits="userSpaceOnUse">
<stop stop-color="#1AE3D7"/>
<stop offset="1" stop-color="#0945DF"/>
</linearGradient>
<linearGradient id="paint1_linear_3001_3101" x1="22.7178" y1="-1.55972" x2="8.62465" y2="27.1557" gradientUnits="userSpaceOnUse">
<stop stop-color="#1AE3D7"/>
<stop offset="1" stop-color="#0945DF"/>
</linearGradient>
<linearGradient id="paint2_linear_3001_3101" x1="22.7178" y1="-1.55972" x2="8.62465" y2="27.1557" gradientUnits="userSpaceOnUse">
<stop stop-color="#1AE3D7"/>
<stop offset="1" stop-color="#0945DF"/>
</linearGradient>
<linearGradient id="paint3_linear_3001_3101" x1="22.7178" y1="-1.55972" x2="8.62465" y2="27.1557" gradientUnits="userSpaceOnUse">
<stop stop-color="#1AE3D7"/>
<stop offset="1" stop-color="#0945DF"/>
</linearGradient>
<linearGradient id="paint4_linear_3001_3101" x1="22.7178" y1="-1.55972" x2="8.62465" y2="27.1557" gradientUnits="userSpaceOnUse">
<stop stop-color="#1AE3D7"/>
<stop offset="1" stop-color="#0945DF"/>
</linearGradient>
<linearGradient id="paint5_linear_3001_3101" x1="22.7178" y1="-1.55972" x2="8.62465" y2="27.1557" gradientUnits="userSpaceOnUse">
<stop stop-color="#1AE3D7"/>
<stop offset="1" stop-color="#0945DF"/>
</linearGradient>
<linearGradient id="paint6_linear_3001_3101" x1="22.7178" y1="-1.55972" x2="8.62465" y2="27.1557" gradientUnits="userSpaceOnUse">
<stop stop-color="#1AE3D7"/>
<stop offset="1" stop-color="#0945DF"/>
</linearGradient>
<linearGradient id="paint7_linear_3001_3101" x1="22.7178" y1="-1.55972" x2="8.62465" y2="27.1557" gradientUnits="userSpaceOnUse">
<stop stop-color="#1AE3D7"/>
<stop offset="1" stop-color="#0945DF"/>
</linearGradient>
<linearGradient id="paint8_linear_3001_3101" x1="22.7178" y1="-1.55972" x2="8.62465" y2="27.1557" gradientUnits="userSpaceOnUse">
<stop stop-color="#1AE3D7"/>
<stop offset="1" stop-color="#0945DF"/>
</linearGradient>
<linearGradient id="paint9_linear_3001_3101" x1="22.7178" y1="-1.55972" x2="8.62465" y2="27.1557" gradientUnits="userSpaceOnUse">
<stop stop-color="#1AE3D7"/>
<stop offset="1" stop-color="#0945DF"/>
</linearGradient>
<linearGradient id="paint10_linear_3001_3101" x1="22.7178" y1="-1.55972" x2="8.62465" y2="27.1557" gradientUnits="userSpaceOnUse">
<stop stop-color="#1AE3D7"/>
<stop offset="1" stop-color="#0945DF"/>
</linearGradient>
<linearGradient id="paint11_linear_3001_3101" x1="22.7178" y1="-1.55972" x2="8.62465" y2="27.1557" gradientUnits="userSpaceOnUse">
<stop stop-color="#1AE3D7"/>
<stop offset="1" stop-color="#0945DF"/>
</linearGradient>
<linearGradient id="paint12_linear_3001_3101" x1="22.7178" y1="-1.55972" x2="8.62465" y2="27.1557" gradientUnits="userSpaceOnUse">
<stop stop-color="#1AE3D7"/>
<stop offset="1" stop-color="#0945DF"/>
</linearGradient>
<linearGradient id="paint13_linear_3001_3101" x1="22.7178" y1="-1.55972" x2="8.62465" y2="27.1557" gradientUnits="userSpaceOnUse">
<stop stop-color="#1AE3D7"/>
<stop offset="1" stop-color="#0945DF"/>
</linearGradient>
<linearGradient id="paint14_linear_3001_3101" x1="22.7178" y1="-1.55972" x2="8.62465" y2="27.1557" gradientUnits="userSpaceOnUse">
<stop stop-color="#1AE3D7"/>
<stop offset="1" stop-color="#0945DF"/>
</linearGradient>
<linearGradient id="paint15_linear_3001_3101" x1="22.7178" y1="-1.55972" x2="8.62465" y2="27.1557" gradientUnits="userSpaceOnUse">
<stop stop-color="#1AE3D7"/>
<stop offset="1" stop-color="#0945DF"/>
</linearGradient>
<linearGradient id="paint16_linear_3001_3101" x1="22.7178" y1="-1.55972" x2="8.62465" y2="27.1557" gradientUnits="userSpaceOnUse">
<stop stop-color="#1AE3D7"/>
<stop offset="1" stop-color="#0945DF"/>
</linearGradient>
<linearGradient id="paint17_linear_3001_3101" x1="22.7178" y1="-1.55972" x2="8.62465" y2="27.1557" gradientUnits="userSpaceOnUse">
<stop stop-color="#1AE3D7"/>
<stop offset="1" stop-color="#0945DF"/>
</linearGradient>
<linearGradient id="paint18_linear_3001_3101" x1="22.7178" y1="-1.55972" x2="8.62465" y2="27.1557" gradientUnits="userSpaceOnUse">
<stop stop-color="#1AE3D7"/>
<stop offset="1" stop-color="#0945DF"/>
</linearGradient>
<linearGradient id="paint19_linear_3001_3101" x1="22.7178" y1="-1.55972" x2="8.62465" y2="27.1557" gradientUnits="userSpaceOnUse">
<stop stop-color="#1AE3D7"/>
<stop offset="1" stop-color="#0945DF"/>
</linearGradient>
<linearGradient id="paint20_linear_3001_3101" x1="22.7178" y1="-1.55972" x2="8.62465" y2="27.1557" gradientUnits="userSpaceOnUse">
<stop stop-color="#1AE3D7"/>
<stop offset="1" stop-color="#0945DF"/>
</linearGradient>
<linearGradient id="paint21_linear_3001_3101" x1="22.7178" y1="-1.55972" x2="8.62465" y2="27.1557" gradientUnits="userSpaceOnUse">
<stop stop-color="#1AE3D7"/>
<stop offset="1" stop-color="#0945DF"/>
</linearGradient>
<linearGradient id="paint22_linear_3001_3101" x1="22.7178" y1="-1.55972" x2="8.62465" y2="27.1557" gradientUnits="userSpaceOnUse">
<stop stop-color="#1AE3D7"/>
<stop offset="1" stop-color="#0945DF"/>
</linearGradient>
<linearGradient id="paint23_linear_3001_3101" x1="22.7178" y1="-1.55972" x2="8.62465" y2="27.1557" gradientUnits="userSpaceOnUse">
<stop stop-color="#1AE3D7"/>
<stop offset="1" stop-color="#0945DF"/>
</linearGradient>
<linearGradient id="paint24_linear_3001_3101" x1="22.7178" y1="-1.55972" x2="8.62465" y2="27.1557" gradientUnits="userSpaceOnUse">
<stop stop-color="#1AE3D7"/>
<stop offset="1" stop-color="#0945DF"/>
</linearGradient>
<linearGradient id="paint25_linear_3001_3101" x1="22.7178" y1="-1.55972" x2="8.62465" y2="27.1557" gradientUnits="userSpaceOnUse">
<stop stop-color="#1AE3D7"/>
<stop offset="1" stop-color="#0945DF"/>
</linearGradient>
<linearGradient id="paint26_linear_3001_3101" x1="22.7178" y1="-1.55972" x2="8.62465" y2="27.1557" gradientUnits="userSpaceOnUse">
<stop stop-color="#1AE3D7"/>
<stop offset="1" stop-color="#0945DF"/>
</linearGradient>
<linearGradient id="paint27_linear_3001_3101" x1="22.7178" y1="-1.55972" x2="8.62465" y2="27.1557" gradientUnits="userSpaceOnUse">
<stop stop-color="#1AE3D7"/>
<stop offset="1" stop-color="#0945DF"/>
</linearGradient>
<linearGradient id="paint28_linear_3001_3101" x1="22.7178" y1="-1.55972" x2="8.62465" y2="27.1557" gradientUnits="userSpaceOnUse">
<stop stop-color="#1AE3D7"/>
<stop offset="1" stop-color="#0945DF"/>
</linearGradient>
<linearGradient id="paint29_linear_3001_3101" x1="22.7178" y1="-1.55972" x2="8.62465" y2="27.1557" gradientUnits="userSpaceOnUse">
<stop stop-color="#1AE3D7"/>
<stop offset="1" stop-color="#0945DF"/>
</linearGradient>
<linearGradient id="paint30_linear_3001_3101" x1="22.7178" y1="-1.55972" x2="8.62465" y2="27.1557" gradientUnits="userSpaceOnUse">
<stop stop-color="#1AE3D7"/>
<stop offset="1" stop-color="#0945DF"/>
</linearGradient>
<linearGradient id="paint31_linear_3001_3101" x1="22.7178" y1="-1.55972" x2="8.62465" y2="27.1557" gradientUnits="userSpaceOnUse">
<stop stop-color="#1AE3D7"/>
<stop offset="1" stop-color="#0945DF"/>
</linearGradient>
<linearGradient id="paint32_linear_3001_3101" x1="22.7178" y1="-1.55972" x2="8.62465" y2="27.1557" gradientUnits="userSpaceOnUse">
<stop stop-color="#1AE3D7"/>
<stop offset="1" stop-color="#0945DF"/>
</linearGradient>
<linearGradient id="paint33_linear_3001_3101" x1="22.7178" y1="-1.55972" x2="8.62465" y2="27.1557" gradientUnits="userSpaceOnUse">
<stop stop-color="#1AE3D7"/>
<stop offset="1" stop-color="#0945DF"/>
</linearGradient>
<linearGradient id="paint34_linear_3001_3101" x1="21.6994" y1="8.71484" x2="15.6774" y2="26.3343" gradientUnits="userSpaceOnUse">
<stop stop-color="#FFC700"/>
<stop offset="1" stop-color="#DF0909"/>
</linearGradient>
</defs>
</svg>
