<svg width="29" height="22" viewBox="0 0 29 22" fill="none" xmlns="http://www.w3.org/2000/svg">
<rect y="22" width="2" height="29" transform="rotate(-90 0 22)" fill="url(#paint0_linear_2639_4850)"/>
<path fill-rule="evenodd" clip-rule="evenodd" d="M2 9L2 18L6 18L6 9L2 9ZM13 -4.80825e-07L9 -3.0598e-07L9 18L13 18L13 -4.80825e-07ZM16 18L16 4L20 4L20 18L16 18ZM27 -1.09279e-06L23 -9.1794e-07L23 18L27 18L27 -1.09279e-06Z" fill="url(#paint1_linear_2639_4850)"/>
<defs>
<linearGradient id="paint0_linear_2639_4850" x1="1.64286" y1="12.6786" x2="-9.22187" y2="14.1772" gradientUnits="userSpaceOnUse">
<stop stop-color="#FFC700"/>
<stop offset="1" stop-color="#DF0909"/>
</linearGradient>
<linearGradient id="paint1_linear_2639_4850" x1="-4.61872" y1="3.93868" x2="29.6716" y2="20.6343" gradientUnits="userSpaceOnUse">
<stop stop-color="#1AE3D7"/>
<stop offset="1" stop-color="#0945DF"/>
</linearGradient>
</defs>
</svg>
