<svg width="21" height="23" viewBox="0 0 21 23" fill="none" xmlns="http://www.w3.org/2000/svg">
<path d="M2 0H0V23H21V21H2V0Z" fill="url(#paint0_linear_2641_4915)"/>
<path d="M20.0785 4.5C20.0785 5.32843 19.4069 6 18.5785 6C17.7501 6 17.0785 5.32843 17.0785 4.5C17.0785 3.67157 17.7501 3 18.5785 3C19.4069 3 20.0785 3.67157 20.0785 4.5Z" fill="url(#paint1_linear_2641_4915)"/>
<path d="M9.57851 7.5C9.57851 8.32843 8.90693 9 8.07851 9C7.25008 9 6.57851 8.32843 6.57851 7.5C6.57851 6.67157 7.25008 6 8.07851 6C8.90693 6 9.57851 6.67157 9.57851 7.5Z" fill="url(#paint2_linear_2641_4915)"/>
<path d="M6.57851 15C7.40693 15 8.07851 14.3284 8.07851 13.5C8.07851 12.6716 7.40693 12 6.57851 12C5.75008 12 5.07851 12.6716 5.07851 13.5C5.07851 14.3284 5.75008 15 6.57851 15Z" fill="url(#paint3_linear_2641_4915)"/>
<path d="M4.5 18.9891C5.32843 18.9891 6 18.3175 6 17.4891C6 16.6607 5.32843 15.9891 4.5 15.9891C3.67157 15.9891 3 16.6607 3 17.4891C3 18.3175 3.67157 18.9891 4.5 18.9891Z" fill="url(#paint4_linear_2641_4915)"/>
<path d="M12.5785 18C13.4069 18 14.0785 17.3284 14.0785 16.5C14.0785 15.6716 13.4069 15 12.5785 15C11.7501 15 11.0785 15.6716 11.0785 16.5C11.0785 17.3284 11.7501 18 12.5785 18Z" fill="url(#paint5_linear_2641_4915)"/>
<path d="M12.5785 12C12.5785 12.8284 11.9069 13.5 11.0785 13.5C10.2501 13.5 9.57851 12.8284 9.57851 12C9.57851 11.1716 10.2501 10.5 11.0785 10.5C11.9069 10.5 12.5785 11.1716 12.5785 12Z" fill="url(#paint6_linear_2641_4915)"/>
<path d="M14.0785 10.5C14.9069 10.5 15.5785 9.82843 15.5785 9C15.5785 8.17157 14.9069 7.5 14.0785 7.5C13.2501 7.5 12.5785 8.17157 12.5785 9C12.5785 9.82843 13.2501 10.5 14.0785 10.5Z" fill="url(#paint7_linear_2641_4915)"/>
<path d="M18.5785 16.5C19.4069 16.5 20.0785 15.8284 20.0785 15C20.0785 14.1716 19.4069 13.5 18.5785 13.5C17.7501 13.5 17.0785 14.1716 17.0785 15C17.0785 15.8284 17.7501 16.5 18.5785 16.5Z" fill="url(#paint8_linear_2641_4915)"/>
<defs>
<linearGradient id="paint0_linear_2641_4915" x1="16.4049" y1="-6.08922" x2="3.34612" y2="27.9226" gradientUnits="userSpaceOnUse">
<stop stop-color="#1AE3D7"/>
<stop offset="1" stop-color="#0945DF"/>
</linearGradient>
<linearGradient id="paint1_linear_2641_4915" x1="17.0288" y1="-2.13935" x2="0.036021" y2="34.1618" gradientUnits="userSpaceOnUse">
<stop stop-color="#FFC700"/>
<stop offset="1" stop-color="#DF0909"/>
</linearGradient>
<linearGradient id="paint2_linear_2641_4915" x1="17.0288" y1="-2.13935" x2="0.036021" y2="34.1618" gradientUnits="userSpaceOnUse">
<stop stop-color="#FFC700"/>
<stop offset="1" stop-color="#DF0909"/>
</linearGradient>
<linearGradient id="paint3_linear_2641_4915" x1="17.0288" y1="-2.13935" x2="0.036021" y2="34.1618" gradientUnits="userSpaceOnUse">
<stop stop-color="#FFC700"/>
<stop offset="1" stop-color="#DF0909"/>
</linearGradient>
<linearGradient id="paint4_linear_2641_4915" x1="17.0288" y1="-2.13935" x2="0.036021" y2="34.1618" gradientUnits="userSpaceOnUse">
<stop stop-color="#FFC700"/>
<stop offset="1" stop-color="#DF0909"/>
</linearGradient>
<linearGradient id="paint5_linear_2641_4915" x1="17.0288" y1="-2.13935" x2="0.036021" y2="34.1618" gradientUnits="userSpaceOnUse">
<stop stop-color="#FFC700"/>
<stop offset="1" stop-color="#DF0909"/>
</linearGradient>
<linearGradient id="paint6_linear_2641_4915" x1="17.0288" y1="-2.13935" x2="0.036021" y2="34.1618" gradientUnits="userSpaceOnUse">
<stop stop-color="#FFC700"/>
<stop offset="1" stop-color="#DF0909"/>
</linearGradient>
<linearGradient id="paint7_linear_2641_4915" x1="17.0288" y1="-2.13935" x2="0.036021" y2="34.1618" gradientUnits="userSpaceOnUse">
<stop stop-color="#FFC700"/>
<stop offset="1" stop-color="#DF0909"/>
</linearGradient>
<linearGradient id="paint8_linear_2641_4915" x1="17.0288" y1="-2.13935" x2="0.036021" y2="34.1618" gradientUnits="userSpaceOnUse">
<stop stop-color="#FFC700"/>
<stop offset="1" stop-color="#DF0909"/>
</linearGradient>
</defs>
</svg>
