<svg width="30" height="22" viewBox="0 0 30 22" fill="none" xmlns="http://www.w3.org/2000/svg">
<path d="M8 10L14 10V8H8V10Z" fill="url(#paint0_linear_3302_2815)"/>
<path d="M8 22H14V20H8V22Z" fill="url(#paint1_linear_3302_2815)"/>
<path d="M22 10L16 10V8H22V10Z" fill="url(#paint2_linear_3302_2815)"/>
<path d="M16 22H22V20H16V22Z" fill="url(#paint3_linear_3302_2815)"/>
<path d="M30 10L24 10V8H30V10Z" fill="url(#paint4_linear_3302_2815)"/>
<path d="M24 22H30V20H24V22Z" fill="url(#paint5_linear_3302_2815)"/>
<path d="M14 18H8V16H14V18Z" fill="url(#paint6_linear_3302_2815)"/>
<path d="M16 18H22V16H16V18Z" fill="url(#paint7_linear_3302_2815)"/>
<path d="M30 18H24V16H30V18Z" fill="url(#paint8_linear_3302_2815)"/>
<path d="M8 14L14 14V12H8V14Z" fill="url(#paint9_linear_3302_2815)"/>
<path d="M22 14L16 14V12H22V14Z" fill="url(#paint10_linear_3302_2815)"/>
<path d="M24 14L30 14V12H24V14Z" fill="url(#paint11_linear_3302_2815)"/>
<path d="M1.96701e-07 6L0 3.49691e-07L6 0V6L1.96701e-07 6Z" fill="url(#paint12_linear_3302_2815)"/>
<path d="M8 6V3.49691e-07L14 0V6L8 6Z" fill="url(#paint13_linear_3302_2815)"/>
<path d="M16 6V3.49691e-07L22 0V6L16 6Z" fill="url(#paint14_linear_3302_2815)"/>
<path d="M24 6V3.49691e-07L30 0V6L24 6Z" fill="url(#paint15_linear_3302_2815)"/>
<path d="M1.96701e-07 14L0 8H6V14H1.96701e-07Z" fill="url(#paint16_linear_3302_2815)"/>
<path d="M1.96701e-07 22L0 16H6V22H1.96701e-07Z" fill="url(#paint17_linear_3302_2815)"/>
<defs>
<linearGradient id="paint0_linear_3302_2815" x1="25.1861" y1="4.29352" x2="20.138" y2="26.9221" gradientUnits="userSpaceOnUse">
<stop stop-color="#1AE3D7"/>
<stop offset="1" stop-color="#0945DF"/>
</linearGradient>
<linearGradient id="paint1_linear_3302_2815" x1="25.1861" y1="4.29352" x2="20.138" y2="26.9221" gradientUnits="userSpaceOnUse">
<stop stop-color="#1AE3D7"/>
<stop offset="1" stop-color="#0945DF"/>
</linearGradient>
<linearGradient id="paint2_linear_3302_2815" x1="25.1861" y1="4.29352" x2="20.138" y2="26.9221" gradientUnits="userSpaceOnUse">
<stop stop-color="#1AE3D7"/>
<stop offset="1" stop-color="#0945DF"/>
</linearGradient>
<linearGradient id="paint3_linear_3302_2815" x1="25.1861" y1="4.29352" x2="20.138" y2="26.9221" gradientUnits="userSpaceOnUse">
<stop stop-color="#1AE3D7"/>
<stop offset="1" stop-color="#0945DF"/>
</linearGradient>
<linearGradient id="paint4_linear_3302_2815" x1="25.1861" y1="4.29352" x2="20.138" y2="26.9221" gradientUnits="userSpaceOnUse">
<stop stop-color="#1AE3D7"/>
<stop offset="1" stop-color="#0945DF"/>
</linearGradient>
<linearGradient id="paint5_linear_3302_2815" x1="25.1861" y1="4.29352" x2="20.138" y2="26.9221" gradientUnits="userSpaceOnUse">
<stop stop-color="#1AE3D7"/>
<stop offset="1" stop-color="#0945DF"/>
</linearGradient>
<linearGradient id="paint6_linear_3302_2815" x1="25.1861" y1="4.29352" x2="20.138" y2="26.9221" gradientUnits="userSpaceOnUse">
<stop stop-color="#1AE3D7"/>
<stop offset="1" stop-color="#0945DF"/>
</linearGradient>
<linearGradient id="paint7_linear_3302_2815" x1="25.1861" y1="4.29352" x2="20.138" y2="26.9221" gradientUnits="userSpaceOnUse">
<stop stop-color="#1AE3D7"/>
<stop offset="1" stop-color="#0945DF"/>
</linearGradient>
<linearGradient id="paint8_linear_3302_2815" x1="25.1861" y1="4.29352" x2="20.138" y2="26.9221" gradientUnits="userSpaceOnUse">
<stop stop-color="#1AE3D7"/>
<stop offset="1" stop-color="#0945DF"/>
</linearGradient>
<linearGradient id="paint9_linear_3302_2815" x1="25.1861" y1="4.29352" x2="20.138" y2="26.9221" gradientUnits="userSpaceOnUse">
<stop stop-color="#1AE3D7"/>
<stop offset="1" stop-color="#0945DF"/>
</linearGradient>
<linearGradient id="paint10_linear_3302_2815" x1="25.1861" y1="4.29352" x2="20.138" y2="26.9221" gradientUnits="userSpaceOnUse">
<stop stop-color="#1AE3D7"/>
<stop offset="1" stop-color="#0945DF"/>
</linearGradient>
<linearGradient id="paint11_linear_3302_2815" x1="25.1861" y1="4.29352" x2="20.138" y2="26.9221" gradientUnits="userSpaceOnUse">
<stop stop-color="#1AE3D7"/>
<stop offset="1" stop-color="#0945DF"/>
</linearGradient>
<linearGradient id="paint12_linear_3302_2815" x1="24.6429" y1="-7.07143" x2="4.96152" y2="46.6049" gradientUnits="userSpaceOnUse">
<stop stop-color="#FFC700"/>
<stop offset="1" stop-color="#DF0909"/>
</linearGradient>
<linearGradient id="paint13_linear_3302_2815" x1="24.6429" y1="-7.07143" x2="4.96152" y2="46.6049" gradientUnits="userSpaceOnUse">
<stop stop-color="#FFC700"/>
<stop offset="1" stop-color="#DF0909"/>
</linearGradient>
<linearGradient id="paint14_linear_3302_2815" x1="24.6429" y1="-7.07143" x2="4.96152" y2="46.6049" gradientUnits="userSpaceOnUse">
<stop stop-color="#FFC700"/>
<stop offset="1" stop-color="#DF0909"/>
</linearGradient>
<linearGradient id="paint15_linear_3302_2815" x1="24.6429" y1="-7.07143" x2="4.96152" y2="46.6049" gradientUnits="userSpaceOnUse">
<stop stop-color="#FFC700"/>
<stop offset="1" stop-color="#DF0909"/>
</linearGradient>
<linearGradient id="paint16_linear_3302_2815" x1="24.6429" y1="-7.07143" x2="4.96152" y2="46.6049" gradientUnits="userSpaceOnUse">
<stop stop-color="#FFC700"/>
<stop offset="1" stop-color="#DF0909"/>
</linearGradient>
<linearGradient id="paint17_linear_3302_2815" x1="24.6429" y1="-7.07143" x2="4.96152" y2="46.6049" gradientUnits="userSpaceOnUse">
<stop stop-color="#FFC700"/>
<stop offset="1" stop-color="#DF0909"/>
</linearGradient>
</defs>
</svg>
