<svg width="30" height="22" viewBox="0 0 30 22" fill="none" xmlns="http://www.w3.org/2000/svg">
<path fill-rule="evenodd" clip-rule="evenodd" d="M0 0V6L6 6V0H0ZM8 0V6L14 6V0H8ZM16 6V0H22V6L16 6ZM24 0V6L30 6V0H24ZM0 14V8H6V14H0ZM0 16V22H6V16H0ZM14 10L8 10V8H14V10ZM8 22H14V20H8V22ZM22 10L16 10V8H22V10ZM16 22H22V20H16V22ZM30 10L24 10V8H30V10ZM24 22H30V20H24V22ZM14 18H8V16H14V18ZM16 18H22V16H16V18ZM30 18H24V16H30V18ZM8 14L14 14V12H8V14ZM22 14L16 14V12H22V14ZM24 14L30 14V12H24V14Z" fill="black"/>
</svg>
