<svg width="26" height="28" viewBox="0 0 26 28" fill="none" xmlns="http://www.w3.org/2000/svg">
<path d="M0 0H26V25H10V23H24V4H2V23H4V25H0V0Z" fill="url(#paint0_linear_3257_3196)"/>
<path fill-rule="evenodd" clip-rule="evenodd" d="M8.00003 28H4.95667L6.99711 12.9841H5.50004L5.80754 11.0246H7.28787C7.32978 10.8169 7.36738 10.6071 7.40504 10.3969C7.56531 9.50252 7.72672 8.60178 8.22638 7.82641C8.61629 7.23157 9.12187 6.77665 9.74311 6.46238C10.3709 6.14079 11.0913 5.98695 11.9042 6.00087C12.0827 6.00526 12.2584 6.01698 12.4311 6.03676C12.5206 6.04702 12.6093 6.05874 12.6973 6.07266C12.9616 6.11368 13.2227 6.16496 13.4804 6.22649L13.2326 8.61611C13.1004 8.58168 12.9649 8.55457 12.8261 8.53406C12.694 8.51355 12.5585 8.49963 12.4197 8.49304C12.1091 8.49304 11.8249 8.54798 11.5671 8.65713C11.3094 8.76628 11.0913 8.93038 10.9129 9.14941C10.5949 9.54125 10.5054 10.0943 10.4223 10.6083C10.3992 10.7516 10.3765 10.8918 10.3495 11.0246H12.4197L12.1023 12.9841H10.0551L8.00003 28ZM16.2301 17.0185L15.4747 15H13.3597L14.7262 18.3253L12 22H14.3142L15.873 19.8521L16.7176 22H18.8327L17.3975 18.5065L20 15H17.7065L16.2301 17.0185Z" fill="url(#paint1_linear_3257_3196)"/>
<defs>
<linearGradient id="paint0_linear_3257_3196" x1="21.3571" y1="-8.03571" x2="-5.66459" y2="48.1695" gradientUnits="userSpaceOnUse">
<stop stop-color="#FFC700"/>
<stop offset="1" stop-color="#DF0909"/>
</linearGradient>
<linearGradient id="paint1_linear_3257_3196" x1="16.7083" y1="0.175528" x2="1.55387" y2="29.7351" gradientUnits="userSpaceOnUse">
<stop stop-color="#1AE3D7"/>
<stop offset="1" stop-color="#0945DF"/>
</linearGradient>
</defs>
</svg>
