<svg width="23" height="23" viewBox="0 0 23 23" fill="none" xmlns="http://www.w3.org/2000/svg">
<path fill-rule="evenodd" clip-rule="evenodd" d="M6.66961 0.000488281H0V2.8605L6.39856 1.40151L6.66961 0.000488281ZM23 2.10684L18.4019 2.52232L18.5568 4.51273L23 7.41139V2.10684ZM23 13.0831V17.5084L19.9705 18.3973L18.1797 12.9382L18.9634 12.7642C19.0493 12.7441 19.1268 12.7059 19.1961 12.6483C19.2673 12.5899 19.3219 12.5188 19.3607 12.4357L19.8931 11.2666L23 13.0831ZM10.9962 13.2957L10.774 8.10706L8.49917 8.20368L10.048 13.4986L10.9962 13.2957ZM8.19907 18.6195L4.40446 15.9141L7.9954 15.1315L8.19907 18.6195ZM11.8541 4.30452L17.5654 3.69522L17.4357 2.19043L11.7845 2.37507L11.8541 4.30452ZM19.7146 9.38206L16.3814 10.1206L16.7097 11.9208L18.7196 11.5054L19.7146 9.38206ZM7.25724 8.22808L8.91888 13.4718L5.21748 14.238L4.38129 8.32964L7.25724 8.22808Z" fill="url(#paint0_linear_2641_4916)"/>
<path fill-rule="evenodd" clip-rule="evenodd" d="M10.532 2.62601L10.4255 0.000488281H7.8502L7.35691 2.55819L10.532 2.62601ZM1.35522 7.34421L1.47138 3.74017L0 4.06957V7.40234L1.35522 7.34421ZM11.5871 0.000488281H17.0564L17.1145 0.775552L11.6355 0.969318L11.5871 0.000488281ZM10.7159 6.95668L10.5804 3.78861L7.13426 3.7111L6.46634 7.13107L10.7159 6.95668ZM17.4049 4.87369C17.4095 4.9667 17.4351 5.0539 17.4819 5.13528C17.528 5.21512 17.5892 5.27983 17.6663 5.32905L20.4154 7.11169L19.9508 8.16771L15.9726 9.11717L15.2559 4.93182L17.3952 4.67993L17.4049 4.87369ZM18.2277 0.000488281L18.3148 1.35685L23 0.940248V0.000488281H18.2277ZM21.3931 7.76081L22.9996 8.81684V11.7621L20.3573 10.2119L21.3931 7.76081ZM23 18.7764L16.2045 20.7528L16.7761 23.0005H23V18.7764ZM15.5753 23.0005H11.1322L11.713 18.0207L14.9945 20.685L15.5753 23.0005ZM10.9289 14.5426L9.14773 14.9205L9.40909 19.5515L10.2904 20.1618L10.9289 14.5426ZM3.32996 8.4293L3.53325 9.97943L0 11.0839V8.56493L3.32996 8.4293ZM0 12.8472L3.10732 15.027L4.17175 14.8139L3.68774 11.142L0 12.2949V12.8472ZM0 19.6483L4.44318 21.4213L3.89141 23.0005H0V19.6483ZM5.13976 23.0005H9.95119L10.1448 21.4697L6.59178 18.9508L5.13976 23.0005ZM5.91952 2.19043L5.00697 6.94968L2.18994 7.07171L2.31888 3.05482L5.91952 2.19043ZM14.0631 4.7226L15.3328 12.4208L12.0595 13.1428L11.7123 5.00734L14.0631 4.7226ZM16.8221 13.1401L11.9762 14.2907L11.7178 16.8427L15.4454 20.1374L18.619 19.1333L16.8221 13.1401ZM0 18.7359L4.76945 20.8068L5.54366 18.5685L0 14.2907V18.7359Z" fill="url(#paint1_linear_2641_4916)"/>
<defs>
<linearGradient id="paint0_linear_2641_4916" x1="18.8929" y1="-5.98421" x2="0.969871" y2="38.2961" gradientUnits="userSpaceOnUse">
<stop stop-color="#FFC700"/>
<stop offset="1" stop-color="#DF0909"/>
</linearGradient>
<linearGradient id="paint1_linear_2641_4916" x1="17.9672" y1="-6.08873" x2="5.78364" y2="28.6658" gradientUnits="userSpaceOnUse">
<stop stop-color="#1AE3D7"/>
<stop offset="1" stop-color="#0945DF"/>
</linearGradient>
</defs>
</svg>
