<svg width="23" height="11" viewBox="0 0 23 11" fill="none" xmlns="http://www.w3.org/2000/svg">
<path d="M14.3968 0.355013C12.696 -0.0682315 10.9163 -0.113154 9.19453 0.223694C7.47272 0.560543 5.85458 1.2702 4.46438 2.29816C3.07418 3.32612 1.94891 4.64504 1.175 6.1536C0.401092 7.66217 -0.000865393 9.32025 1.3989e-06 11.0005L4.91254 10.9982C4.91204 10.0357 5.14229 9.0859 5.5856 8.22176C6.02892 7.35762 6.6735 6.60212 7.46983 6.01328C8.26617 5.42444 9.19309 5.01793 10.1794 4.82497C11.1657 4.63202 12.1851 4.65775 13.1594 4.90019L14.3968 0.355013Z" fill="url(#paint0_linear_2641_4929)"/>
<path fill-rule="evenodd" clip-rule="evenodd" d="M21.2193 9.42449C20.9508 7.90575 20.2953 6.46467 19.3 5.23317C18.3047 4.00167 17.0116 3.03167 15.5422 2.40003L15.1247 3.9307C16.2485 4.45775 17.2385 5.22619 18.0127 6.18412C18.7869 7.14205 19.3148 8.25187 19.5647 9.42449H21.2193ZM22.8821 9.42449C22.9602 9.94228 23 10.4671 23 10.9951H18.0875C18.0875 9.60151 17.604 8.24724 16.7127 7.14445C15.8218 6.04216 14.5739 5.25336 13.1641 4.90146L13.1622 4.90099L14.4018 0.35634L14.4043 0.356971C14.9379 0.490118 15.4582 0.659115 15.9617 0.861768C17.7811 1.59397 19.3818 2.76551 20.6 4.27284C21.8182 5.78017 22.6001 7.55663 22.8821 9.42449Z" fill="url(#paint1_linear_2641_4929)"/>
<path fill-rule="evenodd" clip-rule="evenodd" d="M21.3572 3.14187L16.4286 7.85383L15.2669 6.74321L20.1955 2.03125L21.3572 3.14187Z" fill="url(#paint2_linear_2641_4929)"/>
<defs>
<linearGradient id="paint0_linear_2641_4929" x1="17.9672" y1="-2.91175" x2="14.9235" y2="15.2424" gradientUnits="userSpaceOnUse">
<stop stop-color="#1AE3D7"/>
<stop offset="1" stop-color="#0945DF"/>
</linearGradient>
<linearGradient id="paint1_linear_2641_4929" x1="17.9672" y1="-2.91175" x2="14.9235" y2="15.2424" gradientUnits="userSpaceOnUse">
<stop stop-color="#1AE3D7"/>
<stop offset="1" stop-color="#0945DF"/>
</linearGradient>
<linearGradient id="paint2_linear_2641_4929" x1="20.2696" y1="0.159706" x2="13.9987" y2="13.2781" gradientUnits="userSpaceOnUse">
<stop stop-color="#FFC700"/>
<stop offset="1" stop-color="#DF0909"/>
</linearGradient>
</defs>
</svg>
