<svg width="23" height="23" viewBox="0 0 23 23" fill="none" xmlns="http://www.w3.org/2000/svg">
<path d="M15.6695 0.782963C13.9857 0.127897 12.1712 -0.121209 10.3731 0.0558358L10.8238 4.6332C11.0463 4.61156 11.2719 4.60049 11.5 4.60049C13.5413 4.60049 15.3756 5.48694 16.6389 6.89591L20.0648 3.82623C18.8591 2.48062 17.3533 1.43803 15.6695 0.782963Z" fill="url(#paint0_linear_2641_4884)"/>
<path d="M6.92127 6.33848L3.86887 2.89726C1.75206 4.7749 0.401788 7.36703 0.0763454 10.1778C-0.249097 12.9886 0.47314 15.8207 2.1049 18.1323L5.86247 15.4799C5.06725 14.3554 4.6 12.9825 4.6 11.5005C4.6 9.44669 5.49731 7.60248 6.92127 6.33848Z" fill="url(#paint1_linear_2641_4884)"/>
<path d="M6.56732 16.3253L3.27887 19.5418C4.47017 20.7597 5.9172 21.6978 7.51537 22.2881C9.11353 22.8784 10.8229 23.1063 12.5199 22.9552C14.2169 22.8041 15.8591 22.2778 17.3278 21.4145C18.7966 20.5511 20.0551 19.3722 21.0125 17.9629L17.208 15.3783C15.9664 17.2025 13.8731 18.4005 11.5 18.4005C9.56718 18.4005 7.81997 17.6058 6.56732 16.3253Z" fill="url(#paint2_linear_2641_4884)"/>
<path fill-rule="evenodd" clip-rule="evenodd" d="M8.40692 0.424316L9.64369 4.8531C9.00715 5.03049 8.40769 5.29684 7.85956 5.63793L5.43341 1.73089C6.35778 1.15689 7.35893 0.716976 8.40692 0.424316ZM21.9464 16.3092L17.7693 14.3864C18.1742 13.5084 18.4 12.5308 18.4 11.5005C18.4 10.198 18.0391 8.97975 17.4118 7.94037L21.3516 5.56781C22.3189 7.17406 22.8787 8.99248 22.9824 10.8646C23.0861 12.7368 22.7304 14.6059 21.9464 16.3092Z" fill="url(#paint3_linear_2641_4884)"/>
<defs>
<linearGradient id="paint0_linear_2641_4884" x1="16.4146" y1="-6.08873" x2="3.36166" y2="27.9283" gradientUnits="userSpaceOnUse">
<stop stop-color="#1AE3D7"/>
<stop offset="1" stop-color="#0945DF"/>
</linearGradient>
<linearGradient id="paint1_linear_2641_4884" x1="16.4146" y1="-6.08873" x2="3.36166" y2="27.9283" gradientUnits="userSpaceOnUse">
<stop stop-color="#1AE3D7"/>
<stop offset="1" stop-color="#0945DF"/>
</linearGradient>
<linearGradient id="paint2_linear_2641_4884" x1="16.4146" y1="-6.08873" x2="3.36166" y2="27.9283" gradientUnits="userSpaceOnUse">
<stop stop-color="#1AE3D7"/>
<stop offset="1" stop-color="#0945DF"/>
</linearGradient>
<linearGradient id="paint3_linear_2641_4884" x1="19.8631" y1="-4.68154" x2="3.35814" y2="31.8231" gradientUnits="userSpaceOnUse">
<stop stop-color="#FFC700"/>
<stop offset="1" stop-color="#DF0909"/>
</linearGradient>
</defs>
</svg>
