<svg width="28" height="28" viewBox="0 0 28 28" fill="none" xmlns="http://www.w3.org/2000/svg">
<path d="M28 7.82861V25C27.9991 25.7954 27.6828 26.5579 27.1204 27.1204C26.5579 27.6828 25.7954 27.9991 25 28H23V18C23 17.2044 22.6839 16.4413 22.1213 15.8787C21.5587 15.3161 20.7956 15 20 15H8C7.20435 15 6.44129 15.3161 5.87868 15.8787C5.31607 16.4413 5 17.2044 5 18V28H3C2.20462 27.9991 1.44206 27.6828 0.879644 27.1204C0.317225 26.5579 0.000873479 25.7954 0 25V3.00001C0.000873479 2.20463 0.317225 1.44208 0.879644 0.879656C1.44206 0.317236 2.20462 0.000885177 3 1.16979e-05H8V5.00001C8 5.79566 8.31607 6.55872 8.87868 7.12133C9.44129 7.68394 10.2044 8.00001 11 8.00001H17C17.7956 8.00001 18.5587 7.68394 19.1213 7.12133C19.6839 6.55872 20 5.79566 20 5.00001V1.16979e-05H20.1714C20.5656 -0.00109276 20.9561 0.0760211 21.3203 0.226887C21.6844 0.377753 22.0151 0.599373 22.293 0.878912L27.1211 5.70701C27.4006 5.98494 27.6223 6.31557 27.7731 6.67975C27.924 7.04393 28.0011 7.43442 28 7.82861Z" fill="url(#paint0_linear_2710_3170)"/>
<path fill-rule="evenodd" clip-rule="evenodd" d="M10 0V5C10 5.26522 10.1054 5.51957 10.2929 5.70711C10.4804 5.89464 10.7348 6 11 6H17C17.2652 6 17.5196 5.89464 17.7071 5.70711C17.8946 5.51957 18 5.26522 18 5V0H10ZM21 28V18C21 17.7348 20.8946 17.4804 20.7071 17.2929C20.5196 17.1054 20.2652 17 20 17H8C7.73478 17 7.48043 17.1054 7.29289 17.2929C7.10536 17.4804 7 17.7348 7 18V28H21ZM9 20.8352H19C19 20.8352 19.5196 20.9406 19.7071 21.1281C19.8946 21.3156 20 21.57 20 21.8352C20 22.1004 19.8946 22.3548 19.7071 22.5423C19.5196 22.7298 19.2652 22.8352 19 22.8352H9C8.73478 22.8352 8.48043 22.7298 8.29289 22.5423C8.10536 22.3548 8 22.1004 8 21.8352C8 21.57 8.08154 21.3394 8.29289 21.1281C8.50424 20.9167 8.73501 20.8352 9 20.8352ZM9 23.8352H19C19.2652 23.8352 19.5196 23.9406 19.7071 24.1281C19.8946 24.3156 20 24.57 20 24.8352C20 25.1004 19.8946 25.3548 19.7071 25.5423C19.5196 25.7298 19.2652 25.8352 19 25.8352H9C8.73478 25.8352 8.48043 25.7298 8.29289 25.5423C8.10536 25.3548 8 25.1004 8 24.8352C8 24.57 8.10536 24.3156 8.29289 24.1281C8.48043 23.9406 8.73478 23.8352 9 23.8352Z" fill="url(#paint1_linear_2710_3170)"/>
<defs>
<linearGradient id="paint0_linear_2710_3170" x1="21.8732" y1="-7.41297" x2="7.04096" y2="34.897" gradientUnits="userSpaceOnUse">
<stop stop-color="#1AE3D7"/>
<stop offset="1" stop-color="#0945DF"/>
</linearGradient>
<linearGradient id="paint1_linear_2710_3170" x1="18.5" y1="-9" x2="-20.25" y2="29.75" gradientUnits="userSpaceOnUse">
<stop stop-color="#FFC700"/>
<stop offset="1" stop-color="#DF0909"/>
</linearGradient>
</defs>
</svg>
