<svg width="29" height="22" viewBox="0 0 29 22" fill="none" xmlns="http://www.w3.org/2000/svg">
<path fill-rule="evenodd" clip-rule="evenodd" d="M20.5 1.00049L24.2923 11.1945L26.3617 9.1182L28.6033 11.3673L27.1867 12.7792L26.3617 11.9514L23.8311 14.4904L20.5 5.12927L16.743 14.2783L14.3728 12.6929L10.8623 17.9762L7.15201 9.78622L5.79005 12.5193L4 11.6272L7.23804 5.12949L11.1944 13.8626L13.8172 9.91512L16.047 11.4066L20.5 1.00049Z" fill="url(#paint0_linear_2641_4871)"/>
<path d="M0 22.0005L-8.74225e-08 0.000488281L2 0.000488194L2 20.0005L29 20.0005L29 22.0005L0 22.0005Z" fill="url(#paint1_linear_2641_4871)"/>
<defs>
<linearGradient id="paint0_linear_2641_4871" x1="24.2099" y1="-4.456" x2="9.72412" y2="37.533" gradientUnits="userSpaceOnUse">
<stop stop-color="#FFC700"/>
<stop offset="1" stop-color="#DF0909"/>
</linearGradient>
<linearGradient id="paint1_linear_2641_4871" x1="-7.67771" y1="4.81443" x2="32.87" y2="23.5517" gradientUnits="userSpaceOnUse">
<stop stop-color="#1AE3D7"/>
<stop offset="1" stop-color="#0945DF"/>
</linearGradient>
</defs>
</svg>
