<svg width="30" height="22" viewBox="0 0 30 22" fill="none" xmlns="http://www.w3.org/2000/svg">
<path fill-rule="evenodd" clip-rule="evenodd" d="M6 0H0V6H6V0ZM6 7.99986H0V9.99986H6V7.99986ZM0 12H6V14H0V12ZM6 16.0002H0V18.0002H6V16.0002ZM0 19.9999H6V21.9999H0V19.9999ZM14.0001 0H8.00012V6H14.0001V0ZM8.00012 7.99986H14.0001V9.99986H8.00012V7.99986ZM14.0001 12H8.00012V14H14.0001V12ZM8.00012 16.0002H14.0001V18.0002H8.00012V16.0002ZM14.0001 19.9999H8.00012V21.9999H14.0001V19.9999ZM16 0H22V6H16V0ZM30.0001 0H24.0001V6H30.0001V0ZM16 7.99986H22V9.99986H16V7.99986ZM30.0001 7.99986H24.0001V9.99986H30.0001V7.99986ZM16 12H22V14H16V12ZM30.0001 12H24.0001V14H30.0001V12ZM16 16.0002H22V18.0002H16V16.0002ZM30.0001 16.0002H24.0001V18.0002H30.0001V16.0002ZM16 19.9999H22V21.9999H16V19.9999ZM30.0001 19.9999H24.0001V21.9999H30.0001V19.9999Z" fill="black"/>
</svg>
