<svg width="27" height="28" viewBox="0 0 27 28" fill="none" xmlns="http://www.w3.org/2000/svg">
<path d="M22.5007 2.75353C24.986 2.75353 27.0007 2.13713 27.0007 1.37676C27.0007 0.616398 24.986 0 22.5007 0C20.0154 0 18.0007 0.616398 18.0007 1.37676C18.0007 2.13713 20.0154 2.75353 22.5007 2.75353Z" fill="url(#paint0_linear_2833_2868)"/>
<path d="M22.5006 3.62027C20.8745 3.62027 19.0801 3.37807 18.0007 2.75342V4.47436C18.0007 5.23924 20.0193 5.85115 22.5006 5.85115C24.982 5.85115 27.0006 5.23924 27.0006 4.47436V2.75342C25.9212 3.37809 24.1268 3.62027 22.5006 3.62027ZM25.0521 4.90782C24.8137 4.90782 24.6315 4.72935 24.6315 4.51263C24.6315 4.29591 24.8277 4.11746 25.0521 4.11746C25.2904 4.11746 25.4866 4.29591 25.4866 4.51263C25.4866 4.72935 25.2904 4.90782 25.0521 4.90782Z" fill="url(#paint1_linear_2833_2868)"/>
<path d="M18.0007 5.85107V7.57202C18.0007 8.33692 20.0193 8.96155 22.5006 8.96155C24.982 8.96155 27.0006 8.33692 27.0006 7.57202V5.85107C25.9352 6.47573 24.1268 6.71793 22.5006 6.71793C20.8745 6.71793 19.0801 6.46296 18.0007 5.85107ZM25.0521 7.22784C25.2904 7.22784 25.4866 7.40631 25.4866 7.62303C25.4866 7.83973 25.2904 8.0182 25.0521 8.0182C24.8137 8.0182 24.6315 7.83973 24.6315 7.62303C24.6315 7.39355 24.8277 7.22784 25.0521 7.22784Z" fill="url(#paint2_linear_2833_2868)"/>
<path d="M4.50067 2.75353C6.98595 2.75353 9.00067 2.13713 9.00067 1.37676C9.00067 0.616398 6.98595 0 4.50067 0C2.01539 0 0.000671387 0.616398 0.000671387 1.37676C0.000671387 2.13713 2.01539 2.75353 4.50067 2.75353Z" fill="url(#paint3_linear_2833_2868)"/>
<path d="M4.50065 3.62027C2.87448 3.62027 1.08009 3.37807 0.000671387 2.75342V4.47436C0.000671387 5.23924 2.01934 5.85115 4.50065 5.85115C6.98195 5.85115 9.00065 5.23924 9.00065 4.47436V2.75342C7.92118 3.37809 6.12682 3.62027 4.50065 3.62027ZM7.05206 4.90782C6.81371 4.90782 6.63149 4.72935 6.63149 4.51263C6.63149 4.29591 6.82775 4.11746 7.05206 4.11746C7.29036 4.11746 7.48662 4.29591 7.48662 4.51263C7.48662 4.72935 7.29036 4.90782 7.05206 4.90782Z" fill="url(#paint4_linear_2833_2868)"/>
<path d="M0.000671387 5.85107V7.57202C0.000671387 8.33692 2.01934 8.96155 4.50065 8.96155C6.98195 8.96155 9.00065 8.33692 9.00065 7.57202V5.85107C7.93522 6.47573 6.12682 6.71793 4.50065 6.71793C2.87448 6.71793 1.08011 6.46296 0.000671387 5.85107ZM7.05206 7.22784C7.29036 7.22784 7.48662 7.40631 7.48662 7.62303C7.48662 7.83973 7.29036 8.0182 7.05206 8.0182C6.81371 8.0182 6.63149 7.83973 6.63149 7.62303C6.63149 7.39355 6.82775 7.22784 7.05206 7.22784Z" fill="url(#paint5_linear_2833_2868)"/>
<path d="M6.38709 18.2048L5.16473 10.8047L12.2647 13.461L10.4723 14.9111L13.5632 18.9102L13.9306 18.4482L16.2898 20.3318L15.0007 21.8109V28H12.0007V21.8109L8.10996 16.8172L6.38709 18.2048Z" fill="url(#paint6_linear_2833_2868)"/>
<path d="M20.6787 18.4436L18.9559 17.0786L18.1356 18.0981L15.7645 16.188L16.5932 15.1436L14.8008 13.6997L21.9012 11.0435L20.6787 18.4436Z" fill="url(#paint7_linear_2833_2868)"/>
<path d="M16.7449 19.8442L14.3699 17.9263L15.3309 16.7388L17.6942 18.6489L16.7449 19.8442Z" fill="url(#paint8_linear_2833_2868)"/>
<defs>
<linearGradient id="paint0_linear_2833_2868" x1="25.3935" y1="-0.885063" x2="24.2543" y2="6.56204" gradientUnits="userSpaceOnUse">
<stop stop-color="#FFC700"/>
<stop offset="1" stop-color="#DF0909"/>
</linearGradient>
<linearGradient id="paint1_linear_2833_2868" x1="25.0313" y1="1.9333" x2="24.4062" y2="7.114" gradientUnits="userSpaceOnUse">
<stop stop-color="#1AE3D7"/>
<stop offset="1" stop-color="#0945DF"/>
</linearGradient>
<linearGradient id="paint2_linear_2833_2868" x1="25.3935" y1="4.85128" x2="23.9489" y2="13.211" gradientUnits="userSpaceOnUse">
<stop stop-color="#FFC700"/>
<stop offset="1" stop-color="#DF0909"/>
</linearGradient>
<linearGradient id="paint3_linear_2833_2868" x1="7.03133" y1="-0.728993" x2="6.53593" y2="3.88997" gradientUnits="userSpaceOnUse">
<stop stop-color="#1AE3D7"/>
<stop offset="1" stop-color="#0945DF"/>
</linearGradient>
<linearGradient id="paint4_linear_2833_2868" x1="7.39351" y1="1.75772" x2="5.96038" y2="10.0852" gradientUnits="userSpaceOnUse">
<stop stop-color="#FFC700"/>
<stop offset="1" stop-color="#DF0909"/>
</linearGradient>
<linearGradient id="paint5_linear_2833_2868" x1="7.03131" y1="5.02758" x2="6.40113" y2="10.229" gradientUnits="userSpaceOnUse">
<stop stop-color="#1AE3D7"/>
<stop offset="1" stop-color="#0945DF"/>
</linearGradient>
<linearGradient id="paint6_linear_2833_2868" x1="13.8555" y1="6.25225" x2="1.63447" y2="28.8069" gradientUnits="userSpaceOnUse">
<stop stop-color="#1AE3D7"/>
<stop offset="1" stop-color="#0945DF"/>
</linearGradient>
<linearGradient id="paint7_linear_2833_2868" x1="20.5563" y1="8.21463" x2="9.9459" y2="26.3745" gradientUnits="userSpaceOnUse">
<stop stop-color="#FFC700"/>
<stop offset="1" stop-color="#DF0909"/>
</linearGradient>
<linearGradient id="paint8_linear_2833_2868" x1="20.5563" y1="8.21463" x2="9.9459" y2="26.3745" gradientUnits="userSpaceOnUse">
<stop stop-color="#FFC700"/>
<stop offset="1" stop-color="#DF0909"/>
</linearGradient>
</defs>
</svg>
