<svg width="28" height="28" viewBox="0 0 28 28" fill="none" xmlns="http://www.w3.org/2000/svg">
<path fill-rule="evenodd" clip-rule="evenodd" d="M26.6568 4.28795C26.6568 5.45346 25.352 6.47357 22.7421 7.34825C20.1323 8.16665 16.9945 8.57589 13.3288 8.57589C9.60718 8.57589 6.46939 8.16665 3.91543 7.34825C1.30561 6.47357 0.000732422 5.45346 0.000732422 4.28795C0.000732422 3.1201 1.30561 2.09881 3.91543 1.22412C6.46939 0.408041 9.60718 0 13.3288 0C16.9945 0 20.1323 0.408041 22.7421 1.22412C25.352 2.09881 26.6568 3.1201 26.6568 4.28795ZM18.7705 11.4533L16.4967 11.8754C16.4878 11.8754 16.4788 11.8766 16.4699 11.8789C16.1373 11.9446 15.8404 12.1158 15.5792 12.3925C15.5189 12.4535 15.4675 12.5214 15.4251 12.5965C15.2175 12.9623 15.1483 13.3633 15.2175 13.7995L15.2141 13.796L15.3246 14.489C15.3715 14.7657 15.4296 14.9768 15.4988 15.1221C15.5903 15.3168 15.7376 15.4915 15.9408 15.6463L15.9006 15.8573C15.885 15.9488 15.8805 16.0414 15.8872 16.1352L16.043 18.2071C15.1728 18.261 14.2681 18.288 13.3288 18.288C9.60718 18.288 6.46939 17.8799 3.91543 17.0638C1.30561 16.1868 0.000732422 15.1655 0.000732422 14V8.66383C2.99901 10.4719 7.44167 11.3759 13.3288 11.3759C15.3332 11.3759 17.1733 11.2692 18.8492 11.0558C18.809 11.1786 18.7827 11.311 18.7705 11.4533ZM13.3288 21.088C14.3469 21.088 15.3219 21.061 16.2539 21.0071L16.6608 26.4313C16.7111 27.0055 16.9288 27.4687 17.3138 27.8207C16.0628 27.9402 14.7345 28.0001 13.3288 28.0001C9.60718 28.0001 6.46939 27.5921 3.91543 26.776C1.30561 25.9012 0.000732422 24.88 0.000732422 23.7122V18.376C2.99901 20.1839 7.44167 21.088 13.3288 21.088Z" fill="url(#paint0_linear_2840_2894)"/>
<path fill-rule="evenodd" clip-rule="evenodd" d="M26.9321 11.9389C26.9388 11.958 26.9478 11.9795 26.9591 12.0033C26.9388 11.9866 26.9174 11.9711 26.8949 11.9568C26.8454 11.9186 26.8578 11.9126 26.9321 11.9389Z" fill="#00FF00"/>
<path fill-rule="evenodd" clip-rule="evenodd" d="M25.4681 17.5598C25.4681 17.3793 25.3966 17.289 25.2537 17.289C25.0841 17.289 24.9992 17.364 24.9992 17.5141L24.229 25.9563C24.229 26.1064 24.3004 26.2107 24.4434 26.2693H24.4869C24.6007 26.2693 24.6856 26.1802 24.7414 26.002L25.4681 17.5598ZM22.4776 17.5598C22.4776 17.3793 22.3917 17.289 22.2198 17.289C22.0769 17.289 22.0055 17.3792 22.0055 17.5598V26.0021C22.0055 26.1803 22.0769 26.2694 22.2198 26.2694C22.3916 26.2694 22.4776 26.1803 22.4776 26.0021V17.5598ZM25.083 14.0106C25.1968 13.952 25.2973 13.9672 25.3844 14.0563L26.5799 15.2699H24.7414L24.6577 14.4151L25.083 14.0106ZM20.5956 14.999C20.5398 14.849 20.6112 14.7446 20.8099 14.686L23.8875 14.2357C24.0593 14.1771 24.1453 14.2521 24.1453 14.4608L24.2726 15.2699H20.6392L20.5956 14.999ZM19.2293 17.289C19.0865 17.289 19.015 17.3792 19.015 17.5598L19.7417 26.0021C19.7975 26.1803 19.8823 26.2694 19.9962 26.2694H20.0397C20.1826 26.2108 20.2541 26.1065 20.2541 25.9564L19.4838 17.5142C19.4838 17.364 19.399 17.289 19.2293 17.289ZM17.0058 16.0789C17.0013 15.9922 17.0326 15.9148 17.0995 15.8468C17.1553 15.7905 17.2089 15.7623 17.2603 15.7623H27.2228C27.3099 15.7623 27.3757 15.7928 27.4204 15.8538C27.4606 15.9101 27.4795 15.9851 27.4773 16.0789L26.7071 26.3608C26.6803 26.6586 26.5665 26.8978 26.3655 27.0784C26.1378 27.2871 25.8822 27.3914 25.5987 27.3914H18.8878C18.602 27.3914 18.3453 27.2871 18.1175 27.0784C17.9166 26.8978 17.8028 26.6586 17.776 26.3608L17.0058 16.0789ZM20.3813 11.9L20.4248 12.2623L23.5024 11.6784L23.4588 11.3161C23.403 11.1684 23.3182 11.0945 23.2043 11.0945H23.1608L20.5956 11.587C20.3969 11.587 20.3255 11.6913 20.3813 11.9ZM23.0737 10.5985C23.2746 10.568 23.46 10.6138 23.6296 10.7357C23.8015 10.8553 23.902 11.0195 23.931 11.2282L24.0147 11.587L27.1358 11.003H27.263C27.3769 11.003 27.4919 11.0476 27.6079 11.1367C27.7486 11.2282 27.8334 11.363 27.8624 11.5412L27.9897 12.3503C28.0478 12.7701 27.8769 13.0093 27.4773 13.0679L17.133 14.999H17.0493C16.9064 14.999 16.7926 14.9545 16.7077 14.8654C16.5359 14.7458 16.4499 14.6109 16.4499 14.4608L16.3226 13.6518C16.2936 13.4736 16.3215 13.3094 16.4063 13.1593C16.5202 13.0397 16.6486 12.9647 16.7914 12.9342L19.956 12.3503L19.9125 11.9915C19.8276 11.4826 20.0275 11.1684 20.5119 11.0488L23.0737 10.5985Z" fill="url(#paint1_linear_2840_2894)"/>
<defs>
<linearGradient id="paint0_linear_2840_2894" x1="20.8241" y1="-7.41299" x2="5.41828" y2="34.4237" gradientUnits="userSpaceOnUse">
<stop stop-color="#1AE3D7"/>
<stop offset="1" stop-color="#0945DF"/>
</linearGradient>
<linearGradient id="paint1_linear_2840_2894" x1="25.9134" y1="5.18869" x2="3.87379" y2="35.8546" gradientUnits="userSpaceOnUse">
<stop stop-color="#FFC700"/>
<stop offset="1" stop-color="#DF0909"/>
</linearGradient>
</defs>
</svg>
