<svg width="11" height="7" viewBox="0 0 11 7" fill="none" xmlns="http://www.w3.org/2000/svg">
<rect x="0.5" y="2" width="2" height="10" transform="rotate(-90 0.5 2)" fill="url(#paint0_linear_6181_18014)"/>
<rect x="5.5" y="1" width="5" height="6" fill="url(#paint1_linear_6181_18014)"/>
<path fill-rule="evenodd" clip-rule="evenodd" d="M2.196 4.24746V2.45044H2.12926L0.831055 2.71525V2.99484L1.57596 2.85936V4.24746H2.196ZM5.02097 3.52693V3.21655C5.02097 3.10898 5.00446 3.01373 4.97145 2.9308C4.93844 2.84704 4.89108 2.77519 4.82936 2.71525C4.76764 2.65449 4.69301 2.60481 4.60546 2.56622C4.51791 2.52762 4.41959 2.4993 4.31051 2.48123C4.20286 2.46235 4.08589 2.4529 3.95959 2.4529C3.80171 2.4529 3.65818 2.46768 3.52901 2.49724C3.39983 2.52598 3.28788 2.57114 3.19315 2.63273C3.09986 2.69431 3.02738 2.77355 2.97571 2.87044C2.92548 2.96651 2.90036 3.08188 2.90036 3.21655V3.52693C2.90036 3.63532 2.91686 3.73139 2.94987 3.81514C2.98289 3.8989 3.03025 3.97116 3.09197 4.03192C3.15512 4.09186 3.22975 4.14154 3.31587 4.18095C3.40342 4.22037 3.50174 4.24952 3.61082 4.2684C3.7199 4.28647 3.83759 4.2955 3.96389 4.2955C4.12177 4.2955 4.2653 4.28072 4.39447 4.25116C4.52365 4.2216 4.63488 4.17603 4.72817 4.11444C4.8229 4.05204 4.89538 3.97239 4.94562 3.8755C4.99585 3.77778 5.02097 3.66159 5.02097 3.52693ZM4.39878 3.16851V3.57373C4.39878 3.65503 4.38945 3.724 4.37079 3.78066C4.35213 3.83731 4.32343 3.8833 4.28468 3.91861C4.24736 3.95309 4.20143 3.97855 4.14689 3.99497C4.09378 4.01057 4.03279 4.01837 3.96389 4.01837C3.90792 4.01837 3.85625 4.01345 3.80888 4.00359C3.76295 3.99374 3.72205 3.97814 3.68617 3.95679C3.65172 3.93462 3.62158 3.90629 3.59575 3.8718C3.57135 3.83649 3.55269 3.79421 3.53977 3.74494C3.52829 3.69567 3.52255 3.6386 3.52255 3.57373V3.16851C3.52255 3.08804 3.53188 3.01989 3.55053 2.96405C3.57063 2.90739 3.59933 2.86223 3.63665 2.82857C3.67397 2.79408 3.71918 2.76903 3.77228 2.75343C3.82682 2.73783 3.88926 2.73003 3.95959 2.73003C4.01556 2.73003 4.06651 2.73496 4.11244 2.74481C4.15837 2.75467 4.19928 2.77027 4.23516 2.79162C4.27104 2.81296 4.30118 2.84088 4.32558 2.87537C4.34998 2.90904 4.36792 2.95009 4.3794 2.99854C4.39232 3.04698 4.39878 3.10364 4.39878 3.16851ZM2.98182 6.08002V5.76617C2.98182 5.65741 2.96531 5.5611 2.9323 5.47724C2.89929 5.39255 2.85193 5.3199 2.79021 5.25929C2.7285 5.19785 2.65386 5.14762 2.56631 5.1086C2.47876 5.06957 2.38044 5.04093 2.27136 5.02266C2.16372 5.00357 2.04674 4.99402 1.92044 4.99402C1.76256 4.99402 1.61903 5.00896 1.48986 5.03885C1.36068 5.06791 1.24873 5.11358 1.15401 5.17585C1.06071 5.23812 0.988232 5.31824 0.936562 5.41621C0.886328 5.51335 0.86121 5.63001 0.86121 5.76617V6.08002C0.86121 6.18961 0.877716 6.28676 0.910727 6.37144C0.943738 6.45613 0.991102 6.5292 1.05282 6.59064C1.11597 6.65125 1.1906 6.70148 1.27672 6.74133C1.36427 6.78118 1.46259 6.81066 1.57167 6.82976C1.68075 6.84802 1.79844 6.85715 1.92474 6.85715C2.08262 6.85715 2.22615 6.84221 2.35533 6.81232C2.4845 6.78243 2.59573 6.73635 2.68903 6.67408C2.78375 6.61098 2.85623 6.53044 2.90647 6.43247C2.9567 6.33367 2.98182 6.21618 2.98182 6.08002ZM2.35963 5.7176V6.12734C2.35963 6.20954 2.3503 6.27928 2.33164 6.33657C2.31298 6.39386 2.28428 6.44036 2.24553 6.47606C2.20821 6.51093 2.16228 6.53667 2.10774 6.55327C2.05464 6.56905 1.99364 6.57694 1.92474 6.57694C1.86877 6.57694 1.8171 6.57196 1.76974 6.56199C1.72381 6.55203 1.6829 6.53625 1.64702 6.51467C1.61257 6.49225 1.58243 6.4636 1.5566 6.42873C1.5322 6.39303 1.51354 6.35027 1.50062 6.30046C1.48914 6.25064 1.4834 6.19293 1.4834 6.12734V5.7176C1.4834 5.63624 1.49273 5.56732 1.51139 5.51086C1.53148 5.45357 1.56019 5.40791 1.5975 5.37387C1.63482 5.339 1.68003 5.31367 1.73314 5.2979C1.78768 5.28212 1.85011 5.27424 1.92044 5.27424C1.97641 5.27424 2.02737 5.27922 2.0733 5.28918C2.11922 5.29914 2.16013 5.31492 2.19601 5.33651C2.23189 5.35809 2.26203 5.38632 2.28643 5.42119C2.31083 5.45524 2.32877 5.49675 2.34026 5.54574C2.35317 5.59472 2.35963 5.65201 2.35963 5.7176ZM4.98986 6.83225V5.01519H4.92312L3.62492 5.28295V5.56566L4.36983 5.42867V6.83225H4.98986Z" fill="white"/>
<defs>
<linearGradient id="paint0_linear_6181_18014" x1="2.14286" y1="-1.21429" x2="-7.40148" y2="2.60345" gradientUnits="userSpaceOnUse">
<stop stop-color="#FFC700"/>
<stop offset="1" stop-color="#DF0909"/>
</linearGradient>
<linearGradient id="paint1_linear_6181_18014" x1="9.40592" y1="-0.588492" x2="5.76715" y2="8.06138" gradientUnits="userSpaceOnUse">
<stop stop-color="#1AE3D7"/>
<stop offset="1" stop-color="#0945DF"/>
</linearGradient>
</defs>
</svg>
