<svg width="10" height="7" viewBox="0 0 10 7" fill="none" xmlns="http://www.w3.org/2000/svg">
<rect y="1" width="0.999999" height="10" transform="rotate(-90 0 1)" fill="url(#paint0_linear_6058_17438)"/>
<path fill-rule="evenodd" clip-rule="evenodd" d="M10 1.00001L10 7.00001L5.5 7V1.00001L6.5 1.00001V2.00001L7.5 2V1L8.5 1.00001V2L9.5 2.00001V1.00001L10 1.00001Z" fill="url(#paint1_linear_6058_17438)"/>
<path d="M8 6.5V2.5H7.90221L6 3.08944V3.71179L7.09148 3.41021V6.5H8Z" fill="white"/>
<path d="M0 4H1V5H0V4Z" fill="white"/>
<path d="M0 6.00004H1V7H0V6.00004Z" fill="white"/>
<path d="M2 6.00004H3V7H2L2 6.00004Z" fill="white"/>
<path d="M2 4H3V5H2V4Z" fill="white"/>
<path d="M4 4H5V5H4L4 4Z" fill="white"/>
<path d="M0 2H1V3H0V2Z" fill="white"/>
<path d="M2 2H3V3H2V2Z" fill="white"/>
<path d="M4 2H5V3H4L4 2Z" fill="white"/>
<defs>
<linearGradient id="paint0_linear_6058_17438" x1="0.821428" y1="-2.21429" x2="-4.50137" y2="-1.14973" gradientUnits="userSpaceOnUse">
<stop stop-color="#FFC700"/>
<stop offset="1" stop-color="#DF0909"/>
</linearGradient>
<linearGradient id="paint1_linear_6058_17438" x1="9.01533" y1="-0.588494" x2="5.10998" y2="7.76671" gradientUnits="userSpaceOnUse">
<stop stop-color="#1AE3D7"/>
<stop offset="1" stop-color="#0945DF"/>
</linearGradient>
</defs>
</svg>
