<svg width="10" height="7" viewBox="0 0 10 7" fill="none" xmlns="http://www.w3.org/2000/svg">
<rect y="2" width="2" height="10" transform="rotate(-90 0 2)" fill="url(#paint0_linear_6058_17401)"/>
<rect x="5" y="1" width="5" height="6" fill="url(#paint1_linear_6058_17401)"/>
<path d="M1.725 2.5907V6.99997H1.02981V3.45384L0 3.81902V3.21844L1.64135 2.5907H1.725Z" fill="white"/>
<path d="M4.66667 6.58614V7.00003H2.72244V6.64434L3.66667 5.52984C3.77025 5.40338 3.85193 5.29415 3.91169 5.20218C3.97145 5.1102 4.01328 5.02756 4.03718 4.95427C4.06242 4.87954 4.07503 4.80696 4.07503 4.73654C4.07503 4.63738 4.05777 4.55044 4.02324 4.4757C3.99004 4.39954 3.9409 4.3399 3.87583 4.29678C3.81076 4.25223 3.73174 4.22995 3.63878 4.22995C3.53121 4.22995 3.4409 4.2551 3.36786 4.3054C3.29482 4.3557 3.23971 4.4254 3.20252 4.51451C3.16534 4.60217 3.14675 4.70277 3.14675 4.81631H2.66667C2.66667 4.63379 2.70518 4.46708 2.7822 4.31618C2.85923 4.16385 2.97078 4.04313 3.11687 3.95402C3.26295 3.86348 3.43891 3.81822 3.64475 3.81822C3.83865 3.81822 4.00332 3.85342 4.13878 3.92384C4.27424 3.99426 4.37716 4.09415 4.44754 4.22349C4.51926 4.35283 4.55511 4.50588 4.55511 4.68265C4.55511 4.78038 4.5405 4.87738 4.51129 4.97367C4.48207 5.06996 4.44024 5.16625 4.38579 5.26254C4.33267 5.35739 4.26959 5.45296 4.19655 5.54925C4.12351 5.6441 4.04316 5.74038 3.95551 5.83811L3.32802 6.58614H4.66667Z" fill="white"/>
<defs>
<linearGradient id="paint0_linear_6058_17401" x1="1.64286" y1="-1.21429" x2="-7.90148" y2="2.60345" gradientUnits="userSpaceOnUse">
<stop stop-color="#FFC700"/>
<stop offset="1" stop-color="#DF0909"/>
</linearGradient>
<linearGradient id="paint1_linear_6058_17401" x1="8.90592" y1="-0.588492" x2="5.26715" y2="8.06138" gradientUnits="userSpaceOnUse">
<stop stop-color="#1AE3D7"/>
<stop offset="1" stop-color="#0945DF"/>
</linearGradient>
</defs>
</svg>
